<?xml version="1.0" encoding="utf-8"?>
<!DOCTYPE svg PUBLIC "-//W3C//DTD SVG 1.1//EN" "http://www.w3.org/Graphics/SVG/1.1/DTD/svg11.dtd">
<svg version="1.1" id="Layer_1" xmlns="http://www.w3.org/2000/svg" xmlns:xlink="http://www.w3.org/1999/xlink" x="0px" y="0px"
	 width="80px" height="80px" viewBox="-11.792 -12.125 80 80" enable-background="new -11.792 -12.125 80 80" xml:space="preserve">
<g>
	<g>
		<path fill="#FFFFFF" d="M18.916,57.841h-5.419l-3.147-5.971l2.745-1.673l6.288,4.018l-0.742,1.338l1.053,1.635L18.916,57.841z
			 M20.697,53.883l-7.591-4.852l-4.063,2.477l3.857,7.319h6.377l1.714-1.446l-1.203-1.865L20.697,53.883"/>
	</g>
	<g>
		<path fill="#FFFFFF" d="M42.612,64.402l-0.012-4.4l-7.327-7.972l-3.047,2.704l0.446,2.226l-3.988,3.29l-2.606-0.251l-7.682,6.568
			H-7.487l1.105-3.075l0.003-3.479l6.543-3.908l-5.552-7.926l12.63-9.077l-5.093-8.521l7.331-4.934l1.748-14.803l3.229-5.433
			L9.837-0.636l6.189,3.48l1.449-2.501l-0.708-7.756l4.914,8.67l-0.35,7.928l1.902,0.011l6.943-8.244l0.686,11.264l-0.794,0.788
			l5.775,4.297l-6.45-0.612l3.663,3.018l15.403,6.624l0.345,5.711l1.018,0.858l3.303-2.678l6.162,6.79l1.148,10.487l-4.779-8.391
			l-3.025,7.39l-0.818-7.365l-3.869,3.476l-1.115-0.651l-2.484,2.183l5.782,7.297l1.517,4.194l8.353,4.45l0.003,3.398l1.532,3.201
			H43.516L42.612,64.402z M60.987,63.255l-0.005-3.769l-8.54-4.554l-1.443-3.985l-5.298-6.686l1.244-1.096l1.123,0.658l2.977-2.677
			l1.036,9.312l3.72-9.1l6.14,10.772l-1.709-15.544l-7.004-7.721l-3.393,2.751l-0.07-0.059l-0.355-5.895l-15.835-6.809l-1.065-0.877
			l6.759,0.642l-7.689-5.724l0.297-0.292l-0.86-14.178l-8.238,9.777l-0.411-0.001l0.317-7.186l-7.313-12.899l1.092,12.002
			l-0.8,1.389L6.139-3.845l7.131,9.328l-2.997,5.038l-1.72,14.563l-7.728,5.201L5.93,38.83l-12.685,9.119l5.5,7.854l-6.112,3.653
			l-0.002,3.865l-1.523,4.234h27.654l7.639-6.531l2.598,0.249l4.755-3.93l-0.446-2.247l1.896-1.683l6.413,6.976l0.011,4.206
			l1.218,3.07h20.254L60.987,63.255"/>
	</g>
	<g>
		<polygon fill="#FFFFFF" points="36.682,32.536 37.004,34.866 40.753,33.244 		"/>
	</g>
	<g>
		<path fill="#FFFFFF" d="M39.739,40.226l-0.703-0.194l2.103-2.931l0.199,1.78L39.739,40.226z M37.411,40.604l2.568,0.713
			l2.398-2.023l-0.537-4.858L37.411,40.604"/>
	</g>
	<g>
		<polygon fill="#FFFFFF" points="33.995,34.926 35.122,32.271 32.133,31.754 		"/>
	</g>
	<g>
		<polygon fill="#EEE2C6" points="54.982,33.642 53.023,31.487 50.526,33.515 52.862,35.479 		"/>
	</g>
	<g>
		<polygon fill="#EEE2C6" points="59.495,64.389 43.564,64.394 44.127,65.728 60.132,65.728 		"/>
	</g>
	<g>
		<polygon fill="#EEE2C6" points="43.07,39.915 29.198,51.569 24.496,55.45 24.785,56.091 29.629,52.2 31.776,53.857 45.92,41.486 
					"/>
	</g>
	<g>
		<polygon fill="#EEE2C6" points="23.454,39.862 21.546,42.456 19.634,39.862 21.218,44.522 28.414,51 31.094,48.776 31.094,47.782 
			26.592,47.782 26.592,46.918 31.094,46.918 31.094,46.076 26.592,46.076 26.592,45.209 31.094,45.209 31.094,39.862 
			29.184,42.456 27.272,39.862 25.365,42.456 		"/>
	</g>
	<g>
		<polygon fill="#EEE2C6" points="-6.102,65.635 2.149,65.635 2.508,64.441 -5.672,64.441 		"/>
	</g>
	<g>
		<polygon fill="#EEE2C6" points="41.081,24.157 36.947,22.378 35.06,31.316 38.551,31.92 		"/>
	</g>
	<g>
		<path fill="#EEE2C6" d="M12.5,25.302c-0.23,0-0.416-0.186-0.416-0.416c0-0.23,0.186-0.415,0.416-0.415
			c0.229,0,0.416,0.185,0.416,0.415C12.916,25.117,12.731,25.302,12.5,25.302 M11.728,23.165c-0.23,0-0.416-0.188-0.416-0.416
			c0-0.229,0.186-0.418,0.416-0.418c0.23,0,0.415,0.188,0.415,0.418C12.142,22.976,11.958,23.165,11.728,23.165 M11.531,24.536
			c-0.23,0-0.417-0.186-0.417-0.417c0-0.229,0.187-0.414,0.417-0.414c0.228,0,0.417,0.185,0.417,0.414
			C11.948,24.35,11.759,24.536,11.531,24.536 M11.333,25.909c-0.229,0-0.415-0.186-0.415-0.414c0-0.232,0.186-0.417,0.415-0.417
			c0.23,0,0.417,0.186,0.417,0.417C11.75,25.723,11.564,25.909,11.333,25.909 M12.696,23.099c0.229,0,0.416,0.187,0.416,0.417
			c0,0.229-0.186,0.417-0.416,0.417c-0.23,0-0.417-0.187-0.417-0.417C12.279,23.286,12.466,23.099,12.696,23.099 M12.893,21.729
			c0.23,0,0.417,0.186,0.417,0.416c0,0.229-0.187,0.415-0.417,0.415c-0.229,0-0.415-0.186-0.415-0.415
			C12.478,21.913,12.664,21.729,12.893,21.729 M13.49,12.913l2.911,0.972l-0.452,1.044l-2.866-0.934L13.49,12.913 M17.005,4.708
			l-1.291,5.036l-1.692-0.001L17.005,4.708 M17.77,14.823l-0.707-2.354l2.943-2.689l-2.183-8.195l-5.691,9.551l-1.939,16.334
			l2.676-1.473L17.77,14.823"/>
	</g>
	<g>
		<path fill="#EEE2C6" d="M23.666,36.289c1.502,0,2.83-0.767,3.606-1.932c-0.543,0.425-1.288,0.639-2.247,0.639
			c-2.356,0-4.267-1.912-4.267-4.269c0-1.198,0.354-2.079,0.978-2.657c-1.425,0.711-2.405,2.183-2.405,3.882
			C19.329,34.346,21.27,36.289,23.666,36.289"/>
	</g>
	<g>
		<polygon fill="#EEE2C6" points="5.078,59.753 3.124,65.635 9.785,65.635 7.798,63.755 10.755,62.699 10.755,62.694 8.752,60.812 
			11.733,59.753 		"/>
	</g>
	<g>
		<polygon fill="#EEE2C6" points="19.625,59.753 16.322,59.753 14.421,65.635 18.064,65.635 23.421,61.06 21.498,58.161 		"/>
	</g>
	<g>
		<polygon fill="#EEE2C6" points="18.095,38.303 16.75,34.451 4.938,33.381 7.872,38.303 		"/>
	</g>
	<g>
		<polygon fill="#B45414" points="50.872,56.271 49.53,52.536 46.685,53.181 46.685,53.186 46.685,53.181 49.476,56.134 
			48.394,56.393 45.632,53.424 44.577,53.661 44.573,53.667 47.361,56.614 46.28,56.872 43.519,53.904 43.516,53.904 42.479,54.141 
			42.479,54.145 45.264,57.094 44.187,57.351 41.423,54.38 41.429,54.38 39.143,54.896 43.497,59.612 43.497,63.456 59.061,63.456 
			59.061,60.627 		"/>
	</g>
	<g>
		<polygon fill="#B45414" points="47.816,41.457 51.701,37.986 51.463,35.562 47.936,32.503 47.57,27.556 42.618,32.724 
			43.243,38.946 		"/>
	</g>
	<g>
		<polygon fill="#B45414" points="36.239,36.235 35.813,33.018 34.088,37.022 32.108,33.41 32.108,39.014 36.458,40.322 
			40.883,34.229 		"/>
	</g>
	<g>
		<polygon fill="#B45414" points="27.677,51.593 20.34,44.988 14.118,48.589 21.948,53.576 20.866,55.474 24.103,60.434 
			25.224,59.436 23.345,55.204 		"/>
	</g>
	<g>
		<polygon fill="#B45414" points="29.643,53.395 25.194,56.956 26.099,59.045 28.334,59.278 31.642,56.56 31.207,54.578 		"/>
	</g>
	<g>
		<polygon fill="#B45414" points="6.093,52.104 6.093,52.104 6.097,52.104 8.433,55.388 7.33,55.492 5.013,52.181 3.893,52.265 
			3.893,52.265 6.226,55.549 5.125,55.655 2.806,52.343 2.801,52.343 1.713,52.422 1.709,52.424 4.052,55.707 2.95,55.815 
			0.628,52.498 -1.171,52.631 1.51,56.372 -5.4,60.494 -5.4,63.495 2.831,63.489 4.409,58.827 11.85,58.827 8.217,51.95 		"/>
	</g>
	<g>
		<path fill="#B45414" d="M21.884,14.151c1.158,0,2.097,0.939,2.097,2.099s-0.939,2.1-2.097,2.1c-1.158,0-2.099-0.94-2.099-2.1
			S20.726,14.151,21.884,14.151 M28.663,6.627l0.197,3.633l-3.255-0.059L28.663,6.627 M16.827,26.755l-0.47-2.715l2.715,0.233
			l-0.54-2.203l2.256,0.306l-0.552-1.888l1.997,0.29l4.756,1.083l-2.562-3.63l5.909,0.452l-3.936-3.242l6.186,0.598l-3.931-2.941
			l1.248-1.273L29.399,3.35l-5.724,6.795l-2.612-0.091l-2.81,2.691l0.609,2.136l-4.986,11.485L16.827,26.755"/>
	</g>
	<g>
		<polygon fill="#3A3A97" points="16.417,33.493 4.364,32.386 4.938,33.381 16.75,34.451 		"/>
	</g>
	<g>
		<polygon fill="#3A3A97" points="34.164,31.161 35.06,31.316 36.947,22.378 36.026,21.983 		"/>
	</g>
	<g>
		<polygon fill="#3A3A97" points="41.081,24.157 38.551,31.92 39.444,32.074 41.999,24.553 		"/>
	</g>
	<g>
		<polygon fill="#3A3A97" points="1.707,52.422 0.628,52.498 2.95,55.815 4.052,55.707 1.709,52.424 		"/>
	</g>
	<g>
		<polygon fill="#3A3A97" points="3.891,52.265 2.804,52.343 2.806,52.343 5.125,55.655 6.226,55.549 3.893,52.265 		"/>
	</g>
	<g>
		<polygon fill="#3A3A97" points="6.097,52.104 6.093,52.104 5.013,52.181 7.33,55.492 8.433,55.388 		"/>
	</g>
	<g>
		<polygon fill="#3A3A97" points="28.663,6.627 25.604,10.204 28.859,10.262 		"/>
	</g>
	<g>
		<polygon fill="#3A3A97" points="14.404,29.434 16.827,26.755 13.873,26.364 		"/>
	</g>
	<g>
		<polygon fill="#3A3A97" points="16.827,26.755 19.072,24.272 16.356,24.038 		"/>
	</g>
	<g>
		<polygon fill="#3A3A97" points="22.232,20.777 20.236,20.489 20.788,22.377 		"/>
	</g>
	<g>
		<polygon fill="#3A3A97" points="18.532,22.07 19.072,24.272 20.788,22.377 		"/>
	</g>
	<g>
		<path fill="#3A3A97" d="M20.756,30.726c0,2.358,1.911,4.269,4.267,4.269c0.96,0,1.705-0.212,2.248-0.638
			C27.731,33.671,28,32.844,28,31.95c0-2.393-1.94-4.335-4.335-4.335c-0.693,0-1.349,0.165-1.93,0.455
			C21.11,28.646,20.756,29.527,20.756,30.726"/>
	</g>
	<g>
		<polygon fill="#3A3A97" points="10.755,62.694 10.757,62.693 11.733,59.753 8.752,60.812 		"/>
	</g>
	<g>
		<polygon fill="#3A3A97" points="9.785,65.635 10.755,62.699 7.798,63.755 		"/>
	</g>
	<g>
		<polygon fill="#3A3A97" points="13.589,65.635 14.421,65.635 16.322,59.753 15.489,59.753 		"/>
	</g>
	<g>
		<polygon fill="#3A3A97" points="21.546,42.456 23.454,39.862 19.634,39.862 		"/>
	</g>
	<g>
		<polygon fill="#3A3A97" points="25.365,42.456 27.272,39.862 23.454,39.862 		"/>
	</g>
	<g>
		<polygon fill="#3A3A97" points="29.184,42.456 31.094,39.862 27.272,39.862 		"/>
	</g>
	<g>
		<polygon fill="#3A3A97" points="7.872,38.303 8.36,39.119 18.38,39.119 18.095,38.303 		"/>
	</g>
	<g>
		<polygon fill="#3A3A97" points="42.476,54.141 41.429,54.38 41.423,54.38 44.187,57.351 45.264,57.094 42.479,54.145 		"/>
	</g>
	<g>
		<polygon fill="#3A3A97" points="44.571,53.665 43.519,53.904 43.519,53.904 46.28,56.872 47.361,56.614 44.573,53.667 		"/>
	</g>
	<g>
		<polygon fill="#3A3A97" points="46.685,53.181 46.685,53.186 45.632,53.424 48.394,56.393 49.476,56.134 		"/>
	</g>
	<g>
		<polygon fill="#8B2A43" points="58.426,37.322 55.601,34.379 52.634,36.915 52.924,39.695 54.298,39.918 54.997,38.208 
			55.037,35.427 56.551,38.668 57.316,40.055 58.682,39.531 		"/>
	</g>
	<g>
		<polygon fill="#8B2A43" points="32.108,30.806 34.164,31.161 36.026,21.983 32.108,20.296 		"/>
	</g>
	<g>
		<polygon fill="#8B2A43" points="39.444,32.074 41.622,32.449 47.058,26.729 41.999,24.553 		"/>
	</g>
	<g>
		<path fill="#8B2A43" d="M23.666,26.803c2.844,0,5.146,2.305,5.146,5.147c0,2.846-2.304,5.148-5.146,5.148
			c-2.843,0-5.147-2.306-5.147-5.148C18.516,29.109,20.823,26.803,23.666,26.803 M17.48,33.591l1.869,5.348h11.745V19.663
			l-4.785-0.35l2.847,4.026l-6.589-1.521l-8.037,8.837L9.19,28.062l0.12-1.182l-5.895,3.967l0.948,1.538l12.053,1.107L17.48,33.591"
			/>
	</g>
	<g>
		<path fill="#8B2A43" d="M21.88,17.399c0.627,0,1.14-0.509,1.14-1.14c0-0.63-0.511-1.139-1.14-1.139s-1.141,0.509-1.141,1.139
			S21.251,17.399,21.88,17.399"/>
	</g>
	<g>
		<polygon fill="#8B2A43" points="10.757,62.693 10.755,62.694 10.755,62.699 9.785,65.635 13.589,65.635 15.489,59.753 
			11.733,59.753 		"/>
	</g>
	<g>
		<polygon fill="#8B2A43" points="8.36,39.119 13.554,47.835 20.101,44.049 18.38,39.119 		"/>
	</g>
	<g>
		<polygon fill="#8B2A43" points="20.745,1.438 18.425,0.301 20.448,7.913 		"/>
	</g>
	<g>
		<rect x="26.592" y="45.209" fill="#8B2A43" width="4.502" height="0.867"/>
	</g>
	<g>
		<rect x="26.592" y="46.918" fill="#8B2A43" width="4.5" height="0.864"/>
	</g>
	<g>
		<polygon fill="#005938" points="35.986,51.411 38.484,54.133 49.103,51.674 43.603,44.739 		"/>
	</g>
	<g>
		<polygon fill="#005938" points="32.108,40.003 32.108,47.909 39.115,42.058 		"/>
	</g>
	<g>
		<polygon fill="#005938" points="-4.132,48.408 -1.777,51.738 8.039,51.042 12.695,48.188 7.742,39.868 		"/>
	</g>
	<g>
		<polygon fill="#005938" points="53.226,42.535 54.298,39.918 52.924,39.695 		"/>
	</g>
	<g>
		<polygon fill="#005938" points="58.682,39.531 57.316,40.055 59.12,43.353 		"/>
	</g>
	<g>
		<polygon fill="#005938" points="14.953,4.569 15.468,3.704 12.831,2.03 		"/>
	</g>
	<g>
		<polygon fill="#005938" points="18.425,0.301 20.745,1.438 18.088,-3.229 		"/>
	</g>
	<g>
		<path d="M44.127,65.728l-0.562-1.334l15.933-0.005l0.635,1.339H44.127z M43.497,63.456v-3.844l-4.354-4.716l2.286-0.517
			l1.047-0.239v0.004l0.003-0.004l1.036-0.236h0.003l0,0l1.052-0.239l0.002,0.002l0.001-0.006l1.059-0.237l1.053-0.238v-0.005
			l2.845-0.644l1.342,3.734l8.19,4.355v2.829H43.497 M35.986,51.411l7.617-6.675l5.5,6.936l-10.619,2.459L35.986,51.411
			 M31.776,53.857L29.629,52.2l-4.846,3.891l-0.288-0.641l4.701-3.881l13.87-11.654l2.853,1.571L31.776,53.857 M28.334,59.278
			l-2.235-0.233l-0.906-2.089l4.448-3.561l1.563,1.184l0.437,1.98L28.334,59.278 M24.103,60.434l-3.237-4.96l1.082-1.9l-7.83-4.984
			l6.222-3.603l7.337,6.606l-4.332,3.611l1.879,4.231L24.103,60.434 M18.064,65.635h-3.643h-0.833H9.785H3.124l1.955-5.881
			l6.655-0.001h3.756h0.834h3.303l1.872-1.592l1.923,2.901L18.064,65.635 M-5.4,63.495v-3.001l6.911-4.122l-2.682-3.741l1.799-0.133
			l1.079-0.076l0.003,0.002l0.003-0.002l1.088-0.08l0.004,0.001l-0.001-0.001l1.087-0.08h0.001l0,0l1.121-0.082l1.081-0.078
			l2.124-0.154l3.632,6.879H4.411l-1.58,4.663L-5.4,63.495 M2.149,65.635h-8.251l0.431-1.193H2.51L2.149,65.635 M-4.132,48.408
			l11.874-8.543l4.954,8.321l-4.656,2.853l-9.816,0.699L-4.132,48.408 M20.992,57.381l-1.714,1.446h-6.376l-3.857-7.319l4.063-2.477
			l7.591,4.852l-0.909,1.633L20.992,57.381 M4.938,33.381l-0.573-0.995l-0.948-1.538l5.895-3.967l-0.12,1.182l5.339,2.592
			l8.037-8.837l6.589,1.521l-2.847-4.025l4.785,0.349v19.277H19.349l-1.869-5.348l-1.063-0.098l0.333,0.958l1.345,3.852l0.285,0.816
			l1.721,4.928l-6.548,3.788l-5.195-8.716l-0.488-0.816L4.938,33.381 M12.131,11.135l5.691-9.551l2.183,8.195l-2.943,2.689
			l0.707,2.354l-4.901,11.174l-2.676,1.472L12.131,11.135 M12.831,2.03l2.637,1.674l-0.515,0.867L12.831,2.03 M20.745,1.438
			l-0.297,6.477l-2.024-7.611l-0.335-3.532L20.745,1.438 M23.672,10.146l5.724-6.795l0.503,8.475l-1.248,1.273l3.932,2.941
			l-6.187-0.598l3.937,3.242l-5.91-0.452l2.563,3.63l-4.757-1.083l-1.444,1.598l-1.717,1.896l-2.244,2.482l-2.423,2.678l-0.531-3.07
			l4.987-11.484l-0.61-2.136l2.81-2.691L23.672,10.146 M31.094,46.918v0.864v0.994L28.414,51l-7.196-6.478l-1.583-4.66h3.819h3.818
			h3.822v5.347v0.867V46.918 M32.108,40.003l7.007,2.055l-7.007,5.852V40.003 M32.108,33.41l1.98,3.612l1.725-4.005l0.426,3.218
			l4.645-2.008l-4.426,6.093l-4.35-1.31V33.41 M35.122,32.271l-1.127,2.655l-1.861-3.172L35.122,32.271 M40.753,33.244l-3.749,1.621
			l-0.322-2.329L40.753,33.244 M42.377,39.294l-2.398,2.023l-2.568-0.713l4.43-6.169L42.377,39.294 M32.108,20.296l3.918,1.686
			l0.919,0.395l4.136,1.78l0.917,0.394l5.06,2.177l-5.438,5.719l-2.176-0.374l-0.895-0.154l-3.492-0.604l-0.896-0.154l-2.056-0.356
			V20.296 M47.936,32.503l3.527,3.06l0.237,2.424l-3.885,3.471l-4.573-2.508l-0.623-6.226l4.951-5.167L47.936,32.503 M53.023,31.487
			l1.959,2.153l-2.12,1.839l-2.336-1.966L53.023,31.487 M58.426,37.322l0.256,2.209l0.438,3.821l-1.804-3.298l-0.761-1.387
			l-1.518-3.241l-0.04,2.781l-0.697,1.71l-1.073,2.617l-0.301-2.841l-0.291-2.782l2.966-2.535L58.426,37.322 M59.997,60.08
			l-8.352-4.453l-1.519-4.191l-5.78-7.297l2.486-2.183l1.111,0.651l3.87-3.476l0.82,7.365l3.022-7.391l4.783,8.392L59.289,37.01
			l-6.163-6.791l-3.301,2.677l-1.019-0.856l-0.345-5.712l-15.404-6.623l-3.663-3.018l6.45,0.613l-5.775-4.298l0.794-0.787
			L30.177,0.95l-6.943,8.244l-1.902-0.01l0.35-7.927l-4.914-8.67l0.708,7.757l-1.447,2.505l-6.19-3.482l4.621,6.049l-3.23,5.433
			L9.482,25.648l-7.331,4.934l5.092,8.522l-12.63,9.075l5.552,7.926l-6.543,3.911l-0.002,3.479l-1.105,3.074h25.883l7.682-6.567
			l2.607,0.248l3.986-3.29l-0.444-2.226l3.046-2.704l7.33,7.973l0.01,4.4l0.903,2.275h18.018l-1.532-3.2L59.997,60.08"/>
	</g>
	<g>
		<path d="M21.88,15.119c0.627,0,1.14,0.509,1.14,1.139c0,0.631-0.511,1.141-1.14,1.141s-1.141-0.509-1.141-1.141
			C20.739,15.628,21.251,15.119,21.88,15.119 M21.884,18.351c1.158,0,2.097-0.94,2.097-2.099c0-1.159-0.939-2.1-2.097-2.1
			c-1.158,0-2.099,0.94-2.099,2.1C19.785,17.411,20.726,18.351,21.884,18.351"/>
	</g>
	<g>
		<polygon points="16.4,13.883 13.49,12.913 13.081,13.995 15.948,14.929 		"/>
	</g>
	<g>
		<polygon points="17.005,4.708 14.023,9.742 15.715,9.743 		"/>
	</g>
	<g>
		<path d="M12.5,24.472c-0.23,0-0.416,0.185-0.416,0.415c0,0.23,0.186,0.416,0.416,0.416c0.229,0,0.416-0.186,0.416-0.416
			C12.916,24.656,12.731,24.472,12.5,24.472"/>
	</g>
	<g>
		<path d="M12.696,23.933c0.229,0,0.416-0.187,0.416-0.416c0-0.23-0.186-0.416-0.416-0.416c-0.23,0-0.417,0.186-0.417,0.416
			C12.279,23.745,12.466,23.933,12.696,23.933"/>
	</g>
	<g>
		<path d="M12.893,22.558c0.23,0,0.417-0.186,0.417-0.415c0-0.231-0.187-0.417-0.417-0.417c-0.229,0-0.415,0.186-0.415,0.417
			C12.478,22.374,12.664,22.558,12.893,22.558"/>
	</g>
	<g>
		<path d="M11.333,25.077c-0.229,0-0.415,0.186-0.415,0.417c0,0.228,0.186,0.414,0.415,0.414c0.23,0,0.417-0.186,0.417-0.414
			C11.75,25.263,11.564,25.077,11.333,25.077"/>
	</g>
	<g>
		<path d="M11.531,23.704c-0.23,0-0.417,0.185-0.417,0.414c0,0.231,0.187,0.417,0.417,0.417c0.228,0,0.417-0.186,0.417-0.417
			C11.948,23.889,11.759,23.704,11.531,23.704"/>
	</g>
	<g>
		<path d="M11.728,22.33c-0.23,0-0.416,0.188-0.416,0.418c0,0.228,0.186,0.416,0.416,0.416c0.23,0,0.415-0.188,0.415-0.416
			C12.142,22.52,11.958,22.33,11.728,22.33"/>
	</g>
	<g>
		<path d="M21.734,28.069c0.582-0.29,1.237-0.455,1.931-0.455c2.395,0,4.334,1.942,4.334,4.335c0,0.894-0.268,1.721-0.73,2.406
			c-0.777,1.164-2.102,1.931-3.606,1.931c-2.394,0-4.335-1.942-4.335-4.337C19.329,30.251,20.311,28.779,21.734,28.069
			 M23.666,37.101c2.844,0,5.146-2.305,5.146-5.148c0-2.843-2.304-5.147-5.146-5.147c-2.843,0-5.147,2.304-5.147,5.147
			C18.516,34.796,20.823,37.101,23.666,37.101"/>
	</g>
</g>
</svg>
