<?xml version="1.0" encoding="UTF-8" standalone="no"?>
<!DOCTYPE svg PUBLIC "-//W3C//DTD SVG 1.1//EN" "http://www.w3.org/Graphics/SVG/1.1/DTD/svg11.dtd">
<svg width="100%" height="100%" viewBox="0 0 80 80" version="1.1" xmlns="http://www.w3.org/2000/svg" xmlns:xlink="http://www.w3.org/1999/xlink" xml:space="preserve" xmlns:serif="http://www.serif.com/" style="fill-rule:evenodd;clip-rule:evenodd;stroke-linejoin:round;stroke-miterlimit:2;">
    <g transform="matrix(0.33227,0,0,0.33227,0,0)">
        <path d="M120.384,240.768C54.343,240.768 0,186.425 0,120.384C0,54.343 54.343,0 120.384,0C186.425,0 240.768,54.343 240.768,120.384C240.762,186.422 186.422,240.762 120.384,240.768" style="fill:rgb(255,184,28);fill-rule:nonzero;"/>
    </g>
    <g transform="matrix(0.33227,0,0,0.33227,0,0)">
        <path d="M120.308,233.822C120.308,233.822 120.308,233.822 120.308,233.822C58.099,233.822 6.908,182.631 6.908,120.422C6.908,58.212 58.099,7.021 120.308,7.021C182.518,7.021 233.709,58.212 233.709,120.422C233.707,182.631 182.517,233.82 120.308,233.822" style="fill:rgb(0,48,135);fill-rule:nonzero;"/>
    </g>
    <g transform="matrix(0.33227,0,0,0.33227,0,0)">
        <path d="M162.89,27.482C172.328,30.577 180.066,33.484 179.727,34.315C179.387,35.183 171.384,32.918 161.946,29.785C147.715,25.104 130.199,18.573 130.425,18.12C130.576,17.667 148.659,22.801 162.89,27.482M170.025,106.568C170.44,107.134 151.188,114.986 135.333,120.648C124.801,124.385 115.779,127.141 115.024,126.122C114.269,125.103 122.8,121.63 133.332,117.892C149.149,112.23 169.61,106.001 170.025,106.568M42.959,75.349C42.015,73.537 40.996,68.931 40.996,64.175C40.996,50.849 49.981,46.432 63.155,43.865C65.383,43.45 65.722,43.186 67.232,40.958C77.236,26.425 89.807,19.177 103.774,19.177C112.419,19.177 118.044,21.178 144.431,30.54C151.565,33.069 160.097,36.202 170.667,39.977C175.725,41.789 181.274,43.714 187.352,45.828C195.619,48.697 198.224,50.018 198.224,51.528C198.224,53.303 195.053,53.68 195.053,55.115C195.053,56.247 199.319,57.531 203.282,57.908C199.507,60.928 187.616,59.116 187.616,56.209C187.616,54.662 190.032,53.869 190.032,52.661C190.032,50.849 182.709,47.225 175.046,46.432C178.066,56.587 175.461,60.437 175.461,62.702C175.461,64.854 178.821,65.949 183.049,65.081C185.25,67.533 188.008,69.423 191.089,70.592C190.629,71.419 190.495,72.389 190.712,73.31C191.958,72.844 193.27,72.577 194.6,72.517C196.865,75.047 197.884,80.105 197.431,83.276C194.753,82.42 191.973,81.925 189.164,81.804C186.624,78.195 183.259,75.244 179.349,73.197C172.781,72.253 162.588,74.141 156.775,76.292C160.755,76.683 164.766,76.658 168.741,76.217C170.428,77.487 172.251,78.563 174.177,79.425C173.764,80.245 173.696,81.198 173.989,82.068C175.128,81.392 176.382,80.931 177.688,80.709C180.18,82.596 182.369,86.9 182.86,90.562C180.381,90.127 177.862,89.963 175.348,90.071C171.384,86.22 165.231,82.521 160.814,82.521C156.02,82.521 151.603,84.975 148.583,84.975C143.94,84.975 139.297,79.841 131.973,79.841C129.924,79.852 127.892,80.223 125.971,80.935C126.386,85.126 128.84,89.693 130.463,91.921C128.906,92.053 127.34,92.053 125.782,91.921C126.664,93.276 127.963,94.31 129.482,94.865C126.65,96.564 124.914,98.263 123.932,101.471C125.889,102.006 127.967,101.9 129.859,101.169C130.809,99.94 132.114,99.03 133.596,98.565C137.485,100.792 139.674,104.303 139.976,106.756C137.549,106.985 135.196,107.718 133.068,108.908C131.045,108.239 128.932,107.883 126.801,107.851C123.706,107.851 121.177,108.833 118.874,108.833C117.023,108.98 115.276,107.908 114.571,106.19C115.378,103.52 115.81,100.75 115.854,97.961C115.854,90.373 109.021,84.144 97.885,83.351C100.49,84.597 103.585,86.749 104.642,88.41C102.377,89.429 99.924,92.185 99.924,94.563C100.039,96.535 101.317,98.259 103.17,98.942C104.206,98.21 105.353,97.649 106.568,97.281C109.236,99.666 110.875,102.998 111.135,106.568C108.613,106.473 106.088,106.702 103.623,107.247C102.184,105.997 100.569,104.967 98.829,104.189C96.073,103.057 93.884,103.434 91.732,102.83C89.958,102.377 88.674,101.169 88.523,100.188C91.236,97.639 92.849,94.129 93.015,90.411C93.015,84.975 89.769,81.804 86.862,81.804C84.559,81.804 82.747,83.729 82.747,86.485C82.892,89.976 85.712,92.813 89.203,92.978C86.938,95.318 84.22,96.979 80.935,96.979C79.478,96.861 78.029,96.659 76.594,96.375C75.122,96.375 73.461,97.017 72.744,97.017C72.726,97.019 72.708,97.02 72.69,97.02C72.428,97.02 72.212,96.804 72.212,96.542C72.212,96.524 72.213,96.506 72.215,96.488C72.215,95.318 74.367,92.6 75.651,91.392C73.818,91.088 71.94,91.567 70.479,92.713C68.403,94.337 67.497,96.866 64.93,96.866C62.514,96.866 61.494,93.959 59.569,92.185C58.21,90.901 57.229,90.901 55.077,88.938C51.679,85.805 50.887,82.483 50.283,81.728C49.188,80.483 44.582,78.444 42.959,75.349M64.137,80.445C64.15,78.774 63.079,77.275 61.494,76.745C61.584,75.175 62.257,73.693 63.382,72.593C62.272,72.176 61.014,72.475 60.211,73.348C59.454,74.483 59.011,75.799 58.927,77.161C58.739,78.331 58.588,79.539 58.323,80.634C57.87,82.483 57.04,83.427 56.36,83.578C57.064,84.038 57.942,84.15 58.739,83.88C60.06,83.276 60.702,81.879 60.928,80.067C61.614,80.417 62.062,81.11 62.098,81.879C62.006,83.017 61.147,83.954 60.022,84.144C60.144,84.156 60.267,84.162 60.39,84.162C62.434,84.162 64.121,82.489 64.137,80.445M45.677,56.134C51.491,54.397 55.605,55.454 55.605,58.437C55.605,60.286 54.209,61.268 54.209,63.155C54.209,64.854 55.681,65.685 57.342,65.685C61.277,65.616 64.478,62.36 64.478,58.424C64.478,58.378 64.477,58.332 64.477,58.286C64.477,54.322 61.494,51.038 56.134,51.038C52.062,51.08 48.219,52.953 45.677,56.134" style="fill:white;fill-rule:nonzero;"/>
    </g>
    <g transform="matrix(0.33227,0,0,0.33227,0,0)">
        <path d="M185.163,196.072C183.011,196.072 181.425,197.846 180.066,199.545C175.989,204.641 171.837,207.435 165.344,207.435C155.34,207.435 145.639,198.979 145.639,188.56C145.639,182.218 148.47,175.197 148.47,169.949C148.47,165.91 145.941,163.758 143.185,163.758C141.901,163.758 140.995,164.476 140.995,165.004C140.995,165.91 144.015,164.74 144.015,169.006C144.015,173.989 140.656,181.463 140.656,189.277C140.656,201.848 152.471,211.965 164.702,211.965C172.026,211.965 177.499,208.492 181.501,203.131C182.158,204.502 183.567,205.363 185.087,205.321C187.47,205.262 189.398,203.286 189.398,200.902C189.398,200.815 189.396,200.727 189.39,200.64C189.406,198.254 187.542,196.241 185.162,196.072M150.546,175.989C155.117,179.749 159.921,183.216 164.929,186.371C171.724,190.787 178.179,194.449 180.293,195.279C180.746,195.468 181.048,195.506 181.086,195.393C181.161,195.279 181.123,195.166 180.557,194.826C175.801,191.882 170.629,188.56 165.608,185.314C160.625,182.067 155.491,178.67 150.848,175.536C150.282,175.159 150.169,175.159 150.093,175.272C150.055,175.385 150.206,175.65 150.546,175.989M150.81,185.163C150.772,185.351 150.772,185.578 150.735,185.804C150.697,186.031 150.697,186.22 150.659,186.446C150.686,187.324 151.415,188.032 152.294,188.032C152.943,188.032 153.533,187.645 153.792,187.05C153.717,187.541 153.679,187.994 153.604,188.485C153.639,189.354 154.363,190.05 155.233,190.05C155.889,190.05 156.483,189.655 156.737,189.051C156.661,189.541 156.624,189.994 156.548,190.485C156.604,191.353 157.334,192.037 158.203,192.037C158.858,192.037 159.454,191.65 159.719,191.051C159.681,191.542 159.606,191.995 159.568,192.486C159.623,193.35 160.349,194.031 161.215,194.031C161.881,194.031 162.484,193.629 162.739,193.014C162.701,193.505 162.626,193.958 162.588,194.449C162.437,195.732 164.627,196.865 165.759,194.977L165.608,196.412C165.681,197.276 166.412,197.948 167.279,197.948C167.945,197.948 168.551,197.551 168.817,196.94L168.666,198.375C168.628,199.809 170.969,200.64 171.988,198.941C171.95,199.319 171.912,199.545 171.875,199.923C171.864,200.01 171.859,200.098 171.859,200.187C171.859,201.389 172.848,202.378 174.05,202.378C174.533,202.378 175.002,202.218 175.385,201.923C176.54,201.009 177.59,199.971 178.519,198.828C179.802,197.205 177.537,195.808 176.291,196.827C175.952,197.091 175.65,197.356 175.31,197.62C175.348,197.054 175.348,196.487 175.385,195.921C175.423,194.751 173.347,193.43 172.252,196.072C172.29,195.393 172.29,194.713 172.328,194.034C172.365,192.863 170.289,191.542 169.194,194.185C169.232,193.505 169.27,192.826 169.27,192.146C169.308,190.938 167.231,189.655 166.174,192.259C166.212,191.58 166.25,190.9 166.25,190.183C166.288,189.013 164.249,187.654 163.154,190.296C163.192,189.617 163.23,188.937 163.23,188.22C163.268,187.012 161.229,185.691 160.135,188.296C160.172,187.616 160.21,186.899 160.248,186.219C160.285,185.011 158.247,183.652 157.152,186.295C157.19,185.616 157.228,184.898 157.266,184.219C157.303,183.011 155.265,181.652 154.208,184.294C154.246,183.615 154.283,182.898 154.321,182.218C154.32,181.436 153.676,180.794 152.894,180.794C152.372,180.794 151.89,181.08 151.641,181.539C151.53,181.702 151.441,181.88 151.377,182.067C151.414,181.463 151.452,180.821 151.49,180.217C151.528,178.707 149.036,178.066 148.508,179.576C148.102,181.182 147.874,182.827 147.828,184.483C147.87,185.323 148.573,185.992 149.415,185.992C149.996,185.992 150.533,185.673 150.81,185.163M96.753,169.006C96.753,164.702 99.773,165.91 99.773,165.004C99.773,164.476 98.867,163.758 97.583,163.758C94.79,163.758 92.298,165.91 92.298,169.949C92.298,175.234 95.129,182.218 95.129,188.56C95.129,198.979 85.428,207.473 75.424,207.473C68.931,207.473 64.779,204.679 60.702,199.583C59.343,197.884 57.757,196.11 55.605,196.11C53.227,196.269 51.369,198.295 51.415,200.678C51.41,200.765 51.407,200.852 51.407,200.94C51.407,203.324 53.336,205.3 55.719,205.359C57.233,205.38 58.631,204.526 59.305,203.169C63.306,208.492 68.78,212.003 76.103,212.003C88.334,212.003 100.15,201.886 100.15,189.315C100.112,181.463 96.753,174.026 96.753,169.006M60.475,195.317C65.774,192.666 70.906,189.69 75.839,186.408C82.634,181.992 88.599,177.575 90.222,175.989C90.599,175.65 90.713,175.385 90.637,175.31C90.562,175.197 90.448,175.197 89.882,175.574C85.239,178.707 80.105,182.105 75.122,185.351C70.139,188.598 64.93,191.882 60.173,194.864C59.607,195.204 59.569,195.317 59.645,195.43C59.72,195.506 60.022,195.506 60.475,195.317M89.316,180.142C89.354,180.746 89.391,181.388 89.429,181.992L89.165,181.463C88.914,181.007 88.433,180.723 87.913,180.723C87.133,180.723 86.489,181.362 86.485,182.143C86.522,182.822 86.56,183.539 86.598,184.219C85.503,181.576 83.502,182.973 83.54,184.143C83.578,184.823 83.616,185.54 83.653,186.22C82.559,183.577 80.52,184.936 80.558,186.144C80.596,186.823 80.634,187.541 80.671,188.22C79.577,185.578 77.538,186.937 77.576,188.145C77.614,188.824 77.651,189.504 77.651,190.221C76.557,187.578 74.518,188.937 74.556,190.108C74.594,190.787 74.631,191.467 74.631,192.184C73.574,189.579 71.498,190.863 71.536,192.071C71.574,192.75 71.574,193.43 71.611,194.109C70.517,191.467 68.478,192.788 68.478,193.996C68.516,194.675 68.516,195.355 68.554,196.034C67.459,193.43 65.42,194.713 65.42,195.883C65.458,196.45 65.458,197.016 65.496,197.582C65.156,197.318 64.854,197.054 64.514,196.789C63.269,195.77 61.004,197.167 62.287,198.79C63.216,199.933 64.266,200.971 65.42,201.886C65.803,202.177 66.27,202.334 66.75,202.334C67.955,202.334 68.946,201.343 68.946,200.139C68.946,200.054 68.941,199.969 68.931,199.885C68.893,199.508 68.855,199.281 68.818,198.904C69.837,200.602 72.177,199.772 72.14,198.337C72.102,197.884 72.027,197.394 71.989,196.941C72.245,197.565 72.857,197.975 73.532,197.975C74.408,197.975 75.142,197.286 75.197,196.412L75.046,194.978C76.179,196.865 78.368,195.733 78.217,194.449C78.18,193.958 78.104,193.505 78.066,193.015C78.322,193.629 78.925,194.031 79.59,194.031C80.456,194.031 81.182,193.35 81.237,192.486L81.049,191.052C81.305,191.664 81.907,192.064 82.571,192.064C83.449,192.064 84.182,191.363 84.22,190.485C84.144,189.995 84.106,189.542 84.031,189.051C84.282,189.66 84.878,190.059 85.537,190.059C86.41,190.059 87.135,189.357 87.164,188.485C87.089,187.994 87.051,187.541 86.975,187.05C87.23,187.652 87.824,188.045 88.478,188.045C89.36,188.045 90.091,187.329 90.109,186.446L90.033,185.804C89.995,185.578 89.995,185.389 89.958,185.163C90.243,185.656 90.772,185.961 91.342,185.961C92.202,185.961 92.916,185.267 92.94,184.408C92.915,182.75 92.687,181.102 92.26,179.5C91.77,177.99 89.24,178.632 89.316,180.142" style="fill:rgb(255,184,28);fill-rule:nonzero;"/>
    </g>
    <g transform="matrix(0.33227,0,0,0.33227,0,0)">
        <path d="M120.384,154.699C87.277,130.01 48.773,97.772 25.217,69.724C25.255,69.837 25.292,69.913 25.33,70.026C25.292,69.913 25.255,69.837 25.217,69.724C25.594,74.141 28.916,83.389 36.617,91.845C57.04,114.155 86.787,138.655 113.967,159.417C108.833,163.154 103.887,166.703 99.206,169.987C99.075,171.526 99.151,173.075 99.433,174.593C99.989,175.894 100.812,177.064 101.849,178.028C107.7,173.762 113.929,169.157 120.384,164.287C126.801,169.157 133.068,173.762 138.919,178.028C139.968,177.075 140.793,175.902 141.335,174.593C141.58,173.07 141.656,171.526 141.562,169.987C136.881,166.703 131.935,163.154 126.801,159.417C153.981,138.655 183.728,114.155 204.151,91.845C211.889,83.389 215.211,74.141 215.551,69.724C191.995,97.81 153.491,130.01 120.384,154.698L120.384,154.699Z" style="fill:white;fill-rule:nonzero;"/>
    </g>
    <g transform="matrix(0.33227,0,0,0.33227,0,0)">
        <path d="M60.022,84.182C61.132,83.976 61.972,83.043 62.061,81.917C62.023,81.158 61.594,80.471 60.928,80.105C60.702,81.917 60.06,83.314 58.739,83.918C59.154,84.059 59.585,84.148 60.022,84.182" style="fill:rgb(200,16,46);fill-rule:nonzero;"/>
    </g>
</svg>
