<?xml version="1.0" encoding="utf-8"?>
<!-- Generator: Adobe Illustrator 16.0.4, SVG Export Plug-In . SVG Version: 6.00 Build 0)  -->
<!DOCTYPE svg PUBLIC "-//W3C//DTD SVG 1.1//EN" "http://www.w3.org/Graphics/SVG/1.1/DTD/svg11.dtd">
<svg version="1.1" xmlns="http://www.w3.org/2000/svg" xmlns:xlink="http://www.w3.org/1999/xlink" x="0px" y="0px" width="80px"
	 height="80px" viewBox="0 0 80 80" enable-background="new 0 0 80 80" xml:space="preserve">
<metadata><?xpacket begin="﻿" id="W5M0MpCehiHzreSzNTczkc9d"?>
<x:xmpmeta xmlns:x="adobe:ns:meta/" x:xmptk="Adobe XMP Core 5.3-c011 66.145661, 2012/02/06-14:56:27        ">
   <rdf:RDF xmlns:rdf="http://www.w3.org/1999/02/22-rdf-syntax-ns#">
      <rdf:Description rdf:about=""
            xmlns:dc="http://purl.org/dc/elements/1.1/">
         <dc:format>image/svg+xml</dc:format>
         <dc:title>
            <rdf:Alt>
               <rdf:li xml:lang="x-default">Web</rdf:li>
            </rdf:Alt>
         </dc:title>
      </rdf:Description>
      <rdf:Description rdf:about=""
            xmlns:xmp="http://ns.adobe.com/xap/1.0/"
            xmlns:xmpGImg="http://ns.adobe.com/xap/1.0/g/img/">
         <xmp:CreatorTool>Adobe Illustrator CS3</xmp:CreatorTool>
         <xmp:CreateDate>2008-05-27T23:16:22-04:00</xmp:CreateDate>
         <xmp:ModifyDate>2008-05-27T23:16:24-04:00</xmp:ModifyDate>
         <xmp:MetadataDate>2008-05-27T23:16:24-04:00</xmp:MetadataDate>
         <xmp:Thumbnails>
            <rdf:Alt>
               <rdf:li rdf:parseType="Resource">
                  <xmpGImg:width>256</xmpGImg:width>
                  <xmpGImg:height>192</xmpGImg:height>
                  <xmpGImg:format>JPEG</xmpGImg:format>
                  <xmpGImg:image>/9j/4AAQSkZJRgABAgEASABIAAD/7QAsUGhvdG9zaG9wIDMuMAA4QklNA+0AAAAAABAASAAAAAEA&#xA;AQBIAAAAAQAB/+4ADkFkb2JlAGTAAAAAAf/bAIQABgQEBAUEBgUFBgkGBQYJCwgGBggLDAoKCwoK&#xA;DBAMDAwMDAwQDA4PEA8ODBMTFBQTExwbGxscHx8fHx8fHx8fHwEHBwcNDA0YEBAYGhURFRofHx8f&#xA;Hx8fHx8fHx8fHx8fHx8fHx8fHx8fHx8fHx8fHx8fHx8fHx8fHx8fHx8fHx8f/8AAEQgAwAEAAwER&#xA;AAIRAQMRAf/EAaIAAAAHAQEBAQEAAAAAAAAAAAQFAwIGAQAHCAkKCwEAAgIDAQEBAQEAAAAAAAAA&#xA;AQACAwQFBgcICQoLEAACAQMDAgQCBgcDBAIGAnMBAgMRBAAFIRIxQVEGE2EicYEUMpGhBxWxQiPB&#xA;UtHhMxZi8CRygvElQzRTkqKyY3PCNUQnk6OzNhdUZHTD0uIIJoMJChgZhJRFRqS0VtNVKBry4/PE&#xA;1OT0ZXWFlaW1xdXl9WZ2hpamtsbW5vY3R1dnd4eXp7fH1+f3OEhYaHiImKi4yNjo+Ck5SVlpeYmZ&#xA;qbnJ2en5KjpKWmp6ipqqusra6voRAAICAQIDBQUEBQYECAMDbQEAAhEDBCESMUEFURNhIgZxgZEy&#xA;obHwFMHR4SNCFVJicvEzJDRDghaSUyWiY7LCB3PSNeJEgxdUkwgJChgZJjZFGidkdFU38qOzwygp&#xA;0+PzhJSktMTU5PRldYWVpbXF1eX1RlZmdoaWprbG1ub2R1dnd4eXp7fH1+f3OEhYaHiImKi4yNjo&#xA;+DlJWWl5iZmpucnZ6fkqOkpaanqKmqq6ytrq+v/aAAwDAQACEQMRAD8A9U4q7FXYq7FXYq7FXYq7&#xA;FXYq7FXYq7FXYq7FXYq7FXYq7FXYq7FXYq7FXYq7FXYq7FXYq7FXYqlHmjzRpflvS3v799vswQLv&#xA;JLIeiIPH9WV5cogLLl6PRz1E+CHxPQBKPJHnXUdevtSsNS039HXdgsEhiD+pRbhOYVzQUcDqPo6j&#xA;K8OYyJBFEOV2j2fDBGMoS44yv7P0MuzIdU7FXYq7FXYq7FXYq7FXYq7FXYq7FXYq7FXYq7FXYq7F&#xA;XYq7FXYq7FXYq7FXYq7FXYq7FXYqxfzZ5+03QnWwt0bUtdnottpdv8UhY9DJSvBfx8BlGXOI7DeX&#xA;c7LRdmTzeo+jEOcj+jvYv5atYLzzHe6z5tuPr2taTCbiWGIcrHTVFWEXKpDTAAnatKHflvlOMXIy&#xA;nvIfIOy1czDDHHgHDjma/pT8/wCr+OSb/lPbTz6ZqPmK5QpceYLyS6VT1EKsVjX6Dyp7ZPSiwZH+&#xA;IuL21MRnHDHliiB8ev6Gc5lOldirsVdirsVdirsVdirsVdirsVdirsVdirsVdirsVdirsVdirsVd&#xA;irsVdirsVdirsVY95g8/+VNC5JfXyNdDYWcH72Ynw4LXj/sqZTkzwjzLn6XszPm3jH0952DGL3Xf&#xA;PXmK3eW3RfKHl0DlNqt6QLpo/FEJXhX6PZspM8k/6Ee883ZY9NpsBo/v8v8ANj9P7fxsw2HWLUXv&#xA;+Hfy5gkn1K9ql95juKm4dSf3jIzCsaeLUHsK0OYwmL4cfM9XbSwS4fG1hAhHljHLy958v0bMj1rR&#xA;I9N0vTfy40SQvqWruJ9avf2hCDWWV/DmVoo/lFO+XThwgY48zzdfp9Qck5azIPRj2gPPoPh9+7Mf&#xA;M3mHTvJvl6CK3i9S44raaRp61LyuoCooA3ou3L+pGZOTIMcdvg6nR6Werykk0PqlLuSLyFqfm9PN&#xA;l/o/mK8+tzfUYb2ROKgQyOwHppwAXZW+L3GVYJT4yJHpbm9pYtOcEcmGPCOMx9473oeZboXYq7FX&#xA;Yq7FXYq7FXYq7FXYq7FXYq7FXMyqpZiAoFSTsABiqQah5+8l6exW61m1V1+0kcglYfNY+ZGVSzwH&#xA;MhzsXZmoyfTCX3fek7/nL5E5FYLqa5I/31by9PH4lXKvzmNyx2BquoA98gtP5weWiAYrPUZkP7cd&#xA;qxH4kY/m49x+Sf5CzdZQH+c2fzg8qoqmaC/hLVoslq4O3yJGH83Hz+SP5CznkYH/ADmv+VyeTvC8&#xA;/wCkZ8H5uHmn+QdR/R/0zf8AyuXyKqgy3E8JPRZLeUH8AcfzmNH8ganoAf8AODv+V0fl9/y3Sf8A&#xA;IiX/AJpx/OY+9P8Aof1f80fMNH85PJtTT62w7MLZ6EeIrj+bh5r/ACDqP6P+mDX/ACtvS3+G10TW&#xA;Ll/5Y7Su/atX74/mh0Evkv8AIkx9WTEP879jv+Vg+abjaw8l6g5PQ3TC1H081OPjzPKB+5f5MwR+&#xA;vPD4epo3X5xageMVjpmjRn9qeRriQD29Mun/AAuN5j0ATwdnw5ynk9wofbux7WYNOiDf4y8/TXJo&#xA;fU03TisQr/KyQ86j5oMqmAPrn8A5+nlM/wCL6cD+lLf7TX3ljp/Mfyb5fBTyd5ejFwv2dSvvjkBp&#xA;QlRVn3/1x8sp/MQh9EfiXP8A5J1Gf/GMm382P4r7CgLHTPzC/Mm9WS5mkawRjW5lHC1i7H00Wis3&#xA;b4RXxOQjHJmO/L7G/Jm0nZ8aiBxdw+o+/wDHueoraeV/yw8ttJBGbnUbikcdQPrF3OfsoKbhAew6&#xA;e5651RwR8/veaM83aOajtAfKI/X+OSF0kweTdKvPNnmuT1PMesHk8C0MgHWO1hHtty7D6K5GP7sG&#xA;c/qP4ptzXq5xwYB+6x9fvkf0ftS6Ge5stTj83+bYg+sXCs+maPU0sbKPeSQg/wC7CDxUUqXYDqfh&#xA;iCQeOfPoO4N8oicDp8B/dj6pfz5dB7u/yHzOvIkh1Lzp5u1oqVT1obCIdQDbpxkFR7hcswbzlL4O&#xA;H2kPD02HH5GXz5M9zKdI7FXYq7FXYq7FXYq7FXYq7FXYqsmnhgheaeRYoYwWkkchVVR1JJ2AwE0m&#xA;MTI0NywS6/MPVNauZNP8jaf+kGQ8JtXuAY7OI+1aFz/mAwzFOoMjWMX59Hdw7LhhAnqZcP8ARH1H&#xA;9X45IPUPJdn6YvvzC8zPdBtxaeqLW0BG5VEFGf8A2IBwSwjnkl+gNuLtCV8OkxcPnXFL8fNLJPPP&#xA;5M6F+70vSVvXXYSx2yt/yVuSr/dXK/Hwx5C3JHZ3aObec+H3y/RHZDT/APOQaRr6djoIRB9kyT0H&#xA;f9hY/wDjbAdf3Bsj7Lk7yyfZ+1Ayf85Ba+R+70u0Vq7ljIwp9BXIHXy7m8ey+LrOX2Kf/QwPmf8A&#xA;6t1l90v/ADXg/Py7gy/0MYf50vs/U7/oYHzP/wBW6y+6X/mvH8/LuC/6GMP86X2fqd/0MD5n/wCr&#xA;dZfdL/zXj+fl3Bf9DGH+dL7P1KTfn/5vLHjZaeF7Axzk/f6wx/Pz7gyHszp/50/mP+JU5Pz786OA&#xA;Ft7CM+KxS1/4aVsH56fkkezWnHWfzH6kNN+eHnySvCW3hqNuEINP+DLZE63I2x9ndKOkj8Uuuvza&#xA;/MG4BDauyL4RRQx0+lUDfjkTqsh6t8OxNJH+D7T+tBs35geYKoTqmpo2xX9/KlPluoGR/eT7y3Vp&#xA;MH+pw+QTvRvyU87agVa5ii02E/tXDgvT2SPma+zUyyGjmeezhaj2h00PpJmfL9ZekeW/yR8raYyT&#xA;6iW1a5WhpKOEAI/4qBNf9kxHtmZj0UI893n9X7Q58m0PQPLn8/1Mg81ectE8qWUcRUS3rqEsNKtw&#xA;PUfsoCqPgT3p8qnbLsuaOMefc4Gi0GTUyJ5R/ikfxuXnFlrzy67+lryL/EfnSUU07SLT47TT0/y5&#xA;N15LXehNO5rvmGJ3Kz6p9B0D0OTTVi8OJ8LTj6pH6p/D8e5FahcLompx6r5lkHmDzzPQaXokFWht&#xA;Cd0oq1pT7z2qfiyUjwm5eqfQdzVij40DDD+60w+qZ5y/H47mNXGsXUmoXmoX9wt5cWPG81e5BDRN&#xA;cI3+h2ENCQYkloWps1GO4UE0mZsk71z/AEB2EcERCMIjhEvTEda/imfMjl3bd9PYPy40CXRPKVnb&#xA;3AIvbit1ek/a9Wb4iG91Win5Zn6eHDAXzeU7V1IzZ5EfSNh7gybL3XOxV2KuxV2KuxV2KuxV2Kux&#xA;VBazrOnaNp02o6jMILWAVdz1J7Ko7sewyM5iIst2DBPLMQgLkXnklvfecIG17zXMdH8mQUltdLLc&#xA;GnQH4ZbhhQ0b9kDc/s+LYdHJ6p7Q7nfCUdIfCwDxNQdjLu8o/j39wjPmf85mig/RPk63TTtOhHBL&#xA;rgocj/iuOnFAfE/F8jlOXWdIbB2Wj7As+JqDxzPT9Z6/cw/SvLHnPzfdNc28M98zGkt9cMeA8ayy&#xA;Ghp4Df2zHjinkN83a5tZp9LHhJEfIfqDPtI/5x8mZVfV9VVD+1DaIW/5KScf+IZlQ0HeXR5/agf5&#xA;OHz/AFD9bKrL8kPIduB6sNxeU7zTMK/8ivSy8aLGHWZPaHVS5ER9w/XaaRflZ+X8f2dGiPb4mlf/&#xA;AIk5ywabH3ONLtnVH+M/Z+pf/wAqy8hf9WW3/wCG/rh/L4+5j/K+q/nl3/KsvIX/AFZbf/hv64/l&#xA;8fcv8r6r+eXf8qy8hf8AVlt/+G/rj+Xx9y/yvqv55VU/LvyOihRoloQP5owx+81OPgQ7gxPampP+&#xA;Ul814/L/AMkAgjQ7Ko33hQj7iMPgQ7gj+U9T/qkvmiI/J/lKM1j0SwQnYlbWEfqXD4UO4fJrOuzn&#xA;nkn/AKYo620zTbUg21pDAR0Mcap02/ZAyYiByaZ5py5kn4onC1uxVC6pcRQ2Mxe8jsGZGWO6lK8Y&#xA;3IID0cqDxO9MjI7c6bcMSZD08Xl3vD9Q0n8sLK7kvdf8y3XmO/ZuUiWlD6h71cFxT/nqM1koYgbl&#xA;LiL2WLPrZxEcWKOKPn0/H9VWi81avPpjx+VdOt/KPlz7M+sTni70qNpSOTvT9lAz++SGUkegcEe9&#xA;gdFjjO88pZ8vSI/V0HvoeTG7a4a6vf0L5Qimu9SvyyXesz7XMwb7fCpPoREfaJPIj7RptlANnhhz&#xA;PX8cnYzhwx8TUERhHlAch3f1j3dO5mHkzynZ6jrUGlWpFx5f8vyifU7sfYvdSpQBfGOPoo8K/wA+&#xA;ZGHEDKh9MefmXU6/Wyx4zkltlyioj+bD9Z/HJ7RmyeQdirsVdirsVdirsVdirsVdirUkiRo0kjBE&#xA;QFnYmgAG5JOKQCTQeaWnpeeNXl8x6sfT8maKXOnwS7JcPHX1LiUHqi06fR/NXCH708R+gcv1vRTv&#xA;R4xhx/4xk+ojpfKI8/x3PM/zB8+ah5u1b0Lb1E0qJ+FhZLWrmtBI6jq7dh26DvXCz5zkNDk9F2X2&#xA;bDS47l9Z+o/o9zPfIH5K2sEcWpeZ0E9y1Hi03/dad/3387f5PTxrmXg0YG8vk6PtP2glImGHYfzu&#xA;vw7vfz9z1iOOGCJY41WKGMUVFAVVUdgBsBme8uSSbO5YT5l/OHyhorPBDKdTvF2MVrRkB8GlPwf8&#xA;DXMXJq4R8y7nSdhajNuRwR8/1PO9V/PrzVckrp9tb2Ef7JoZpB/smon/AAmYktdM8tnf4fZrBH6z&#xA;KX2D8fFjlx+aPn+duT6zMD/xWscY+5FUZSdVkPVz49jaUcoD7Spf8rJ89/8AV6uf+CH9MH5nJ3s/&#xA;5J0v8yKJh/Nf8wYqcNYkNBT444X/AOJo2EarJ3tcuxNIf4PtP60bF+dX5gJ9q8il2p8cEQ+n4QuT&#xA;Gsyd7TL2f0p/hI+JRKfnp54VQD9Ucj9poTU/cwGH89Pyaz7Oab+l8/2N/wDK9vO/8ln/AMiW/wCa&#xA;8fz0/JH+hvTf0vn+xSf88fPbNVZLZB/KsIp/wxJx/O5PJkPZ3S/0vmpyfnX5/enG7hjp14wR7/8A&#xA;BBsB1mRmPZ/SjofmULL+bf5iTnj+lmFT8KxwwKd+w4x1yP5rIerYOw9JH+D7T+ty6h+a+qRPKtxq&#xA;z2yqWkmDSxQhQKks/wAEYFB3OPFml3r4Whxmqx38Cf1us/I0t7IZ9c8x6ZYAbyereRXNxQ+EcbtX&#xA;/gsRgv6pAfFcnaIgKxYpy90TEfMj9Cu+p/lz5fK/omyk8x6gjfFd6gOFoKd44VoW37OMPFjhyHEf&#xA;Pk1jDrM/95IYod0fq+J/UgobXzb+YnmFnjj5t8IYrVLW1iGwUV5cFAGwG59zkQJ5pfig3Sng0GLc&#xA;/wDFSP6Wc2mjQ6fJJ5L8mt6+tTrx8xeYT0girR40IrxPai/8S3XKEK9EPq6l009QcgGp1G2MfRDv&#xA;Pf8Aj7ufVPL2gadoGkQaXp6cYIBux+07n7Tue7Mf86ZnY8YgKDzOq1M8+QznzP4pMcm47sVdirsV&#xA;dirsVSvW/NHl7Q4+eq38NrUVVHashH+TGtXP0DITyxjzLk6fR5cxrHEy/HfyYv8A8rSlvzTy35d1&#xA;DV0OwuWX6vAflIwf8QMo/M39MSXZfyMIf32SEPLmfku/Sf5w3JrDo2mWC/y3U7TH74XpjxZj0AR4&#xA;PZ8ec8kvcK+8LvQ/Oj/lp0L7rn/mjGs39H7V4uzu7L/sf1pdrtn+b2sae+jXVvpsFressV1eWbuG&#xA;SFmHP4ZXqRx606jbIzjmkOE1v3N+myaDFPxImZlHcCVc+nJLvzmu/wBA+UtN8taXE8NjNRJZFB4i&#xA;KGnFGfoWdjyPfb3yGsPDARHJyOwMfj55Zpm5D7z1+Cl+SXkOJLdfNGoRhppKjTI2H2FB4tNTxPRf&#xA;bfvg0eDbjPwZe0PaRJ8CB2H1fqek+ZfM+j+XNNa/1OXhGNooloZJHpXhGu1T+HjmZkyCAsvPaTR5&#xA;NRPggP1D3vnzzp+Z3mHzPI8Jc2elk0SwibYj/i1hQyH8PbNTm1Mp+Qe87P7HxaYX9U+8/o7kf5R/&#xA;JvzJriJdX3+4rT23V5lJmceKRbbHxYj6cli0cpbnYNGu7ew4fTH1y8uXz/Uzy48i/lP5MtY7jXD6&#xA;8rbRtdM8ruR14wRAKR8128cyzgxYxcnRx7R12rkRi2Hlt9p/Wpzef/yXtIY/q+n284brHDp6qV/1&#xA;vUSMfcTgOfCOQ+xlHsztGR3kR75/qJZXoSfl3r1ubjSbTTrpF+2q28QdK/zoyhl+kZfDw5CwA6zU&#xA;nV4DWQzj8T99sVk/MT8no717Y6bEUSo+siwj9MkdgKep/wAJlB1GG6r7HZjsrtAx4uI+7jN/q+1W&#xA;03z5+T17bzSvZW1k0ILGK5s4g7AfycBIGr4Vr7YY58J6AfBhl7N7QgQBKUr7pH9NJddfmL+TlIJP&#xA;0FFcNKxWVfqEHOJR0LcgFINf2WOQOow932ORDsrtDceIRX9M7/jzSu6/MHy/c3r2HlHyVZ3cz0EM&#xA;0ltGS1OpMESVoPH1Mgc8SahAFyYdl5Yx49RnlEf1j95P6Homl6XpUPlxdS8zaHpunXUUby3qRwRP&#xA;HGikkHYP+zSoBO+ZkYjhuQAdBmzTObgw5JyiTQ3O7BvMX5teTrKeGDy9olpf24BM00kIgXrsqKUD&#xA;e9SMxcmrgPpFu60vYeomCcs5RPvv9KTal+emuOYzpGn22mAKRPUCYux6EHjHx49hvlctdLoKcvF7&#xA;OYhfiSlPu6frYZqXnLzXqSyx3ur3c0M9fVgMriJgTWhjUhKe1MxpZpy5ku3xaDBjoxhEEda3+fNK&#xA;oYZp5VhhRpZXPFI0BZmJ7ADc5WBblSkALOwemeTvyQ1fUCl35gZtOs+otRQ3Lj36iP6d/bM3Doid&#xA;5bB5zX+0WPH6cXrl39P2/jd6H5m8v+Y9P0GHRfIdrb2UEgYXNx6nCVBt9knqz93JJ/XmZkxyEeHH&#xA;s6HSarDkynJqiZHoOn9g7mMaffebfy60NGvNEsBpwkRbmWK4/wBKnkc05VYnm3sBsPYZREzwx3Ar&#xA;7XY5ceDX5fTOfHW1j0gfoevKSVBIoSNx4ZsHlS7FXYq7FXYqgtY1rS9GsXvtTuEtraPq7nqeyqBu&#xA;zHwGRnMRFluwaeeWXDAWWEjWPPPnPbQkPl7QH6arcLW6mXxhj/ZB8a/7LtmNxzyfT6Y9/V3PgabS&#xA;f3v73L/NH0j3n8e5C3Fn+VfkeQzarKNT1v7bvcf6XdM2xrwPwR+xNPnkSMWLnvL5lsjPXawVAcGP&#xA;y9Mf2/jZKrn879e1KY23lfQWlforSB53p2PpQ8eP/BHKzrZS2hFyoezuLGOLPkr5D7T+pRMv5/6q&#xA;vJUayhbotLaAj/gv3uC9RLy+TKuysX9I/wCcf2LH8o/nmzFjqstT4XlB9w2x8LP3/ayGu7MH8A/0&#xA;qw2v5/6YPUWSa4Revx21zWn+S3J/wwVqI/gJ4+ysm1Af6YLl/ODzbpn+h+bdAWWBxxcSRPbO49xI&#xA;HR/oAw/m5x2nFB7CwZPVgyb+8H7tw9F8u+ePLV/5Vm1m0RrLS9OUxyxPGI/T9JAeCKtVOzAKF+WZ&#xA;ePNEw4hsA6DVdnZoZxjl6pz8+dvnzzj5s1LzZrjXk/IR19OxtF3EcZPwqAOrHue5+jNTmynJK3u9&#xA;BooaXFwj4nveu/ln+U1rpEMOr65Es+rOA8Ns4BS28Ntw0nv+z28c2Gm0ojvLm8r2v23LKTjxGod/&#xA;879n3rfzb/Mq50Qy+X7CFlvLq3Dtf8yvpLIWX4Au/Ki9a7Y6rUGPpHNPYnZIzVlmfSJcu+u94aza&#xA;hfzVYy3cx2qeUjfxOavc+b2gEIDpEfJPdL/LfztqPxRaVNBCBVp7oC3QL/NWXjUfKuWx00z0cHN2&#xA;tpsfOYJ8t/uZhpelaH+WzW+vahqn6S1aUOltp2nOvpFSOLmV23ZB/qjfx7ZEYRw+omz5OpzZ8naF&#xA;4oQ4IDnKXP4Dv/Qk2vfmJ5Z1uZ5rzyjb+s5qZ47h4pST3ZokTmf9YZXPURlzi5mm7KzYRUcxru4b&#xA;H2kpNa3/AJCd/wDTNIv4kJ3aC9R6D2V4B/xLKxLH1B+blzxaoD0zgffE/ol+hnPlqX8h5nVZbeWC&#xA;c7L+kmk41r3MbtF/wWZWM4D+10urj2oBsQR/Rr9It6Bq+l6zHpMDfl++nWcRDtIqxpwmFBwMbICl&#xA;R8W565lzjKv3dB0WDNjOQ/m+OR9/L39Xjetw/nFeGe01GHV543PGaKOOVoW9v3I9Nh8ts1sxmOx4&#xA;nrtPLs+FSgcY+Iv7d0ntvy988XJAj0O8Un/fsTRD75OOVjTzPQuVPtTTR55I/O/uZFpv5Ged7o/6&#xA;ULewXv60odvoEIkH45dHRTPPZwMvtHpo/TxS9w/XSYaL+X35aR6g1pq3mqO4uom4yQRlbaLmNivq&#xA;ycw3+xIycNPiujJo1HamsMOLHhIiev1H5BkUHn78rvJ99c6dpumSrNbVje6gjjkEhG9BM0hkYfPb&#xA;LhnxYzQDr5dma3VxE5yFHoSRXwqmFaj+eHnq7UCGS2sdqE28NSff98ZvwzFlrch8nc4vZ3Sx5iUv&#xA;ef1UoQ6Hf30KeZfPWoXEOm0/0aOVi95ddxHbox+FDX7XQfiAIE+rIdvtLOWpjA+DpYgz619MfOR7&#xA;/J6V5W8o6lrd/aa/5kg+rWFiipoOgMSywRoAqPNz3L0AO+5O56AZm4sRkRKXIcg87rNdDDE4sJuU&#xA;vrn3ny8no+Zjz7sVdirsVSbzX5r0zy1phvb0l5HPC1tU/vJpOyIP1ntleXKICy5mi0U9RPhj8T0A&#xA;YlZeXZb0nzf+YcqIsC+paaVIaW1onbmh+3IdvhNfepoBjxx368ny7naZNUIf4PpBz5y/il7u4fj3&#xA;x3WvzF81+cNQbRPJNvLBadJbxfhlKdOTOdoU/wCGP4ZTPUTyHhg5+n7KwaSHi6kgy7un/Hj9n3p5&#xA;5X/I/RLLjda/KdVvT8TRVZbcMdz4PJv3agPhluLRRG8ty4Ws9osk/TiHBH7f2fjd6NZ2VnZQLb2c&#xA;EdtAv2YolVEHyVQBmYABydBPJKZuRJPmrYWDsVdiqyeCCeJop41licUaNwGUj3B2wEWmMjE2DReN&#xA;/nbqFlpGm2PlXSYY7O3uGa9u4YVCKV5EIKDajOGP+xGa/WyEQIB672exSyzlnyEyI9Iv7fs+9C/k&#xA;d5KS7un8y30fKC0b09PRhs0w+1Jv/vvoPf3GR0WGzxFs9ou0OGPgxO8vq93d8fxzZd+Zf5qL5Zlb&#xA;SbCD1tWkhEgmYqYoeZIHJdyz0FeJoNwd8yNRquDYc3VdkdjfmB4kjUL+J/Y8xi/OTzoJxLcNa3lN&#xA;uE9tHQj5oEb8cwRrJ+T0kuwNNVDij7pH9Ns28s/nzpkhS21uw+ojoLm1q8QqdyY/tqPlyzJx64cp&#xA;CnTaz2amN8UuLyPP5/2KHn3y1res6Rc6z5Z1641jRrhpJrvTjcF0QAh+MSig4p/vs/ENupwZ8cpC&#xA;4ysM+zNXjxZBjzY448goCVff7+/k8bkhmjAMkbID0LAj9ea6nrhIHkswMkTBpmpXDBYLSaVjSgSN&#xA;mO/ToMkIk8g1SzQjzIHxTqw/LnzvfUMOj3Ea0rzuFFutPGsxQZbHTzPRw8vaumhzmPhv91s68maH&#xA;deSmbWNW8zW1taQK0k+j20onafbjwKckXnU7EVzKwwOLcy27nS6/Ux1n7vHikZHlMiq/YmVx/wA5&#xA;C6WshFto88kfZpJUjb/gQsn68mdeOgceHsvOt5j5X+pi2ofnn5vlvrqSyENvZzKUt7d0EjQ1WnMO&#xA;OJZ67/Ft7ZRLWzs1ydli9nNOIgSsyHM9/wAO5iur+efNusGM6hqk0giFEVCIlHvxiCAn3O+UTzzl&#xA;zLs8HZ2nxXwQG/x+9I9yfEnKXNZd5b/KvzjrpSSO0NlaNQ/WrusS0PdVpzavai098ycelnLpTqtX&#xA;2zp8OxPFLujv+xPLpvI/kW5a1tIxr3maFuEl1dKVs7aQHciMVLMv0/MdMsPh4jQ9UvscOA1OtHFI&#xA;+FhPQfVIe/8AHuZ15A0LRNXum8yahq0fmPXUIq4/ubUndVjiYKV9mKj2AOZWCEZHiJ4pfc6TtPU5&#xA;MUfBhA4sX2y95/Hm9FzMdA7FXYq7FUHq+rWOkaZcalfSena2yF5G77dAB3LHYDxyM5CIstuDBLLM&#xA;Qj9RYH5etvrsk35i+bytvFGnPSLSTdLW2r8ElD1kevw+NajqKYuMX+8n8PJ3mqnwAaTT7n+I/wA4&#xA;93uDDbu+8zfmt5i+p2nKz8v2rBiG3SNNwJJKbPKwrxXt8qnMYylnlQ2i7eGPD2Zh4perLL7fIdw7&#xA;z+wPZvLnlvSPL2mpYaZCIoloZHO7yPSheRu5P+1myx4xAUHkNVq8mefHM2fu9yI1bWNL0iye91K5&#xA;S1tk6ySGlT4KOrH2G+GUxEWWvBgnllwwHEXlPmL8/wBVZ4fL9gHANBd3dQD7rEhB+VW+jMDJrv5o&#xA;eo0vsz1yy+Ef1/sYsnmz83/MR52Ul9JEehs4fSjHtzjVfxbKPFzT5W7I6Ls/T7S4L/pGz8iq/oH8&#xA;8OHP1dWpStPrr1+71a4fDz+fzY/meze7H/pf2Kbea/zg8u/vL175IR9pryEyxmn/ABZIrfg2Pi5o&#xA;c7ZDRdn59o8F/wBE0fkGXeTfzxuNR1Kz0vWNPUTXk0dvFdWpIUPKwReUbk7VO5DfRl+HW2QCObqt&#xA;f7OjHCU8ctogmj5eY/Uwj847p7n8wb+MEstusEMY/wCeSsQP9k5zG1ZvIXc9gw4dJE99n7Xu2l6Z&#xA;P5e8mQ2NhB615Y2ZEUCkD1LgIWO52+OUn782kY8EKHQPE5swz6gykajKXPuH7A8Du/y1/Mm7uZbq&#xA;60uea4mYvLK8kRZmO5JJfNUdNlJsh7iHa+jhERjMADyP6kVafkr5/nYCW0itRX7Us8ZH/JIyHJDR&#xA;5D0a5+0GljyJl7gf00nM35RaN5csk1Pzhq7LaGRYjDYxO9XYEgGQqTT4f5B88sOkjAXM/JxI9uZN&#xA;RLg08PVX8R/R+1Zdfm1p+gRLpnkbTYYNOADS3F0rtJJIRuacwe1KsTgOqENsY2TDsSec8epkTPuH&#xA;ID5fck9z+c/5gzfYvo7ceEUEX/G6ucrOsyHq5cOwNKOcSfif0IA/ml5/Lh/0zNUClOMdPu40yP5r&#xA;J3t38jaX+YPt/Wmumfnd55tGH1iaC/QbFZ4lU0/1ovT3+eTjrZjnu42b2e00uQMfcf129H8m/mbp&#xA;/nWSXQ73SZI3nhcT0/fW7JSjB2AUpyHSvyrWmZuHUjJ6SHn9f2RPRgZIzBo7dD+1A+d/yT06+hjn&#xA;8sRxWF2hpLA7P6MinuD8ZVh92QzaMH6di3dne0M4EjNco9/Ufcw6P8hvOrNRpbJB/M0slP8AhYyc&#xA;x/yM/J2x9pdN3T+Q/WjE/ITVoYXn1PWLO0t4lLzSqHdUVRVmJcRCgyX5E9SGo+0uMmoQlIn3ftUL&#xA;Dyv+TdoSdS8zy3rJ1WGKSND9CpKx+hsEcWEc5WzyaztCf0YhH3kH9I+5GW35l+QPLl3LH5e8tpMs&#xA;W1vqBcrI+3XlKjyqPpyQ1OOB9MWmfZGq1EQcuWr5x/sNKFx/zkB5mZUEFhZxODWQsJHDDwA5rTIn&#xA;Xy7g2R9mMI5ykfl+pmGjfmZNcaBLrPmrSYrLTgtLKTlye6kNPgggkFSKftcqfiRkw1Nx4pih97qd&#xA;R2QI5RjwTMp9f6I8yPupG/l15f1D9Jah5r1G0TTJtUURWmlxoI/St1IIMgFPjagrUfroJaeBszIq&#xA;+jT2rqYcEcEDxiHOXefLyZ5mU6R2KuxV2KvPfMCt5w87Q+XF+LQtD43Ws0+zLO391Aadqdf9l3Az&#xA;En+8nw/wx5u+0x/KaY5v8rk2h5Dqfx5MR86axqXn/wA2w+U9Camk2bkSyr/ds0e0kzU24J9lPE/M&#xA;Zj5pnLPgjydr2fghocBz5frl+APeev7Hrvlvy7pnl7SYdM0+PjDEKu5pzkc/adyOrH+zNhjxiAoP&#xA;K6vVTz5DOfM/Z5IHzt510zyppRu7r97cy1WztAaNK4/Uq1+Jv45DNmGMWW7s/s+epnwx5Dme54ZD&#xA;bedPzL1155GrDF/eTPVLW1jP7K+/t9o9T45rAJ5pfjZ7SU9P2diocz/ppfj5JpJq35deTT6Ok2i+&#xA;Zdaj2k1C5p9VRx/vpNw1D4f8Hk+PHj5Dik4wwavV75D4OP8Amj6vj+PgreZPzF823XkzSNRjvDZX&#xA;F1dXccv1QekOEQj4KOrbcj3yWTUTMAbq7YaTsrBHUTgY8QjGPPfnbCf8a+cv+r9qP/SXP/zXmL40&#xA;+8/N3P8AJ+n/ANTh/pR+pnXnD8y/OGjeaXNjeBrC4gtbmO1lRJI6S26M1DTlQtX7LDMrNqZxnsdt&#xA;nSaDsjT5sHqj6gZCxz2kUX5P1fyj5x8w2LXWiNpvmC1mS7S705T6EhhcSfvkAPAMRSpB/wBYZLFO&#xA;GSQsVLyatfg1GkxS4cnHikOGpcxe234+CQ+d7ES/nK9ofjFxfWSkdK+qkO2/+tlWYfvq8w53Z+Su&#xA;zuLuhP7OJn/53+ab7SdFtLHT7o21zfyN6rxsVlEMY3oRuoZiKn6PHMvW5TGIA6ui9ndHHLkMpixE&#xA;fCy8F+tXXq+t6z+qesnI8vHrWuamy9xwRqq2ZDpH5k+dtKKi31WaSNdvRuD66U8KSciP9iRl0NTO&#xA;PVwM/ZOmy84C/Lb7nqXkz8x7LzwsnlnzBpw9W6jbk0PP0JFQcyGoeURHGoPLr3Bpmdh1Ay+mQea7&#xA;Q7Jlo6zYpbA9eY/WxnzT+Sr2l9K2larZpbOecNpey+lKqn9kMQwaniaZTl0VHYh2Oj9oBKI8SEr7&#xA;4iwkEP5R+dbgn6rDb3Kj9uK6gYfg+U/lJnl97nS7c00fqMh74n9SY6f+RfnW4kUXX1ayjqOTSS82&#xA;A70WMNU/SMnHRTPPZoy+0emiPTxS+H60dY+Vvyn8u6s0fmDzAdSubV2SSzW3lWISIaFZPTEteJ7c&#xA;h75OOLFA+qVtGTWa7UY7xY+AS62L+F19yrrH50w6eZLDydpltZ6epok7x8eR7usScFX/AGVffDPW&#xA;VtAbMcHs+cnr1E5Sl3X+ljbfnF+YpJI1YKD2FvbUH3x5R+byd/3OwHYOk/mf7KX60v8AMH5hebdf&#xA;to7bUr0vBE/qKkaLEC1KVPALWle+RyaicxRLfpey8GAkwjufj96RtqF+0Jha5lMJ6xl2K9a9K0yr&#xA;iPe5oxQu6FqGRbE90LyR5l1pPWtLQx2Sisl/cH0bdVHUmR6A0/yanLoYJS5DZwdT2jhw7SPq7huf&#xA;kynQdB0CzvBbaPanzj5hXuqldLt2/mdmp6tD40U/PL4QiDUfXL7HWanU5Zx4sh/L4v8AZy/V9707&#xA;y7+X836QTXfNVyNV1tQPQipS1tQOiwpsPh8ae9K75m48G/FPeX3POartMcHhYBwY+v8AOl7yzXMl&#xA;07sVdirsVQHmDV4dG0S91SbdLOF5eP8AMwHwr/smoMhknwxJb9LgOXJGA/iLCPLnl7zBF+Wl09gy&#xA;jzJ5grdzXEh4EG6YVPLqpWE1Hg2Y2PHLwtvqk7nV6rEdYBL+5xemv6v7fsb/ACT8rLpflttTnSl9&#xA;qbEkmlVhjYqij/WILe+3hjo8XDG+pR7Q6zxc3APph95/FM91HULTTrC4v7t/TtraNpZXPZVFTTxP&#xA;gMy5SAFl0mLFLJIRjzJp85ga3+Znng1JiiepqfiS1tEP69/pY5p/Vmn+Ng9/+77O03ef91L8fYmn&#xA;mH8xodFmi8v+UIoV0KwLJcGRFlW+Zhxl9Wo+JG3G3Xr0pSeTUcPph9I+1xtL2UcwOXUE+LLl04O6&#xA;vP8AHek8vl/R/M0b3flYfVtTVS9z5elarGm7NZuf7xe/A/EPuys44z3hz7v1OXHVZNOeHPvDpP8A&#xA;4odPfyRg8seYNX8i6JaabYTXFxDe3wnQLx9M/uhSRmoqbg/aOS8KUsYAHUtP5zFi1WSU5AAxhXnz&#xA;5d6D/wCVTecfsGO1Fx/yzG7g9Tw6c6dduuR/KT/Bbv5b0/fKu/hNfcnvm/yHrt5eaK11GNPt7bSL&#xA;aPVtQuCPQge35RvydahmIC0UEk18Mty4JEi9vTu4Wh7SxQjPhPETklwxHM3vy7kFouuWr6/pHlry&#xA;uj22lSXsH128ba5veEgLNKR9mMLXjGNvHfIwmOIRhyv5tuo00hinmz7z4TQ/hjt08/NHayq3v59R&#xA;iMcgl9aE997eKMt08PTOSnvqPiGnTng7LN/zJfaT+tFfmleeTtc84G0vtUn02bTkW1kuFtRcwE1L&#xA;tusqSAqX4n4e2S1JhKdE1Xk19jY9Rh0/FGAmJ71xUe7ur7V+i/khoeqQC6s/NC31safFbwKKd6N+&#xA;9fifYjGGijLcStjqPaLLjPDLFwnzP7E01D8tPy28o2sV/rgvb6BnCM7cmjViKgssCoQu3cnLJabF&#xA;jFysuNi7X1mqkYYuGJ+37Uo1783ND0/TbjSvJNgLAvwCagiJEABQsRGVJYkVWrb98ryauIFQFOVp&#xA;uw8uSYnqZcX9Gyft/U8quLie5nkuLiRpZ5WLyyuSzMzGpJJ6k5gE3uXqIxEQABQCxWZWDKSrDoRs&#xA;cUkMk0P8wPPGmyRxWGp3EoJCpbSn6wpr+yqSc6V/ycuhnyDkXXanszTZBcogefL7nqtn5Lbz1oj3&#xA;3mbR00PWWP7i+twY5ZBT7csDe/8AMeR7U754w+LG5DhLzM+0PyWThwz8TH1B5D3H9W3vYNN+R3nl&#xA;JnSNLeWNWISQTABgDsaEVFcxTopu6j7RaYjfiHwVIfyI87yU5vZw1685XNPnwR8RoZ+TGXtJph0k&#xA;fh+1MIP+cf8AWAOV9q9rboPtNGryAf8ABelkxoD1Ljy9p8f8MJH5D9aJH5XfltpVwIdc8zhp+Ib0&#xA;leGCoPcg+qabeOS/K44/VJr/AJZ1mUXixbe4n9TKNE8vfl/Lpt03kmPTrvWYEPoy3Za44uDQMyuS&#xA;yg9mUUy+GPHR4Kt1uo1WqEx+ZM44z3bJJ5X0RvNmrXdl54vb2XWNObm2ht+4thFUASJ6ezqajdaf&#xA;T1yrHDxCRkJsdHN1mo/K44y00YjHL+PnK+7fk9V07TNO021W10+2jtbdPsxRKEWvjt1PvmdGIiKD&#xA;zGXNPJLimTI+aJyTW7FXYq7FXYqwX82C15Y6P5eQkHW9Rhgmp/vlG5Of9ieJzF1W4Ef5xd12L6JT&#xA;y/6nAn49GcoiIiogCooCqo2AA2AGZTpib3WwQQ28KQQIscMahY41FFVR0AGACkykZGzzeWfn55ha&#xA;30mz0OFqNfMZ7kD/AH1ERxU/6z7/AOxzB12SgI970vs1peLJLKf4dh7z+z70o8vWFhoX5ex2s9+m&#xA;l635wVvq93KvwJCtOCOwNUR0b7Xbn7ZDHERx1dSm5WqyyzaviEePHg5jz/SR3eTy7VtJ1HSb+Ww1&#xA;CBre6hNHjbwO4II2IPYjMCcDE0XpcGeGWIlA3Esj8raLp1hpw82a+ZFsIZOOl2cTGOW7uE3+Fx8S&#xA;RoR8Tj6N8vxQAHHLl083X6zUTnPwMVcRHqJ3ER+knuZtf+Yv8ZeVdNh1SefTrvVLu6is2sQ7Qhou&#xA;BVLiFSWkU8/tDcHfpXMmWTxIC9rJ5OmxaX8pnkYATjCMSeKr36xPRjmmfkx5nOozLq8LW+m2gLyz&#xA;W/GaSYL0S3QGpZ+xYCnfwymOjle/J2Gbt/DwDwzc5d+1f1vd5Jz5m84arouheXn06yNjp5+uWd1o&#xA;d6nqoywSLxWdZAG5MjVPTv2yzJmMYxoUN9i4mj0EM2XJxy4p+mQnHbmDypH/AJeaH5SutXPnXTXF&#xA;nZWMErXulyEsbW4KbsjEfFEYy5H+YE9PCBPGNgOnc0dqajPHH+Wn6pSIqX84fruvxzIfy9uDd+ad&#xA;f883aEW2mR3N5Q95Zw3CMf7DkPuyrTm5yyHo53akeHBj0seczGPwFb/N5zdXM93dTXU7F57h2llc&#xA;9WdyWY/STmETZt6CEBGIiOQZF5T8vef5LyO58vWt5BLX4bpOUMdPBpH4oR7E5dix5LuNuBrdVpRE&#xA;xymJHdzPy5vctQ1C2tfJrWfn7ULeC4uYjFdm1ZwzK5oOKKOZb+bivHr2zaSkBCsheLxYjLUcWliS&#xA;AbF/ivmb+LzJPyt8p6uwPlvzZbylzRLW6AWXfp0KP/yTzC/Kwl9Mnoz2znxf32EjzHL8fFFW/wDz&#xA;j5rjPS51W1jTuY1kkP3ER/rwjQS6lqn7UY+kJH5D9aN1D8svy88oWkd55n1G4vGkYrDBGPS9Qjc8&#xA;UTk+3c8wMnLTY8YuRtpxdr6vVSMcMYx8+dfHl9iWS/ml5U0W0mh8l6ALK6lXgmoXHEyJ70JlZ/YM&#xA;9PEdsrOqhEeiNOTHsbPmkDqcnFEfwj8Cvk871PWtX1Sb1tSvJruTqDM7PT5Amg+jMSUzLmXf4dPj&#xA;xCoREfcp2eo6hZOHsrqa2cGoaGRozX5qRgEiORZZMUJ7SAPvCf2f5nefbRSsWszuCKfvuMx++UOc&#xA;tGpyDq4GTsfSy5wHw2+5LtP0fzRrh9Oytbu/BbkSqu6Bj3Zj8I+ZOQjCcuVlyMufBh3kYx+TK7T8&#xA;ob21gW981albaDZbkq7rJO1N+Kqp4k/JifbMgaQjeZ4Q6zJ27GR4cEZZJfIMm8tG2gDW/wCW2iPc&#xA;3BBin8z6mCsaitDwqBX5KB7qcux0NsQ/zi63V8R31mSh0xw5/j8Wzvyj5K/QtxcapqF7JqevXyhb&#xA;u+k2AWtfTjX9ldh93bpmViw8Jsm5F0uu7Q8YCEI8GKPIfpLJ8vda7FXYq7FXYq7FWC+Yx9a/NTyt&#xA;at8SWdvd3ZX3dCin/gkGYuTfLEd1u60vp0OWX86UQzrMp0rsVfPH5vSy6p+ZTaepqYltrOL/AJ6A&#xA;Sf8AEps1Gr9WWvc972GBi0fH38Uvlt+hf+cQubvzjFpFhbySxaVaQW0UESlyOS+p0UH9lgPow6uz&#xA;Oh0COwahpzkmQDORNn5I3y75W8067p0Oh+ZtJuI7OMcNN1eYLFcWhO/DjKUaWM/ydR2yWPFOY4ZD&#xA;boe5p1WswYJnLhmOL+KI3EvlyPn81f8AMXyjapqlnBqOtWuk6LaW6W2k2wSaeYpGAJHMcacS7SVq&#xA;eVelcOoxCxZqPRh2VrpcEjCEp5JG5HYDy3J5U9E0LSdG8heUQb259SGyEkst48YViZWFVRKsRyoo&#xA;413OZkIjFDfo6DU58mt1HpG8qFe5hzf85DWAu+C6LKbPlT1jOok4+Pp8CtfbnmN+fF8tnbD2Xnw/&#xA;WOL3bfO/0Mu1fTPLv5geWIb23jS84q8lgZGkjCTUoY5PTZWG4ow+nMicY5Y3zdVgzZtDmMT6f53I&#xA;7d4tiutaZe6f5OsPJ2h6cltrmv8A77UbeBpHSGP4fVaSSRpGA+yhJNPtUyicSICER6pOz0+aOTUS&#xA;1GWV48W0Sa3PSgK9/wArQ+vReZPIOiWFloVhDqOiem0msXMkXrpNcMxDiVQaoiqoC/ccE+LFECIu&#xA;PVs0xw67JKWWRhkv0i6odK7yxqz/ADm1GzXla6DpNvccgTLDA0Y49xRXrX35fRlA1hHIB2OTsCE/&#xA;qyZCPM3+hA63+bvnTUb/AOs2942nRBVVLW3PwCnUnlUkk+ORnq5k2DTdp+w9PjjRjxnvLFtW1jU9&#xA;XvnvtSuGubuQANK9K0UUAAFAPoyiczI2XZ4MEMUeGAqK7SNC1jWLoWul2kt3MeqxrUD3ZvsqPcnG&#xA;EJSNAIz6nHijxTkIh7B5d816b5B0FrfWtaOt6jM/w6bZypcC14AgpzLfDv8AaqfkOpOxx5Rij6jx&#xA;H7nk9Vop67LeOHhwH8UhXF+On2li+p/nj5nurmf0rW0Wwc/urWaL1uKjpyYkcie+2US1sieQp2WH&#xA;2cwxAsy4u8GlW18/flve2ZOveU40v+7afGkcb+J+3Ey/8N88Iz4yPVHfyYz7M1kJfusx4f6R3+4/&#xA;oTi2b/nHm5MdYTA8oLMkrX68D14sQxT7jTLB+XP4LiTHa0b3uv6n6rTHRNJ/IbUYZLi2W3iEW0i3&#xA;lzPCQCaA0mkAI9xk4QwHcNGoz9qYyAeI3/NjE/cGT2ekeSVtLg+VbDSL7UoF5Rxq0Tmp3HORRK61&#xA;7ZcIQr0CJLrcmfU8Q8eWSMD7/u2DFNL8wefvM+sXWhz6lbeVrm1+F7COAtcsgFeUZkJUindG6b9M&#xA;ojkyTlw3wuzzaXS6bGMojLMD1v0/Gv0hlGl/lX5atrgXup+trmo9WutQczVP+ofhp/rVy+OliDZ9&#xA;R83XZu2c0hwwrHDujt9rMI40jRY41CIgAVFFAAOgAGZDqSSTZbxQ7FXYq7FXYq7FXYqwfUSv/K4d&#xA;JqCT+ipuPsfUbr9GY0v74f1Xc4v+M+f/AAwfcu81fmxoXlrV5NLvbW5lnRFcNCEKkOtVryZCN9sc&#xA;uqjA0V0XYmXUY+OJiB53+piupfnhYX3lO/EKSWWtyOYrSBCx/dMw/eeqAApCVHjXplEtaDA9JOzw&#xA;+zs4Z43UsfMnz7q97GPNHGP87FMy/ANTsmdSOq/uj0PiMoy/3/xDsdHv2bt/Mn+lF/mt5082WXnP&#xA;UdMs9SntLGH0TFHAREfjgjZjzQK5+Inqclqs0xMgHZq7F7PwT08ZyiJSN89+pYv5L1G4uPPWhzX0&#xA;8lw312Ec5XZjVnAG7V70yjDInIL73Z9oYhHTZBEAek8mQ6Rrd0PPFz5b1CyOq6dLq0pitG/vLeYT&#xA;sfVgb9kAirj7JFa5dCZ8ThIscTr8+mj+WGaEuCYxjfpIcPI/o6vQvzytLy48kc7cFkt7qKa5C7/u&#xA;grpU+wd1zL1oJht3ui9nZxjqd+sSB79nzvmne+fQH5DWl5B5QuJZlKwXN28lsDXdQiIzD2LLT6M2&#xA;+hBEPi8J7SzidQAOYjv9qX3X5viy/MaewuYYodFhkayubnhWblGSvqMw/ZWSu3hU9cgdXWSj9LfD&#xA;sLj0gmCTkI4gOm/T5faoebtG8w+T7lvNHky5LaJckT3dih9WBee/qcKlWjev2l3XsaYMsJYzxw+l&#xA;nodRi1cfA1A/eDYHkfd7x9qQXP5s6JfXlu9/5S0+W3IpfMUR52YndonKrx+RrXxyk6qJO8Q58OxM&#xA;kIkQzTB6d3x/HwZVrtv5Cg0O11/R/Kcet6dcBmnltiY/Q4gf3iAMR3rttTfMiYxiPFGPEHV6aWqO&#xA;Q4smY45jlfX3H8W89vPPmiR3cjaT5U0uG3IAi+txtcyAjqTVgm/hx+/MOWeN7RDvsfZuQxHiZshP&#xA;ka/azXyT+dumRWzWevWsdiI94JrGIiIj+VolrxPuNj7d8nDrRVS29zp+0PZ6ZPFiJl38R3+bIbFP&#xA;yn8+tKIrWB76paROJtbk9y/wFGf51Pvlw8LL73AyHXaKrJ4f9NH9iWan/wA4/aDMxbTtSuLOv7Mq&#xA;pOo+VPSb7zkJaCJ5GnJw+0+UfXGMvdt+tjt5+QOswK0i6vZ+im7STB4gB4nZx+OUnQHvDn4/abGd&#xA;uCV+VFLj+Tlyo5P5i0hVH2mM52H/AAOQ/Jn+cHI/l6P+p5PkuH5WaDEa33nTS4U/4rZJGI9lMiY/&#xA;lY9ZhH8s5T9ODIfs/Qm3llvy18qarHfafql/r2rorJHb2cJCMHUqQVoobr/Ocsx+FjNgmRcXWfnN&#xA;VAxnCGPH3yP4+5ko03zX5v8AMmk6zdaQnl+x0uZZknmNb6VVNfTKgDip/lYbb9cu4Z5JAkcIHzdf&#xA;4uDS4Z44z8WUxVD6R5/2PSszXnXYq7FXYq7FXYq7FXYq7FWDeZ/9E/M7yleNtHdR3do7DxEfJAfm&#xA;z5i5NssT73daP1aLNH+aYy+15x+fVmYvOFvcAfDc2cZJ/wApHdT+AXMPXD135PQezU705HdL9Aeb&#xA;ZhPRMx/MK5ll1rSvMEZq+p2Fpdl+v76JfScH3DRZk6g+oS7wHUdlwAxzxH+Cco/A7j72V/mX5Sk8&#xA;wanY+ZLO8srOw1OzhkMl7cJBVwK7cuvwFBmRqcXGRIEAEdXV9ka4YISwyjKUoSP0i/xvbEofJMdp&#xA;Mk7eatFilhZXRormSVlcEEfYjI29jmOMNfxRdrLtEyFeDlIPfED9L0bzHo3l7Tob3zQ2qrptz5jj&#xA;jiivhbTzRQiSMeuYeA5AzgfCzU2rTMzJCIuV1xPP6TPlyGODg4xiJNcQBO+1/wBX+1O/I/nPy1f6&#xA;Z+hX1ZdTksbVjc3U8DWyNboVjrIJWYHZwGNd++W4c0SOG7oOH2joM0J+JwcAlLYA8W/PalYflL+X&#xA;c1yL1NNVlY8wiTS+ia77KGpT2G2P5XHd0w/lvVgcPF9gv7lTUPPnl+xTUNM0Vori90ixmuzbwgCB&#xA;FtuIMXJaDlQ9F6UNcMs8RYjzAY4uzcszGeSxGcxGzz9XV5r5/wDKFvrtl/jjyvW5tLsepqVmu8kU&#xA;tPjbiPA/bHb7XQ7YWfFxjxIPRdma44Jfls+0o/SehH45fLmv/K381RpqQ6BrrctNNI7S7an7kMT8&#xA;MpPWPfY/s/LodNqq9MuTHtnsXxLy4vr6jv8Ad5/f70d52/KKz1CFtd8lyRXEEtXexhdXjahIY27g&#xA;lev7Ffl4ZLNpAfVBp7P7cljPhakEEdTz/wA79f8Aaw7yT581jyRfXUEls01vJUXOnzExFZV2DCoJ&#xA;Vh0O24+jMfDnliJDtu0OzcesiCDR6SG+zKIdR/Kzzjp811rkcfl7WkakktuSgk5miuq0Kv8A5VVq&#xA;Otab5eJYsguXpk62WLW6SYjiJy4/P8beSB1T8jNfWMXOh3ttq1nIOULBhE7KdwRUtGR788hLRS5x&#xA;Nt2H2jxXWWMoS+f7fsY1L5A8/wCnTiQaPepNEapJbI0hBHdWh5fhlJwZI9C7GPaelyCuONHv2+9M&#xA;IfM/5q6ffw3sr6iZYV9IJcxSsjKDUq6MtG+fX3yYyZQb3aJaPQziYjgo77Efj9DM/LXnnzB5jSXy&#xA;/wCatDuL2w1FhE13bQSJ6Ic7FwBTihoeVainfMnHmlP0zjsXUavs7Fp6y4MgjKO9Ejf3e/u6oX/B&#xA;mh+TNbSLzHp0epeXL2Xhaaw3IPbu3RLhVIUj3p7jwEfBjjl6hcT1bPz+XV47wyMMsRvH+d/V/H63&#xA;pcH5e+R4DVNDsyf+LIlkH3PyzMGngOgeel2pqTzyS+dJzaWFjZp6dpbxWyHqkSKg+5QMtEQOThzy&#xA;SmbkSfer4WDsVdirsVdirsVdirsVdirsVYP+bcMsOiWOuwIWm0K+gvKDqYw3Fh8iStcxdUKiJfzS&#xA;7rsSQOSWI8skDFj358aal95e0vXbajxwPxLjvFcqGVvlVB9+Va6NxEg53s3l4Ms8R6/fF4fmre0Z&#xA;jbp+nPy6kgX4r/yxM06J3NldH95Qd+Eo5HwBzJHqx+cfudRI+Dqwf4cwr/Ojy+YTzysq+c/y/uvK&#xA;xIOtaMTd6RXYvGSeUdfmxX6V8MtxfvMfB/EOThaz/BNUM/8Ak8m0vf3/AI82LeUtEtWmutX1qMjR&#xA;tGo93C3wtPNWkVqtf2nYfF4LXKMUBvKXIfinZ67USoY8Z/eZOXkOsvh080VZ/mHfNqmoy6xCuo6V&#xA;q5H1/TmNFCrtGYT+w0QoFPt8iJDUGzxbg9GrJ2VEQiMZ4J4/pl99999WV+R/J+kXerXU3l3V47vS&#xA;9Qsbq0urSf8Ad3tus8fEc4/21V+Pxrl+HDEk8J2I+LrO0dfkjjAzQMZxnEgj6TR6Hpt0Qev+XvOV&#xA;kIPL/lnS76HTrGQSyX6K0b3d0vWdnU/Cop+7Wuw365HJjmPTEGh9rbptVp53lzTgZy24f5sf5v6y&#xA;yryzpc0r3S+d47O01m6sp7UzwzIL6a2eMmUzQxc0JVFqJOviMyMcf59cVfF1mrzAV+WMpY4yBog8&#xA;IN7UTvz6MX8yeavNfla9sBoccdn5XtgRpfoET210hNWeWQfad+pGxXt45j5Ms4EcO0enm7LSaLBq&#xA;Yy8UmWY/Ve0o+4dw+37ELJovlnz4GufL5j0bzKQWuNGlPGCdhuWt27H/ACafQPtEGEcu8dpdzaNR&#xA;m0Xpy3kw9J9R/W/H6kN5Y83eafy51Cex1Gwka2lqZLCZjGOY2EkUlHX5lQQw+jI48s8Johs1mhwa&#xA;+AlCQsfxDf4EbfsZx5y1fyR5n8ot5hh079JNaPHHfNGxt7y2SQfzlW5cWI2IZevzzKzThOHFV/e6&#xA;XQYNTptR4RlwcV11jL8fAvLf8PaFqD/7htZjRj9m01MfVZPkJQXgb6XX5Zg+HE/Sfns9N+ay4/7y&#xA;B98PUPl9X2FkugL+b/lO2eDTrCaaylo6xqgvIga15RmIvTl3od8uh42MbDb5uu1J7P1RucgJD/NP&#xA;xt6x5S8x+ZNd0O7a90qTSNZgUrELmKWOB3ZT6bqHAbiGHxDt475n4skpRNii8vrtJhw5RwzGTGe4&#xA;i/Pl9jGPLnmD82teW8FvJpNtPYTtbXdtcpOsiOv+oHWh7UOUY8maV/Ts7LV6XQYOG/EIkLBHDX6E&#xA;4Om/nFN/eavpVrXqYIXkp8vUTLOHMesXE8Xs8coZJe8gfcVjfllqGqMp80+Y7vVoAwdrKILbW7EG&#xA;o5IhIP0Ux/LGX1yJSO14Y/7jFGB7z6iztVVFCqKKoAA8AMynSk23ih2KuxV2KuxV2KuxV2KuxV2K&#xA;uxVCatptvqel3enXH9zdxPC57gOpFR7jqMjOPECG3BlOOYmOcTbBfJ0H6e8j6l5M1Y8L/Si+nT9y&#xA;FU1t5QPAcfh/1cxcI44GB5jZ3Wvl4GpjqMf0z9Q/3w/He8D1CwutPvrixuk9O5tpGimTwZDQ5qpR&#xA;INF7nFljkiJR5EWmHlPzFLoGtw34T1rcgw3tsektvJtJGa7bjp75PFk4JW4+u0oz4zDkeYPcRyKc&#xA;61Y3Xk/X7LX/AC/P6uk3R+s6ReCpUodngk/ylqUYHt79LJxOOQlHl0cTT5I6vFLFlFTG0h+kfeGX&#xA;eY4B+YnliPUPLPGK7spHn1TQVCq7zyABpgRx9RqL8JPUf5W2ZGQeNC49OYdVpJfkMxhm3jIVGfkO&#xA;nl+j3bvKrTS9Qu9Rj023t3e+lk9FLelH51pQg0pTvXpmAIkmur0880IwMyfSBds/0bW7Lynrul6B&#xA;pMyyzNeQDzFqaf7sPqBWt4if91R1NT+0fbMuExjkIjv3Los+nlqsU8uQUOE8Ee7b6j5n7GKeYdQ1&#xA;yw1rU9MGoXIht7qaL0/Wk4kJIQNuXtlGSUhIizzdnpcWKeOE+GNmIPIdyO/K1i/nzT43JIuBcROT&#xA;vX1beRd69dzXJaX+8DT2yK0sj3cJ+Ugl3l3zRq+kM9pbqt3Y3RC3OlXC+rBNU0oY+zeBXfIY8so7&#xA;cx3ORqtHjy+o+mUeUhsR8XoyaB5P8npb+cdQtp7W7kT1NO8tTsrvHc1NDz+1xXYguKr3+KgzM8OG&#xA;P1n5PPnU6jVk6eBEo/xZB1H47ufu3SLQvOHmPWdQvtR1y4Sby3bt9Y1K3uYkngANRHBAkgPGR/sp&#xA;xI/mPQ5XDNKRJl9PVzdToMOGEYYhWY7RIJB8zKug6/JMvK35g/lrp01236FutNS/jMN3axyfWraR&#xA;Cf2lcqdqnovc5PFqMQvarcfWdl6zIB64z4TYNcMvsYNdaPp+qeaV03ysZbi1vJVWzWZeLry3Ibr8&#xA;Kb/F4ZimAlOodXdQzzx4OPPQlEb1+Or27zBcXHlHy/oflby0VXV76VLa0dlDUAIaedlNRuW3r4nw&#xA;zZ5D4cRGPMvG6WA1WXJnzf3cRZ/QFQ+XPzUnHpzea4II2+1JDZxl/oqF/Xj4eU/xfYx/N6EbjCT7&#xA;5FO/J/k6z8tW1ysdxLeXl7J617eTmryPvvTt1P8AXLcWEQHeS4eu18tQRYEYxFADon+WuC7FXYq7&#xA;FXYq7FXYq7FXYq7FXYq7FXYq7FXYq8+85pN5X8z2vnW1Qtp84Wy8wRIK/uyQI56eK7D6AO5zEzei&#xA;QmOXV3ugI1OE6aX1j1Q9/UMe/OjyWl9bR+b9IAmQxob/ANPcPFQencCnUBaBvah7HKdZhscYdh7P&#xA;9ocBOnybb+n39YvGM1r17JvKvmy3sbWbRNagN95dvWBngB/ewSdBPbk7K4/HL8WWhwy3iXW63RGc&#xA;hkxnhyx5HofKXkir7Qdc8rTReY/Ld8bvSSa22rWu/EEj93cJvwPZlcUP4ZKWOUPVE7d7Vj1OLUg4&#xA;c0eHJ1ifvievwZXpH5o+V9WEo8x2h0rWLiA2r69YIOfpvsT0d0NNtg30ZfDVRl9Qo94dZn7GzYq8&#xA;E8eMG+CX4o/Yl0f5SQXsq3HlbzLY6gAQ8ccjenKpBqAQnqGvzAyP5S94SBbz24YCs+Kcfu+2v0pj&#xA;51/KLzXq3my/1CwjgFndusqs8oFGZFMlRSv269slm0k5TJDR2f25gxYIwnfFHy89vsWeXPy3Xypr&#xA;dnrHmHXtPsxZOJvqyyFpGoPs/F6Z79gccen8OQlKQFJ1fa35nHLHixzlxbXX9qEk85+QvKzSN5Ss&#xA;G1LV2J/3MXwPFOXeNCFb7lX5nInNjh9As97aOz9Vqa/MS4Mf82P6fwWOLp+teZZpPMXmS9a20zlS&#xA;bUpx9qh/urWIU5t4Kg4jvTKeGU/VI7d/6nYHLj04GHDG5/zR98j0+O6X6/5gjvYotN02I2eh2hJt&#xA;rUkF3cijTzsPtyt9yjYbZDJkvYbRDfpdKYEzmeLJLme7yHl9/MpLlTmvdfyh8lQ6FpUvmnWQILia&#xA;Jnh9Tb0LYDkztXoXG/svzObXSYeAcUnie3e0DnmMGPcA/OXd8PvTPyPDP5m8x3nni8jZLUBrPQIX&#xA;2IgUkPNTxY1H0sPDJ4RxyMz8HG7RkNPhjpon1fVP39348noOZbonYq7FXYq7FXYq7FXYq7FXYq7F&#xA;XYq7FXYq7FXYq7FVK8tLa8tZrS6jE1tOjRzRN0ZWFCDgIBFFnjmYSEomiHnmiX0vkjVf8Ka4/q+X&#xA;b0t+hNRl3RQ53tpifh7/AOYO2JCXhngl9J5H9DvtRjGsh4+LbLH64j/dD8ftgn5oflfcaDcSatpM&#xA;Zk0SQ8pI1qTbEnoe/p1+y3boffF1Om4dx9Luux+2BmAx5D+8/wB1+15zmE9Cmvl/zRregXDTaZcG&#xA;NZBSeBgHhlXpSSNvhbb6fDLMeWUDs4uq0ePOKmPceo9xZA2p/l1r3xalZy+XdQYfHc6ePVs2b+Y2&#xA;5+JPkmXcWOfMcJ8uTgDDq8H0SGWHdLaX+m6/FY35d2tz8ej+ZtKvUP2I5Zjaznw/dSDb78H5cH6Z&#xA;Ap/lWUf7zFkj7hxD5hx/LvzcH4fXLPh/vz6/Dx6f69fww/l594+a/wAq6er4Zf6Q/qUD5GsbUBtW&#xA;8y6Zap+0lvI97MP9hCpH/DZHwAOch97P+UZS/u8WQ+8cI+ZaGp+SdH30yxk1q9X7N3qQEdsp8VtY&#xA;yS//AD0f6MeLHHkOI+f6k+Dqcv1yGOPdH6v9MeXwCSaxrurazci41G4ad0HGJNljjX+WNFoqL7KM&#xA;qnkMjZc3T6bHhFQFfp956oDIN71f8qPyskvpYdf12HjYoQ9lZyDeY9pHB/3WOoH7X+r12Gl0t+qX&#xA;J5ftrtkQBxYj6up7vIef3e/lKtcv7jz5rTeWtJkK+XbJ1Ou6jGRSUg1EERHUVHX6eg+K+cjllwj6&#xA;RzdZpsY0WPxsn97L6I939I/j9nQ7W1t7S2itbaNYreBBHDEooqqooAPozLAAFB0E5mUjKRslVwsX&#xA;Yq7FXYq7FXYq7FXYq7FXYq7FXYq7FXYq7FXYq7FXYqgNd0LTNc0ybTdShE1tMNx0ZWHR0PZh2OQn&#xA;ASFFv02pnhmJwNEMGs9a1fyPImi+aQ1/5bk/c2GthS/BTsIrld9qbf1HTGEzi9M949/63dZNPj1g&#xA;8TB6c3OUP0x/H7SPzl+TNpfxHWPJ0sbxzD1PqIcGJwe9vJXiP9UmngR0yrNowfVBzNB2/KB8PUA7&#xA;dev+cHkN9YX2n3T2l9BJbXMZo8MqlGH0HNfKJBovV48sZx4omx5KGRbHYq7FXYq7FUXpek6nqt2l&#xA;np1tJdXL9I4lLGniewHiTtkowMjQac2eGKPFMiIeyeTPyf0zRIRrXm2WJ5IAJPqrsPq0NN6ysdnI&#xA;8Ps/PNlh0gj6pvJdoduzzHw8ANHr1Pu7vv8AcmV5rWt+fZ30vy2ZLDyyp4ahrbKUeZRsYrcGhoe/&#xA;406NMzll2jtHvcfHp8eiHHm9Wb+GHd5y/H7JzoWhaZoemQ6bpsIhtoRsOrMx6u57se5zJhARFB0u&#xA;p1M80zOZslH5NodirsVdirsVdirsVdirsVdirsVdirsVdirsVdirsVdirsVdiqnc2ttdW8lvcxJP&#xA;byjjJFIoZWB7EHY4CAdiyhMxNxNEMEm8jeYPLk73nke9C2zsXm0G8Je3Ynr6TndD9P8AsqbZinDK&#xA;G8D8Hdx7RxagcOpjv/Pjz+Pf+NkJe+cvKWqhdK8+6K+k3m4T62jPEe1YbhAGHzFB74DmhLbIKP46&#xA;tmPQZ8Xr0s+OP9Hn8Y/j3JXefkf5Z1WI3flvWSsTbqCUuovYB0KkD51ys6KMt4lysftFmxHhzQ3/&#xA;ANKfx8mN3n5D+c4T+4ltLpe3CRkb6Q6KPxyk6Gfk7DH7Sac8xIfD9qA/5Uv+YP8AywR/8j4f+ash&#xA;+Tydzf8Ay/pP5x+RTKx/IXzfMQbq4tLVO4LvI/3KvH/hsnHQz604+T2l04+kSl+Peyaz/JTyfo0Q&#xA;u/MerGaNd2DstpAfYkszn6GGXjRwjvI/oddk9oNRlPDhhR/0x/HwTK188+W7AHSPIWivqlzsCLSP&#xA;0rcN0DTTsKn/AFj/AMFkxniNsYtxp9nZp/vNVPgHmbPwH49yIt/ImveYp477zze+rCjc4dBtCUtU&#xA;Pb1GBq5+n/ZU2wjBKe+Q/BhLtLFgBjpo7/z5fV8O78bM7t7a3toEt7eJIYIgFjijUKqqOgCjYDMo&#xA;CuTpJzMjZNkqmFi7FXYq7FXYq7FXYq7FXYq7FXYq7FXYq7FXYq7FXYq7FXYq7FXYq7FXYqo3llZX&#xA;tu1veQR3Nu/2oZkV0PzVgRgMQdizx5JQNxJB8mI3n5R+UJZjcWKXGkXJ39awmaI19g3NR9AGY50s&#xA;OY29ztcfbmoAqVTH9IWpDyH5wtv+Of51vFUbqt3Cl0dulWdh+rB4ExymWX8paeX14I/A8Lf+GfzS&#xA;/wCpyj/7h9v/AEx8PL/P+xfzei/1A/6eTR8heb7k/wC5Dzresp6i0iS1P0FGP6sfAmecz9y/ylp4&#xA;/Rgj8TxKtl+Ufk6Gf6xexz6tc/7+v5mlP0heCn6RhGlhzO/vY5O3NQRUagP6Ipl1pZ2dnAsFpBHb&#xA;wL9mKJFRB8lUAZkAAcnVTySmbkST5q2Fg7FXYq7FXYq7FXYq7FXYq7FXYq7FXYq7FXYq7FXYq7FX&#xA;Yq7FX//Z</xmpGImg:image>
               </rdf:li>
            </rdf:Alt>
         </xmp:Thumbnails>
      </rdf:Description>
      <rdf:Description rdf:about=""
            xmlns:xmpMM="http://ns.adobe.com/xap/1.0/mm/"
            xmlns:stRef="http://ns.adobe.com/xap/1.0/sType/ResourceRef#">
         <xmpMM:DocumentID>uuid:0C7A0E4E642CDD11A596E91009E71A2B</xmpMM:DocumentID>
         <xmpMM:InstanceID>uuid:0D7A0E4E642CDD11A596E91009E71A2B</xmpMM:InstanceID>
         <xmpMM:DerivedFrom rdf:parseType="Resource">
            <stRef:instanceID>uuid:f1c065ce-15b7-453e-bf4a-735a529f4226</stRef:instanceID>
            <stRef:documentID>uuid:65E6390686CF11DBA6E2D887CEACB407</stRef:documentID>
         </xmpMM:DerivedFrom>
      </rdf:Description>
      <rdf:Description rdf:about=""
            xmlns:illustrator="http://ns.adobe.com/illustrator/1.0/">
         <illustrator:StartupProfile>Web</illustrator:StartupProfile>
      </rdf:Description>
      <rdf:Description rdf:about=""
            xmlns:xmpTPg="http://ns.adobe.com/xap/1.0/t/pg/"
            xmlns:stDim="http://ns.adobe.com/xap/1.0/sType/Dimensions#"
            xmlns:xmpG="http://ns.adobe.com/xap/1.0/g/">
         <xmpTPg:MaxPageSize rdf:parseType="Resource">
            <stDim:w>80.000000</stDim:w>
            <stDim:h>80.000000</stDim:h>
            <stDim:unit>Points</stDim:unit>
         </xmpTPg:MaxPageSize>
         <xmpTPg:NPages>1</xmpTPg:NPages>
         <xmpTPg:HasVisibleTransparency>False</xmpTPg:HasVisibleTransparency>
         <xmpTPg:HasVisibleOverprint>False</xmpTPg:HasVisibleOverprint>
         <xmpTPg:PlateNames>
            <rdf:Seq>
               <rdf:li>Cyan</rdf:li>
               <rdf:li>Magenta</rdf:li>
               <rdf:li>Yellow</rdf:li>
               <rdf:li>Black</rdf:li>
            </rdf:Seq>
         </xmpTPg:PlateNames>
         <xmpTPg:SwatchGroups>
            <rdf:Seq>
               <rdf:li rdf:parseType="Resource">
                  <xmpG:groupName>Default Swatch Group</xmpG:groupName>
                  <xmpG:groupType>0</xmpG:groupType>
               </rdf:li>
            </rdf:Seq>
         </xmpTPg:SwatchGroups>
      </rdf:Description>
   </rdf:RDF>
</x:xmpmeta>
                                                                                                    
                                                                                                    
                                                                                                    
                                                                                                    
                                                                                                    
                                                                                                    
                                                                                                    
                                                                                                    
                                                                                                    
                                                                                                    
                                                                                                    
                                                                                                    
                                                                                                    
                                                                                                    
                                                                                                    
                                                                                                    
                                                                                                    
                                                                                                    
                                                                                                    
                                                                                                    
                           
<?xpacket end="w"?>
	</metadata>
<g id="Layer_2">
	<path fill="#FFFFFF" d="M21.265,69.885C9.562,69.885,0.04,60.363,0.04,48.66c0-11.703,9.521-21.225,21.225-21.225
		c0.79,0,1.592,0.046,2.395,0.138c1.749-3.19,4.685-5.862,8.343-7.575c3.247-1.52,6.686-1.735,9.622-1.747l0.343,0
		c1.499,0,3.014,0.026,4.482,0.053c1.45,0.025,2.883,0.05,4.322,0.05c4.062,0,8.836-0.182,13.445-1.532
		c3.92-1.149,7.36-3.247,10.225-6.235c0.328-0.34,0.765-0.526,1.233-0.526c0.279,0,0.56,0.069,0.81,0.201
		c0.681,0.364,1.05,1.13,0.903,1.865c-0.314,1.51-0.811,2.946-1.485,4.306c0.357-0.437,0.7-0.876,1.029-1.311
		c0.318-0.42,0.825-0.673,1.355-0.673c0.188,0,0.375,0.031,0.555,0.092c0.712,0.243,1.205,0.929,1.197,1.667
		c-0.048,4.935-2.503,8.816-5.078,11.537c0.47,0.161,0.855,0.515,1.054,0.988c0.266,0.65,0.143,1.43-0.301,1.95
		c-1.069,1.25-2.266,2.346-3.747,3.418c0.236,0.21,0.421,0.479,0.53,0.784c0.217,0.616,0.096,1.276-0.321,1.768
		c-2.071,2.462-4.694,3.938-7.335,5.077c0.441,0.816,0.173,1.689-0.393,2.198c-1.121,1.009-3.812,2.296-6.583,3.199
		c0.345,0.4,0.497,0.943,0.405,1.469c-0.091,0.557-0.441,1.032-0.959,1.297c-2.174,1.107-4.401,1.481-6.674,1.611
		c0.093,0.121,0.18,0.248,0.26,0.38c0.248,0.399,0.307,0.901,0.154,1.366c-0.167,0.475-0.513,0.835-0.956,1.01
		c-1.717,0.679-3.516,0.815-5.362,0.838c0,0.218-0.038,0.437-0.116,0.648c-0.307,0.827-1.043,1.178-1.262,1.266
		c-0.998,0.403-2.02,0.45-2.702,0.45c-0.025,0-0.051,0-0.077,0c-1.584,3.476-4.069,6.452-7.221,8.64
		C29.798,68.577,25.616,69.885,21.265,69.885z"/>
	<path fill="#FFFFFF" d="M74.446,28.676c-0.541-0.042-1.078-0.035-1.595-0.028c-0.105,0.002-0.21,0.002-0.312,0.002
		c3.11-2.708,6.423-6.889,6.478-12.451c0.003-0.303-0.204-0.586-0.503-0.688c-0.282-0.096-0.587-0.004-0.764,0.23
		c-2.196,2.895-4.9,5.903-8.582,7.043c3.902-2.951,6.328-6.596,7.217-10.858c0.06-0.298-0.095-0.608-0.376-0.758
		c-0.281-0.148-0.613-0.096-0.828,0.127c-2.991,3.119-6.583,5.309-10.676,6.509c-5.934,1.739-12.105,1.627-18.073,1.523
		c-1.573-0.028-3.2-0.057-4.803-0.052c-2.821,0.01-6.121,0.213-9.192,1.65c-3.712,1.737-6.607,4.483-8.198,7.755
		c-0.981-0.146-1.978-0.222-2.975-0.222c-11.138,0-20.201,9.061-20.201,20.201c0,11.139,9.062,20.201,20.201,20.201
		c4.14,0,8.121-1.245,11.51-3.601c3.197-2.218,5.655-5.269,7.142-8.839c0.923,0.036,2.037,0.055,3.059-0.358
		c0.055-0.022,0.517-0.22,0.684-0.669c0.083-0.228,0.067-0.474-0.044-0.691c-0.075-0.141-0.184-0.305-0.313-0.494
		c-0.028-0.04-0.057-0.085-0.088-0.13c0.122,0,0.206,0,0.206,0c2.127,0.004,4.325,0.012,6.304-0.771
		c0.167-0.066,0.298-0.205,0.358-0.376c0.056-0.172,0.038-0.363-0.059-0.518c-0.353-0.585-0.916-1.051-1.462-1.504
		c-0.146-0.122-0.289-0.241-0.427-0.36c3.042-0.022,5.933-0.151,8.714-1.568c0.223-0.114,0.376-0.317,0.416-0.56
		c0.042-0.239-0.034-0.484-0.202-0.659c-0.348-0.363-0.756-0.734-1.216-1.11c3.33-0.862,6.762-2.444,7.921-3.486
		c0.284-0.255,0.407-0.71,0.039-1.147c-0.179-0.214-0.46-0.451-0.737-0.666c3-1.186,6.044-2.646,8.329-5.362
		c0.181-0.213,0.231-0.496,0.138-0.762c-0.103-0.287-0.362-0.512-0.663-0.571c-0.424-0.082-0.853-0.139-1.311-0.177
		c1.848-1.149,3.72-2.526,5.375-4.462c0.196-0.23,0.253-0.604,0.137-0.89C74.963,28.872,74.726,28.698,74.446,28.676z M3.35,48.965
		c0-0.018,0.129,0.298,0.291,0.355c0.195,0.066,0.274-0.093,0.4-0.235c0.18-0.202,0.38,0.229,0.619,0.146
		c0.074-0.028,0.138-0.162,0.183-0.15c0.461,0.109,0.468-0.446,0.837-0.355c0.056,0.014,0.094,0.045,0.121,0.089
		c-0.027-0.043-0.065-0.075-0.121-0.089c-0.37-0.091-0.376,0.464-0.837,0.355c-0.045-0.012-0.109,0.122-0.183,0.15
		c-0.238,0.083-0.439-0.348-0.619-0.146c-0.125,0.142-0.205,0.301-0.4,0.234C3.479,49.264,3.35,48.948,3.35,48.965L3.35,48.965z
		 M69.075,36.482c0.008,0.012,0.007,0.023-0.006,0.034C69.082,36.505,69.083,36.494,69.075,36.482z M41.297,54.644
		c0.003-0.009,0.016-0.014,0.014-0.026C41.312,54.63,41.3,54.635,41.297,54.644z M41.491,23.026
		c3.744-0.146,9.231,0.032,14.157-0.188c0.985-0.043,1.948-0.104,2.869-0.185c-0.921,0.082-1.884,0.142-2.869,0.185
		C50.722,23.058,45.235,22.879,41.491,23.026c-6.686,0.26-11.668,2.8-13.769,7.313l-0.001,0
		C29.823,25.826,34.805,23.286,41.491,23.026z M73.018,15.852c-2.113,2.766-5.352,4.815-9.609,6.005
		C67.665,20.667,70.904,18.618,73.018,15.852z M8.118,48.587c0-7.292,5.91-13.205,13.202-13.205c1.925,0,4.026,0.492,5.87,1.349
		v0.001c-1.844-0.857-3.945-1.349-5.87-1.349C14.028,35.383,8.118,41.295,8.118,48.587L8.118,48.587z M28.213,56.708
		c-0.895,0.753-1.909,1.371-3.02,1.798l-0.282-3.936l0.282,3.935C26.304,58.078,27.318,57.46,28.213,56.708L28.213,56.708z
		 M24.835,53.496C24.835,53.496,24.835,53.496,24.835,53.496l-0.182-2.535L24.835,53.496z M26.555,52.95L26.555,52.95l3.139,2.231
		c-0.26,0.312-0.565,0.682-0.987,1.088h0c0.422-0.406,0.727-0.776,0.987-1.088L26.555,52.95z M19.141,48.542
		c0-0.607,0.247-1.157,0.645-1.556C19.388,47.385,19.142,47.935,19.141,48.542c0,1.217,0.985,2.202,2.199,2.202
		c0.51,0,0.973-0.18,1.346-0.47c-0.374,0.29-0.836,0.47-1.347,0.47C20.126,50.745,19.141,49.759,19.141,48.542z M22.736,52.399
		c0.492-0.178,0.939-0.446,1.324-0.786C23.676,51.953,23.228,52.222,22.736,52.399z M14.751,40.168l3.35,2.42L14.751,40.168
		C14.751,40.168,14.751,40.168,14.751,40.168z M18.133,43.4c-0.386,0.241-0.751,0.522-1.08,0.851
		c-0.685,0.688-1.184,1.507-1.475,2.401h0c0.291-0.894,0.79-1.714,1.475-2.401C17.381,43.922,17.747,43.641,18.133,43.4z
		 M18.915,51.851l-2.538,0.174c0.2,0.286,0.425,0.559,0.676,0.809c0,0,0,0,0,0c-0.25-0.25-0.476-0.523-0.676-0.809L18.915,51.851z
		 M21.34,42.475c-0.853,0-1.678,0.179-2.437,0.512v-0.001C19.662,42.654,20.487,42.475,21.34,42.475
		c0.576,0,1.138,0.083,1.675,0.238C22.479,42.559,21.916,42.475,21.34,42.475z M19.488,42.023c0.589-0.168,1.21-0.259,1.852-0.259
		l0,0C20.698,41.764,20.078,41.855,19.488,42.023z M15.37,47.488L15.37,47.488c-0.059,0.346-0.095,0.697-0.095,1.054
		c0,0.992,0.238,1.943,0.682,2.798l0,0c-0.443-0.855-0.682-1.806-0.682-2.798C15.275,48.184,15.311,47.834,15.37,47.488z
		 M19.337,54.266l-0.048-0.314L19.337,54.266L19.337,54.266z M24.008,53.984c-0.804,0.398-1.708,0.625-2.668,0.625
		C22.3,54.609,23.204,54.382,24.008,53.984z M21.34,55.321C21.34,55.321,21.34,55.321,21.34,55.321c1.035,0,2.033-0.236,2.936-0.673
		C23.373,55.085,22.376,55.321,21.34,55.321z M23.597,42.155l-0.446-4.115L23.597,42.155c0.079,0.025,0.155,0.052,0.231,0.082
		l3.19-2.72l-3.19,2.721C23.752,42.208,23.675,42.181,23.597,42.155z M16.413,58.019L16.413,58.019
		c-1.038-0.542-1.973-1.25-2.774-2.087C14.44,56.769,15.375,57.477,16.413,58.019z M20.083,59.149l-0.569-3.728L20.083,59.149
		L20.083,59.149z M21.23,55.316c-0.372-0.006-0.74-0.042-1.101-0.107l0.61,4h0l-0.61-4.001C20.49,55.274,20.858,55.31,21.23,55.316z
		 M23.878,43.034c0.644,0.296,1.238,0.703,1.753,1.217C25.116,43.737,24.522,43.33,23.878,43.034z M27.277,40.137l-2.806,2.392
		L27.277,40.137L27.277,40.137z M32.267,55.97l-1.552-0.552c-2.112,2.899-5.533,4.784-9.395,4.784
		c-6.414,0-11.614-5.2-11.614-11.614l0,0c0,6.413,5.2,11.613,11.614,11.613c3.862,0,7.283-1.884,9.395-4.784L32.267,55.97
		C32.267,55.969,32.267,55.97,32.267,55.97z M33.457,54.6c-0.116-0.214-0.419-0.1-0.626-0.223c-0.154-0.091-0.225-0.405-0.375-0.528
		c-0.114-0.095-0.392,0.119-0.535,0.037c-0.201-0.12-0.353-0.375-0.512-0.552c-0.175-0.193-0.337-0.406-0.508-0.6
		c-0.163-0.185-0.334-0.349-0.539-0.473c-0.112-0.064-0.33,0.077-0.463,0.043c-0.238-0.064-0.375-0.478-0.57-0.649
		c-0.112-0.1-0.289-0.111-0.389-0.207c-0.1-0.098-0.121-0.277-0.228-0.393c-0.139-0.155-0.346-0.21-0.497-0.334
		c-0.208-0.167-0.361-0.595-0.521-0.831c-0.157-0.233-0.392-0.26-0.543-0.465c-0.191-0.257-0.303-0.691-0.535-0.951
		c-0.233-0.265-0.818,0.157-0.997,0.513c-0.146,0.291-0.215,0.621-0.191,0.94c-0.024-0.32,0.045-0.649,0.191-0.94
		c0.179-0.355,0.764-0.777,0.997-0.513c0.232,0.26,0.343,0.694,0.535,0.952c0.152,0.205,0.387,0.231,0.543,0.464
		c0.16,0.236,0.312,0.664,0.521,0.831c0.15,0.125,0.357,0.179,0.497,0.334c0.107,0.116,0.128,0.295,0.228,0.393
		c0.1,0.096,0.277,0.107,0.389,0.208c0.196,0.171,0.332,0.584,0.57,0.649c0.133,0.034,0.351-0.107,0.463-0.043
		c0.205,0.125,0.375,0.289,0.539,0.473c0.171,0.194,0.333,0.407,0.508,0.601c0.159,0.176,0.312,0.431,0.512,0.551
		c0.143,0.083,0.42-0.131,0.535-0.036c0.15,0.122,0.221,0.437,0.375,0.527C33.038,54.5,33.341,54.386,33.457,54.6
		c0.148,0.266,0.406,0.88,0.649,1.229C33.862,55.48,33.605,54.866,33.457,54.6z M48.828,25.832c-0.127-0.007-0.254-0.011-0.382-0.02
		c-0.796-0.054-1.589-0.108-2.382-0.157c0.793,0.048,1.586,0.103,2.383,0.157C48.574,25.821,48.7,25.824,48.828,25.832z
		 M6.52,49.499c0.432-0.189,0.499-0.582,0.586-0.979C7.018,48.917,6.952,49.31,6.52,49.499c-0.189,0.085-0.419,0.055-0.551-0.163
		C6.1,49.554,6.331,49.584,6.52,49.499z M7.593,50.729c0.324,1.45,0.665,2.788,1.292,4.105c1.114,2.34,2.86,4.179,5.119,5.604
		c6.309,3.983,14.709,1.867,18.666-4.099c0.571,0.118,1.286,0.353,1.963,0.448c0.372,0.053,0.742,0.053,1.114,0
		c0.036-0.005,0.108-0.025,0.168-0.047c-0.061,0.022-0.132,0.042-0.168,0.048c-0.372,0.052-0.742,0.052-1.114,0
		c-0.678-0.096-1.393-0.331-1.963-0.449c-3.956,5.966-12.357,8.082-18.666,4.099c-2.259-1.425-4.005-3.264-5.119-5.604
		C8.258,53.518,7.917,52.179,7.593,50.729c-0.216-0.972-0.041-1.929-0.222-2.886C7.553,48.799,7.377,49.757,7.593,50.729z
		 M38.177,55.126c-1.426-0.484-2.847-0.96-4.015-1.4v0C35.33,54.166,36.751,54.641,38.177,55.126L38.177,55.126z M27.647,47.734
		c-0.038-0.044-0.05-0.163,0.001-0.217C27.597,47.571,27.609,47.689,27.647,47.734c3.43,4.058,8.193,7.103,13.421,6.98l0,0
		C35.84,54.837,31.077,51.792,27.647,47.734z M29.588,45.136c0.339-1.208,0.783-2.375,1.215-3.55
		c0.985,0.158,1.894,0.508,2.799,0.936c0.79,0.373,1.623,0.691,2.24,1.306c0,0,0,0,0,0c-0.617-0.614-1.449-0.933-2.239-1.306
		c-0.906-0.428-1.814-0.778-2.799-0.936C30.371,42.761,29.927,43.928,29.588,45.136L29.588,45.136z M32.203,37.012
		c0.031-0.453,0.257-0.77,0.36-1.192c0.131-0.54,0.966-0.675,0.953-1.421c-0.004-0.412,0.805-0.332,1.06-0.692
		c0.103-0.144,0.205-0.364,0.341-0.387c0.71-0.118,1.394-0.009,2.094,0.14c-0.7-0.148-1.384-0.257-2.094-0.139
		c-0.136,0.023-0.239,0.244-0.341,0.387c-0.255,0.359-1.064,0.28-1.06,0.692c0.013,0.746-0.822,0.881-0.954,1.421
		C32.46,36.243,32.234,36.56,32.203,37.012L32.203,37.012z M57.331,29.592c0.378-0.122,0.794-0.164,1.19-0.27
		c0.19-0.05,0.223-0.51,0.319-0.539c0.136-0.04,0.297-0.054,0.473-0.055c-0.176,0.001-0.336,0.016-0.473,0.055
		c-0.095,0.029-0.129,0.488-0.318,0.539C58.125,29.428,57.709,29.47,57.331,29.592c-0.293,0.091,0.09,0.646-0.303,0.77
		c-0.666,0.213-1.402,0.058-2.074,0.439c-0.133,0.075-0.296,0.077-0.469,0.069c0.172,0.008,0.335,0.006,0.468-0.069
		c0.672-0.381,1.409-0.226,2.074-0.439C57.421,30.239,57.037,29.683,57.331,29.592z M72.875,30.369
		c0.014-0.025,0.016-0.047,0.011-0.066C72.89,30.322,72.888,30.344,72.875,30.369z M67.585,31.375
		c-0.005-0.06-0.013-0.12-0.013-0.174C67.572,31.256,67.58,31.316,67.585,31.375z M33.896,48.991
		c-0.014,0.007-0.088,0.118-0.084,0.154C33.807,49.108,33.882,48.998,33.896,48.991z M40.349,38.379c0,0-0.001-0.001-0.001-0.001
		C40.348,38.378,40.349,38.378,40.349,38.379z M40.069,38.136c-0.113-0.034-0.362-0.015-0.372-0.05
		c-0.111-0.326-0.206-0.496-0.41-0.688c0.204,0.191,0.298,0.361,0.41,0.687C39.707,38.121,39.956,38.102,40.069,38.136z
		 M39.411,41.248c0.066-0.092-0.041-0.351,0.057-0.446c0.162-0.162,0.387-0.085,0.632-0.245c0.157-0.1,0.303-0.359,0.429-0.432
		c0.239-0.139,0.554-0.155,0.826-0.175c0.771-0.055,1.545-0.021,2.328,0.08c0.666,0.084,1.31,0.148,1.965,0.339
		c1.074,0.311,2.128,0.544,3.079,1.125l0,0c-0.951-0.581-2.005-0.814-3.079-1.125c-0.655-0.191-1.299-0.255-1.965-0.339
		c-0.782-0.1-1.557-0.134-2.328-0.079c-0.271,0.02-0.587,0.036-0.826,0.174c-0.126,0.073-0.271,0.333-0.429,0.433
		c-0.246,0.159-0.471,0.083-0.632,0.244C39.371,40.897,39.478,41.156,39.411,41.248c-0.09,0.125-0.286,0.146-0.407,0.216
		c-0.127,0.066-0.388-0.043-0.584,0.039c-0.196,0.081-0.203,0.267-0.332,0.331c-0.474,0.244-1.166-0.041-1.494-0.033
		c-0.168,0.002-0.125,0.269-0.071,0.321c0,0,0,0,0,0c-0.055-0.052-0.098-0.319,0.071-0.322c0.328-0.008,1.019,0.276,1.494,0.033
		c0.129-0.064,0.136-0.25,0.332-0.331c0.196-0.082,0.457,0.028,0.584-0.039C39.124,41.393,39.32,41.372,39.411,41.248z
		 M50.224,46.837c-0.159,0.014-0.157,0.293-0.29,0.324c-0.049,0.012-0.098,0.015-0.146,0.011c0.047,0.004,0.096,0.001,0.146-0.011
		C50.066,47.131,50.064,46.851,50.224,46.837C50.223,46.837,50.223,46.837,50.224,46.837z M48.972,46.913
		c-0.044,0.003-0.088,0.014-0.132,0.036c-0.126,0.062-0.233,0.09-0.339,0.094c0.106-0.004,0.213-0.033,0.338-0.094
		C48.883,46.927,48.928,46.917,48.972,46.913z M37.057,43c0.02,0.051,0.052,0.099,0.095,0.144C37.109,43.098,37.076,43.05,37.057,43
		c0.09,0.025,0.262-0.223,0.269-0.294c0.006-0.078-0.029-0.14-0.086-0.193c0.058,0.053,0.092,0.116,0.087,0.193
		C37.32,42.778,37.147,43.026,37.057,43z M44.644,45.923c-0.094-0.004-0.191,0.003-0.292,0.024c-0.1,0.022-0.195,0.021-0.288,0.01
		c0.093,0.011,0.188,0.012,0.288-0.01C44.452,45.926,44.55,45.919,44.644,45.923z M46.708,46.719
		c0.214-0.036,0.412-0.176,0.611-0.145C47.121,46.543,46.922,46.684,46.708,46.719z M51.899,47.449
		c0.065-0.002,0.118-0.125,0.193-0.157c0.083-0.032,0.165-0.037,0.247-0.029c-0.082-0.007-0.163-0.002-0.246,0.029
		C52.017,47.324,51.964,47.447,51.899,47.449L51.899,47.449z M52.847,47.364c0.089,0.009,0.184,0.005,0.283-0.024
		c0.123-0.037,0.243-0.04,0.359-0.018c-0.116-0.021-0.237-0.019-0.359,0.018C53.031,47.369,52.937,47.374,52.847,47.364z
		 M47.518,38.815c-0.193,0.026-0.35,0.2-0.565,0.251c-2.011,0.464-3.907,0.335-5.87-0.137c-0.303-0.072-0.507-0.31-0.726-0.542
		c0.219,0.232,0.423,0.47,0.726,0.542c1.962,0.472,3.858,0.601,5.87,0.136C47.167,39.015,47.324,38.842,47.518,38.815
		c0.703-0.091,1.438-0.131,1.984-0.654c0.387-0.366,1.001-0.257,1.432-0.546c0.324-0.219,0.739-0.221,0.935-0.529
		c0.159-0.252-0.166-0.368-0.348-0.422c-0.268-0.082-0.532-0.165-0.796-0.247c0.265,0.083,0.529,0.165,0.797,0.247
		c0.182,0.054,0.507,0.17,0.348,0.423c-0.196,0.308-0.611,0.31-0.935,0.529c-0.43,0.289-1.044,0.179-1.432,0.546
		C48.956,38.685,48.221,38.725,47.518,38.815z M54.441,33.256c-0.27-0.269-0.599-0.394-0.92-0.522
		C53.843,32.862,54.172,32.987,54.441,33.256c0.045,0.043,0.061,0.085,0.068,0.126C54.502,33.342,54.486,33.3,54.441,33.256z
		 M56.011,32.189c-0.2-0.015-0.38-0.08-0.556-0.161C55.631,32.109,55.812,32.175,56.011,32.189c0.044,0.003,0.087,0.002,0.131,0.005
		C56.099,32.192,56.055,32.192,56.011,32.189z M53.792,31.367c-0.178-0.102-0.16-0.299-0.017-0.414
		C53.633,31.068,53.615,31.265,53.792,31.367c0.215,0.122,0.576,0.09,0.788,0.192C54.368,31.457,54.007,31.489,53.792,31.367z
		 M53.958,30.873c0.086-0.016,0.174-0.019,0.263-0.017C54.132,30.854,54.044,30.857,53.958,30.873z M41.858,34.218
		c0.114,0.053,0.225,0.115,0.293,0.211C42.083,34.333,41.973,34.271,41.858,34.218z M41.491,34.035
		c-0.029-0.021-0.048-0.048-0.067-0.074C41.443,33.987,41.462,34.014,41.491,34.035L41.491,34.035z M41.354,33.837
		c0.017,0.037,0.033,0.073,0.054,0.106C41.387,33.91,41.371,33.874,41.354,33.837z M40.804,34.953
		c-0.056-0.042-0.121-0.083-0.188-0.123C40.683,34.87,40.748,34.91,40.804,34.953z M37.72,33.614
		c0.594,0.128,1.101,0.373,1.607,0.617C38.821,33.986,38.314,33.743,37.72,33.614z M39.035,39.235
		c-0.826-0.666-1.883-0.914-2.911-1.199C37.152,38.321,38.209,38.569,39.035,39.235z M32.088,46.071
		c-0.116-0.005-0.229,0.004-0.338,0.038C31.859,46.075,31.972,46.066,32.088,46.071z M31.174,48.774
		c0.094-0.074,0.076-0.199,0.116-0.242C31.25,48.575,31.268,48.7,31.174,48.774c-0.075,0.059-0.151,0.097-0.228,0.12
		C31.023,48.871,31.099,48.832,31.174,48.774z M40.326,47.648c-0.14-0.038-0.119-0.222-0.081-0.246
		c0.331-0.186,0.75-0.081,1.099-0.229c0.188-0.077,0.228-0.33,0.394-0.429c0.217-0.134,0.702-0.117,0.909-0.241
		c-0.207,0.125-0.691,0.107-0.909,0.241c-0.165,0.1-0.205,0.353-0.394,0.429c-0.35,0.148-0.768,0.043-1.099,0.229
		C40.208,47.426,40.187,47.61,40.326,47.648c0.761,0.209,1.509,0.423,2.254,0.618C41.835,48.071,41.086,47.857,40.326,47.648z
		 M47.325,48.999L47.325,48.999c-0.039,0-0.076-0.003-0.113-0.003C47.249,48.996,47.287,48.999,47.325,48.999z M56.644,42.66
		c0.537-0.209,1.127-0.064,1.698-0.146C57.771,42.596,57.181,42.451,56.644,42.66z M55.055,43.077
		c0.029-0.188,0.033-0.424,0.208-0.428C55.087,42.654,55.083,42.889,55.055,43.077z M54.611,36.628
		c-0.4-0.017-0.66-0.706-1.069-0.949c-0.335-0.201-0.827-0.13-1.264-0.196c-0.083-0.013-0.131-0.1-0.144-0.188
		c0.013,0.088,0.061,0.176,0.144,0.188c0.437,0.066,0.928-0.004,1.264,0.196C53.951,35.921,54.211,36.611,54.611,36.628
		c2.006,0.082,4.004-0.102,5.978-0.485C58.615,36.526,56.618,36.709,54.611,36.628z M59.864,37.268
		c-0.079,0.034-0.125,0.413-0.315,0.45C59.739,37.681,59.785,37.301,59.864,37.268z M65.593,32.286
		c0.001-0.095-0.073-0.231-0.085-0.336C65.52,32.055,65.594,32.191,65.593,32.286z M69.066,30.819
		c-0.059,0.003-0.146,0.023-0.24,0.05C68.919,30.842,69.007,30.822,69.066,30.819z M68.757,30.888c-0.001,0-0.002,0-0.004,0.001
		C68.754,30.888,68.755,30.888,68.757,30.888z M68.886,26.639c-0.232,0.148-0.541,0.027-0.71,0.148
		c-1.035,0.761-2.267,0.42-3.416,0.611c0.004,0.216-0.078,0.346-0.212,0.423c0.134-0.078,0.216-0.207,0.212-0.423
		c1.149-0.191,2.381,0.15,3.416-0.611C68.345,26.665,68.654,26.787,68.886,26.639c0.134-0.084,0.124-0.303,0.289-0.351
		c0.118-0.036,0.237-0.061,0.356-0.083c-0.119,0.022-0.238,0.047-0.356,0.083C69.011,26.336,69.021,26.554,68.886,26.639z
		 M62.85,28.111c-0.384,0.256-0.496,0.309-0.749,0.314C62.354,28.419,62.466,28.367,62.85,28.111
		c0.046-0.031,0.105-0.048,0.161-0.068C62.955,28.063,62.896,28.08,62.85,28.111z M55.702,29.128
		c0.114-0.073,0.021-0.446-0.074-0.461C55.723,28.682,55.816,29.056,55.702,29.128z M54.202,28.855
		c0.243-0.22,0.486-0.284,0.726-0.284C54.688,28.572,54.444,28.636,54.202,28.855z M51.261,29.472
		c0.15-0.035,0.116-0.369,0.266-0.387C51.377,29.104,51.412,29.438,51.261,29.472z M46.356,31.256
		c0.694-0.016,1.521,0.007,2.13,0.083c0.836,0.131,1.623,0.261,2.387,0.445c-0.764-0.184-1.55-0.314-2.386-0.444
		C47.878,31.264,47.051,31.241,46.356,31.256c-0.844,0.02-1.822,0.103-2.352,0.747c-0.085,0.106-0.042,0.351-0.231,0.423
		c-0.616,0.237-1.297-0.272-1.827,0.413c-0.319,0.416-1.098-0.095-1.6,0.198c-0.112,0.065,0,0.351,0.088,0.388l0,0
		c-0.088-0.036-0.2-0.323-0.088-0.389c0.503-0.294,1.281,0.217,1.6-0.198c0.53-0.685,1.211-0.176,1.827-0.413
		c0.189-0.072,0.146-0.316,0.231-0.422C44.534,31.358,45.512,31.276,46.356,31.256z M35.936,32.626L35.936,32.626
		c2.913,0.036,5.942-0.375,8.496-1.868c-0.093-0.371-0.341-0.608-0.647-0.797c0.306,0.188,0.554,0.426,0.647,0.797
		C41.877,32.251,38.849,32.663,35.936,32.626z M42.447,29.308c-0.202-0.117-0.427-0.111-0.656-0.049
		C42.021,29.197,42.245,29.191,42.447,29.308c0.123,0.072,0.255,0.135,0.392,0.197C42.702,29.443,42.569,29.38,42.447,29.308z
		 M39.138,29.676c-0.024,0.018-0.044,0.041-0.066,0.062C39.094,29.717,39.114,29.693,39.138,29.676
		c0.549-0.397,1.202-0.205,1.795-0.212C40.34,29.471,39.688,29.279,39.138,29.676z M38.723,30.092
		c0.052-0.039,0.098-0.085,0.142-0.135C38.821,30.007,38.775,30.054,38.723,30.092z M36.233,31.461
		c0.451-0.157,1.019-0.283,0.949-0.894C37.252,31.179,36.684,31.305,36.233,31.461z M35.604,37.898
		c-1.232-0.305-2.576-0.465-3.63,0.14c-0.164,0.093-0.296,0.482-0.49,0.768c0.193-0.285,0.325-0.674,0.49-0.768
		C33.028,37.433,34.372,37.594,35.604,37.898z M31.065,40.178c-0.025-0.179,0.082-0.308,0.216-0.448
		C31.147,39.87,31.04,40,31.065,40.178z M34.91,51.377c0.066-0.057,0.129-0.126,0.191-0.183C35.04,51.25,34.977,51.32,34.91,51.377z
		 M36.873,52.32c0.096-0.105,0.166-0.303,0.219-0.328h0C37.039,52.017,36.969,52.214,36.873,52.32z M41.273,54.688
		c-0.049,0.027-0.136,0.026-0.197,0.026C41.137,54.713,41.224,54.715,41.273,54.688z M34.46,49.68
		c0.905,0.553,1.833,0.923,2.792,1.313C36.293,50.604,35.366,50.233,34.46,49.68z M77.505,19.03c-0.08,0.208-0.396,0.855-0.68,1.32
		c-1.45,2.383-3.528,3.917-6.038,5.057c-0.124,0.055-0.083,0.46-0.319,0.569c0.236-0.109,0.196-0.515,0.319-0.569
		c2.51-1.141,4.587-2.674,6.038-5.057C77.108,19.885,77.425,19.237,77.505,19.03c0.038-0.104,0.087-0.147,0.12-0.133
		C77.592,18.883,77.542,18.926,77.505,19.03z M77.226,18.8c-0.078,0.23-0.608,1.085-0.74,1.346c-1.343,2.199-3.48,3.558-5.662,4.675
		c-3.192,1.625-6.617,2.588-10.151,2.783c-6.297,0.353-12.565,0.116-18.855,0.141c-2.304,0.009-4.477,0.722-6.519,2.012
		c-2.167,1.372-3.703,3.256-4.727,5.505c-0.868,1.903-0.804,4.023-0.981,6.139c-0.232,2.801-1.637,5.274-3.658,6.402
		c0,0,0,0,0-0.001c2.021-1.127,3.425-3.6,3.657-6.401c0.177-2.115,0.113-4.236,0.981-6.139c1.023-2.249,2.56-4.133,4.727-5.505
		c2.042-1.291,4.215-2.003,6.519-2.013c6.29-0.025,12.558,0.212,18.855-0.141c3.534-0.195,6.959-1.159,10.151-2.783
		c2.182-1.117,4.319-2.476,5.663-4.675C76.617,19.885,77.148,19.03,77.226,18.8c0.039-0.117,0.032-0.176,0.003-0.179
		C77.258,18.624,77.265,18.683,77.226,18.8z M73.854,14.624c0.163-0.269,0.2-0.425,0.133-0.453
		C74.055,14.198,74.018,14.354,73.854,14.624z M62.859,19.99c-4.383,1.202-11.857,1.077-18.556,1.13
		C51.002,21.066,58.476,21.192,62.859,19.99c2.61-0.714,4.748-1.419,6.77-2.573C67.607,18.571,65.469,19.276,62.859,19.99z
		 M4.503,41.136c1.162-2.224,2.689-4.088,4.559-5.789C7.192,37.048,5.666,38.913,4.503,41.136z M4.924,41.609
		c-0.186-0.15-0.357,0.301-0.513,0.139C4.566,41.909,4.737,41.458,4.924,41.609z M11.444,63.794
		c-4.834-3.24-8.09-8.725-8.086-14.606C3.354,55.069,6.61,60.554,11.444,63.794z M74.396,29.292
		C74.396,29.292,74.396,29.292,74.396,29.292c-1.025-0.081-2.048,0.026-3.074-0.054c-0.041-0.003-0.069-0.021-0.087-0.048
		c0.018,0.026,0.046,0.045,0.087,0.048C72.347,29.317,73.369,29.21,74.396,29.292z M78.242,16.113
		c0.024-0.032,0.063-0.027,0.096-0.006C78.306,16.087,78.267,16.083,78.242,16.113c-2.813,3.709-6.16,7.111-10.851,7.683
		c-0.056,0.007-0.098-0.012-0.128-0.046c0.03,0.034,0.072,0.052,0.127,0.045C72.082,23.224,75.428,19.821,78.242,16.113z
		 M1.679,48.659c0-10.817,8.77-19.583,19.584-19.583c1.136,0,2.247,0.094,3.328,0.282l0.05-0.093
		c1.603-3.528,4.584-6.154,8.057-7.78c2.812-1.317,5.884-1.582,8.933-1.591c7.7-0.024,15.451,0.731,23.047-1.498
		c4.217-1.236,7.886-3.478,10.946-6.672c0.029-0.03,0.071-0.024,0.104-0.003c-0.033-0.02-0.074-0.025-0.103,0.004
		c-3.061,3.195-6.729,5.437-10.947,6.672c-7.595,2.229-15.347,1.473-23.046,1.498c-3.049,0.009-6.121,0.274-8.933,1.591
		c-3.473,1.625-6.454,4.252-8.057,7.779l-0.05,0.093c-1.081-0.188-2.192-0.282-3.328-0.282C10.45,29.076,1.68,37.842,1.679,48.659
		C1.68,56.095,5.825,62.564,11.93,65.881C5.825,62.564,1.679,56.096,1.679,48.659z M70.755,35.264
		c0.029,0.006,0.059,0.021,0.087,0.04C70.814,35.286,70.784,35.271,70.755,35.264c-0.951-0.181-1.858-0.225-2.796-0.211v0
		C68.896,35.039,69.803,35.082,70.755,35.264z"/>
</g>
<g id="Layer_1">
	<path fill="#FFFFFF" d="M72.796,30.459c-2.603,2.276-5.56,3.743-8.78,4.811c-3.065,1.017-6.228,1.486-9.405,1.357
		c-0.4-0.017-0.66-0.706-1.069-0.949c-0.335-0.201-0.827-0.13-1.264-0.196c-0.167-0.026-0.191-0.348-0.082-0.383
		c0.676-0.22,1.4-0.136,2.128-0.255c0.327-0.055,0.35-0.478,0.585-0.583c0.954-0.425,2.02-0.274,3.055-0.375
		c0.258-0.023,0.127-0.486,0.303-0.565c0.381-0.169,0.78,0.132,1.198,0.229c0.362,0.09,0.365-0.468,0.553-0.413
		c0.74,0.207,1.049,0.036,1.576-0.391c0.096-0.081,0.327-0.007,0.489,0.036c0.167,0.043,0.437,0.143,0.525-0.073
		c0.56-1.386,2.046-0.052,2.907-0.322c0.225-0.069-0.132-0.451,0.039-0.565c0.599-0.387,1.312,0.125,1.923-0.16
		c0.233-0.11,0.01-0.457,0.139-0.6c0.198-0.223,0.546,0.077,0.799-0.044c0.19-0.091,0.506-0.193,0.651-0.2
		c0.702-0.02,1.188-0.348,1.874-0.461c0.111-0.017,0.179-0.203,0.291-0.228c0.535-0.127,1.501,0.047,1.565,0.085
		C72.874,30.262,72.956,30.32,72.796,30.459 M68.206,36.22c0.337,0.079,0.966,0.21,0.862,0.296
		c-5.314,4.358-12.183,5.193-18.569,5.257c-0.625-0.835-1.677-1.195-2.595-1.712c-0.055-0.029-0.053-0.282,0-0.309
		c0.749-0.369,1.584-0.223,2.403-0.35c0.303-0.045,0.389-0.494,0.671-0.579c0.951-0.292,1.877-0.657,2.884-0.616
		c0.844,0.036,1.668,0.107,2.516,0.067c0.254-0.013,0.146-0.521,0.384-0.566c0.945-0.171,1.834,0.203,2.786,0.009
		c0.191-0.037,0.237-0.417,0.315-0.45c1.035-0.417,2.24-0.064,3.334-0.441c-0.113-0.1-0.282-0.25-0.165-0.343
		c0.184-0.143,0.509-0.07,0.716-0.047c0.434,0.045,0.929,0.1,1.353-0.211c0.284-0.209,0.737,0.103,1.065-0.007
		c0.351-0.114,0.678-0.322,1.036-0.205C67.603,36.145,67.875,36.145,68.206,36.22z M54.33,45.237
		c-3.623,0.678-7.033,0.586-10.524-0.303c-0.178-0.048,0.3-0.401,0.554-0.492c0.832-0.293,1.742-0.353,2.578-0.653
		c0.175-0.065,0.313-0.332,0.446-0.466c0.341-0.348,0.93-0.458,1.377-0.592c1.367-0.408,2.805,0.054,4.26,0.268
		c0.577,0.085,1.123,0.148,1.696,0.317c0.071,0.021,0.314-0.074,0.338-0.239c0.029-0.188,0.033-0.424,0.208-0.428
		c0.46-0.011,0.963,0.173,1.381,0.011c0.537-0.209,1.127-0.064,1.698-0.146c0.15-0.022,0.036-0.238,0.189-0.275
		c0.581-0.134,1.19,0.135,1.713-0.109c0.399-0.185,1.287,0.36,1.458,0.578C59.42,43.992,56.985,44.741,54.33,45.237z M54.323,48.294
		c-2.311,0.714-4.646,0.704-6.999,0.705c-2.399,0.006-4.642-0.703-6.998-1.351c-0.14-0.038-0.119-0.222-0.081-0.246
		c0.331-0.186,0.75-0.081,1.099-0.229c0.188-0.077,0.228-0.33,0.394-0.429c0.217-0.134,0.702-0.117,0.909-0.241
		c0.303-0.181,0.391-0.398,0.69-0.577c0.277-0.165,0.617,0.108,1.015,0.021c0.805-0.169,1.386,0.544,2.137,0.763
		c0.301,0.086,0.566-0.178,0.831-0.135c0.303,0.048,0.537,0.326,0.849,0.417c0.244,0.071,0.421,0.08,0.671-0.043
		c0.353-0.171,0.701,0.305,1.095,0.212c0.132-0.03,0.13-0.31,0.289-0.324c0.636-0.05,1.054,0.622,1.676,0.612
		c0.065-0.002,0.118-0.125,0.193-0.157c0.332-0.125,0.639,0.165,1.038,0.048c0.492-0.146,0.939,0.238,1.264,0.617
		C54.545,48.13,54.507,48.239,54.323,48.294z M47.04,51.655c0.221,0.167,0.335,0.444,0.261,0.468
		c-1.445,0.427-3.819,0.184-5.576,0.026c-1.563-0.141-3.038-0.575-4.473-1.156c-0.959-0.39-1.886-0.76-2.792-1.313
		c-0.243-0.148-0.612-0.203-0.648-0.535c-0.005-0.037,0.07-0.147,0.084-0.154c0.528-0.262,1.122,0.113,1.658-0.059
		c0.188-0.062,0.322-0.384,0.477-0.382c0.392,0.004,0.818,0.148,1.179-0.119c0.264-0.2,0.653-0.059,0.929,0.069
		c0.37,0.173,0.966,0.993,1.434,0.9c0.129-0.027,0.906-0.182,1.037-0.106c0.729,0.437,1.906,1.303,2.722,1.35
		c0.16,0.01,0.264-0.47,0.467-0.365c0.494,0.26,0.814,0.628,1.219,0.701c0.13,0.024,0.369-0.181,0.521-0.157
		c0.298,0.043,0.473,0.265,0.799,0.496C46.48,51.417,46.814,51.48,47.04,51.655z M41.068,54.714
		c-5.228,0.123-9.991-2.923-13.421-6.98c-0.051-0.059-0.055-0.25,0.074-0.244c0.601,0.043,1.073,0.435,1.607,0.683
		c0.584,0.267,1.245,1.07,1.845,0.601c0.125-0.098,0.051-0.289,0.182-0.253c0.788,0.207,1.333,0.868,1.906,1.436
		c0.492,0.492,0.747,1.179,1.383,1.491c0.277,0.133,0.487-0.494,0.704-0.305c0.478,0.416,0.808,0.829,1.319,1.211
		c0.212,0.16,0.339-0.323,0.424-0.362c0.225-0.103,0.742,0.415,1.002,0.622c0.327,0.259,0.679,0.61,1.09,0.856
		c0.203,0.12,0.382-0.171,0.57-0.094c0.306,0.125,0.597,0.31,0.929,0.403c0.207,0.057,0.39,0.496,0.551,0.696
		C41.438,54.725,41.19,54.712,41.068,54.714z M29.943,64.43c-2.379,1.379-4.855,2.101-7.543,2.349
		c-1.255,0.115-2.48,0.031-3.723-0.153C10.078,65.356,3.223,57.551,3.35,48.965c0-0.018,0.129,0.298,0.291,0.355
		c0.195,0.066,0.274-0.093,0.4-0.235c0.18-0.202,0.38,0.229,0.619,0.146c0.074-0.028,0.138-0.162,0.183-0.15
		c0.461,0.109,0.468-0.446,0.837-0.355c0.222,0.055,0.159,0.398,0.289,0.61c0.131,0.218,0.362,0.248,0.551,0.163
		c0.691-0.303,0.446-1.126,0.852-1.656c0.182,0.956,0.006,1.914,0.222,2.886c0.324,1.45,0.665,2.788,1.292,4.105
		c1.114,2.34,2.86,4.179,5.119,5.604c6.309,3.983,14.709,1.867,18.666-4.099c0.571,0.118,1.286,0.353,1.963,0.448
		c0.372,0.053,0.742,0.053,1.114,0c0.072-0.011,0.289-0.078,0.268-0.107c-0.566-0.802-1.754-1.746-1.852-2.955
		c1.167,0.44,2.588,0.916,4.015,1.4C36.293,58.875,33.691,62.259,29.943,64.43z M4.503,41.136c1.162-2.224,2.689-4.088,4.559-5.789
		c2.409-2.189,5.104-3.635,8.31-4.349c3.85-0.854,7.428-0.672,11.184,0.977c0.164,0.068-0.305,1.051-0.421,1.006
		c-6.335-2.406-13.776-1.414-18.579,3.509c-1.834,1.877-3.854,3.839-4.237,6.496c-0.312-0.417,0.027-1.027-0.394-1.378
		c-0.186-0.15-0.357,0.301-0.513,0.139C4.261,41.591,4.411,41.315,4.503,41.136z M41.491,21.158
		c7.313-0.155,16.359,0.205,21.369-1.168c4.293-1.174,7.312-2.307,10.631-5.496c0.517-0.498,0.689-0.408,0.364,0.129
		c-2.046,3.392-5.581,5.874-10.446,7.233c-5.474,1.532-15.926,0.935-21.917,1.169c-6.687,0.26-11.668,2.8-13.77,7.313l-1.556-0.624
		C28.05,24.139,34.328,21.311,41.491,21.158z M25.792,50.804c-0.448-0.499-0.465-1.235-0.172-1.818
		c0.179-0.355,0.764-0.777,0.997-0.513c0.232,0.26,0.343,0.694,0.535,0.952c0.152,0.205,0.387,0.231,0.543,0.464
		c0.16,0.236,0.312,0.664,0.521,0.831c0.15,0.125,0.357,0.179,0.497,0.334c0.107,0.116,0.128,0.295,0.228,0.393
		c0.1,0.096,0.277,0.107,0.389,0.208c0.196,0.171,0.332,0.584,0.57,0.649c0.133,0.034,0.351-0.107,0.463-0.043
		c0.205,0.125,0.375,0.289,0.539,0.473c0.171,0.194,0.333,0.407,0.508,0.601c0.159,0.176,0.312,0.431,0.512,0.551
		c0.143,0.083,0.42-0.131,0.535-0.036c0.15,0.122,0.221,0.437,0.375,0.527c0.207,0.124,0.51,0.01,0.626,0.224
		c0.148,0.266,0.406,0.88,0.649,1.229C30.84,55.292,27.988,53.257,25.792,50.804z M21.319,36.972c-6.414,0-11.614,5.2-11.614,11.616
		c0,6.413,5.2,11.614,11.614,11.614c3.862,0,7.283-1.884,9.395-4.784l1.553,0.552c-2.374,3.51-6.389,5.819-10.948,5.819
		c-7.292,0-13.202-5.91-13.202-13.202c0-7.292,5.91-13.205,13.202-13.205c1.925,0,4.026,0.492,5.87,1.349v1.828
		C25.467,37.551,23.461,36.972,21.319,36.972z M26.135,43.751c-0.496-0.499-1.056-0.907-1.664-1.222l2.806-2.393
		c0.017,1.222-0.307,2.727-0.828,3.919L26.135,43.751z M21.34,55.321c1.036,0,2.033-0.236,2.937-0.673l0.291,4.079
		c-1.016,0.322-2.101,0.498-3.228,0.498c-0.2,0-0.403-0.006-0.601-0.016l-0.61-4.001C20.525,55.28,20.931,55.321,21.34,55.321z
		 M19.936,53.96l-0.253-1.666c0.432,0.193,0.906,0.314,1.402,0.343L19.936,53.96z M19.514,55.421l0.569,3.728
		c-1.083-0.129-2.116-0.416-3.075-0.844L19.514,55.421z M15.9,52.573c0.198,0.266,0.41,0.525,0.648,0.764
		c0.73,0.729,1.598,1.263,2.545,1.595l-2.681,3.086c-1.038-0.542-1.973-1.25-2.774-2.087L15.9,52.573z M15.457,52.089l-2.26,3.353
		c-0.767-0.906-1.388-1.941-1.821-3.072L15.457,52.089z M14.646,47.486c-0.053,0.343-0.082,0.696-0.082,1.056
		c0,1.03,0.234,2.021,0.665,2.921l-4.074,0.282c-0.314-1.007-0.485-2.08-0.485-3.192c0-0.102,0.004-0.205,0.009-0.307L14.646,47.486
		z M14.626,46.837l-3.909,0.753c0.107-1.199,0.41-2.34,0.881-3.391L14.626,46.837z M17.513,42.954
		c-1.168,0.801-2.076,1.962-2.559,3.323l-3.065-2.674c0.601-1.142,1.402-2.162,2.356-3.013L17.513,42.954z M18.268,42.503
		c-0.055,0.028-0.112,0.055-0.167,0.085l-3.351-2.42c1.044-0.823,2.244-1.458,3.553-1.844L18.268,42.503z M17.295,49.167
		c0.007,0.05,0.019,0.098,0.025,0.145l-1.364,2.028c-0.443-0.855-0.682-1.806-0.682-2.798c0-0.358,0.036-0.708,0.095-1.054
		L17.295,49.167z M18.242,45.881c-0.086,0.097-0.164,0.203-0.241,0.31l-2.424,0.462c0.291-0.894,0.79-1.714,1.475-2.401
		c0.329-0.329,0.694-0.61,1.081-0.851l0.128,0.09L18.242,45.881z M17.257,48.287l-1.226-1.068l1.561-0.301
		C17.407,47.343,17.291,47.802,17.257,48.287z M18.266,51.254l-1.553,0.108l0.845-1.252C17.73,50.529,17.968,50.916,18.266,51.254z
		 M18.915,51.851c0.02,0.013,0.041,0.025,0.06,0.041l0.363,2.374c-0.849-0.298-1.629-0.776-2.285-1.432
		c-0.25-0.25-0.476-0.523-0.676-0.809L18.915,51.851z M19.943,44.707c-0.382,0.139-0.74,0.332-1.059,0.573l0.012-1.331
		L19.943,44.707z M23.256,44.936c-0.351-0.187-0.73-0.327-1.133-0.405l0.996-0.851L23.256,44.936z M23.151,38.041
		c1.399,0.241,2.708,0.749,3.867,1.477l-3.19,2.721c-0.075-0.03-0.152-0.057-0.23-0.083L23.151,38.041z M22.736,52.399
		c0.492-0.178,0.939-0.446,1.324-0.786l0.125,1.723L22.736,52.399z M21.34,50.745c-1.213,0-2.199-0.985-2.199-2.203
		c0-1.213,0.985-2.201,2.199-2.201c1.218,0,2.203,0.987,2.203,2.201C23.543,49.759,22.558,50.745,21.34,50.745z M21.932,52.638
		l2.076,1.346c-0.804,0.398-1.708,0.625-2.668,0.625c-0.35,0-0.698-0.034-1.04-0.093L21.932,52.638z M18.91,42.216l0.034-4.062
		c0.773-0.176,1.574-0.274,2.396-0.274c0.394,0,0.781,0.028,1.16,0.068l0.434,4.01c-0.515-0.125-1.047-0.195-1.594-0.195
		C20.484,41.764,19.667,41.926,18.91,42.216z M21.34,42.475c0.576,0,1.138,0.084,1.675,0.239l0.021,0.203l-1.812,1.544
		c-0.16,0.005-0.314,0.023-0.471,0.044l-1.851-1.336v-0.182C19.662,42.654,20.487,42.475,21.34,42.475z M24.322,45.747
		c-0.117-0.127-0.244-0.244-0.374-0.353l-0.241-2.214l0.171-0.146c0.644,0.296,1.238,0.703,1.753,1.217l0.534,0.533l-0.415,0.854
		L24.322,45.747z M24.599,46.135l0.971-0.031l-0.41,0.939C25.033,46.677,24.818,46.448,24.599,46.135z M24.835,53.496l-0.181-2.535
		c0.343,0.482,0.785,1.173,1.199,1.525C25.502,52.914,25.289,53.174,24.835,53.496z M28.213,56.708
		c-0.895,0.753-1.909,1.371-3.02,1.798l-0.282-3.936L28.213,56.708z M25.284,54.05c0.3-0.215,0.586-0.449,0.852-0.713l0.419-0.387
		l3.139,2.231c-0.26,0.312-0.565,0.682-0.987,1.088L25.284,54.05z M68.216,24.69c3.228-0.79,5.927-2.476,8.081-4.856
		c0.157-0.207,0.694-0.854,0.799-1.061c0.103-0.208,0.208-0.208,0.129,0.027c-0.078,0.23-0.608,1.085-0.74,1.346
		c-1.343,2.199-3.48,3.558-5.662,4.675c-3.192,1.625-6.617,2.588-10.151,2.783c-6.297,0.353-12.565,0.116-18.855,0.141
		c-2.304,0.009-4.477,0.722-6.519,2.012c-2.167,1.372-3.703,3.256-4.727,5.505c-0.868,1.903-0.804,4.023-0.981,6.139
		c-0.232,2.801-1.637,5.274-3.658,6.402c0.895-1.634,1.832-3.518,2.139-5.445c0.31-1.937,0.007-3.468,0.085-5.178
		c0.179-3.941,2.683-7.339,6.119-9.281c2.433-1.376,4.989-2.23,7.729-2.332c2.151-0.08,4.286,0.1,6.44,0.245
		c2.626,0.178,5.232,0.169,7.84,0.096c0.31-0.007,0.72,0.002,1.032-0.007C60.984,25.778,64.565,25.584,68.216,24.69z M46.039,29.225
		c0.466-0.179,1.111,0.488,1.638,0.029c0.302-0.265,0.893,0.154,1.338,0.355c0.464,0.209,0.785-0.105,1.167-0.351
		c0.25-0.162,0.639,0.32,1.079,0.214c0.15-0.035,0.116-0.369,0.266-0.387c0.515-0.061,0.968,0.424,1.439,0.216
		c0.168-0.076,0.353-0.37,0.536-0.48c0.226-0.137,0.534,0.182,0.699,0.034c0.485-0.439,0.975-0.255,1.426-0.189
		c0.095,0.015,0.188,0.389,0.074,0.461c-1.905,1.182-3.795,1.5-5.972,1.741c-1.051,0.119-3.14-0.077-4.417-0.821
		C44.589,29.631,45.647,29.38,46.039,29.225z M46.953,39.067c-2.011,0.464-3.907,0.335-5.87-0.137
		c-0.409-0.097-0.639-0.496-0.964-0.778c-0.071-0.062-0.41-0.025-0.421-0.066c-0.137-0.401-0.239-0.564-0.563-0.824
		c-0.051-0.041-0.09-0.302,0.072-0.317c0.501-0.041,0.993-0.1,1.489-0.162c0.254-0.031,0.267-0.479,0.487-0.573
		c0.514-0.212,1.097-0.239,1.666-0.298c1.473-0.152,2.908-0.389,4.384-0.279c1.483,0.113,2.86,0.594,4.29,1.031
		c0.182,0.054,0.507,0.17,0.348,0.423c-0.196,0.308-0.611,0.31-0.935,0.529c-0.43,0.289-1.044,0.179-1.432,0.546
		c-0.546,0.523-1.281,0.563-1.985,0.654C47.324,38.842,47.167,39.015,46.953,39.067z M38.869,43.789
		c-0.665-0.167-1.657-0.382-1.812-0.79c0.09,0.026,0.262-0.222,0.269-0.293c0.021-0.31-0.591-0.375-0.803-0.585
		c-0.055-0.052-0.098-0.319,0.071-0.322c0.328-0.008,1.019,0.276,1.494,0.033c0.129-0.064,0.136-0.25,0.332-0.331
		c0.196-0.082,0.457,0.028,0.584-0.039c0.121-0.07,0.317-0.091,0.408-0.215c0.066-0.092-0.041-0.351,0.057-0.446
		c0.162-0.162,0.387-0.085,0.632-0.245c0.157-0.1,0.303-0.359,0.429-0.432c0.239-0.139,0.554-0.155,0.826-0.175
		c0.771-0.055,1.545-0.021,2.328,0.08c0.666,0.084,1.31,0.148,1.965,0.339c1.074,0.311,2.128,0.544,3.079,1.125
		c-0.579,0.785-1.53,0.826-2.322,1.235c-0.639,0.333-1.326,0.366-1.992,0.566C42.587,43.846,40.703,44.249,38.869,43.789z
		 M29.861,46.092c0.282,0.048,0.507-0.111,0.739-0.054c0.312,0.075,0.442,0.104,0.681,0.228c0.155-0.098,0.389-0.133,0.469-0.157
		c0.437-0.138,0.939,0.134,1.397,0.1c0.224-0.017,0.21-0.491,0.38-0.569c0.631-0.287,1.462,0.132,2.129-0.034
		c0.077-0.021,0.02-0.369,0.313-0.584c0.121-0.09,0.646-0.098,0.815-0.165c0.019-0.069,0.039-0.223,0.194-0.303
		c0.505-0.25,1.221,0.167,1.934,0.282c0.501,0.083,0.995,0.262,1.493,0.427c0.386,0.126,0.97,0.484,0.844,0.614
		c-2.011,2.044-5.157,2.29-7.924,2.091c-1.628-0.118-3.398-0.139-4.716-1.21c-0.304-0.243,0.083-0.749,0.436-0.937
		C29.297,45.688,29.595,46.047,29.861,46.092z M33.603,42.522c0.79,0.373,1.623,0.691,2.24,1.306
		c-1.376,0.831-2.906,1.083-4.488,1.343c-0.578,0.096-1.184,0.196-1.766-0.035c0.339-1.208,0.783-2.375,1.215-3.55
		C31.789,41.745,32.697,42.094,33.603,42.522z M36.233,31.461c0.451-0.157,1.019-0.283,0.949-0.894
		c-0.016-0.142,0.22-0.226,0.346-0.243c0.343-0.045,0.68-0.058,1.017-0.146c0.271-0.07,0.383-0.353,0.593-0.503
		c0.732-0.529,1.649-0.011,2.362-0.315c0.327-0.143,0.66-0.219,0.947-0.052c0.714,0.42,1.768,0.583,1.984,1.45
		c-2.554,1.493-5.583,1.904-8.496,1.868C35.95,32.196,35.794,31.618,36.233,31.461z M37.72,33.614
		c0.935,0.203,1.655,0.689,2.492,1.018c0.325,0.127,1.019,0.5,0.704,0.685c-2.65,1.52-5.724,1.713-8.712,1.696
		c0.031-0.453,0.257-0.77,0.36-1.192c0.131-0.54,0.966-0.675,0.953-1.421c-0.004-0.412,0.805-0.332,1.06-0.692
		c0.103-0.144,0.205-0.364,0.341-0.387C35.864,33.163,36.763,33.409,37.72,33.614z M31.484,38.806
		c0.193-0.285,0.325-0.674,0.49-0.768c1.205-0.692,2.788-0.382,4.15-0.002c1.175,0.326,2.388,0.603,3.25,1.512
		c0.048,0.05,0.041,0.225,0.004,0.241c-2.606,1.195-5.466,1.696-8.282,1.389c-0.082-0.01,0.021-0.609-0.032-1
		c-0.039-0.273,0.225-0.43,0.437-0.685C31.616,39.354,31.342,39.021,31.484,38.806z M54.516,33.652
		c-3.84,1.487-7.995,1.487-12.042,1.259c-0.167-0.009-0.206-0.325-0.322-0.482c-0.148-0.208-0.482-0.262-0.661-0.394
		c-0.144-0.107-0.129-0.289-0.284-0.415c-0.146-0.121-0.538-0.091-0.772-0.196c-0.088-0.036-0.2-0.323-0.088-0.389
		c0.503-0.294,1.281,0.217,1.6-0.198c0.53-0.685,1.211-0.176,1.827-0.413c0.189-0.072,0.146-0.316,0.231-0.422
		c0.53-0.645,1.508-0.727,2.353-0.747c0.694-0.016,1.521,0.007,2.13,0.083c1.696,0.265,3.193,0.526,4.693,1.248
		c0.417,0.203,0.895,0.303,1.261,0.668C54.591,33.404,54.461,33.532,54.516,33.652z M77.64,19.109
		c-0.102,0.415-0.226,0.796-0.381,1.238c-1.143,3.239-3.641,5.314-6.345,7.29c-2.535,1.851-5.087,3.014-8.104,3.712
		c-2.294,0.53-4.495,1.004-6.798,0.84c-0.53-0.039-0.938-0.387-1.431-0.63c-0.212-0.103-0.573-0.071-0.788-0.192
		c-0.237-0.136-0.126-0.441,0.166-0.494c0.344-0.062,0.729,0.079,0.995-0.072c0.672-0.381,1.409-0.226,2.074-0.439
		c0.394-0.124,0.01-0.679,0.304-0.77c0.378-0.122,0.794-0.164,1.19-0.27c0.19-0.05,0.223-0.51,0.319-0.539
		c0.544-0.158,1.481,0.074,2.208,0.06c0.229-0.002,0.074-0.42,0.358-0.425c0.911-0.009,0.829,0.103,1.443-0.307
		c0.563-0.376,1.926,0.152,1.91-0.713c1.149-0.191,2.381,0.15,3.416-0.611c0.169-0.122,0.479,0,0.711-0.148
		c0.134-0.084,0.124-0.303,0.289-0.351c0.432-0.13,0.89-0.125,1.293-0.312c0.236-0.109,0.196-0.515,0.319-0.569
		c2.51-1.141,4.587-2.674,6.038-5.057c0.284-0.465,0.601-1.112,0.68-1.32C77.581,18.823,77.705,18.854,77.64,19.109z M74.396,29.292
		c-1.026-0.082-2.049,0.025-3.075-0.055c-0.164-0.012-0.123-0.275-0.071-0.316c4.067-3.236,7.099-7.579,7.149-12.727
		c0-0.064-0.108-0.144-0.156-0.081c-2.814,3.708-6.161,7.11-10.852,7.682c-0.222,0.029-0.236-0.359-0.064-0.472
		c4.279-2.786,7.409-6.511,8.453-11.521c0.012-0.057-0.098-0.139-0.155-0.079c-3.061,3.195-6.729,5.437-10.947,6.672
		c-7.595,2.229-15.347,1.473-23.046,1.498c-3.049,0.009-6.121,0.274-8.933,1.591c-3.473,1.625-6.454,4.252-8.057,7.779l-0.05,0.093
		c-1.081-0.188-2.192-0.282-3.328-0.282C10.45,29.076,1.68,37.842,1.68,48.66c0,10.816,8.77,19.585,19.584,19.585
		c8.295,0,15.384-5.157,18.239-12.442l0.276-0.004c0.959,0.039,2.018,0.075,2.965-0.305c0.114-0.048,0.446-0.265,0.323-0.503
		c-0.154-0.292-0.624-0.879-0.769-1.272c-0.034-0.085-0.055-0.255,0.082-0.257c2.375-0.017,4.93,0.136,7.115-0.727
		c-0.553-0.913-1.82-1.586-2.517-2.483c-0.157-0.204,0.15-0.315,0.255-0.315c3.318-0.012,6.411-0.014,9.333-1.502
		c0.11-0.057,0.112-0.177,0.048-0.243c-0.646-0.675-1.445-1.312-2.194-1.842c3.696-0.739,7.763-2.59,8.933-3.639
		c0.123-0.112,0.043-0.22-0.022-0.293c-0.31-0.369-1.138-0.926-1.292-1.081c-0.052-0.052-0.037-0.226-0.007-0.241
		c3.287-1.259,6.534-2.697,8.895-5.497c0.107-0.131-0.041-0.306-0.171-0.332c-0.952-0.182-1.859-0.225-2.796-0.212
		c0-0.125-0.038-0.308,0.018-0.341c2.458-1.429,4.636-2.929,6.491-5.096C74.523,29.551,74.561,29.303,74.396,29.292z"/>
	<path fill="#EC2024" d="M74.467,29.615c-1.855,2.167-4.033,3.667-6.491,5.096c-0.055,0.034-0.017,0.216-0.017,0.341
		c0.938-0.013,1.845,0.03,2.796,0.212c0.13,0.027,0.278,0.201,0.171,0.332c-2.361,2.8-5.607,4.238-8.894,5.497
		c-0.03,0.015-0.045,0.188,0.006,0.241c0.155,0.155,0.983,0.712,1.293,1.081c0.065,0.073,0.146,0.181,0.022,0.293
		c-1.169,1.049-5.236,2.9-8.933,3.639c0.749,0.53,1.548,1.167,2.194,1.842c0.064,0.066,0.062,0.187-0.047,0.243
		c-2.922,1.488-6.016,1.49-9.333,1.502c-0.104,0-0.413,0.111-0.255,0.315c0.696,0.897,1.963,1.571,2.516,2.483
		c-2.185,0.862-4.739,0.71-7.114,0.726c-0.137,0.003-0.116,0.173-0.082,0.258c0.146,0.393,0.615,0.98,0.769,1.272
		c0.124,0.238-0.208,0.455-0.323,0.503c-0.947,0.38-2.006,0.343-2.965,0.305l-0.276,0.004c-2.855,7.286-9.943,12.442-18.239,12.442
		c-10.814,0-19.584-8.769-19.584-19.585c0-10.817,8.77-19.583,19.584-19.583c1.136,0,2.247,0.094,3.328,0.282l0.05-0.093
		c1.603-3.528,4.584-6.154,8.057-7.78c2.812-1.317,5.884-1.582,8.933-1.591c7.7-0.024,15.451,0.731,23.047-1.498
		c4.217-1.236,7.886-3.478,10.946-6.672c0.057-0.06,0.167,0.022,0.155,0.079c-1.044,5.009-4.174,8.735-8.453,11.521
		c-0.172,0.112-0.158,0.5,0.064,0.472c4.691-0.572,8.038-3.974,10.852-7.682c0.048-0.062,0.156,0.017,0.156,0.081
		c-0.05,5.147-3.082,9.49-7.149,12.727c-0.052,0.041-0.093,0.304,0.072,0.316c1.026,0.08,2.048-0.027,3.075,0.055
		C74.561,29.303,74.523,29.551,74.467,29.615 M74.446,28.676c-0.541-0.042-1.078-0.035-1.595-0.028
		c-0.105,0.002-0.21,0.002-0.312,0.002c3.11-2.708,6.423-6.889,6.478-12.451c0.003-0.303-0.204-0.586-0.503-0.688
		c-0.282-0.096-0.587-0.004-0.764,0.23c-2.196,2.895-4.9,5.903-8.582,7.043c3.902-2.951,6.328-6.596,7.217-10.858
		c0.06-0.298-0.095-0.608-0.376-0.758c-0.281-0.148-0.613-0.096-0.828,0.127c-2.991,3.119-6.583,5.309-10.676,6.509
		c-5.934,1.739-12.105,1.627-18.073,1.523c-1.573-0.028-3.2-0.057-4.803-0.052c-2.821,0.01-6.121,0.213-9.192,1.65
		c-3.712,1.737-6.607,4.483-8.198,7.755c-0.981-0.146-1.978-0.222-2.975-0.222c-11.138,0-20.201,9.061-20.201,20.201
		c0,11.139,9.062,20.201,20.201,20.201c4.14,0,8.121-1.245,11.51-3.601c3.197-2.218,5.655-5.269,7.142-8.839
		c0.923,0.036,2.037,0.055,3.059-0.358c0.055-0.022,0.517-0.22,0.684-0.669c0.083-0.228,0.067-0.474-0.044-0.691
		c-0.075-0.141-0.184-0.305-0.313-0.494c-0.028-0.04-0.057-0.085-0.088-0.13c0.122,0,0.206,0,0.206,0
		c2.127,0.004,4.325,0.012,6.304-0.771c0.167-0.066,0.298-0.205,0.358-0.376c0.056-0.172,0.038-0.363-0.059-0.518
		c-0.353-0.585-0.916-1.051-1.462-1.504c-0.146-0.122-0.289-0.241-0.427-0.36c3.042-0.022,5.933-0.151,8.714-1.568
		c0.223-0.114,0.376-0.317,0.416-0.56c0.042-0.239-0.034-0.484-0.202-0.659c-0.348-0.363-0.756-0.734-1.216-1.11
		c3.33-0.862,6.762-2.444,7.921-3.486c0.284-0.255,0.407-0.71,0.039-1.147c-0.179-0.214-0.46-0.451-0.737-0.666
		c3-1.186,6.044-2.646,8.329-5.362c0.181-0.213,0.231-0.496,0.138-0.762c-0.103-0.287-0.362-0.512-0.663-0.571
		c-0.424-0.082-0.853-0.139-1.311-0.177c1.848-1.149,3.72-2.526,5.375-4.462c0.196-0.23,0.253-0.604,0.137-0.89
		C74.963,28.872,74.726,28.698,74.446,28.676z"/>
	<path fill="#EC2024" d="M70.787,25.407c-0.124,0.055-0.083,0.46-0.319,0.569c-0.403,0.186-0.86,0.182-1.292,0.312
		c-0.165,0.048-0.155,0.266-0.289,0.351c-0.232,0.148-0.541,0.027-0.71,0.148c-1.035,0.761-2.267,0.42-3.416,0.611
		c0.016,0.865-1.348,0.336-1.91,0.713c-0.614,0.41-0.532,0.298-1.443,0.307c-0.284,0.005-0.129,0.423-0.358,0.425
		c-0.727,0.014-1.665-0.217-2.208-0.06c-0.095,0.029-0.129,0.488-0.318,0.539c-0.396,0.106-0.812,0.148-1.191,0.27
		c-0.293,0.091,0.09,0.646-0.303,0.77c-0.666,0.213-1.402,0.058-2.074,0.439c-0.266,0.15-0.651,0.009-0.995,0.072
		c-0.291,0.053-0.403,0.358-0.165,0.494c0.215,0.122,0.575,0.09,0.787,0.192c0.494,0.244,0.901,0.591,1.432,0.63
		c2.303,0.165,4.503-0.31,6.797-0.84c3.018-0.698,5.569-1.862,8.104-3.712c2.705-1.976,5.203-4.051,6.346-7.29
		c0.154-0.441,0.278-0.823,0.381-1.238c0.065-0.255-0.06-0.287-0.135-0.08c-0.08,0.208-0.396,0.855-0.68,1.32
		C75.375,22.732,73.297,24.267,70.787,25.407"/>
	<path fill="#EC2024" d="M54.441,33.256c-0.367-0.365-0.844-0.466-1.261-0.669c-1.5-0.722-2.998-0.983-4.693-1.247
		c-0.609-0.077-1.436-0.1-2.13-0.084c-0.844,0.02-1.823,0.103-2.353,0.747c-0.085,0.106-0.042,0.351-0.231,0.423
		c-0.616,0.237-1.297-0.272-1.827,0.413c-0.319,0.416-1.098-0.095-1.6,0.198c-0.112,0.065,0,0.352,0.088,0.389
		c0.235,0.105,0.626,0.075,0.772,0.196c0.155,0.125,0.141,0.307,0.284,0.415c0.178,0.132,0.513,0.186,0.66,0.394
		c0.116,0.158,0.155,0.473,0.322,0.482c4.048,0.228,8.203,0.228,12.043-1.259C54.461,33.532,54.591,33.404,54.441,33.256"/>
	<path fill="#EC2024" d="M31.065,40.178c0.053,0.391-0.05,0.99,0.032,1c2.816,0.307,5.676-0.194,8.282-1.389
		c0.036-0.017,0.044-0.191-0.004-0.241c-0.863-0.909-2.076-1.186-3.25-1.512c-1.362-0.38-2.945-0.689-4.15,0.002
		c-0.164,0.093-0.296,0.482-0.49,0.768c-0.142,0.215,0.132,0.548,0.018,0.687C31.29,39.748,31.026,39.905,31.065,40.178"/>
	<path fill="#EC2024" d="M44.432,30.758c-0.217-0.868-1.27-1.03-1.985-1.45c-0.287-0.167-0.62-0.091-0.947,0.052
		c-0.713,0.305-1.629-0.214-2.362,0.316c-0.209,0.15-0.321,0.433-0.593,0.503c-0.337,0.087-0.673,0.1-1.017,0.146
		c-0.126,0.017-0.362,0.101-0.346,0.243c0.07,0.611-0.499,0.737-0.949,0.894c-0.439,0.156-0.284,0.735-0.298,1.165
		C38.848,32.663,41.877,32.251,44.432,30.758"/>
	<path fill="#EC2024" d="M34.917,33.32c-0.136,0.023-0.239,0.244-0.341,0.387c-0.255,0.359-1.064,0.28-1.06,0.692
		c0.013,0.746-0.822,0.881-0.954,1.421c-0.103,0.422-0.329,0.739-0.36,1.192c2.988,0.017,6.063-0.176,8.712-1.696
		c0.316-0.184-0.378-0.558-0.703-0.685c-0.837-0.329-1.557-0.815-2.493-1.018C36.763,33.409,35.864,33.163,34.917,33.32"/>
	<path fill="#EC2024" d="M29.588,45.137c0.582,0.231,1.188,0.13,1.766,0.035c1.582-0.259,3.112-0.512,4.488-1.343
		c-0.617-0.615-1.45-0.934-2.24-1.306c-0.906-0.428-1.814-0.778-2.799-0.936C30.371,42.761,29.927,43.929,29.588,45.137"/>
	<path fill="#EC2024" d="M29.044,45.821c-0.353,0.188-0.74,0.693-0.436,0.937c1.318,1.071,3.088,1.092,4.716,1.21
		c2.767,0.199,5.913-0.047,7.924-2.091c0.126-0.129-0.458-0.487-0.844-0.614c-0.499-0.165-0.992-0.344-1.493-0.427
		c-0.713-0.114-1.429-0.532-1.934-0.281c-0.155,0.08-0.175,0.234-0.194,0.303c-0.168,0.066-0.694,0.075-0.815,0.165
		c-0.293,0.216-0.236,0.563-0.313,0.584c-0.667,0.167-1.498-0.253-2.129,0.034c-0.17,0.078-0.156,0.553-0.38,0.569
		c-0.458,0.034-0.96-0.238-1.397-0.1c-0.08,0.024-0.313,0.059-0.469,0.157c-0.239-0.124-0.369-0.153-0.681-0.228
		c-0.231-0.058-0.457,0.102-0.739,0.054C29.595,46.047,29.297,45.688,29.044,45.821"/>
	<path fill="#EC2024" d="M46.404,42.729c0.792-0.41,1.744-0.451,2.322-1.236c-0.951-0.581-2.005-0.814-3.079-1.125
		c-0.655-0.191-1.299-0.255-1.965-0.339c-0.782-0.1-1.557-0.134-2.328-0.079c-0.271,0.02-0.587,0.036-0.826,0.174
		c-0.126,0.073-0.271,0.333-0.429,0.433c-0.246,0.159-0.471,0.083-0.632,0.244c-0.098,0.096,0.009,0.354-0.057,0.446
		c-0.091,0.125-0.287,0.146-0.408,0.215c-0.127,0.066-0.388-0.043-0.584,0.039c-0.196,0.081-0.203,0.267-0.332,0.331
		c-0.474,0.244-1.166-0.041-1.494-0.033c-0.168,0.002-0.125,0.269-0.071,0.321c0.212,0.21,0.824,0.275,0.803,0.585
		c-0.006,0.071-0.179,0.319-0.269,0.293c0.155,0.408,1.147,0.622,1.812,0.79c1.834,0.46,3.719,0.057,5.543-0.494
		C45.078,43.095,45.765,43.062,46.404,42.729"/>
	<path fill="#EC2024" d="M50.934,37.615c0.324-0.219,0.739-0.221,0.935-0.529c0.159-0.252-0.166-0.368-0.348-0.422
		c-1.429-0.438-2.806-0.918-4.289-1.031c-1.476-0.11-2.912,0.126-4.384,0.279c-0.569,0.059-1.152,0.086-1.667,0.298
		c-0.221,0.093-0.233,0.542-0.487,0.573c-0.496,0.062-0.988,0.121-1.489,0.162c-0.162,0.014-0.122,0.276-0.072,0.317
		c0.325,0.26,0.427,0.423,0.564,0.824c0.011,0.041,0.35,0.004,0.421,0.066c0.325,0.281,0.556,0.68,0.964,0.778
		c1.962,0.472,3.858,0.601,5.87,0.136c0.214-0.052,0.372-0.225,0.564-0.251c0.704-0.09,1.438-0.131,1.985-0.654
		C49.889,37.795,50.503,37.904,50.934,37.615"/>
	<path fill="#EC2024" d="M49.729,30.869c2.177-0.241,4.067-0.559,5.972-1.741c0.114-0.073,0.021-0.446-0.074-0.461
		c-0.451-0.066-0.94-0.25-1.426,0.189c-0.166,0.148-0.473-0.171-0.699-0.034c-0.183,0.11-0.368,0.404-0.536,0.48
		c-0.471,0.207-0.924-0.277-1.439-0.216c-0.15,0.019-0.116,0.353-0.266,0.387c-0.44,0.106-0.829-0.376-1.079-0.214
		c-0.383,0.246-0.704,0.561-1.167,0.351c-0.445-0.201-1.036-0.62-1.338-0.355c-0.527,0.459-1.172-0.208-1.638-0.029
		c-0.392,0.155-1.45,0.406-0.727,0.823C46.59,30.792,48.679,30.988,49.729,30.869"/>
	<path fill="#EC2024" d="M56.286,25.907c-2.607,0.073-5.214,0.083-7.84-0.095c-2.154-0.146-4.29-0.325-6.44-0.246
		c-2.741,0.102-5.296,0.956-7.729,2.333c-3.436,1.941-5.939,5.339-6.119,9.281c-0.078,1.709,0.225,3.24-0.085,5.178
		c-0.308,1.927-1.245,3.811-2.139,5.444c2.021-1.127,3.425-3.601,3.658-6.402c0.177-2.115,0.113-4.236,0.981-6.139
		c1.023-2.249,2.56-4.133,4.727-5.505c2.042-1.291,4.215-2.003,6.519-2.013c6.29-0.025,12.558,0.212,18.855-0.141
		c3.534-0.195,6.959-1.159,10.151-2.783c2.182-1.117,4.319-2.476,5.663-4.675c0.131-0.26,0.662-1.115,0.739-1.345
		c0.08-0.234-0.026-0.234-0.129-0.026c-0.105,0.207-0.642,0.854-0.799,1.061c-2.154,2.38-4.853,4.066-8.081,4.856
		c-3.652,0.894-7.232,1.087-10.898,1.21C57.006,25.91,56.596,25.901,56.286,25.907"/>
	<path fill="#EC2024" d="M29.693,55.181l-3.139-2.231l-0.419,0.387c-0.266,0.264-0.551,0.498-0.851,0.713l3.422,2.219
		C29.128,55.863,29.433,55.493,29.693,55.181"/>
	<path fill="#EC2024" d="M25.193,58.505c1.111-0.428,2.125-1.045,3.02-1.798l-3.302-2.137L25.193,58.505"/>
	<path fill="#EC2024" d="M24.654,50.961l0.182,2.535c0.453-0.322,0.667-0.583,1.018-1.01C25.438,52.134,24.997,51.443,24.654,50.961
		"/>
	<path fill="#EC2024" d="M24.599,46.135c0.219,0.312,0.435,0.542,0.561,0.909l0.41-0.939L24.599,46.135"/>
	<path fill="#EC2024" d="M26.166,44.784l-0.534-0.533c-0.516-0.514-1.109-0.921-1.753-1.217l-0.171,0.146l0.241,2.214
		c0.131,0.109,0.257,0.226,0.374,0.353l1.429-0.109L26.166,44.784"/>
	<path fill="#EC2024" d="M18.903,43.168l1.851,1.336c0.156-0.021,0.311-0.039,0.471-0.043l1.812-1.545l-0.021-0.203
		c-0.536-0.155-1.099-0.238-1.675-0.238c-0.853,0-1.678,0.179-2.437,0.512V43.168"/>
	<path fill="#EC2024" d="M22.934,41.959l-0.434-4.01c-0.379-0.041-0.767-0.068-1.16-0.068c-0.822,0-1.623,0.098-2.396,0.274
		l-0.034,4.062c0.757-0.291,1.575-0.452,2.43-0.452C21.887,41.764,22.419,41.835,22.934,41.959"/>
	<path fill="#EC2024" d="M21.34,54.609c0.96,0,1.864-0.228,2.668-0.625l-2.076-1.346L20.3,54.517
		C20.642,54.575,20.99,54.609,21.34,54.609"/>
	<path fill="#EC2024" d="M23.543,48.542c0-1.214-0.985-2.202-2.203-2.202c-1.213,0-2.199,0.988-2.199,2.202
		c0,1.217,0.985,2.202,2.199,2.202C22.558,50.745,23.543,49.759,23.543,48.542"/>
	<path fill="#EC2024" d="M24.06,51.614c-0.384,0.339-0.832,0.608-1.324,0.786l1.448,0.938L24.06,51.614"/>
	<path fill="#EC2024" d="M27.018,39.517c-1.158-0.728-2.467-1.235-3.867-1.477l0.446,4.114c0.078,0.025,0.155,0.053,0.23,0.083
		L27.018,39.517"/>
	<path fill="#EC2024" d="M22.123,44.531c0.403,0.078,0.782,0.219,1.133,0.405l-0.137-1.255L22.123,44.531"/>
	<path fill="#EC2024" d="M18.884,45.28c0.319-0.241,0.676-0.434,1.059-0.573l-1.047-0.758L18.884,45.28"/>
	<path fill="#EC2024" d="M17.053,52.834c0.655,0.656,1.436,1.134,2.285,1.432l-0.362-2.375c-0.02-0.015-0.041-0.027-0.061-0.041
		l-2.538,0.174C16.577,52.311,16.802,52.583,17.053,52.834"/>
	<path fill="#EC2024" d="M18.266,51.254c-0.298-0.338-0.536-0.725-0.708-1.145l-0.845,1.252L18.266,51.254"/>
	<path fill="#EC2024" d="M17.257,48.287c0.034-0.484,0.15-0.944,0.334-1.369l-1.561,0.301L17.257,48.287"/>
	<path fill="#EC2024" d="M17.053,44.251c-0.685,0.688-1.184,1.507-1.475,2.401l2.423-0.462c0.077-0.107,0.155-0.212,0.241-0.31
		l0.019-2.39l-0.128-0.09C17.747,43.641,17.381,43.922,17.053,44.251"/>
	<path fill="#EC2024" d="M15.275,48.542c0,0.992,0.238,1.943,0.682,2.798l1.364-2.028c-0.007-0.047-0.019-0.095-0.026-0.145
		l-1.925-1.68C15.311,47.834,15.275,48.185,15.275,48.542"/>
	<path fill="#EC2024" d="M18.102,42.588c0.055-0.03,0.112-0.057,0.167-0.085l0.036-4.179c-1.309,0.386-2.509,1.02-3.553,1.843
		L18.102,42.588"/>
	<path fill="#EC2024" d="M11.888,43.603l3.065,2.674c0.483-1.36,1.391-2.521,2.559-3.323l-3.269-2.365
		C13.291,41.441,12.489,42.46,11.888,43.603"/>
	<path fill="#EC2024" d="M10.718,47.59l3.909-0.753l-3.027-2.638C11.127,45.25,10.825,46.391,10.718,47.59"/>
	<path fill="#EC2024" d="M10.67,48.553c0,1.112,0.171,2.185,0.485,3.192l4.074-0.282c-0.431-0.901-0.665-1.891-0.665-2.921
		c0-0.36,0.029-0.713,0.082-1.056l-3.967,0.76C10.675,48.349,10.67,48.451,10.67,48.553"/>
	<path fill="#EC2024" d="M15.457,52.089l-4.081,0.28c0.433,1.131,1.054,2.167,1.821,3.072L15.457,52.089"/>
	<path fill="#EC2024" d="M19.094,54.932c-0.947-0.332-1.814-0.866-2.545-1.595c-0.238-0.239-0.45-0.499-0.648-0.764l-2.262,3.359
		c0.802,0.837,1.737,1.545,2.774,2.087L19.094,54.932"/>
	<path fill="#EC2024" d="M19.514,55.421l-2.505,2.884c0.959,0.428,1.992,0.715,3.075,0.845L19.514,55.421"/>
	<path fill="#EC2024" d="M19.683,52.294l0.253,1.666l1.149-1.323C20.589,52.609,20.115,52.487,19.683,52.294"/>
	<path fill="#EC2024" d="M21.34,59.225c1.126,0,2.212-0.176,3.228-0.498l-0.292-4.079c-0.903,0.437-1.9,0.673-2.936,0.673
		c-0.41,0-0.814-0.041-1.211-0.113l0.61,4C20.938,59.219,21.14,59.225,21.34,59.225"/>
	<path fill="#EC2024" d="M27.277,40.137l-2.806,2.392c0.607,0.315,1.167,0.723,1.664,1.223l0.314,0.305
		C26.97,42.863,27.294,41.358,27.277,40.137"/>
	<path fill="#EC2024" d="M21.319,35.383c-7.292,0-13.202,5.913-13.202,13.205c0,7.292,5.91,13.203,13.202,13.203
		c4.559,0,8.574-2.31,10.948-5.82l-1.553-0.552c-2.112,2.899-5.533,4.784-9.395,4.784c-6.414,0-11.614-5.2-11.614-11.614
		c0-6.416,5.2-11.616,11.614-11.616c2.142,0,4.147,0.58,5.87,1.588v-1.828C25.346,35.875,23.244,35.383,21.319,35.383"/>
	<path fill="#EC2024" d="M33.457,54.6c-0.116-0.214-0.419-0.1-0.626-0.223c-0.154-0.091-0.225-0.405-0.375-0.528
		c-0.114-0.095-0.392,0.119-0.535,0.037c-0.201-0.12-0.353-0.375-0.512-0.552c-0.175-0.193-0.337-0.406-0.508-0.6
		c-0.163-0.185-0.334-0.349-0.539-0.473c-0.112-0.064-0.33,0.077-0.463,0.043c-0.238-0.064-0.375-0.478-0.57-0.649
		c-0.112-0.1-0.289-0.111-0.389-0.207c-0.1-0.098-0.121-0.277-0.228-0.393c-0.139-0.155-0.346-0.21-0.497-0.334
		c-0.208-0.167-0.361-0.595-0.521-0.831c-0.157-0.233-0.392-0.26-0.543-0.465c-0.191-0.257-0.303-0.691-0.535-0.951
		c-0.233-0.265-0.818,0.157-0.997,0.513c-0.292,0.583-0.276,1.319,0.172,1.818c2.197,2.453,5.049,4.488,8.314,5.025
		C33.862,55.48,33.605,54.866,33.457,54.6"/>
	<path fill="#EC2024" d="M41.491,23.026c5.991-0.234,16.443,0.363,21.917-1.169c4.865-1.359,8.4-3.842,10.446-7.233
		c0.325-0.537,0.152-0.627-0.365-0.129c-3.318,3.189-6.337,4.322-10.63,5.496c-5.009,1.374-14.056,1.014-21.369,1.168
		c-7.163,0.152-13.441,2.981-15.326,8.558l1.556,0.624C29.823,25.826,34.805,23.286,41.491,23.026"/>
	<path fill="#EC2024" d="M4.924,41.609c0.421,0.351,0.082,0.961,0.394,1.378c0.384-2.656,2.404-4.619,4.237-6.496
		c4.802-4.923,12.244-5.916,18.579-3.509c0.116,0.045,0.585-0.938,0.421-1.006c-3.756-1.648-7.333-1.83-11.184-0.977
		c-3.205,0.714-5.9,2.159-8.31,4.349c-1.87,1.701-3.396,3.565-4.559,5.789c-0.092,0.179-0.243,0.455-0.092,0.611
		C4.566,41.909,4.737,41.458,4.924,41.609"/>
	<path fill="#EC2024" d="M36.015,56.68c0.021,0.029-0.196,0.096-0.268,0.108c-0.372,0.052-0.742,0.052-1.114,0
		c-0.678-0.096-1.393-0.331-1.963-0.449c-3.956,5.966-12.357,8.082-18.666,4.099c-2.259-1.425-4.005-3.264-5.119-5.604
		c-0.627-1.317-0.968-2.655-1.292-4.105c-0.216-0.973-0.041-1.93-0.222-2.886c-0.405,0.53-0.16,1.353-0.852,1.656
		c-0.189,0.085-0.419,0.055-0.551-0.164c-0.129-0.211-0.066-0.555-0.289-0.61c-0.37-0.091-0.376,0.464-0.837,0.355
		c-0.045-0.012-0.109,0.122-0.183,0.15c-0.238,0.083-0.439-0.348-0.619-0.146c-0.125,0.142-0.205,0.301-0.4,0.234
		c-0.162-0.057-0.291-0.373-0.291-0.355c-0.126,8.586,6.729,16.391,15.327,17.662c1.243,0.184,2.468,0.267,3.723,0.152
		c2.688-0.248,5.164-0.97,7.543-2.349c3.748-2.171,6.35-5.556,8.234-9.305c-1.426-0.484-2.847-0.96-4.015-1.4
		C34.261,54.935,35.449,55.879,36.015,56.68"/>
	<path fill="#EC2024" d="M40.683,53.778c-0.333-0.094-0.624-0.278-0.929-0.403c-0.189-0.077-0.368,0.214-0.571,0.095
		c-0.41-0.246-0.763-0.597-1.09-0.856c-0.259-0.208-0.777-0.725-1.001-0.622c-0.085,0.04-0.212,0.521-0.424,0.362
		c-0.512-0.381-0.842-0.794-1.32-1.211c-0.217-0.188-0.426,0.438-0.704,0.305c-0.637-0.311-0.892-0.999-1.383-1.491
		c-0.571-0.568-1.118-1.229-1.905-1.436c-0.132-0.036-0.057,0.155-0.182,0.253c-0.601,0.469-1.261-0.334-1.846-0.602
		c-0.534-0.248-1.006-0.639-1.607-0.683c-0.129-0.006-0.125,0.185-0.075,0.244c3.43,4.058,8.193,7.103,13.421,6.98
		c0.122-0.002,0.37,0.011,0.165-0.24C41.072,54.274,40.89,53.835,40.683,53.778"/>
	<path fill="#EC2024" d="M45.54,50.822c-0.152-0.023-0.391,0.182-0.521,0.157c-0.405-0.073-0.726-0.441-1.219-0.701
		c-0.203-0.105-0.308,0.375-0.467,0.365c-0.816-0.046-1.994-0.914-2.722-1.35c-0.131-0.076-0.908,0.079-1.037,0.106
		c-0.467,0.092-1.063-0.728-1.434-0.9c-0.276-0.128-0.666-0.269-0.929-0.069c-0.361,0.267-0.788,0.124-1.179,0.119
		c-0.155-0.002-0.289,0.32-0.477,0.382c-0.536,0.172-1.13-0.203-1.658,0.06c-0.014,0.007-0.088,0.118-0.084,0.154
		c0.036,0.333,0.406,0.387,0.648,0.535c0.905,0.553,1.833,0.923,2.792,1.313c1.435,0.581,2.91,1.015,4.473,1.156
		c1.757,0.157,4.131,0.401,5.576-0.026c0.074-0.024-0.041-0.301-0.261-0.468c-0.225-0.174-0.559-0.238-0.7-0.336
		C46.013,51.087,45.838,50.865,45.54,50.822"/>
	<path fill="#EC2024" d="M53.13,47.34c-0.399,0.117-0.706-0.174-1.038-0.048c-0.076,0.032-0.128,0.155-0.193,0.157
		c-0.622,0.01-1.041-0.662-1.676-0.612c-0.159,0.014-0.157,0.293-0.29,0.324c-0.394,0.093-0.742-0.383-1.094-0.212
		c-0.25,0.123-0.428,0.114-0.671,0.043c-0.312-0.091-0.546-0.369-0.849-0.417c-0.264-0.043-0.529,0.222-0.83,0.135
		c-0.751-0.219-1.333-0.932-2.137-0.763c-0.398,0.086-0.738-0.186-1.015-0.021c-0.299,0.179-0.387,0.396-0.69,0.577
		c-0.207,0.125-0.691,0.107-0.909,0.241c-0.165,0.1-0.205,0.353-0.394,0.429c-0.35,0.148-0.768,0.043-1.099,0.229
		c-0.038,0.024-0.059,0.208,0.081,0.246c2.356,0.648,4.599,1.358,6.998,1.351c2.353-0.001,4.688,0.009,6.999-0.705
		c0.184-0.055,0.222-0.164,0.071-0.336C54.07,47.579,53.622,47.195,53.13,47.34"/>
	<path fill="#EC2024" d="M60.244,42.13c-0.523,0.244-1.133-0.025-1.713,0.109c-0.153,0.037-0.039,0.253-0.189,0.275
		c-0.571,0.082-1.161-0.063-1.698,0.146c-0.418,0.162-0.921-0.022-1.381-0.011c-0.175,0.005-0.179,0.24-0.208,0.428
		c-0.024,0.165-0.267,0.261-0.338,0.239c-0.573-0.169-1.119-0.231-1.696-0.317c-1.455-0.214-2.893-0.676-4.26-0.268
		c-0.447,0.134-1.036,0.244-1.377,0.592c-0.132,0.134-0.271,0.401-0.446,0.466c-0.836,0.301-1.746,0.36-2.578,0.653
		c-0.254,0.091-0.732,0.444-0.554,0.492c3.491,0.89,6.901,0.982,10.524,0.303c2.656-0.497,5.09-1.246,7.373-2.529
		C61.531,42.49,60.643,41.945,60.244,42.13"/>
	<path fill="#EC2024" d="M66.167,36.218c-0.328,0.109-0.781-0.203-1.065,0.007c-0.423,0.311-0.919,0.256-1.353,0.211
		c-0.207-0.022-0.532-0.096-0.716,0.047c-0.117,0.092,0.052,0.243,0.165,0.343c-1.095,0.377-2.3,0.024-3.334,0.441
		c-0.079,0.034-0.125,0.413-0.315,0.45c-0.951,0.193-1.841-0.18-2.786-0.009c-0.238,0.045-0.131,0.553-0.384,0.566
		c-0.847,0.04-1.671-0.031-2.516-0.067c-1.006-0.041-1.933,0.325-2.884,0.616c-0.282,0.084-0.368,0.534-0.671,0.579
		c-0.819,0.127-1.655-0.019-2.403,0.35c-0.053,0.027-0.055,0.28,0,0.309c0.917,0.517,1.97,0.877,2.595,1.712
		c6.386-0.064,13.254-0.899,18.569-5.257c0.104-0.086-0.525-0.217-0.862-0.296c-0.331-0.076-0.603-0.076-1.003-0.207
		C66.845,35.896,66.517,36.104,66.167,36.218"/>
	<path fill="#EC2024" d="M72.796,30.214c-0.064-0.037-1.031-0.212-1.565-0.085c-0.111,0.025-0.18,0.212-0.291,0.229
		c-0.686,0.113-1.172,0.441-1.874,0.461c-0.146,0.007-0.461,0.109-0.651,0.2c-0.252,0.122-0.601-0.179-0.799,0.044
		c-0.129,0.143,0.094,0.49-0.139,0.6c-0.611,0.285-1.324-0.228-1.923,0.16c-0.171,0.114,0.187,0.496-0.039,0.564
		c-0.86,0.271-2.347-1.063-2.907,0.323c-0.088,0.216-0.357,0.116-0.525,0.073c-0.162-0.043-0.394-0.117-0.489-0.036
		c-0.527,0.427-0.836,0.599-1.576,0.391c-0.188-0.055-0.191,0.503-0.553,0.414c-0.418-0.098-0.816-0.398-1.198-0.229
		c-0.176,0.079-0.044,0.542-0.303,0.565c-1.034,0.1-2.101-0.05-3.055,0.375c-0.235,0.105-0.258,0.528-0.585,0.583
		c-0.728,0.119-1.452,0.035-2.128,0.255c-0.109,0.035-0.085,0.357,0.082,0.383c0.437,0.066,0.928-0.004,1.264,0.196
		c0.409,0.243,0.668,0.933,1.069,0.949c3.177,0.129,6.339-0.34,9.405-1.357c3.22-1.068,6.177-2.535,8.78-4.811
		C72.956,30.32,72.874,30.262,72.796,30.214"/>
</g>
</svg>
