<?xml version="1.0" encoding="utf-8"?>
<!DOCTYPE svg PUBLIC "-//W3C//DTD SVG 1.1//EN" "http://www.w3.org/Graphics/SVG/1.1/DTD/svg11.dtd">
<svg version="1.1" xmlns="http://www.w3.org/2000/svg" xmlns:xlink="http://www.w3.org/1999/xlink" x="0px" y="0px" width="80px"
	 height="80px" viewBox="0 0.041 80 80" enable-background="new 0 0.041 80 80" xml:space="preserve">
<g id="Layer_2">
	<path fill="#FFFFFF" d="M39.592,79.872l-0.05-0.022C11.702,66.622,4.276,39.646,4.276,25.79V8.423l0.551-0.266
		c11.155-5.386,22.957-8.117,35.079-8.117h0.143c12.166,0,23.967,2.731,35.123,8.117l0.551,0.266V25.79
		c0,13.856-7.425,40.833-35.255,54.055l-0.412,0.196L39.592,79.872z M7.943,25.761c0,12.008,6.71,37.854,32.057,50.113
		c25.276-12.263,31.959-38.037,31.959-50.018l0.001-15.138c-9.535-4.497-19.961-6.684-31.848-6.684h-0.158l-0.068-0.975v0.975
		c-12.078,0-22.534,2.156-31.942,6.589V25.761z"/>
</g>
<g id="Layer_1">
	<g>
		<path fill="#002654" d="M40.049,1.015L40.049,1.015h-0.099l0,0c-10.321-0.006-22.223,1.996-34.7,8.02V25.79
			c0,12.4,6.587,39.819,34.7,53.174L40,78.987l0.049-0.023C68.162,65.608,74.748,38.189,74.748,25.79V9.035
			C62.272,3.011,50.371,1.009,40.049,1.015z M72.934,25.856c0,11.657-6.458,38.521-32.887,51.077L40,76.956l-0.047-0.023
			C13.524,64.377,6.968,37.417,6.968,25.761V10.008C18.697,4.346,30.25,3.053,39.954,3.059l0,0h0.093l0,0
			c9.704-0.006,21.158,1.382,32.887,7.044L72.934,25.856L72.934,25.856z"/>
		<path fill="#BF910C" d="M40.047,3.059h-0.094l0,0C30.25,3.053,18.697,4.346,6.967,10.008v15.752
			c0,11.657,6.557,38.616,32.986,51.172L40,76.956l0.047-0.023c26.429-12.556,32.887-39.419,32.887-51.077V10.103
			C61.203,4.441,49.749,3.053,40.047,3.059L40.047,3.059z M67.056,43.585c-1.435-2.303-5.854-6.372-5.854-6.372
			c-3.301,1.056-5.678,1.277-5.678,1.277c2.817-1.894,3.609-3.126,3.609-3.126C60.366,32.106,61.202,27,61.202,27
			c-0.044-1.321-1.013-2.201-1.013-2.201s-1.585-0.749-2.729-0.792c-1.145-0.043-4.667,1.893-5.854,2.554
			c-1.188,0.66-5.943,2.598-5.943,2.598l1.452-1.937c-6.295-1.937-13.855,0.176-13.855,0.176c0.847-0.572,3.07-1.541,3.07-1.541
			c-0.88-1.057-1.144-2.201-1.144-2.201c-0.352-0.087-0.969,0-0.969,0c-1.232,1.452-2.069,4.094-2.069,4.094
			c-2.685,1.497-4.402,2.905-4.402,2.905l0.176-0.969l-2.905,1.761c0.088,1.057,0.77,1.716,0.77,1.716
			c-4.82,1.893-6.978,5.459-6.978,5.459c0.969,0.616,2.245,1.013,2.245,1.013c2.554-0.352,3.875-1.101,3.875-1.101
			c0.968-1.145,2.554-2.597,2.554-2.597l-0.87,3.521c1.375-0.176,4.744-0.264,4.744-0.264c1.365,0.837,3.39,3.038,3.39,3.038
			c-0.705,3.521-2.772,6.779-2.772,6.779c3.918-0.704,5.195-0.353,5.195-0.353c7.703,4.578,12.898,4.094,13.777,3.83
			c0.881-0.265,4.578-4.621,4.622-5.942s-0.748-5.769-0.748-5.769c2.244,1.497,4.006,7.88,4.006,7.88
			c-0.577,11.203-6.212,16.774-6.935,17.446l-0.077,0.068l0,0c-3.048,2.992-8.701,6.375-10.312,7.313
			c-0.083-1.177-0.229-2.212-0.411-3.115c-0.792-3.923-2.273-5.392-2.273-5.392c-2.072,3.694-4.549,5.067-5.318,5.423
			C25.09,64.448,11.296,51.02,9.477,26.186c0,0,12.282-6.273,30.474-6.273c18.191,0,30.54,6.273,30.54,6.273
			C70.137,32.75,68.876,38.526,67.056,43.585z M52.739,31.977c0,0,0.981-1.738,1.578-3.154c0,0-1.127,0.241-2.672,0.305
			c0,0,4.28-3.571,6.195-3.476c0,0,0.853,0.081,1.546,0.418c0,0,0.466,0.499,0.53,0.95c0.064,0.45-1.77,7.305-2.076,7.885
			c0,0-1.399,1.448-3.621,2.816l-0.917-2.06c0,0,1.062-1.898,1.737-3.975C55.04,31.686,54.35,31.896,52.739,31.977z M39.208,32.904
			c-1.558,2.57-3.053,3.517-3.053,3.517c-1.254,0.495-4.655,0.461-5.085,0.396c-0.43-0.066-2.212-1.023-2.212-1.023
			c0.231-0.452,2.866-3.974,2.866-3.974l0.039-0.054c4.127-1.662,7.363-0.969,7.363-0.969c0.682,0.209,2.024,0.825,2.024,0.825
			c-0.809,0.107-1.755,0.347-1.976,0.406L39.208,32.904z M42.978,35.012c0.044-0.352,0-2.421,0-2.421
			c1.451,0.594,2.707,1.695,2.707,1.695c-0.067,0.551-0.572,2.377-0.572,2.377l-5.767,2.685L42.978,35.012z M70.622,11.571V23.72
			c0,0-11.786-6.075-30.712-6.075c-18.877,0-30.433,6.075-30.433,6.075V11.571c13.882-6.594,29.537-6.267,30.431-6.267
			C40.822,5.304,56.74,4.977,70.622,11.571z"/>
		<path fill="#002654" d="M9.477,26.186C11.296,51.02,25.09,64.448,33.499,70.401c0.769-0.354,3.246-1.728,5.318-5.422
			c0,0,1.479,1.469,2.273,5.392c0.92-3.812,0.335-9.83-7.269-17.312c0,0,7.087,3.501,11.378,8.585c0,0,0.331-1.85-0.924-5.217
			c0,0,4.856,3.796,7.537,9.744l0.077-0.068c0.724-0.672,6.358-6.243,6.936-17.446c0,0-1.763-6.384-4.007-7.88
			c0,0,0.793,4.447,0.749,5.769s-3.742,5.678-4.622,5.942c-0.88,0.264-6.075,0.748-13.779-3.83c0,0-1.276-0.352-5.194,0.353
			c0,0,2.069-3.257,2.772-6.779c0,0-2.025-2.201-3.39-3.038c0,0-3.368,0.087-4.744,0.264l0.869-3.521c0,0-1.585,1.452-2.553,2.597
			c0,0-1.321,0.749-3.875,1.101c0,0-1.277-0.396-2.245-1.013c0,0,2.157-3.565,6.978-5.459c0,0-0.682-0.659-0.77-1.716l2.905-1.761
			l-0.176,0.969c0,0,1.716-1.409,4.402-2.906c0,0,0.836-2.641,2.069-4.093c0,0,0.616-0.087,0.969,0c0,0,0.264,1.144,1.145,2.201
			c0,0-2.223,0.969-3.07,1.541c0,0,7.56-2.113,13.855-0.177l-1.451,1.937c0,0,4.754-1.937,5.942-2.598
			c1.188-0.66,4.71-2.597,5.854-2.554c1.144,0.044,2.729,0.792,2.729,0.792s0.969,0.88,1.013,2.201c0,0-0.836,5.106-2.069,8.364
			c0,0-0.793,1.232-3.609,3.126c0,0,2.377-0.221,5.678-1.277c0,0,4.42,4.069,5.854,6.372c1.821-5.059,3.081-10.835,3.435-17.399
			c0,0-12.348-6.273-30.54-6.273S9.477,26.186,9.477,26.186z M22.155,42.694c0.545-0.693,1.716-1.585,1.716-1.585
			c2.855-0.364,5.15-0.331,5.15-0.331l0.957,1.157c-0.94,0.081-2.113,0.428-2.113,0.428c2.278,0.71,3.203,1.438,3.203,1.438
			l-0.083,0.462c-1.387-0.034-2.773,0.1-2.773,0.1c1.486,0.742,2.361,1.518,2.361,1.518c0,0.165-0.198,0.562-0.198,0.562
			c-0.727-0.248-2.493-0.248-2.493-0.248c1.123,0.71,1.948,1.568,1.948,1.568l-0.445,0.677c-3.467-1.09-7.23-2.905-7.23-2.905
			V42.694z M30.177,51.278c0,0-4.226,0.527-6.405,1.518c0,0-1.816-1.716-2.377-3.433c0,0,0.033-1.091,0.759-2.279
			C22.155,47.084,27.008,50.088,30.177,51.278z M18.986,40.679c0,0,1.221,1.652,1.783,2.18l0.99,2.806c0,0-0.76,0.826-1.684,2.18
			c0,0-1.519-2.839-2.113-4.556C17.962,43.288,18.424,41.736,18.986,40.679z"/>
		<path fill="#FFFFFF" d="M44.275,56.428c1.255,3.367,0.924,5.217,0.924,5.217c-4.291-5.085-11.378-8.585-11.378-8.585
			c7.604,7.48,8.189,13.499,7.269,17.312c0.182,0.903,0.328,1.938,0.411,3.114c1.611-0.938,7.264-4.32,10.312-7.312l0,0
			C49.132,60.224,44.275,56.428,44.275,56.428z"/>
		<path fill="#FFFFFF" d="M23.773,52.796c2.179-0.99,6.405-1.518,6.405-1.518c-3.169-1.188-8.022-4.194-8.022-4.194
			c-0.727,1.188-0.759,2.279-0.759,2.279C21.957,51.08,23.773,52.796,23.773,52.796z"/>
		<path fill="#FFFFFF" d="M20.075,47.844c0.924-1.354,1.685-2.18,1.685-2.18l-0.99-2.806c-0.562-0.527-1.783-2.18-1.783-2.18
			c-0.562,1.058-1.023,2.609-1.023,2.609C18.557,45.005,20.075,47.844,20.075,47.844z"/>
		<path fill="#FFFFFF" d="M29.832,47.761c0,0-0.825-0.858-1.948-1.567c0,0,1.766,0,2.493,0.248c0,0,0.198-0.396,0.198-0.562
			c0,0-0.875-0.776-2.36-1.519c0,0,1.387-0.132,2.772-0.099l0.083-0.463c0,0-0.924-0.726-3.203-1.437c0,0,1.173-0.348,2.114-0.429
			l-0.958-1.156c0,0-2.294-0.032-5.15,0.331c0,0-1.172,0.892-1.716,1.584v2.84c0,0,3.764,1.815,7.229,2.905L29.832,47.761z"/>
		<path fill="#002654" d="M45.685,34.286c0,0-1.255-1.101-2.707-1.695c0,0,0.044,2.069,0,2.421l-3.632,4.336l5.767-2.685
			C45.112,36.663,45.617,34.835,45.685,34.286z"/>
		<path fill="#002654" d="M54.22,37.722c2.221-1.368,3.621-2.816,3.621-2.816c0.307-0.58,2.141-7.435,2.076-7.885
			c-0.064-0.451-0.53-0.95-0.53-0.95c-0.693-0.338-1.546-0.418-1.546-0.418c-1.915-0.096-6.195,3.476-6.195,3.476
			c1.545-0.064,2.672-0.305,2.672-0.305c-0.597,1.416-1.578,3.154-1.578,3.154c1.61-0.081,2.301-0.29,2.301-0.29
			c-0.676,2.076-1.737,3.975-1.737,3.975L54.22,37.722z"/>
		<path fill="#FFFFFF" d="M39.125,30.796c0,0-3.236-0.693-7.363,0.969l-0.039,0.054l0.534,1.08
			C36.011,30.995,39.125,30.796,39.125,30.796z"/>
		<path fill="#FFFFFF" d="M35.549,35.705c-3.565,0.749-6.691,0.088-6.691,0.088s1.783,0.957,2.212,1.023
			c0.43,0.066,3.83,0.099,5.085-0.396c0,0,1.497-0.947,3.053-3.517l-0.034-0.876l-0.047,0.013
			C38.035,33.593,35.549,35.705,35.549,35.705z"/>
		<path fill="#002654" d="M39.125,30.796c0,0-3.114,0.198-6.868,2.102l-0.534-1.08c0,0-2.635,3.522-2.866,3.974
			c0,0,3.125,0.66,6.691-0.088c0,0,2.487-2.113,3.577-3.665l0.047-0.013c0.221-0.059,1.167-0.299,1.977-0.405
			C41.149,31.622,39.807,31.006,39.125,30.796z M31.751,34.858l0.396-0.693c0,0,0.528,0.561,1.255,0.374
			c0.726-0.187,0.892-1.013,0.892-1.013l1.739-0.209C34.877,35.979,31.751,34.858,31.751,34.858z"/>
		<path fill="#CE1D26" d="M33.402,34.539c-0.726,0.187-1.254-0.374-1.254-0.374l-0.396,0.693c0,0,3.126,1.122,4.281-1.541
			l-1.739,0.209C34.293,33.526,34.129,34.352,33.402,34.539z"/>
		<path fill="#CE1D26" d="M9.477,11.571V23.72c0,0,11.555-6.075,30.433-6.075c18.925,0,30.712,6.075,30.712,6.075V11.571
			c-13.882-6.594-29.8-6.267-30.714-6.267C39.014,5.304,23.359,4.977,9.477,11.571z M18.243,14.829l-0.709,1.403l-2.146,0.677v2.559
			l-1.535,0.528v-7.99l3.665-1.221l0.726,1.023V14.829z M25.302,16.864l-1.562,0.341v-3.252l-1.343,0.281v3.279l-1.552,0.341v-6.757
			l0.738-1.419l2.993-0.672l0.726,1.089V16.864z M32.478,15.83c-0.297,0.033-1.387,0.143-1.387,0.143l-1.552-3.731v3.951
			l-1.584,0.209v-7.99l1.397-0.209l1.557,3.714V7.978l1.569-0.148V15.83z M39.004,8.952l-1.508,0.055v6.504L35.9,15.598V9.062
			c-0.407,0.044-1.497,0.1-1.497,0.1V7.675c0,0,3.093-0.198,4.601-0.187V8.952z M61.83,16.586l1.518,0.477v0.505l1.315,0.413v-1.775
			l-2.113-0.669l-0.72-1.428v-2.294l0.744-1.032l2.913,0.982l0.693,1.511v0.718l-1.512-0.512v-0.512l-1.297-0.438v1.759l2.131,0.726
			l0.676,1.502v2.244l-0.709,0.991l-2.93-0.94l-0.71-1.453V16.586L61.83,16.586z M54.608,8.864c1.608,0.253,3.698,0.782,3.698,0.782
			c0.154,0.209,0.738,1.452,0.738,1.452l0.01,2.201c-0.363,0.638-0.803,1.123-0.803,1.123l-0.22-0.054l1.188,3.488
			c-0.132-0.044-1.673-0.374-1.673-0.374l-1.156-3.533l-0.197-0.044v3.247l-1.586-0.308V8.864z M48.171,7.912
			c1.916,0.131,3.797,0.511,3.797,0.511v1.452c-1.584-0.197-2.228-0.281-2.228-0.281v1.75l1.468,0.197v1.487
			c-0.229-0.017-1.468-0.198-1.468-0.198v1.783c0.742,0.049,2.228,0.313,2.228,0.313v1.475c-0.461-0.094-3.797-0.484-3.797-0.484
			V7.912z M40.93,7.488l1.579,0.066l0.006,3.213l1.387,0.066V7.576l1.607,0.121v7.99c-0.66-0.054-1.607-0.087-1.607-0.087v-3.279
			l-1.375-0.066v3.291l-1.596-0.044L40.93,7.488L40.93,7.488z"/>
		<path fill="#FFFFFF" d="M13.851,12.005v7.99l1.535-0.528v-2.559l2.146-0.677l0.709-1.403v-3.021l-0.726-1.023L13.851,12.005z
			 M16.691,15.01l-1.304,0.38v-2.443l1.304-0.429V15.01z"/>
		<polygon fill="#CE1D26" points="15.387,15.389 16.691,15.01 16.691,12.517 15.387,12.947 		"/>
		<path fill="#FFFFFF" d="M21.583,9.678l-0.738,1.419v6.757l1.552-0.341v-3.279l1.343-0.281v3.252l1.562-0.341v-6.77l-0.726-1.089
			L21.583,9.678z M23.729,12.419l-1.332,0.34v-1.782l1.332-0.308V12.419z"/>
		<polygon fill="#CE1D26" points="22.397,12.759 23.729,12.419 23.729,10.668 22.397,10.977 		"/>
		<path fill="#FFFFFF" d="M30.909,11.917l-1.557-3.714l-1.397,0.209v7.99l1.584-0.209v-3.951l1.552,3.731c0,0,1.09-0.11,1.387-0.143
			V7.829l-1.569,0.148V11.917z"/>
		<path fill="#FFFFFF" d="M34.403,7.675V9.16c0,0,1.09-0.055,1.497-0.1v6.537l1.596-0.087V9.006l1.508-0.055V7.488
			C37.496,7.477,34.403,7.675,34.403,7.675z"/>
		<path fill="#FFFFFF" d="M42.525,12.253l1.375,0.066v3.279c0,0,0.946,0.033,1.606,0.087V7.697L43.9,7.577v3.257l-1.387-0.066
			l-0.006-3.213l-1.579-0.066V15.5l1.596,0.044L42.525,12.253L42.525,12.253z"/>
		<path fill="#FFFFFF" d="M51.968,14.927c0,0-1.485-0.264-2.229-0.313v-1.783c0,0,1.237,0.181,1.468,0.198v-1.487l-1.468-0.197
			v-1.75c0,0,0.643,0.083,2.229,0.281V8.423c0,0-1.883-0.38-3.798-0.511v8.006c0,0,3.336,0.391,3.798,0.484V14.927z"/>
		<path fill="#FFFFFF" d="M56.194,13.904l0.197,0.044l1.156,3.533c0,0,1.541,0.33,1.673,0.374l-1.188-3.488l0.22,0.054
			c0,0,0.441-0.484,0.803-1.123l-0.01-2.201c0,0-0.584-1.244-0.738-1.452c0,0-2.09-0.528-3.698-0.782v7.979l1.586,0.308V13.904z
			 M56.172,10.636l1.299,0.274v1.772l-1.299-0.253V10.636z"/>
		<polygon fill="#CE1D26" points="57.471,10.911 56.172,10.636 56.172,12.429 57.471,12.683 		"/>
		<polygon fill="#FFFFFF" points="65.472,19.756 66.181,18.765 66.181,16.521 65.505,15.018 63.374,14.292 63.374,12.533 
			64.671,12.971 64.671,13.483 66.181,13.995 66.181,13.276 65.487,11.767 62.575,10.784 61.83,11.816 61.83,14.11 62.55,15.538 
			64.663,16.207 64.663,17.982 63.348,17.568 63.349,17.063 61.83,16.586 61.83,17.362 62.542,18.815 		"/>
	</g>
</g>
</svg>
