<?xml version="1.0" encoding="utf-8"?>
<!-- Generator: Adobe Illustrator 16.0.4, SVG Export Plug-In . SVG Version: 6.00 Build 0)  -->
<!DOCTYPE svg PUBLIC "-//W3C//DTD SVG 1.1//EN" "http://www.w3.org/Graphics/SVG/1.1/DTD/svg11.dtd">
<svg version="1.1" xmlns="http://www.w3.org/2000/svg" xmlns:xlink="http://www.w3.org/1999/xlink" x="0px" y="0px" width="80px"
	 height="80px" viewBox="0.363 0 80 80" enable-background="new 0.363 0 80 80" xml:space="preserve">
<g id="Layer_2">
	<path fill="#FCFCFC" d="M38.882,67.479c-22.679,0-38.519-11.323-38.519-27.537c0-17.164,19.585-27.42,38.519-27.42
		c7.638,0,15.977,2.051,18.923,2.847l1.283-1.284l14.821,4.446l3.258,15.15l-5.563,5.961l8.76,13.067L78.91,53.78
		C78.151,54.341,60.097,67.479,38.882,67.479z M26.339,36.728c-1.721,0.801-3.456,2.002-3.456,3.354
		c0,0.787,1.567,2.025,3.456,3.044V36.728z M52.716,42.881c2.343-0.807,4.521-1.803,6.104-2.591
		c-1.405-0.939-3.465-2.126-6.104-3.138V42.881z"/>
	<path fill="#21386F" d="M69.201,39.449l5.912-6.336l-2.816-13.095l-12.671-3.801l-1.268,1.267c0,0-10.371-3.074-19.477-3.074
		c-18.96,0-36.63,10.161-36.63,25.532c0,14.62,13.995,25.648,36.63,25.648c20.838,0,38.907-13.329,38.907-13.329L69.201,39.449z
		 M28.228,46.049c0,0-7.233-2.641-7.233-5.967c0-4.17,7.233-6.054,7.233-6.054V46.049z M41.347,47.397
		c-1.456,0.216-3.38,0.123-3.38,0.123v-3.145h3.38V47.397z M41.347,35.506h-3.38v-3.145c3.016-0.007,2.961,0.061,3.38,0.122V35.506z
		 M50.827,45.433V34.521c7.392,2.183,11.475,6.055,11.475,6.055S56.67,43.884,50.827,45.433z"/>
</g>
<g id="H_Stroke_White">
	<g>
		<path fill="#21386F" d="M69.201,39.449l5.912-6.336l-2.816-13.095l-12.671-3.801l-1.268,1.267c0,0-10.371-3.074-19.477-3.074
			c-18.96,0-36.63,10.161-36.63,25.532c0,14.62,13.995,25.648,36.63,25.648c20.838,0,38.907-13.329,38.907-13.329L69.201,39.449z
			 M28.228,46.049c0,0-7.233-2.641-7.233-5.967c0-4.17,7.233-6.054,7.233-6.054V46.049z M41.347,47.397
			c-1.456,0.216-3.38,0.123-3.38,0.123v-3.145h3.38V47.397z M41.347,35.506h-3.38v-3.145c3.016-0.007,2.961,0.061,3.38,0.122V35.506
			z M50.827,45.433V34.521c7.392,2.183,11.475,6.055,11.475,6.055S56.67,43.884,50.827,45.433z"/>
		<g>
			<path fill="#FFFFFF" d="M66.877,40.785c-6.279,4.203-12.26,6.823-18.796,8.053V31.275c12.38,2.335,17.177,8.456,17.177,8.456
				l7.04-7.322L69.905,21.99l-9.575-2.675l-1.267,1.267c0,0-8.94-3.59-21.102-3.59c-19.377,0-33.026,11.193-33.026,23.021
				c0,12.882,13.508,22.926,32.715,22.926c20.428,0,36.548-11.311,36.548-11.311L66.877,40.785z M38.031,30.385
				c1.85,0,3.591,0.081,5.228,0.228v7.006h-7.251v-7.2C36.659,30.397,37.332,30.385,38.031,30.385z M18.337,40.047
				c0-2.52,1.698-7.647,12.566-9.204v18.271C18.135,47.06,18.337,40.047,18.337,40.047z M36.007,49.615v-7.386h7.251v7.257
				c-1.487,0.126-3.009,0.188-4.577,0.188C37.748,49.675,36.858,49.653,36.007,49.615z"/>
		</g>
		<path fill="#BE2F37" d="M59.485,22.834l1.407-1.549l7.604,2.252l1.689,8.448l-5.21,5.21c0,0-8.448-8.729-27.35-8.729
			c-14.889,0-21.155,6.354-21.155,11.264c0,4.909,5.632,11.827,21.847,11.827c16.661,0,28.066-8.166,28.066-8.166l5.067,7.603
			c0,0-13.798,10.091-34.354,10.091c-16.263,0-30.225-8.119-30.225-21.284c0-11.968,14.244-20.891,31.034-20.891
			C52.024,18.91,59.485,22.834,59.485,22.834z"/>
	</g>
</g>
</svg>
