<?xml version="1.0" encoding="utf-8"?>
<!DOCTYPE svg PUBLIC "-//W3C//DTD SVG 1.1//EN" "http://www.w3.org/Graphics/SVG/1.1/DTD/svg11.dtd">
<svg version="1.1"
	 id="Layer_1" xmlns:dc="http://purl.org/dc/elements/1.1/" xmlns:cc="http://creativecommons.org/ns#" xmlns:rdf="http://www.w3.org/1999/02/22-rdf-syntax-ns#" xmlns:svg="http://www.w3.org/2000/svg" xmlns:sodipodi="http://sodipodi.sourceforge.net/DTD/sodipodi-0.dtd" xmlns:inkscape="http://www.inkscape.org/namespaces/inkscape" sodipodi:docname="AJAX.svg" inkscape:version="0.48.2 r9819"
	 xmlns="http://www.w3.org/2000/svg" xmlns:xlink="http://www.w3.org/1999/xlink" x="0px" y="0px" width="80px" height="80px"
	 viewBox="0 0 80 80" enable-background="new 0 0 80 80" xml:space="preserve">
<sodipodi:namedview  inkscape:cy="159.80321" inkscape:cx="106.90863" inkscape:zoom="2.9420856" fit-margin-left="0" fit-margin-top="0" showgrid="false" guidetolerance="10" gridtolerance="10" objecttolerance="10" bordercolor="#666666" pagecolor="#ffffff" borderopacity="1" id="namedview558" inkscape:current-layer="g236" inkscape:window-maximized="1" inkscape:window-y="-8" inkscape:window-x="-8" fit-margin-bottom="0" fit-margin-right="0" inkscape:window-height="1004" inkscape:window-width="1280" inkscape:pageshadow="2" inkscape:pageopacity="0">
	</sodipodi:namedview>
<g id="g236" transform="translate(-10.264,-10.255007)">
	<g id="g238">
		<g>
			<defs>
				<rect id="SVGID_1_" x="10.264" y="10.254" width="80" height="80.001"/>
			</defs>
			<clipPath id="SVGID_2_">
				<use xlink:href="#SVGID_1_"  overflow="visible"/>
			</clipPath>
			<path id="path246" inkscape:connector-curvature="0" clip-path="url(#SVGID_2_)" fill="#FFFFFF" d="M50.263,10.255
				c-22.09,0-39.999,17.909-39.999,40s17.909,40.001,39.999,40.001c22.094,0,40.001-17.91,40.001-40.001
				S72.357,10.255,50.263,10.255 M50.263,87.31c-20.52,0-37.152-16.591-37.152-37.054c0-20.464,16.633-37.055,37.152-37.055
				c20.519,0,37.152,16.59,37.152,37.055S70.782,87.31,50.263,87.31"/>
		</g>
	</g>
	<g id="g248">
		<g>
			<defs>
				<rect id="SVGID_3_" x="10.264" y="10.254" width="80" height="80.001"/>
			</defs>
			<clipPath id="SVGID_4_">
				<use xlink:href="#SVGID_3_"  overflow="visible"/>
			</clipPath>
			<path id="path256" inkscape:connector-curvature="0" clip-path="url(#SVGID_4_)" fill="#FFFFFF" d="M51.385,61.838
				c-0.208,0.442-0.616,0.747-1.087,0.815l-16.012,2.284c-0.142,0.02-0.272,0.1-0.357,0.22c-0.086,0.115-0.122,0.268-0.099,0.412
				l0.976,6.644c0.023,0.151,0.105,0.289,0.231,0.377c0.124,0.085,0.277,0.113,0.424,0.08l1.588-0.396l0.947-3.827
				c0.033-0.132,0.159-0.211,0.288-0.18l3.11,0.79c0.094,0.021,0.165,0.103,0.178,0.2l0.279,1.833l1.998-0.494v-0.831
				c0-0.089,0.036-0.174,0.1-0.231c0.063-0.059,0.147-0.086,0.232-0.077l2.48,0.304c0.07,0.008,0.125,0.048,0.173,0.099l4.764-1.178
				c0.424-0.104,0.774-0.402,0.962-0.81l2.955-6.522l-3.116-1.646L51.385,61.838L51.385,61.838z"/>
		</g>
	</g>
	<g id="g258">
		<g>
			<defs>
				<rect id="SVGID_5_" x="10.264" y="10.254" width="80" height="80.001"/>
			</defs>
			<clipPath id="SVGID_6_">
				<use xlink:href="#SVGID_5_"  overflow="visible"/>
			</clipPath>
			<polygon id="polygon266" clip-path="url(#SVGID_6_)" fill="#FFFFFF" points="53.037,58.359 52.781,58.901 55.881,60.539 
				56.129,59.995 			"/>
		</g>
	</g>
	<g id="g268">
		<g>
			<defs>
				<rect id="SVGID_7_" x="10.264" y="10.254" width="80" height="80.001"/>
			</defs>
			<clipPath id="SVGID_8_">
				<use xlink:href="#SVGID_7_"  overflow="visible"/>
			</clipPath>
			<polygon id="polygon276" clip-path="url(#SVGID_8_)" fill="#FFFFFF" points="54.159,55.999 54.057,56.215 57.111,57.826 
				57.359,57.284 54.312,55.674 			"/>
		</g>
	</g>
	<g id="g278">
		<g>
			<defs>
				<rect id="SVGID_9_" x="10.264" y="10.254" width="80" height="80.001"/>
			</defs>
			<clipPath id="SVGID_10_">
				<use xlink:href="#SVGID_9_"  overflow="visible"/>
			</clipPath>
			<polygon id="polygon286" clip-path="url(#SVGID_10_)" fill="#FFFFFF" points="53.675,57.018 53.42,57.558 56.496,59.185 
				56.743,58.64 			"/>
		</g>
	</g>
	<g id="g288">
		<g>
			<defs>
				<rect id="SVGID_11_" x="10.264" y="10.254" width="80" height="80.001"/>
			</defs>
			<clipPath id="SVGID_12_">
				<use xlink:href="#SVGID_11_"  overflow="visible"/>
			</clipPath>
			<path id="path296" inkscape:connector-curvature="0" clip-path="url(#SVGID_12_)" fill="#FFFFFF" d="M64.169,34.917
				l-7.413-16.556c-0.085-0.196-0.276-0.322-0.484-0.322H43.404c-0.296,0-0.537,0.25-0.537,0.557v10.842l-5.664-11.338
				c-3.375,1.358-6.488,3.22-9.242,5.502v20.173c0,0.307,0.239,0.556,0.535,0.556h7.307c0.294,0,0.535-0.25,0.535-0.556v-9.018
				l5.38,9.304c0.097,0.167,0.272,0.27,0.46,0.27h8.193c0.296,0,0.537-0.25,0.537-0.556V26.28l8.429,18.816l-1.008,2.12
				l-3.637,7.652l3.033,1.605l0.403-0.893l1.839-4.062l0.908-2.002l1.87-4.126l9.859-21.754c-0.729-0.604-1.48-1.176-2.259-1.719
				L64.169,34.917z"/>
		</g>
	</g>
	<g id="g298">
		<g>
			<defs>
				<rect id="SVGID_13_" x="10.264" y="10.254" width="80" height="80.001"/>
			</defs>
			<clipPath id="SVGID_14_">
				<use xlink:href="#SVGID_13_"  overflow="visible"/>
			</clipPath>
			<path id="path306" inkscape:connector-curvature="0" clip-path="url(#SVGID_14_)" fill="#FFFFFF" d="M61.979,58.306
				c-2.706,0-4.901,0.771-4.901,1.72c0,0.943,2.195,1.712,4.901,1.712s4.902-0.769,4.902-1.712
				C66.881,59.077,64.685,58.306,61.979,58.306"/>
		</g>
	</g>
	<g id="g308">
		<g>
			<defs>
				<rect id="SVGID_15_" x="10.264" y="10.254" width="80" height="80.001"/>
			</defs>
			<clipPath id="SVGID_16_">
				<use xlink:href="#SVGID_15_"  overflow="visible"/>
			</clipPath>
			<polygon id="polygon316" clip-path="url(#SVGID_16_)" fill="#F47D30" points="55.515,61.351 55.881,60.539 52.781,58.901 
				52.399,59.704 			"/>
		</g>
	</g>
	<g id="g318">
		<g>
			<defs>
				<rect id="SVGID_17_" x="10.264" y="10.254" width="80" height="80.001"/>
			</defs>
			<clipPath id="SVGID_18_">
				<use xlink:href="#SVGID_17_"  overflow="visible"/>
			</clipPath>
			<path id="path326" inkscape:connector-curvature="0" clip-path="url(#SVGID_18_)" fill="#F47D30" d="M36.645,58.072
				c1.287-1.509,3.113,0.277,4.644-0.678c1.182-0.627,2.191,0.47,3.46,0.27c0.797-0.014,2.001-0.927,2.689,0.17
				c0.581,0.292,1.398,0.184,1.892-0.197c0.309-1.157,1.589-0.709,2.435-0.974c0.557-0.131,1.65-0.71,2.395-0.663l0.152-0.326
				l3.047,1.61l0.367-0.811l-3.031-1.605l3.637-7.653c-2.152-0.354-4.823,1.123-6.701,0.086c-2.163-0.069-4.682,0.078-6.599-0.973
				c-1.244-0.207-2.578-0.188-3.71-0.658c-0.606,1.178-1.291-0.385-2.018-0.157c-0.439,0.145-0.804,0.642-0.715,1.175
				c-0.225,1.221-1.656,0.507-2.394,1.021c-1.352,0.796-2.103-1.212-3.394-1.194c-0.881-0.248-1.932-0.137-2.421,0.796
				c-0.761,0.199-1.149-0.827-2.011-0.493c-0.599-0.385,0.266-0.651,0.047-1.116c-0.493-0.559-1.411-0.965-2.104-0.495
				c-0.127,0.957,0.861,1.782,0.339,2.786c-0.516,0.11-0.487-0.668-0.921-0.85c-0.496-0.248-0.516,0.379-0.782,0.621
				c-0.966-0.045-0.763-1.163-1.065-1.766c-1.122-0.18-2.02,0.532-2.944,0.953c-0.648,0.51-0.224,1.604-0.781,2.139
				c-0.433-0.337-0.389-0.983-0.815-1.385c-0.363-0.246-0.797-0.426-1.245-0.264c-0.415,0.104-0.534,0.46-0.621,0.836
				c0.01,0.225,0.228,0.402,0.465,0.338c0.278,0.067,0.492,0.406,0.362,0.689c-0.144,0.202-0.232,0.61-0.577,0.536
				c-0.368-0.361-0.881-0.869-1.4-0.649c-0.218,0.201-0.001,0.47-0.001,0.692c-0.235,0.82,0.346,1.293,0.775,1.875
				c0.145,0.643,0.206,1.58-0.268,2.046c-0.64,0.133-0.799,0.865-0.863,1.424c0.153,0.561,0.748,0.517,0.964,0.983
				c0.117,0.381-0.286,0.671-0.613,0.886c0.126,0.634,0.273,1.259,0.436,1.884c0.392-0.159,0.837-0.312,1.094-0.268
				c0.215,0.11,0.368,0.312,0.368,0.538c0.208,0.42,0.643,0.842,1.137,0.601c0.494-0.222,0.943-0.93,1.477-0.64v-4.671l2.307,2.098
				v2.421c0.857-0.021,1.832,0.068,2.622-0.262c1.567,0.12,3.438,0.568,4.799-0.36c1.206-0.223,2.32-0.646,3.613-0.643
				C35.056,57.734,35.825,58.136,36.645,58.072"/>
		</g>
	</g>
	<g id="g328">
		<g>
			<defs>
				<rect id="SVGID_19_" x="10.264" y="10.254" width="80" height="80.001"/>
			</defs>
			<clipPath id="SVGID_20_">
				<use xlink:href="#SVGID_19_"  overflow="visible"/>
			</clipPath>
			<path id="path336" inkscape:connector-curvature="0" clip-path="url(#SVGID_20_)" fill="#F47D30" d="M63.499,47.984
				c0.864-1.186,3.078,0.233,3.361-1.598c0.345-0.953,1.376-0.597,2.021-1.068c0.195-0.354-0.147-0.599-0.214-0.911
				c0.845-0.956,1.983-1.619,2.888-2.597c0.649-0.665,1.66-0.513,2.498-0.53c0.388-0.242,0.952-0.601,1.033-1.065l-0.108-0.16
				c-1.185-0.18-2.467,0.04-3.565,0.414c-1.232,1.154-2.591,1.976-4.068,2.443c-1.004,1.324-3.1,1.944-4.598,2.479l-1.869,4.125
				C61.824,49.255,63.078,48.558,63.499,47.984"/>
		</g>
	</g>
	<g id="g338">
		<g>
			<defs>
				<rect id="SVGID_21_" x="10.264" y="10.254" width="80" height="80.001"/>
			</defs>
			<clipPath id="SVGID_22_">
				<use xlink:href="#SVGID_21_"  overflow="visible"/>
			</clipPath>
			<polygon id="polygon346" clip-path="url(#SVGID_22_)" fill="#F47D30" points="56.743,58.638 57.111,57.826 54.057,56.215 
				53.677,57.018 			"/>
		</g>
	</g>
	<g id="g348">
		<g>
			<defs>
				<rect id="SVGID_23_" x="10.264" y="10.254" width="80" height="80.001"/>
			</defs>
			<clipPath id="SVGID_24_">
				<use xlink:href="#SVGID_23_"  overflow="visible"/>
			</clipPath>
			<polygon id="polygon356" clip-path="url(#SVGID_24_)" fill="#F47D30" points="53.42,57.557 53.037,58.359 56.129,59.995 
				56.496,59.185 			"/>
		</g>
	</g>
	<g id="g358">
		<g>
			<defs>
				<rect id="SVGID_25_" x="10.264" y="10.254" width="80" height="80.001"/>
			</defs>
			<clipPath id="SVGID_26_">
				<use xlink:href="#SVGID_25_"  overflow="visible"/>
			</clipPath>
			<path id="path366" inkscape:connector-curvature="0" clip-path="url(#SVGID_26_)" fill="#F47D30" d="M50.263,13.202
				c-20.52,0-37.152,16.589-37.152,37.055c0,20.462,16.633,37.053,37.152,37.053c20.519,0,37.152-16.591,37.152-37.053
				C87.415,29.791,70.782,13.202,50.263,13.202 M50.263,84.937c-19.257,0-34.866-15.526-34.866-34.68
				c0-10.716,4.888-20.293,12.563-26.655c2.754-2.283,5.869-4.144,9.244-5.502c4.034-1.622,8.44-2.524,13.059-2.524
				c7.482,0,14.406,2.352,20.084,6.34c0.778,0.545,1.529,1.115,2.257,1.72c6.683,5.555,11.236,13.548,12.287,22.607l-0.743,0.259
				c-0.442,1.715-2.344,0.578-3.15,1.797c-1.027,0.06-2.144,0.152-2.684,1.223c-0.327,0.104-0.798,0.104-0.925-0.316
				c0.22-0.982-1.329-1.322-0.615-2.368c-0.042-0.445-0.562-0.49-0.888-0.359c-0.682,0.262-0.733,1.024-0.813,1.643
				c-0.933,0.178-1.011-1.513-2.025-1.113c-1.033,1.021-2.344,1.49-3.83,1.218c-2.64-0.211-3.512,3.353-5.769,4.101
				c-0.969,0.157-2.425-0.421-3.479-0.809l-1.842,4.062l1.073-0.276c0.713-0.176,1.277-0.668,1.923-1.018
				c1.045,0.825,1.22-0.761,2.063-0.849c0.538-0.128,0.988,0.364,1.33,0.765c1.268,0.562,2.799,0.188,3.837-0.698
				c1.108-0.492,2.525-0.287,3.649-0.793c0.755-0.517,1.484-1.133,2.548-0.955c3.155-1.124,7.229-2.512,10.503-3.701
				c0.047,0.728,0.075,1.46,0.075,2.201C85.128,69.41,69.522,84.937,50.263,84.937"/>
		</g>
	</g>
	<g id="g368">
		<g>
			<defs>
				<rect id="SVGID_27_" x="10.264" y="10.254" width="80" height="80.001"/>
			</defs>
			<clipPath id="SVGID_28_">
				<use xlink:href="#SVGID_27_"  overflow="visible"/>
			</clipPath>
			<path id="path376" inkscape:connector-curvature="0" clip-path="url(#SVGID_28_)" fill="#F47D30" d="M29.383,63.402l-3.329-3.107
				c-1.29-1.2-2.188-0.146-2.188,0.625v3.211c0,0.617,0.2,0.98,0.469,1.344l3.013,4.077c0.169,0.229,0.235,0.458,0.235,0.735v0.453
				c0,0.362-0.311,0.329-0.551,0.104l-0.652-0.577c-0.23-0.186-0.208-0.567-0.208-0.898v-0.41c0-0.223-0.227-0.617-0.456-0.81
				l-1.507-1.427c-0.228-0.229-0.343-0.037-0.343,0.57v1.863c0,0.484,0.31,1.464,1.011,2.119l3.449,3.22
				c0.837,0.771,1.561,0.023,1.561-1.767v-2.053c0-1.019-0.438-2.047-0.951-2.741l-2.537-3.423c0,0-0.228-0.312-0.228-0.713v-0.354
				c0,0,0.089-0.516,0.485-0.142l0.646,0.601c0.168,0.163,0.279,0.405,0.279,0.693v0.486c0,0.28,0.07,0.489,0.326,0.732l1.213,1.131
				c0.513,0.479,0.765,0.133,0.765-0.285v-1.93C29.887,64.025,29.591,63.597,29.383,63.402"/>
		</g>
	</g>
	<g id="g378">
		<g>
			<defs>
				<rect id="SVGID_29_" x="10.264" y="10.254" width="80" height="80.001"/>
			</defs>
			<clipPath id="SVGID_30_">
				<use xlink:href="#SVGID_29_"  overflow="visible"/>
			</clipPath>
			<path id="path386" inkscape:connector-curvature="0" clip-path="url(#SVGID_30_)" fill="#F47D30" d="M35.008,76.706l-1.825-1.122
				v-9.436c0-0.108-0.055-0.21-0.148-0.264l-1.709-1.052c-0.092-0.057-0.205-0.061-0.299-0.002
				c-0.092,0.054-0.148,0.154-0.148,0.264V76.26c0,0.108,0.052,0.212,0.145,0.265l3.681,2.266c0.092,0.055,0.207,0.058,0.299,0.002
				c0.094-0.056,0.15-0.158,0.15-0.267v-1.555C35.154,76.862,35.097,76.764,35.008,76.706"/>
		</g>
	</g>
	<g id="g388">
		<g>
			<defs>
				<rect id="SVGID_31_" x="10.264" y="10.254" width="80" height="80.001"/>
			</defs>
			<clipPath id="SVGID_32_">
				<use xlink:href="#SVGID_31_"  overflow="visible"/>
			</clipPath>
			<path id="path396" inkscape:connector-curvature="0" clip-path="url(#SVGID_32_)" fill="#F47D30" d="M41.852,71.09l-0.28-1.833
				c-0.013-0.098-0.084-0.178-0.178-0.202l-3.111-0.788c-0.128-0.031-0.255,0.046-0.288,0.177l-0.947,3.83l-1.639,6.633
				c-0.033,0.125,0.035,0.256,0.158,0.297l1.833,0.617c0.063,0.018,0.132,0.012,0.189-0.018c0.057-0.033,0.097-0.09,0.115-0.155
				l0.473-1.94l2.508,0.846l0.363,2.357c0.012,0.09,0.076,0.165,0.161,0.193l1.917,0.648c0.079,0.026,0.165,0.009,0.229-0.046
				c0.063-0.059,0.092-0.142,0.081-0.224L41.852,71.09z M38.686,75.616l0.952-3.894l0.68,4.446L38.686,75.616L38.686,75.616z"/>
		</g>
	</g>
	<g id="g398">
		<g>
			<defs>
				<rect id="SVGID_33_" x="10.264" y="10.254" width="80" height="80.001"/>
			</defs>
			<clipPath id="SVGID_34_">
				<use xlink:href="#SVGID_33_"  overflow="visible"/>
			</clipPath>
			<path id="path406" inkscape:connector-curvature="0" clip-path="url(#SVGID_34_)" fill="#F47D30" d="M52.089,70.426l-1.709-0.209
				c-0.085-0.011-0.168,0.019-0.232,0.074c-0.065,0.06-0.101,0.144-0.101,0.231v6.194l-3.151-6.784
				c-0.015-0.029-0.04-0.05-0.061-0.074c-0.046-0.049-0.103-0.091-0.173-0.096l-2.479-0.305c-0.085-0.011-0.171,0.017-0.234,0.075
				c-0.064,0.058-0.099,0.144-0.099,0.231v0.831v10.995c0,0.152,0.109,0.287,0.256,0.306l1.711,0.243
				c0.085,0.014,0.17-0.016,0.235-0.073c0.064-0.059,0.101-0.143,0.101-0.232v-7.181l3.731,7.537c0.053,0.11,0.163,0.178,0.28,0.171
				l1.907-0.12c0.158-0.009,0.281-0.145,0.281-0.306V70.734C52.353,70.575,52.24,70.443,52.089,70.426"/>
		</g>
	</g>
	<g id="g408">
		<g>
			<defs>
				<rect id="SVGID_35_" x="10.264" y="10.254" width="80" height="80.001"/>
			</defs>
			<clipPath id="SVGID_36_">
				<use xlink:href="#SVGID_35_"  overflow="visible"/>
			</clipPath>
			<path id="path416" inkscape:connector-curvature="0" clip-path="url(#SVGID_36_)" fill="#F47D30" d="M58.68,69.317l-4.782,0.989
				c-0.141,0.027-0.242,0.154-0.242,0.304v11.146c0,0.089,0.043,0.174,0.109,0.235c0.067,0.06,0.157,0.084,0.241,0.065l4.674-0.863
				c2.305-0.427,2.305-1.863,2.305-2.173v-8.746C60.985,70.274,60.985,68.84,58.68,69.317 M58.68,78.094c0,0,0,1.051-0.898,1.217
				l-1.82,0.339v-7.497l1.715-0.356c1.003-0.206,1.003,0.763,1.003,0.763L58.68,78.094L58.68,78.094z"/>
		</g>
	</g>
	<g id="g418">
		<g>
			<defs>
				<rect id="SVGID_37_" x="10.264" y="10.254" width="80" height="80.001"/>
			</defs>
			<clipPath id="SVGID_38_">
				<use xlink:href="#SVGID_37_"  overflow="visible"/>
			</clipPath>
			<path id="path426" inkscape:connector-curvature="0" clip-path="url(#SVGID_38_)" fill="#F47D30" d="M66.91,65.983
				c-0.067-0.046-0.155-0.05-0.23-0.015l-4.311,2.188c-0.081,0.041-0.133,0.128-0.133,0.221v11.228c0,0.084,0.041,0.165,0.108,0.207
				c0.07,0.047,0.153,0.049,0.227,0.017l4.312-2.009c0.085-0.041,0.14-0.13,0.14-0.228v-1.587c0-0.083-0.042-0.16-0.11-0.204
				c-0.067-0.048-0.151-0.056-0.226-0.02l-1.811,0.847c-0.074,0.032-0.156,0.026-0.229-0.02c-0.066-0.045-0.107-0.124-0.107-0.207
				v-2.122c0-0.102,0.055-0.187,0.139-0.226l2.204-1.03c0.084-0.039,0.14-0.125,0.14-0.224v-1.595c0-0.086-0.042-0.164-0.113-0.212
				c-0.067-0.042-0.155-0.049-0.231-0.011l-1.796,0.912c-0.073,0.036-0.159,0.032-0.23-0.012c-0.07-0.046-0.111-0.124-0.111-0.209
				v-2.27c0-0.093,0.052-0.184,0.131-0.223l2.218-1.123c0.082-0.042,0.134-0.127,0.134-0.222v-1.646
				C67.024,66.108,66.983,66.027,66.91,65.983"/>
		</g>
	</g>
	<g id="g428">
		<g>
			<defs>
				<rect id="SVGID_39_" x="10.264" y="10.254" width="80" height="80.001"/>
			</defs>
			<clipPath id="SVGID_40_">
				<use xlink:href="#SVGID_39_"  overflow="visible"/>
			</clipPath>
			<path id="path436" inkscape:connector-curvature="0" clip-path="url(#SVGID_40_)" fill="#F47D30" d="M72.116,69.634
				c0,0,1.351-1.042,1.351-2.939v-2.941c0-1.562-0.963-1.706-2.062-0.921l-3.595,2.572c-0.065,0.045-0.104,0.12-0.104,0.203v11.098
				c0,0.091,0.047,0.174,0.126,0.218c0.08,0.045,0.173,0.041,0.247-0.015l1.83-1.286c0.063-0.046,0.104-0.123,0.104-0.203v-4.28
				l0.378-0.271l2.007,2.722c0.076,0.103,0.216,0.128,0.323,0.054l1.34-0.944c0.053-0.038,0.088-0.097,0.099-0.162
				c0.01-0.07-0.007-0.137-0.046-0.19L72.116,69.634z M71.405,67.086c0,0.403-0.227,0.874-0.504,1.068l-0.515,0.371
				c-0.073,0.053-0.169,0.06-0.248,0.019c-0.079-0.046-0.125-0.128-0.125-0.223v-1.971c0-0.08,0.037-0.156,0.104-0.202l0.75-0.536
				c0.299-0.215,0.538-0.008,0.538,0.324V67.086L71.405,67.086z"/>
		</g>
	</g>
	<g id="g438">
		<g>
			<defs>
				<rect id="SVGID_41_" x="10.264" y="10.254" width="80" height="80.001"/>
			</defs>
			<clipPath id="SVGID_42_">
				<use xlink:href="#SVGID_41_"  overflow="visible"/>
			</clipPath>
			<path id="path446" inkscape:connector-curvature="0" clip-path="url(#SVGID_42_)" fill="#F47D30" d="M77.152,56.804l-2.322,2.657
				c-0.593,0.692-0.729,1.43-0.729,2.276v1.131c0,0.792,0.154,1.502,1.145,1.717l1.269,0.296c0.41,0.095,0.639,0.211,0.639,0.52
				v0.287c0,0.465-0.104,0.581-0.293,0.776c-0.188,0.193-0.622,0.657-0.622,0.077v-0.494c0-0.41-0.167-0.41-0.42-0.148l-1.465,1.563
				c-0.172,0.165-0.252,0.357-0.252,0.676v0.997c0,1.791,0.893,2.139,1.803,0.896l2.196-3.003C79,65.793,79,64.556,79,63.847
				c0-0.853-0.701-1.201-1.208-1.293l-1.073-0.19c-0.382-0.074-0.483-0.349-0.483-0.729v-0.609c0-0.183,0-0.666,0.312-1.004
				l0.217-0.228c0.226-0.238,0.388-0.238,0.388,0.195v0.871c0,0.179,0.096,0.287,0.251,0.121l1.343-1.44
				C78.975,59.298,79,58.917,79,58.66V57.2C79.002,55.689,77.999,55.834,77.152,56.804"/>
		</g>
	</g>
	<g id="g448">
		<g>
			<defs>
				<rect id="SVGID_43_" x="10.264" y="10.254" width="80" height="80.001"/>
			</defs>
			<clipPath id="SVGID_44_">
				<use xlink:href="#SVGID_43_"  overflow="visible"/>
			</clipPath>
			<path id="path456" inkscape:connector-curvature="0" clip-path="url(#SVGID_44_)" fill="#F47D30" d="M20.831,59.211v6.392
				l1.635,2.436c0.409,0.609,0.671,0.462,0.671-0.063v-8.916C22.401,59.266,21.535,59.014,20.831,59.211"/>
		</g>
	</g>
	<g id="g458">
		<g>
			<defs>
				<rect id="SVGID_45_" x="10.264" y="10.254" width="80" height="80.001"/>
			</defs>
			<clipPath id="SVGID_46_">
				<use xlink:href="#SVGID_45_"  overflow="visible"/>
			</clipPath>
			<path id="path466" inkscape:connector-curvature="0" clip-path="url(#SVGID_46_)" fill="#F47D30" d="M66.881,62.841v-2.817
				c0,0.947-2.196,1.714-4.902,1.714s-4.901-0.767-4.901-1.714v2.817c0,0.948,2.195,1.715,4.901,1.715S66.881,63.789,66.881,62.841"
				/>
		</g>
	</g>
	<g id="g488">
		<g>
			<defs>
				<rect id="SVGID_47_" x="10.264" y="10.254" width="80" height="80.001"/>
			</defs>
			<clipPath id="SVGID_48_">
				<use xlink:href="#SVGID_47_"  overflow="visible"/>
			</clipPath>
			<path id="path496" inkscape:connector-curvature="0" clip-path="url(#SVGID_48_)" fill="#00539B" d="M23.137,59.06v-2.42
				l-2.306-2.099v4.67C21.535,59.014,22.403,59.266,23.137,59.06"/>
		</g>
	</g>
	<g id="g498">
		<g>
			<defs>
				<rect id="SVGID_49_" x="10.264" y="10.254" width="80" height="80.001"/>
			</defs>
			<clipPath id="SVGID_50_">
				<use xlink:href="#SVGID_49_"  overflow="visible"/>
			</clipPath>
			<path id="path506" inkscape:connector-curvature="0" clip-path="url(#SVGID_50_)" fill="#00539B" d="M85.052,48.055
				c-3.272,1.19-7.347,2.578-10.502,3.701c-1.062-0.178-1.791,0.438-2.546,0.955c-1.125,0.506-2.543,0.301-3.651,0.793
				c-1.038,0.887-2.568,1.26-3.836,0.698c-0.343-0.402-0.791-0.893-1.33-0.765c-0.843,0.089-1.02,1.674-2.062,0.849
				c-0.646,0.35-1.208,0.842-1.923,1.019l-1.074,0.275l-0.401,0.894l-0.367,0.811l-0.247,0.544l-0.368,0.812l-0.247,0.545
				l-0.369,0.811l-0.246,0.543l-0.366,0.812l-2.955,6.521c-0.188,0.408-0.541,0.706-0.962,0.81l-4.765,1.177
				c0.023,0.024,0.047,0.045,0.061,0.073l3.152,6.787v-6.195c0-0.087,0.036-0.173,0.101-0.231c0.063-0.058,0.148-0.088,0.23-0.076
				l1.711,0.21c0.15,0.018,0.263,0.149,0.263,0.306v11.202c0,0.165-0.123,0.299-0.282,0.31l-1.905,0.115
				c-0.118,0.01-0.228-0.059-0.283-0.168l-3.729-7.537v7.181c0,0.088-0.038,0.172-0.103,0.232c-0.064,0.058-0.15,0.087-0.235,0.075
				l-1.709-0.243c-0.147-0.023-0.259-0.155-0.259-0.306V70.596L41.85,71.09l1.583,10.391c0.012,0.082-0.018,0.171-0.08,0.225
				c-0.065,0.057-0.151,0.071-0.229,0.048l-1.917-0.648c-0.084-0.028-0.148-0.104-0.161-0.194l-0.361-2.356l-2.509-0.846
				l-0.473,1.938c-0.017,0.065-0.058,0.123-0.116,0.156c-0.057,0.029-0.125,0.037-0.188,0.018l-1.834-0.618
				c-0.119-0.039-0.188-0.168-0.157-0.296l1.641-6.633l-1.59,0.396c-0.145,0.033-0.299,0.006-0.422-0.08
				c-0.125-0.087-0.208-0.226-0.23-0.377l-0.977-6.643c-0.022-0.146,0.014-0.298,0.099-0.413c0.085-0.12,0.215-0.2,0.357-0.22
				l16.012-2.284c0.471-0.068,0.876-0.373,1.087-0.814l1.015-2.135l0.381-0.803l0.259-0.541l0.381-0.803l0.255-0.54l0.382-0.803
				l0.102-0.214c-0.743-0.048-1.84,0.531-2.394,0.662c-0.847,0.263-2.127-0.184-2.435,0.974c-0.496,0.38-1.311,0.491-1.893,0.197
				c-0.689-1.097-1.893-0.184-2.688-0.169c-1.27,0.198-2.278-0.897-3.46-0.271c-1.53,0.955-3.357-0.831-4.644,0.677
				c-0.82,0.066-1.591-0.337-2.473-0.276c-1.292-0.003-2.407,0.421-3.613,0.643c-1.361,0.93-3.231,0.479-4.8,0.36
				c-0.789,0.33-1.766,0.24-2.621,0.261v8.916c0,0.526-0.263,0.673-0.672,0.062l-1.635-2.434v-6.39
				c-0.534-0.288-0.983,0.417-1.477,0.638c-0.494,0.243-0.928-0.179-1.139-0.599c0-0.226-0.15-0.425-0.365-0.541
				c-0.258-0.041-0.705,0.111-1.094,0.271c-0.165-0.625-0.311-1.25-0.437-1.884c0.328-0.213,0.729-0.503,0.613-0.886
				c-0.218-0.469-0.812-0.424-0.966-0.983c0.065-0.559,0.223-1.292,0.864-1.424c0.474-0.464,0.414-1.401,0.266-2.048
				c-0.429-0.581-1.008-1.052-0.774-1.875c0-0.22-0.217-0.489,0.003-0.69c0.518-0.22,1.033,0.289,1.398,0.648
				c0.346,0.074,0.434-0.333,0.578-0.533c0.13-0.286-0.085-0.622-0.362-0.691c-0.236,0.063-0.457-0.113-0.465-0.337
				c0.085-0.375,0.207-0.733,0.621-0.838c0.446-0.161,0.881,0.019,1.245,0.265c0.427,0.4,0.383,1.048,0.815,1.385
				c0.558-0.535,0.133-1.629,0.781-2.139c0.923-0.421,1.823-1.134,2.944-0.954c0.302,0.607,0.099,1.724,1.066,1.768
				c0.264-0.244,0.286-0.871,0.782-0.623c0.434,0.183,0.404,0.96,0.921,0.851c0.52-1.001-0.468-1.828-0.341-2.785
				c0.693-0.47,1.612-0.064,2.105,0.495c0.219,0.465-0.645,0.731-0.047,1.116c0.862-0.334,1.249,0.694,2.009,0.493
				c0.489-0.933,1.543-1.044,2.421-0.796c1.294-0.018,2.045,1.992,3.396,1.194c0.738-0.511,2.169,0.201,2.394-1.02
				c-0.088-0.534,0.278-1.028,0.716-1.174c0.726-0.229,1.411,1.333,2.019,0.154c1.129,0.472,2.466,0.452,3.71,0.659
				c1.915,1.051,4.434,0.904,6.596,0.972c1.878,1.036,4.55-0.44,6.701-0.086l1.006-2.119l-8.429-18.817v17.497
				c0,0.306-0.238,0.554-0.535,0.554h-8.195c-0.188,0-0.363-0.102-0.458-0.269l-5.38-9.302v9.017c0,0.307-0.24,0.554-0.535,0.554
				h-7.305c-0.297,0-0.538-0.248-0.538-0.554V23.601c-7.675,6.363-12.562,15.939-12.562,26.655
				c0,19.154,15.608,34.681,34.867,34.681c19.256,0,34.863-15.527,34.863-34.681C85.128,49.516,85.099,48.784,85.052,48.055
				 M29.888,66.663c0,0.416-0.252,0.764-0.766,0.282l-1.213-1.13c-0.256-0.241-0.327-0.455-0.327-0.734v-0.484
				c0-0.289-0.11-0.53-0.277-0.695L26.658,63.3c-0.397-0.369-0.487,0.145-0.487,0.145v0.353c0,0.404,0.227,0.717,0.227,0.717
				l2.537,3.421c0.515,0.694,0.953,1.723,0.953,2.74v2.054c0,1.787-0.726,2.54-1.562,1.768l-3.447-3.222
				c-0.705-0.656-1.013-1.634-1.013-2.12v-1.861c0-0.608,0.116-0.797,0.344-0.57l1.504,1.426c0.23,0.191,0.457,0.588,0.457,0.81
				v0.41c0,0.334-0.021,0.715,0.209,0.899l0.651,0.577c0.239,0.225,0.549,0.259,0.549-0.106v-0.451c0-0.275-0.064-0.505-0.235-0.735
				l-3.012-4.079c-0.269-0.36-0.469-0.723-0.469-1.341V60.92c0-0.772,0.898-1.827,2.188-0.624l3.33,3.106
				c0.207,0.194,0.505,0.62,0.505,1.329V66.663L29.888,66.663z M35.152,78.524c0,0.112-0.055,0.213-0.15,0.269
				c-0.092,0.056-0.207,0.056-0.299-0.004l-3.681-2.262c-0.09-0.056-0.146-0.158-0.146-0.265V65.098c0-0.113,0.057-0.213,0.15-0.268
				c0.093-0.056,0.206-0.056,0.3,0.003l1.709,1.05c0.092,0.058,0.146,0.157,0.146,0.266v9.436l1.826,1.123
				c0.09,0.055,0.145,0.157,0.145,0.266V78.524L35.152,78.524z M60.985,79.02c0,0.308,0,1.746-2.307,2.171l-4.672,0.867
				c-0.086,0.015-0.175-0.008-0.244-0.067c-0.065-0.062-0.104-0.148-0.104-0.236V70.609c0-0.15,0.1-0.276,0.24-0.303l4.78-0.987
				c2.307-0.476,2.307,0.955,2.307,0.955V79.02z M57.077,62.842v-2.816c0-0.948,2.195-1.72,4.901-1.72s4.9,0.771,4.9,1.72v2.816
				c0,0.949-2.194,1.716-4.9,1.716S57.077,63.791,57.077,62.842 M67.024,67.837c0,0.095-0.053,0.182-0.135,0.222l-2.215,1.124
				c-0.081,0.039-0.131,0.127-0.131,0.224v2.266c0,0.086,0.04,0.166,0.11,0.211c0.07,0.046,0.157,0.049,0.23,0.01l1.797-0.911
				c0.073-0.037,0.159-0.032,0.229,0.015c0.069,0.046,0.114,0.125,0.114,0.209V72.8c0,0.098-0.054,0.186-0.143,0.225l-2.198,1.029
				c-0.088,0.038-0.141,0.126-0.141,0.225v2.125c0,0.079,0.04,0.159,0.107,0.205c0.067,0.044,0.153,0.053,0.227,0.017l1.81-0.845
				c0.073-0.035,0.161-0.028,0.228,0.02c0.066,0.047,0.109,0.122,0.109,0.207v1.583c0,0.1-0.053,0.187-0.142,0.227l-4.309,2.01
				c-0.074,0.036-0.159,0.031-0.228-0.013c-0.07-0.046-0.109-0.125-0.109-0.211V68.377c0-0.093,0.05-0.179,0.133-0.223l4.311-2.185
				c0.073-0.036,0.16-0.031,0.23,0.014c0.069,0.044,0.113,0.124,0.113,0.209V67.837L67.024,67.837L67.024,67.837z M74.062,72.699
				l-1.341,0.944c-0.106,0.075-0.247,0.05-0.323-0.055l-2.007-2.72l-0.378,0.271v4.278c0,0.081-0.04,0.158-0.104,0.207l-1.832,1.285
				c-0.071,0.052-0.169,0.058-0.245,0.015c-0.077-0.044-0.126-0.127-0.126-0.218V65.607c0-0.081,0.038-0.154,0.104-0.201
				l3.595-2.572c1.099-0.784,2.062-0.64,2.062,0.919v2.942c0,1.897-1.351,2.938-1.351,2.938l1.998,2.715
				c0.039,0.055,0.056,0.12,0.046,0.19C74.149,72.604,74.114,72.662,74.062,72.699 M79,58.66c0,0.256-0.022,0.635-0.251,0.88
				l-1.347,1.441c-0.155,0.165-0.251,0.058-0.251-0.122v-0.872c0-0.433-0.159-0.433-0.387-0.195l-0.216,0.229
				c-0.312,0.336-0.312,0.82-0.312,1.003v0.609c0,0.381,0.102,0.655,0.487,0.725l1.069,0.194C78.299,62.645,79,62.994,79,63.846
				c0,0.712,0,1.945-0.899,3.181l-2.195,3.006c-0.912,1.24-1.805,0.895-1.805-0.898v-0.996c0-0.318,0.079-0.511,0.253-0.677
				l1.467-1.563c0.25-0.263,0.416-0.263,0.416,0.149v0.496c0,0.577,0.435,0.113,0.622-0.08c0.191-0.193,0.293-0.308,0.293-0.775
				v-0.287c0-0.309-0.229-0.425-0.638-0.519l-1.27-0.297c-0.992-0.215-1.144-0.925-1.144-1.717v-1.129
				c0-0.851,0.136-1.586,0.729-2.278l2.321-2.657C77.999,55.834,79,55.689,79,57.2V58.66L79,58.66z"/>
		</g>
	</g>
	<g id="g508">
		<g>
			<defs>
				<rect id="SVGID_51_" x="10.264" y="10.254" width="80" height="80.001"/>
			</defs>
			<clipPath id="SVGID_52_">
				<use xlink:href="#SVGID_51_"  overflow="visible"/>
			</clipPath>
			<polygon id="polygon516" clip-path="url(#SVGID_52_)" fill="#00539B" points="40.318,76.169 39.638,71.723 38.686,75.616 			"/>
		</g>
	</g>
	<g id="g518">
		<g>
			<defs>
				<rect id="SVGID_53_" x="10.264" y="10.254" width="80" height="80.001"/>
			</defs>
			<clipPath id="SVGID_54_">
				<use xlink:href="#SVGID_53_"  overflow="visible"/>
			</clipPath>
			<path id="path526" inkscape:connector-curvature="0" clip-path="url(#SVGID_54_)" fill="#00539B" d="M42.867,18.596
				c0-0.306,0.24-0.557,0.537-0.557H56.27c0.21,0,0.401,0.126,0.486,0.323l7.414,16.555l6.177-13.002
				c-5.677-3.988-12.604-6.34-20.083-6.34c-4.619,0-9.026,0.903-13.061,2.526l5.664,11.338L42.867,18.596L42.867,18.596z"/>
		</g>
	</g>
	<g id="g528">
		<g>
			<defs>
				<rect id="SVGID_55_" x="10.264" y="10.254" width="80" height="80.001"/>
			</defs>
			<clipPath id="SVGID_56_">
				<use xlink:href="#SVGID_55_"  overflow="visible"/>
			</clipPath>
			<path id="path536" inkscape:connector-curvature="0" clip-path="url(#SVGID_56_)" fill="#00539B" d="M67.344,42.913
				c1.479-0.467,2.834-1.292,4.068-2.442c1.101-0.376,2.381-0.594,3.565-0.417l0.109,0.162c-0.083,0.464-0.646,0.821-1.034,1.064
				c-0.838,0.018-1.849-0.134-2.498,0.529c-0.905,0.979-2.043,1.644-2.888,2.598c0.066,0.311,0.407,0.559,0.215,0.91
				c-0.645,0.474-1.677,0.114-2.021,1.07c-0.283,1.831-2.498,0.413-3.361,1.598c-0.421,0.573-1.677,1.271-2.622,1.53l-0.909,2.003
				c1.056,0.386,2.511,0.967,3.479,0.808c2.257-0.747,3.13-4.312,5.771-4.099c1.484,0.269,2.794-0.196,3.829-1.22
				c1.014-0.399,1.094,1.293,2.025,1.114c0.08-0.616,0.132-1.38,0.814-1.64c0.323-0.134,0.844-0.088,0.887,0.356
				c-0.714,1.047,0.835,1.386,0.615,2.368c0.125,0.423,0.598,0.423,0.923,0.316c0.542-1.068,1.657-1.16,2.687-1.221
				c0.804-1.221,2.707-0.081,3.149-1.797l0.745-0.26c-1.053-9.058-5.606-17.052-12.287-22.605l-9.856,21.753
				C64.243,44.856,66.338,44.237,67.344,42.913"/>
		</g>
	</g>
	<g id="g538">
		<g>
			<defs>
				<rect id="SVGID_57_" x="10.264" y="10.254" width="80" height="80.001"/>
			</defs>
			<clipPath id="SVGID_58_">
				<use xlink:href="#SVGID_57_"  overflow="visible"/>
			</clipPath>
			<path id="path546" inkscape:connector-curvature="0" clip-path="url(#SVGID_58_)" fill="#00539B" d="M70.865,65.612l-0.751,0.536
				c-0.063,0.046-0.101,0.121-0.101,0.206v1.97c0,0.092,0.049,0.174,0.125,0.218c0.077,0.043,0.176,0.036,0.248-0.018l0.517-0.37
				c0.277-0.197,0.501-0.665,0.501-1.069v-1.148C71.404,65.605,71.165,65.398,70.865,65.612"/>
		</g>
	</g>
	<g id="g548">
		<g>
			<defs>
				<rect id="SVGID_59_" x="10.264" y="10.254" width="80" height="80.001"/>
			</defs>
			<clipPath id="SVGID_60_">
				<use xlink:href="#SVGID_59_"  overflow="visible"/>
			</clipPath>
			<path id="path556" inkscape:connector-curvature="0" clip-path="url(#SVGID_60_)" fill="#00539B" d="M57.676,71.798l-1.712,0.354
				v7.497l1.818-0.339c0.896-0.166,0.896-1.217,0.896-1.217v-5.536C58.678,72.556,58.678,71.59,57.676,71.798"/>
		</g>
	</g>
</g>
</svg>
