<?xml version="1.0" encoding="utf-8"?>
<!DOCTYPE svg PUBLIC "-//W3C//DTD SVG 1.1//EN" "http://www.w3.org/Graphics/SVG/1.1/DTD/svg11.dtd">
<svg version="1.1" xmlns="http://www.w3.org/2000/svg" xmlns:xlink="http://www.w3.org/1999/xlink" x="0px" y="0px" width="80px"
	 height="80px" viewBox="0.81 0.887 80 80" enable-background="new 0.81 0.887 80 80" xml:space="preserve">
<g id="Layer_2">
	<path fill="#FFFFFF" d="M4.023,79.351c-2.075-5.048-2.729-8.936-2.258-13.413c0.567-5.389,2.733-10.666,5.943-14.479l0.797-0.947
		c-1.208-3.571-1.833-7.338-1.833-11.154c0-19.159,15.585-34.745,34.743-34.745c1.229,0,2.464,0.069,3.766,0.211
		c0.187-0.142,0.38-0.281,0.584-0.418c1.497-1.007,3.469-1.896,5.411-2.438c2.563-0.716,4.77-0.862,4.862-0.868l2.795-0.177
		l-2.094,1.86c-0.279,0.248-0.602,0.601-0.609,0.609c-1.946,1.948-2.161,2.672-2.182,2.849c-0.045,0.396,0.077,0.66,0.409,0.874
		l0.022,0.009c0.229,0.092,0.458,0.184,0.686,0.279c0.302,0.068,0.644,0.103,1.016,0.103c1.197,0,10.233,0.018,10.233,0.018
		c0.625,0,1.198-0.304,1.458-0.774c0.201-0.363,0.174-0.769-0.078-1.173c-0.47-0.752-0.762-1.149-1.043-1.533
		c-0.213-0.29-0.415-0.567-0.671-0.957l0,0c-0.004,0-0.287-0.356-0.5-0.601l-1.394-1.598h3.656c0.573,0,5.69,0.084,8.732,2.991
		c2.512,2.401,3.031,3.389,3.468,6.61c0.325,2.404-0.75,6.158-3.11,8.278c-1.339,1.203-3.29,2.257-5.478,2.975
		c3.146,5.334,4.802,11.397,4.802,17.616c0,19.158-15.585,34.745-34.742,34.745c-5.486,0-10.835-1.292-15.649-3.724l-0.328,1.601
		c-1.06,0-7.624,0.35-11.229,1.894c-3.985,1.709-7.372,4.216-8.534,5.706l-1.021,1.309L4.023,79.351z M9.485,53.067
		c0.241,2.304,0.881,3.364,1.435,3.364c0.038,0,0.076-0.002,0.116-0.008c0.034-0.006,0.068-0.012,0.102-0.018
		C10.526,55.322,9.975,54.206,9.485,53.067z"/>
	<path fill="#E13A3E" d="M78.987,10.617C78.58,7.61,78.148,6.81,75.81,4.575c-2.5-2.388-6.774-2.724-8.066-2.724
		c-0.523,0-1.535,0-1.535,0c0.243,0.279,0.575,0.699,0.575,0.699c0.593,0.908,0.894,1.179,1.729,2.514
		c1.048,1.677-0.35,3.423-2.199,3.423c0,0-9.034-0.018-10.231-0.018c-0.487,0-0.93-0.051-1.319-0.148
		c-0.276-0.119-0.559-0.23-0.839-0.342c-0.669-0.394-1.028-1.013-0.932-1.849c0.122-1.065,1.798-2.759,2.427-3.388
		c0,0,0.365-0.4,0.681-0.68c0,0-2.168,0.137-4.663,0.833c-1.746,0.488-3.637,1.303-5.132,2.31c-0.301,0.203-0.577,0.411-0.844,0.622
		c-1.326-0.158-2.675-0.25-4.045-0.25C22.76,5.576,7.636,20.7,7.636,39.356c0,6.432,1.799,12.444,4.919,17.562
		c-0.38,0.203-0.815,0.377-1.381,0.46c-1.797,0.262-2.589-2.227-2.729-5.3c-2.969,3.527-5.147,8.497-5.722,13.96
		c-0.419,3.98,0.011,7.642,2.19,12.946c1.361-1.745,5.003-4.321,8.914-5.998c4.02-1.723,11.087-1.973,11.611-1.972
		c-0.489-0.208-3.072-1.362-5.534-3.3c-0.892-0.703-1.517-2.05-1.155-2.867c0.054-0.12,0.103-0.219,0.156-0.311
		c5.975,5.347,13.861,8.601,22.509,8.601c18.654,0,33.778-15.126,33.778-33.781c0-6.697-1.958-12.934-5.319-18.185
		c2.188-0.567,4.638-1.616,6.315-3.123C78.358,16.1,79.267,12.677,78.987,10.617z"/>
</g>
<g id="Layer_1" xmlns:dc="http://purl.org/dc/elements/1.1/" xmlns:cc="http://creativecommons.org/ns#" xmlns:rdf="http://www.w3.org/1999/02/22-rdf-syntax-ns#" xmlns:svg="http://www.w3.org/2000/svg" xmlns:sodipodi="http://sodipodi.sourceforge.net/DTD/sodipodi-0.dtd" xmlns:inkscape="http://www.inkscape.org/namespaces/inkscape" sodipodi:docname="AJAX.svg" inkscape:version="0.48.2 r9819">
	
		<sodipodi:namedview  inkscape:cy="80.120508" inkscape:cx="-26.506607" inkscape:zoom="1.4727816" fit-margin-left="0" fit-margin-top="0" showgrid="false" guidetolerance="10" gridtolerance="10" objecttolerance="10" bordercolor="#666666" pagecolor="#ffffff" borderopacity="1" id="namedview19" inkscape:current-layer="g3" inkscape:window-maximized="1" inkscape:window-y="-8" inkscape:window-x="-8" fit-margin-bottom="0" fit-margin-right="0" inkscape:window-height="1004" inkscape:window-width="1280" inkscape:pageshadow="2" inkscape:pageopacity="0">
		</sodipodi:namedview>
	<g id="g3_1_" transform="translate(4.070137e-4,-0.001)">
		<path id="path5_1_" inkscape:connector-curvature="0" d="M41.415,73.139c18.654,0,33.778-15.126,33.778-33.781
			c0-18.656-15.124-33.781-33.778-33.781c-18.655,0-33.779,15.125-33.779,33.781C7.636,58.013,22.759,73.139,41.415,73.139
			L41.415,73.139z"/>
		<path id="path7_1_" inkscape:connector-curvature="0" fill="#FFFFFF" d="M41.415,69.582c16.69,0,30.221-13.532,30.221-30.225
			S58.105,9.133,41.415,9.133c-16.691,0-30.223,13.532-30.223,30.224S24.723,69.582,41.415,69.582L41.415,69.582z"/>
		<path id="path9_1_" inkscape:connector-curvature="0" d="M13.828,72.987c-3.911,1.677-7.553,4.253-8.914,5.998
			c-2.18-5.305-2.609-8.966-2.19-12.946c0.575-5.463,2.753-10.433,5.722-13.96c0.14,3.073,0.932,5.562,2.729,5.3
			c1.432-0.21,2.038-0.993,2.983-1.397c3.055-1.312,5.807-1.531,9.678-1.531c3.519,0,9.085,1.544,11.573-0.943
			c1.609-1.61,3.213-3.252,3.213-3.252l-3.493-6.357l-3.735,9.688c-2.933-0.837-6.565-1.013-8.136-1.013
			c-3.352,0-7.144,0.921-8.8,1.536l-0.562-0.954c-0.304-0.638-0.451-0.928-0.451-0.928l9.253-23.206
			c2.235-5.308,3.213-8.661,7.124-9.499c3.768-0.808,6.008,0.576,8.939,3.772c2.654,2.893,7.263,9.079,7.263,9.079l4.19-11.035
			c-4.365,0-8.556-2.933-8.556-7.403c0-3.352,1.106-6.349,4.645-8.73c1.495-1.006,3.386-1.822,5.132-2.31
			c2.495-0.697,4.663-0.833,4.663-0.833c-0.315,0.28-0.681,0.68-0.681,0.68c-0.629,0.629-2.305,2.323-2.427,3.388
			c-0.174,1.51,1.1,2.34,3.09,2.34c1.197,0,10.231,0.018,10.231,0.018c1.85,0,3.247-1.746,2.199-3.423
			c-0.835-1.335-1.136-1.606-1.729-2.514c0,0-0.332-0.419-0.575-0.699c0,0,1.012,0,1.535,0c1.292,0,5.566,0.335,8.066,2.724
			c2.339,2.235,2.771,3.036,3.178,6.042c0.279,2.06-0.629,5.482-2.798,7.431c-2.096,1.882-5.403,3.062-7.887,3.464L56.778,51.965
			c-2.438,6.102-4.025,8.852-8.45,11.42c-4.329,2.515-8.729,3.073-11.243,3.073c-4.26,0-6.263-1.038-10.126-2.444
			c-3.782-1.376-5.92-1.128-6.879-0.488c-0.943,0.629-1.083,0.768-1.33,1.323c-0.362,0.817,0.263,2.164,1.155,2.867
			c2.462,1.938,5.045,3.092,5.534,3.3C24.916,71.015,17.848,71.265,13.828,72.987L13.828,72.987z"/>
		<path id="path11_1_" inkscape:connector-curvature="0" fill="#E13A3E" d="M15.097,52.431c2.014-0.597,5.193-1.255,8.16-1.255
			c0.435,0,3.955,0.024,7.276,0.755l4.374-11.338l5.422,9.868l-0.68,0.738c-0.067,0.072-1.642,1.685-3.253,3.294
			c-2.676,2.676-7.273,1.395-11.075,1.361l-1.485-0.009l-2.087-0.024c-2.648-0.042-4.733,0.452-7.04,1.442
			c-0.22,0.094-0.445,0.241-0.706,0.41c-0.621,0.403-1.393,0.905-2.626,1.085c-0.859,0.126-1.664-0.098-2.328-0.646
			c-0.634-0.522-1.118-1.338-1.455-2.432c-1.851,3.071-3.086,6.752-3.48,10.502c-0.34,3.232-0.072,6.121,1.331,10.242
			c1.946-1.662,4.842-3.44,7.833-4.723c2.144-0.921,4.984-1.435,7.381-1.725c-0.531-0.353-1.077-0.74-1.619-1.167
			c-1.303-1.026-2.247-3.002-1.567-4.531c0.404-0.911,0.802-1.233,1.831-1.92c1.159-0.773,3.511-1.342,8.131,0.338l1.649,0.614
			c2.792,1.053,4.636,1.746,8,1.746c1.676,0,6.059-0.281,10.542-2.884c3.985-2.315,5.466-4.708,7.765-10.54l0.097-0.211
			l11.793-31.162l0.796-0.129c2.08-0.336,5.209-1.356,7.178-3.125c1.855-1.665,2.556-4.673,2.347-6.203
			c-0.359-2.664-0.644-3.2-2.757-5.219c-1.512-1.445-4.011-2.057-5.801-2.257c0.185,0.265,0.395,0.583,0.652,0.995
			c0.713,1.142,0.765,2.442,0.14,3.568c-0.681,1.228-2.03,1.991-3.527,1.991L56.079,9.866c-1.639,0-2.923-0.469-3.711-1.353
			c-0.612-0.688-0.878-1.567-0.766-2.544c0.064-0.566,0.322-1.176,0.81-1.887c-0.199,0.049-0.398,0.101-0.603,0.158
			c-1.709,0.477-3.432,1.25-4.729,2.122c-2.784,1.875-4.025,4.21-4.025,7.572c0,1.452,0.561,2.781,1.623,3.842
			c1.354,1.356,3.424,2.165,5.535,2.165h2.024l-5.814,15.31l-1.521-2.042c-0.045-0.062-4.597-6.163-7.172-8.97
			c-2.926-3.191-4.706-3.975-7.617-3.351c-2.681,0.575-3.617,2.593-5.476,7.104l-0.646,1.555l-9.216,22.981L15.097,52.431
			L15.097,52.431L15.097,52.431z"/>
		<polygon id="polygon13_1_" fill="#E13A3E" points="23.984,29.563 23.991,29.547 23.996,29.539 		"/>
		<polygon id="polygon15_1_" fill="#E13A3E" points="55.509,51.381 55.489,51.426 55.472,51.47 		"/>
	</g>
</g>
</svg>
