<?xml version="1.0" encoding="UTF-8" standalone="no"?>
<!DOCTYPE svg PUBLIC "-//W3C//DTD SVG 1.1//EN" "http://www.w3.org/Graphics/SVG/1.1/DTD/svg11.dtd">
<svg width="100%" height="100%" viewBox="0 0 80 81" version="1.1" xmlns="http://www.w3.org/2000/svg" xmlns:xlink="http://www.w3.org/1999/xlink" xml:space="preserve" xmlns:serif="http://www.serif.com/" style="fill-rule:evenodd;clip-rule:evenodd;stroke-linejoin:round;stroke-miterlimit:2;">
    <g transform="matrix(0.412361,0,0,0.412361,-0.754759,-8.18432)">
        <g>
            <path d="M177.65,80.6C166.128,69.081 150.851,62.682 134.579,62.553C135.75,57.189 137.574,51.461 140.022,45.482L140.066,45.369C140.544,44.191 140.414,42.851 139.717,41.786C139.02,40.723 137.845,40.068 136.574,40.034L136.46,40.032C135.736,40.012 134.994,40.001 134.251,40.001C128.15,40.001 115.98,40.728 103.026,45.604C89.338,50.754 78.389,59.06 70.482,70.294C67.223,74.925 62.832,82.46 60.421,92.06C60.085,93.393 59.779,94.742 59.505,96.087C59.055,96.095 58.604,96.1 58.15,96.1C52.74,96.1 46.226,95.504 38.793,94.323C32.19,93.273 21.192,89.595 18.83,88.701C17.179,88.077 15.459,87.379 13.707,86.619L11.711,85.738L2.06,81.453L7.86,92.751C10.115,97.56 12.175,101.456 13.691,103.823C17.638,109.985 22.198,115.037 27.49,119.084L32.767,128.856C35.872,134.613 39.017,139.216 42.381,142.929C44.253,144.994 46.326,146.809 47.733,147.964C49.672,149.559 51.838,151.015 54.175,152.291L56.923,158.252C57.212,158.877 60.112,163.993 64.4,168.242C67.168,170.985 72.069,174.111 74.719,175.195L75.045,175.332C77.063,176.188 82.424,178.458 90.959,178.458C92.537,178.458 94.196,178.372 95.89,178.205L96.105,178.183C97.383,179.808 98.049,181.022 98.141,181.889C98.209,182.513 97.972,183.091 97.511,184.133C97.269,184.621 96.653,185.227 95.94,185.931L95.912,185.959C95.487,186.379 95.004,186.855 94.533,187.383L94.396,187.537C93.342,188.714 93.107,190.394 93.798,191.818C94.444,193.144 95.813,194.001 97.287,194.001C97.367,194.001 97.448,193.999 97.532,193.995L97.736,193.981C100.823,193.788 107.194,192.045 111.493,186.741C112.572,185.41 113.479,184.029 114.239,182.555C120.558,184.71 127.22,185.802 134.076,185.802C150.537,185.802 166.011,179.391 177.651,167.752C189.29,156.11 195.701,140.636 195.701,124.175C195.7,107.716 189.29,92.24 177.65,80.6" style="fill:white;fill-rule:nonzero;"/>
            <path d="M176.122,82.13C164.891,70.899 149.959,64.714 134.075,64.714C133.377,64.714 132.658,64.73 131.934,64.755C133.289,57.335 135.763,50.188 138.019,44.67L138.063,44.558C138.275,44.036 138.218,43.442 137.909,42.973C137.601,42.501 137.081,42.212 136.518,42.197L136.4,42.195C135.694,42.175 134.972,42.164 134.251,42.164C128.298,42.164 116.421,42.874 103.788,47.629C90.512,52.624 79.901,60.669 72.25,71.541C69.095,76.021 64.847,83.311 62.516,92.589C62.032,94.516 61.632,96.386 61.299,98.193L61.092,98.2C60.133,98.242 59.143,98.264 58.151,98.264C52.627,98.264 45.999,97.657 38.454,96.459C31.689,95.384 20.474,91.634 18.065,90.723C16.165,90.004 14.184,89.193 12.168,88.305L11.253,87.9L6.874,85.955L9.41,91.193C11.58,95.952 13.945,100.208 15.512,102.656C21.417,111.877 28.738,118.512 37.89,122.939C43.297,125.554 49.564,126.706 52.817,127.158C55.254,127.498 59.406,127.818 61.36,127.818L61.362,127.818L61.739,127.814C61.909,128.474 62.095,129.144 62.295,129.822C62.179,129.822 62.062,129.823 61.947,129.823C58.217,129.823 54.86,129.555 50.717,128.929C47.288,128.411 44.086,127.685 40.925,126.713C39.562,126.293 38.142,125.835 36.976,125.323L32.182,123.223L34.667,127.828C37.69,133.429 40.736,137.893 43.982,141.475C45.766,143.443 47.753,145.181 49.105,146.293C50.979,147.835 53.083,149.242 55.355,150.473C61.488,153.794 67.265,155.276 74.085,155.276C74.173,155.276 74.26,155.275 74.35,155.274L75.5,155.263C76.011,155.919 76.531,156.571 77.06,157.213C76.43,157.254 75.836,157.272 75.193,157.272C74.306,157.272 73.293,157.236 72.007,157.16C68.551,156.956 62.861,155.709 61.297,154.963L56.794,152.808L58.886,157.343C59.142,157.894 61.921,162.74 65.924,166.706C68.438,169.196 73.089,172.193 75.557,173.201L75.892,173.341C77.799,174.149 82.867,176.295 90.961,176.295L90.962,176.295C92.469,176.295 94.055,176.213 95.677,176.051L96.972,175.921C97.271,176.213 97.531,176.496 97.748,176.768C101.193,181.125 100.516,182.689 99.476,185.039C99.079,185.873 98.329,186.612 97.46,187.468L97.435,187.493C97.011,187.912 96.573,188.344 96.146,188.821L96.009,188.973C95.546,189.491 95.44,190.239 95.745,190.867C96.033,191.46 96.635,191.833 97.288,191.833C97.324,191.833 97.36,191.833 97.397,191.831L97.601,191.817C100.335,191.647 105.986,190.096 109.814,185.374C111.366,183.46 112.389,181.596 113.112,179.847C119.741,182.361 126.794,183.637 134.076,183.637C149.959,183.637 164.892,177.451 176.123,166.22C187.354,154.989 193.539,140.056 193.539,124.174C193.538,108.293 187.353,93.361 176.122,82.13" style="fill-rule:nonzero;"/>
            <path d="M191.822,124.176C191.822,139.6 185.816,154.101 174.909,165.01C164.003,175.916 149.502,181.923 134.076,181.923C126.973,181.923 120.117,180.679 113.673,178.228C113.951,177.404 114.175,176.608 114.367,175.854C114.685,174.614 114.863,173.264 115.007,171.843C115.603,171.665 116.412,171.365 118.018,170.643C119.924,169.785 121.173,169.192 121.373,169.097C125.487,170.257 129.76,170.847 134.077,170.847C146.543,170.847 158.263,165.992 167.079,157.177C175.894,148.362 180.749,136.641 180.749,124.175C180.749,110.972 175.121,98.333 165.306,89.49C165.3,89.334 165.29,88.631 165.59,87.638C165.662,87.402 165.735,87.146 165.806,86.894C165.878,86.64 165.946,86.398 166.015,86.175C169.54,89.7 171.592,89.048 171.664,89.014C171.798,88.935 171.946,88.895 172.104,88.895C172.826,88.895 173.574,89.709 173.658,89.801L173.669,89.814L173.682,89.8L173.669,89.812L173.788,89.689L173.788,89.688C173.686,89.572 172.85,88.571 173.24,87.786C173.277,87.698 174.109,85.601 170.383,81.645L170.291,81.547L170.239,81.673C170.225,81.709 169.907,82.538 170.221,84.018L170.234,84.115C170.234,84.123 170.335,84.961 169.872,85.488C169.621,85.774 169.244,85.919 168.756,85.919L168.354,85.891C167.728,85.692 167.128,85.59 166.57,85.59L166.211,85.606C166.277,85.437 166.353,85.263 166.44,85.076C166.6,84.732 166.751,84.384 166.826,84.05L167.06,84.013C167.74,84.013 168.49,84.63 168.579,84.704L168.592,84.716L168.603,84.7L168.591,84.714L168.643,84.643L168.693,84.572C168.581,84.475 167.608,83.596 167.889,82.765C167.913,82.673 168.447,80.48 164.211,77.076L164.104,76.99L164.072,77.122C164.064,77.159 163.862,78.026 164.378,79.448L164.402,79.542C164.404,79.55 164.636,80.43 164.187,81.017C163.913,81.377 163.437,81.559 162.788,81.562C162.406,81.496 162.033,81.462 161.68,81.462C160.686,81.462 160.162,81.72 160.14,81.731L160.02,81.791L160.127,81.875C160.999,82.567 161.77,83.064 162.46,83.436L162.236,83.52C162.037,83.596 161.832,83.675 161.612,83.753C161.073,83.947 160.542,84.171 160.19,84.324C159.732,84.526 159.326,84.756 159.193,84.833C151.7,80.039 143.015,77.504 134.077,77.504C133.049,77.504 132.011,77.539 130.979,77.606C130.786,73.961 131.058,70.198 131.634,66.48C132.448,66.445 133.265,66.427 134.076,66.427C149.5,66.427 164.001,72.434 174.909,83.34C185.816,94.25 191.822,108.752 191.822,124.176" style="fill:rgb(183,146,87);fill-rule:nonzero;"/>
            <path d="M121.395,140.584C124.108,143.474 126.501,146.023 127.42,148.053C127.469,148.161 127.514,148.267 127.554,148.371C127.6,148.492 127.64,148.612 127.674,148.729C127.7,148.82 127.726,148.909 127.745,148.998C127.822,149.339 127.881,149.668 127.927,149.984C127.973,150.3 128.005,150.604 128.025,150.895C128.044,151.187 128.053,151.467 128.053,151.736C128.052,152.018 128.04,152.287 128.021,152.544C128.007,152.752 127.985,152.948 127.962,153.14C127.955,153.2 127.946,153.258 127.939,153.316C127.849,153.957 127.723,154.52 127.608,155.016C128.514,154.274 129.779,153.143 130.77,152.24C130.86,152.158 130.946,152.079 131.033,152C131.373,151.689 131.668,151.417 131.889,151.214C132.009,151.102 132.131,150.991 132.255,150.879C132.381,150.767 132.507,150.653 132.637,150.539C132.896,150.31 133.165,150.077 133.44,149.837C134.47,148.939 135.521,148.025 136.336,147.145C136.823,146.618 137.226,146.103 137.486,145.615L137.564,145.471C137.857,144.926 138.055,144.558 138.043,143.91C138.041,143.76 138.026,143.597 138,143.411C137.951,143.071 137.866,142.768 137.744,142.475C137.538,141.987 137.23,141.527 136.81,140.977C136.367,140.395 135.93,139.849 135.501,139.332C135.178,138.944 134.86,138.571 134.548,138.212C134.351,137.986 134.154,137.767 133.962,137.551C133.738,137.303 133.518,137.06 133.3,136.824C133.164,136.676 133.03,136.532 132.897,136.39C132.79,136.275 132.683,136.161 132.578,136.047C132.45,135.911 132.324,135.777 132.198,135.644C132.176,135.62 132.155,135.597 132.133,135.573C132.05,135.484 131.966,135.398 131.885,135.31C131.795,135.215 131.707,135.12 131.619,135.028C129.863,133.162 128.632,131.789 128.108,130.267C128.014,130.005 127.945,129.745 127.903,129.481C127.892,129.427 127.887,129.372 127.88,129.317C127.878,129.299 127.875,129.282 127.874,129.265C127.821,128.871 127.808,128.466 127.846,128.029C128.404,124.161 133.24,121.57 136.659,125.871L137.995,127.532C137.995,127.532 144.288,135.475 147.652,139.55L149.384,141.592C149.446,141.658 149.5,141.718 149.547,141.764C152.384,145.097 157.557,147.734 158.798,148.304C158.708,148.197 158.605,148.075 158.492,147.938C157.874,147.182 156.963,145.983 156.216,144.656C156.012,144.294 155.82,143.923 155.651,143.547C155.617,143.474 155.585,143.399 155.551,143.325C155.436,143.069 155.321,142.81 155.207,142.541C155.133,142.368 155.059,142.193 154.986,142.013C154.624,141.117 154.283,140.131 154.01,138.991C153.915,138.591 153.835,138.199 153.766,137.815C153.73,137.612 153.698,137.413 153.669,137.216C153.664,137.181 153.658,137.148 153.653,137.114C153.625,136.909 153.599,136.708 153.576,136.51C153.56,136.373 153.546,136.238 153.534,136.104C153.515,135.9 153.498,135.701 153.487,135.505C153.486,135.491 153.485,135.479 153.485,135.464C153.471,135.262 153.462,135.067 153.455,134.875C153.443,134.569 153.439,134.276 153.441,133.997C153.442,133.717 153.449,133.452 153.461,133.204C153.487,132.567 153.541,132.036 153.594,131.639C153.595,131.622 153.598,131.608 153.6,131.593C153.637,131.303 153.676,131.087 153.7,130.958C153.55,130.923 153.293,130.857 152.969,130.737C152.322,130.501 151.415,130.059 150.591,129.272C150.178,128.878 149.787,128.4 149.461,127.816C148.635,126.345 147.853,124.571 147.697,121.595C147.507,121.734 147.319,121.878 147.128,122.022C146.265,122.676 145.372,123.355 144.265,123.878C143.66,124.164 142.55,124.608 141.231,124.759C140.939,124.793 140.637,124.813 140.327,124.813C140.069,124.813 139.815,124.799 139.566,124.772C139.318,124.744 139.075,124.702 138.841,124.647C135.694,123.917 133.753,122.457 132.729,120.054C132.494,119.502 132.331,118.933 132.241,118.352C132.219,118.207 132.201,118.062 132.188,117.915C132.174,117.767 132.166,117.621 132.162,117.473C132.155,117.175 132.164,116.879 132.194,116.578C132.256,115.923 132.37,115.211 132.568,114.503C132.611,114.346 132.659,114.186 132.712,114.03C132.765,113.874 132.821,113.718 132.882,113.562C133.067,113.099 133.295,112.646 133.572,112.224C133.666,112.084 133.764,111.944 133.87,111.811C134.133,111.475 134.433,111.165 134.777,110.888C134.982,110.721 135.204,110.568 135.443,110.428C135.522,110.381 135.604,110.336 135.688,110.292C135.855,110.206 136.029,110.125 136.21,110.052C136.338,110 136.468,109.957 136.6,109.918C136.998,109.804 137.42,109.745 137.859,109.745C139.451,109.745 140.965,110.507 141.664,111.63C141.688,111.564 141.713,111.491 141.74,111.414C141.924,110.869 142.152,110.056 142.419,109.093C143.031,106.899 143.867,103.894 145.017,101.038C145.186,100.618 145.355,100.191 145.526,99.758C145.656,99.427 145.786,99.093 145.92,98.761C146.85,96.429 147.865,94.096 149.387,92.238C147.271,90.724 145.286,89.776 143.551,89.184C143.407,89.134 143.264,89.088 143.121,89.044C140.44,88.199 138.407,88.199 137.484,88.199L137.154,88.2C133.686,88.246 130.665,88.727 127.791,89.71C127.6,89.775 127.409,89.843 127.219,89.914C126.378,90.224 125.546,90.579 124.718,90.98C124.454,91.108 124.19,91.24 123.926,91.377C123.8,91.443 123.674,91.507 123.547,91.574C121.242,92.816 119.115,94.419 117.24,96.301C117.235,96.306 117.232,96.312 117.226,96.315C114.674,98.876 112.581,101.949 111.121,105.308C110.537,106.654 110.054,108.046 109.685,109.47C109.288,110.996 108.921,112.625 108.747,114.405C108.676,115.118 108.638,115.855 108.639,116.619C108.641,117.574 108.709,118.571 108.861,119.622C108.921,120.041 108.995,120.467 109.085,120.902C109.207,121.508 109.365,122.13 109.548,122.769C109.583,122.89 109.62,123.014 109.658,123.136C110.203,124.919 110.996,126.835 112.118,128.906C112.63,129.852 113.218,130.785 113.853,131.703C116.044,134.882 118.85,137.874 121.395,140.584" style="fill:rgb(183,146,87);fill-rule:nonzero;"/>
            <path d="M169.148,136.56L168.52,139.264L170.268,146.629C170.268,146.629 165.152,147.431 162.875,147.774C162.174,150.124 158.666,159.346 158.666,159.346L157.964,158.999C157.454,153.961 154.832,151.384 151.835,149.455C150.154,148.374 148.232,147.632 146.4,147.05C143.924,146.264 141.355,145.788 138.757,145.407C139.206,144.352 139.081,143.08 138.756,142.284C138.223,140.977 137.419,140.089 136.693,139.161C139.891,138.616 140.261,136.355 140.132,134.975C139.729,135.679 138.019,138.573 135.495,138.003C130.307,131.89 129.423,131.559 128.921,129.586C128.562,128.177 129.225,126.366 130.705,125.367C133.412,123.685 135.102,125.392 137.84,128.836C139.296,130.666 144.555,137.644 148.014,141.567C150.659,144.57 153.305,146.5 156.583,148.218C158.385,149.164 160.465,149.875 160.465,149.875L160.896,149.187C160.896,149.187 158.33,146.631 156.697,143.382C155.894,141.787 155.287,140.096 154.904,138.446C153.949,134.325 154.867,130.077 154.867,130.077C154.867,130.077 152.438,130.478 150.176,127.145C149.583,126.271 149.028,124.235 148.852,122.938C148.727,122.013 148.641,121.296 148.626,120.524C152.783,116.732 158.442,109.948 160.608,109.445C161.262,110.803 170.723,130.866 170.723,130.866L168.603,131.884L168.611,134.192L163.073,138.253L169.148,136.56Z" style="fill:white;fill-rule:nonzero;"/>
            <path d="M104.993,183.496C105.018,183.311 105.033,183.18 105.036,183.141C105.313,180.452 104.542,178.588 103.799,177.054C103.098,175.607 102.175,174.497 101.289,173.484C99.707,171.672 97.634,170.09 96.54,169.309C96.352,169.175 77.655,155.648 69.595,136.038C63.409,120.999 64.16,107.595 65.877,98.996C66.445,96.154 67.148,93.491 68.09,90.613L68.12,90.518C71.483,80.23 76.533,73.149 80.179,69.018C91.99,55.632 110.955,47.577 132.324,46.846C130.777,50.704 129.351,55.445 128.081,60.96C127.845,61.992 125.813,71.088 126.327,78.495C119.763,80.444 113.874,83.637 108.818,87.99C105.297,91.021 102.179,94.962 100.036,99.086C97.311,104.334 96.784,108.596 96.4,111.708C96.354,112.084 96.309,112.445 96.263,112.789C95.662,117.262 97.127,128.615 103.36,135.845C105.069,137.829 107.44,140.77 110.444,144.494L110.482,144.543C112.479,147.019 114.731,149.811 117.266,152.914C116.353,153.831 114.326,155.991 112.543,160.219C111.651,162.332 111.087,164.375 110.864,166.288C110.775,167.042 110.714,167.831 110.648,168.665C110.469,170.94 110.268,173.505 109.468,176.044C108.934,177.743 108.32,179.123 107.536,180.385C106.811,181.557 105.901,182.66 104.993,183.496" style="fill:rgb(218,26,50);fill-rule:nonzero;"/>
            <path d="M136.473,43.912L136.352,43.91C135.667,43.89 134.96,43.88 134.252,43.88C128.415,43.88 116.773,44.575 104.393,49.235C91.447,54.106 81.104,61.943 73.654,72.528C70.584,76.89 66.449,83.984 64.182,93.007C60.434,107.928 61.691,119.245 62.773,124.66C63.822,129.92 66.148,136.45 68.839,141.702C69.379,142.758 72.139,147.616 73.972,150.275C75.834,152.977 77.882,155.608 80.057,158.097C82.968,161.427 84.815,163.178 86.297,164.586C86.806,165.067 87.245,165.484 87.664,165.904C89.781,168.03 92.099,169.811 94.144,171.382C96.234,172.988 98.038,174.375 99.093,175.707C103.191,180.889 102.192,183.145 101.035,185.757C100.508,186.874 99.613,187.757 98.665,188.692C98.251,189.1 97.824,189.522 97.424,189.968L97.288,190.122L97.493,190.108C99.948,189.954 105.026,188.558 108.481,184.297C111.041,181.137 112.052,178.101 112.705,175.549C113.112,173.955 113.28,172.087 113.459,170.112C113.562,168.95 113.671,167.752 113.832,166.573C114.092,164.675 114.671,162.668 115.42,161.066C116.632,158.47 117.93,156.513 119.379,155.093C118.934,154.637 118.501,154.165 118.07,153.691C116.518,155.311 114.677,158.088 113.777,160.2C112.162,163.991 111.969,166.191 111.828,167.799C111.791,168.231 111.757,168.603 111.702,168.961C111.643,169.345 111.608,169.842 111.566,170.417C111.405,172.639 111.135,176.357 108.962,180.296C107.432,183.067 105.379,185.143 102.693,186.635C103.343,185.704 104.055,183.812 103.844,181.477C103.438,176.976 99.949,173.49 97.093,171.358C88.41,164.874 81.168,157.459 75.573,149.317C70.078,141.324 66.43,133.02 64.731,124.639C62.665,114.435 63.015,103.752 65.745,93.743C68.386,84.066 73.189,75.166 79.634,68.003C92.33,53.889 111.101,46.203 133.923,45.767L133.659,46.512C132.431,49.986 131.162,53.58 130.114,57.539C129.302,60.609 128.64,63.708 128.09,67.016C127.442,70.921 127.21,74.971 127.479,78.258L129.26,77.851C128.59,65.926 132.797,52.907 136.43,44.023L136.473,43.912Z" style="fill:rgb(183,146,87);fill-rule:nonzero;"/>
            <path d="M157.263,170.689L157.235,170.641L157.27,170.717L157.263,170.689Z" style="fill:rgb(183,146,87);fill-rule:nonzero;"/>
            <path d="M167.072,130.071L162.831,132.638L162.937,132.895L170.007,131.191L167.072,130.071Z" style="fill-rule:nonzero;"/>
            <path d="M162.387,120.466C162.387,120.466 162.319,119.381 162.035,118.955C161.751,118.529 163.308,117.864 163.308,117.864L162.503,117.424L162.309,117.773L158.673,119.046L155.643,121.53L158.241,120.694L163.58,121.376L162.387,120.466Z" style="fill-rule:nonzero;"/>
            <path d="M147.755,74.597C147.937,74.249 148.319,74.074 148.888,74.074C149.352,74.074 149.782,74.194 149.864,74.219L149.881,74.223L149.904,74.141L149.915,74.053C149.773,74.009 148.529,73.598 148.449,72.723C148.433,72.628 148.037,70.408 142.788,69.002L142.657,68.967L142.68,69.1C142.686,69.138 142.853,70.016 143.904,71.111L143.96,71.181C143.965,71.188 144.531,71.901 144.357,72.619C144.25,73.059 143.888,73.418 143.295,73.681C141.62,74.1 140.968,74.87 140.941,74.904L140.855,75.01L140.986,75.044C142.319,75.393 143.524,75.571 144.567,75.571C146.962,75.568 147.715,74.65 147.755,74.597" style="fill-rule:nonzero;"/>
            <path d="M155.312,76.534C155.878,76.534 156.457,76.784 156.568,76.834L156.584,76.841L156.62,76.762L156.642,76.678C156.508,76.614 155.332,76.036 155.371,75.159C155.37,75.064 155.285,72.809 150.28,70.694L150.154,70.641L150.159,70.775C150.16,70.813 150.203,71.705 151.091,72.933L151.138,73.012C151.143,73.019 151.606,73.804 151.334,74.492C151.167,74.912 150.759,75.218 150.135,75.396C148.419,75.58 147.668,76.254 147.635,76.284L147.535,76.375L147.661,76.428C149.406,77.153 150.935,77.521 152.209,77.521C153.783,77.521 154.389,76.956 154.425,76.92C154.61,76.664 154.908,76.534 155.312,76.534" style="fill-rule:nonzero;"/>
            <path d="M161.893,78.526C161.905,78.432 162.132,76.187 157.466,73.401L157.35,73.33L157.336,73.466C157.332,73.504 157.253,74.391 157.961,75.728L157.998,75.817C158.002,75.825 158.353,76.664 157.987,77.309C157.764,77.703 157.317,77.949 156.675,78.039L156.445,78.035C154.874,78.035 154.109,78.551 154.077,78.573L153.965,78.649L154.081,78.719C156.557,80.181 158.236,80.488 159.208,80.488C160.226,80.487 160.682,80.166 160.714,80.142C160.887,79.958 161.124,79.865 161.417,79.865C162.054,79.865 162.762,80.301 162.845,80.353L162.861,80.361L162.907,80.288L162.941,80.208C162.816,80.126 161.731,79.391 161.893,78.526" style="fill-rule:nonzero;"/>
            <path d="M176.114,94.5L176.44,94.434C177.206,94.434 177.903,95.441 177.98,95.556L177.988,95.569L178.06,95.52L178.122,95.46C178.042,95.335 177.344,94.225 177.841,93.5C177.89,93.418 179.003,91.456 175.861,87.022L175.782,86.912L175.714,87.03C175.696,87.062 175.262,87.845 175.373,89.359L175.371,89.447C175.371,89.512 175.336,91.051 173.956,91.051C173.744,91.051 173.506,91.014 173.265,90.948C172.207,90.439 171.398,90.364 171.011,90.364C170.797,90.364 170.679,90.386 170.673,90.387L170.54,90.412L170.619,90.522C173.209,94.131 175.16,94.522 175.88,94.522L176.114,94.5Z" style="fill-rule:nonzero;"/>
            <path d="M179.767,100.547L179.983,100.519C180.8,100.519 181.401,101.714 181.469,101.85L181.476,101.864L181.553,101.827L181.625,101.774C181.561,101.641 181.026,100.443 181.618,99.795C181.678,99.721 183.051,97.93 180.55,93.106L180.488,92.986L180.406,93.094C180.382,93.125 179.848,93.836 179.746,95.344L179.732,95.441C179.721,95.499 179.503,96.851 178.339,96.851C178.067,96.851 177.759,96.775 177.439,96.636C176.127,95.766 175.16,95.722 174.98,95.722L174.813,95.729L174.875,95.848C177.276,100.419 179.475,100.55 179.718,100.55L179.767,100.547Z" style="fill-rule:nonzero;"/>
            <path d="M182.55,107.04L182.656,107.034C183.534,107.034 184.004,108.401 184.058,108.563L184.063,108.581L184.145,108.553L184.223,108.513C184.18,108.371 183.813,107.111 184.489,106.551C184.559,106.486 186.165,104.901 184.355,99.779L184.311,99.651L184.214,99.746C184.186,99.772 183.558,100.405 183.248,101.888L183.223,101.978C183.219,101.99 182.85,103.195 181.841,103.195C181.518,103.195 181.161,103.075 180.787,102.845C179.493,101.701 178.488,101.601 178.446,101.598L178.31,101.585L178.357,101.713C180.192,106.825 182.44,107.033 182.55,107.04" style="fill-rule:nonzero;"/>
            <path d="M183.239,109.455C182.117,108.145 181.134,107.906 181.092,107.895L180.961,107.865L180.987,107.997C182.103,113.316 184.299,113.833 184.407,113.854C185.359,113.872 185.656,115.391 185.687,115.57L185.691,115.588L185.775,115.572L185.857,115.541C185.834,115.395 185.645,114.097 186.392,113.635C186.469,113.581 188.28,112.233 187.194,106.909L187.166,106.777L187.057,106.857C187.027,106.88 186.315,107.419 185.805,108.845L185.768,108.928C185.763,108.94 185.289,109.956 184.4,109.956C184.036,109.96 183.64,109.786 183.239,109.455" style="fill-rule:nonzero;"/>
            <path d="M141.541,72.384C141.733,69.541 133.011,71.809 133.011,71.809C133.011,71.809 141.356,75.132 141.541,72.384" style="fill-rule:nonzero;"/>
            <path d="M136.435,175.968L136.452,176.051L136.452,176.04L136.454,176.051L136.449,175.878L136.373,175.879C136.092,175.879 134.689,175.835 134.489,174.947C134.453,174.859 133.511,172.81 128.078,172.767L127.942,172.767L127.998,172.889C128.015,172.927 128.442,173.842 129.937,174.676C130.454,175.092 130.71,175.533 130.698,175.986C130.679,176.725 129.947,177.264 129.938,177.27L129.891,177.307C128.571,178.094 128.177,178.908 128.161,178.943L128.103,179.065L128.289,179.066C133.68,179.066 134.636,177.038 134.676,176.947C134.981,176.127 136.289,176.055 136.436,176.051L136.435,175.968Z" style="fill-rule:nonzero;"/>
            <path d="M143.616,175.272L143.602,175.19L143.63,175.269L143.629,175.261L143.633,175.269L143.603,175.099L143.586,175.101L143.6,175.156L143.6,175.182L143.586,175.1C143.522,175.111 143.288,175.144 142.998,175.144C142.448,175.144 141.752,175.026 141.534,174.444C141.498,174.385 140.628,173.014 137.1,173.014C136.417,173.014 135.671,173.067 134.881,173.17L134.748,173.188L134.82,173.302C134.843,173.338 135.394,174.184 136.988,174.803C137.558,175.145 137.871,175.546 137.922,175.996C138.005,176.733 137.354,177.366 137.348,177.372L137.275,177.442C136.101,178.394 135.829,179.241 135.819,179.277L135.778,179.407L135.912,179.389C141.297,178.651 141.967,176.497 141.994,176.4C142.182,175.549 143.462,175.297 143.614,175.271L143.616,175.272Z" style="fill-rule:nonzero;"/>
            <path d="M150.581,173.34L150.563,173.345C150.475,173.371 150.031,173.502 149.557,173.502C149.006,173.502 148.632,173.33 148.441,172.979C148.411,172.942 147.671,172.062 145.369,172.062C144.299,172.062 143.057,172.255 141.676,172.636L141.545,172.672L141.633,172.775C141.661,172.807 142.323,173.571 143.99,173.962C144.6,174.222 144.966,174.575 145.078,175.014C145.263,175.73 144.705,176.449 144.699,176.458L144.646,176.526C143.607,177.635 143.452,178.516 143.446,178.553L143.424,178.687L143.555,178.65C148.785,177.178 149.153,174.95 149.166,174.852C149.234,173.981 150.474,173.555 150.614,173.509L150.589,173.43L150.629,173.506L150.627,173.498L150.632,173.505L150.581,173.34Z" style="fill-rule:nonzero;"/>
            <path d="M157.25,170.633L157.234,170.64L157.264,170.689L157.271,170.714L157.234,170.64C157.121,170.693 156.53,170.957 155.957,170.957C155.567,170.957 155.274,170.831 155.081,170.572C155.057,170.549 154.463,170.013 152.951,170.013C151.66,170.013 150.107,170.401 148.334,171.167L148.209,171.221L148.31,171.311C148.341,171.339 149.102,172.003 150.806,172.163C151.447,172.336 151.858,172.636 152.03,173.055C152.311,173.739 151.858,174.529 151.854,174.536L151.826,174.592C150.937,175.845 150.904,176.747 150.904,176.786L150.9,176.922L151.025,176.867C156.002,174.687 156.059,172.429 156.058,172.33C156.006,171.459 157.175,170.865 157.31,170.8L157.274,170.724L157.323,170.794L157.319,170.787L157.324,170.794L157.25,170.633Z" style="fill-rule:nonzero;"/>
            <path d="M163.48,167.033L163.467,167.041L163.502,167.085L163.513,167.11L163.469,167.039C163.39,167.092 162.672,167.547 162.027,167.547C161.743,167.547 161.511,167.457 161.325,167.27C161.307,167.257 160.865,166.953 159.89,166.953C158.912,166.953 157.22,167.271 154.725,168.788L154.61,168.859L154.723,168.933C154.754,168.953 155.496,169.441 157.005,169.441L157.312,169.434C157.971,169.516 158.42,169.757 158.649,170.147C159.022,170.787 158.683,171.63 158.679,171.639L158.659,171.695C157.951,173.059 158.043,173.959 158.048,173.998L158.064,174.132L158.179,174.061C162.808,171.213 162.552,168.972 162.539,168.872C162.367,168.016 163.443,167.266 163.566,167.184L163.52,167.113L163.578,167.175L163.573,167.167L163.58,167.174L163.48,167.033Z" style="fill-rule:nonzero;"/>
            <path d="M169.154,162.607L169.141,162.618L169.141,162.619C169.053,162.693 168.302,163.331 167.616,163.331C167.405,163.331 167.22,163.271 167.051,163.14C167.039,163.135 166.741,162.985 166.149,162.985C165.112,162.985 163.328,163.431 160.724,165.557L160.621,165.643L160.742,165.702C160.762,165.713 161.264,165.95 162.212,165.95C162.588,165.95 162.985,165.913 163.376,165.837L163.425,165.837C164.067,165.837 164.53,166.016 164.801,166.367C165.253,166.948 165.035,167.824 165.033,167.833L165.02,167.892C164.506,169.34 164.724,170.219 164.733,170.257L164.767,170.388L164.873,170.302C169.064,166.842 168.501,164.657 168.474,164.561C168.185,163.737 169.146,162.846 169.256,162.747L169.201,162.686L169.267,162.739L169.261,162.732L169.268,162.738L169.154,162.607Z" style="fill-rule:nonzero;"/>
            <path d="M174.162,157.44L174.151,157.453C174.067,157.55 173.323,158.379 172.597,158.379C172.443,158.379 172.298,158.341 172.154,158.259C172.147,158.257 171.978,158.199 171.66,158.199C170.78,158.199 168.904,158.632 166.22,161.526L166.129,161.626L166.256,161.668C166.268,161.67 166.549,161.76 167.061,161.76C167.632,161.76 168.25,161.651 168.884,161.44C169.579,161.333 170.103,161.463 170.426,161.824C170.89,162.345 170.803,163.178 170.802,163.186L170.79,163.284C170.494,164.766 170.825,165.592 170.839,165.628L170.892,165.754L170.983,165.654C174.658,161.649 173.799,159.561 173.759,159.469C173.359,158.693 174.19,157.679 174.285,157.566L174.223,157.511L174.296,157.554L174.289,157.548L174.297,157.553L174.162,157.44Z" style="fill-rule:nonzero;"/>
            <path d="M178.41,151.629L178.402,151.643C178.323,151.763 177.636,152.784 176.867,152.784L176.535,152.718L176.342,152.704C175.78,152.704 173.743,152.997 171.109,156.773L171.032,156.885L171.165,156.908C171.169,156.909 171.274,156.927 171.464,156.927C171.856,156.927 172.674,156.847 173.737,156.319C174.001,156.24 174.246,156.2 174.463,156.2C175.819,156.2 175.874,157.72 175.875,157.785L175.877,157.862C175.785,159.386 176.231,160.166 176.25,160.198L176.32,160.316L176.396,160.203C179.481,155.729 178.342,153.782 178.29,153.698C177.788,152.986 178.465,151.87 178.548,151.738L178.549,151.738L178.478,151.694L178.556,151.726L178.548,151.721L178.559,151.725L178.41,151.629Z" style="fill-rule:nonzero;"/>
            <path d="M181.965,145.377L181.889,145.342L181.971,145.364L181.963,145.359L181.971,145.361L181.815,145.289L181.808,145.305C181.743,145.444 181.152,146.654 180.33,146.654L180.107,146.626L180.084,146.626C179.842,146.626 177.649,146.759 175.293,151.39L175.244,151.517L175.384,151.517C175.563,151.517 176.525,151.471 177.83,150.58C178.171,150.424 178.483,150.345 178.761,150.345C179.908,150.345 180.143,151.679 180.152,151.736L180.169,151.834C180.289,153.34 180.834,154.044 180.857,154.076L180.941,154.183L181.001,154.062C183.439,149.204 182.044,147.433 181.979,147.355C181.383,146.716 181.903,145.511 181.965,145.377" style="fill-rule:nonzero;"/>
            <path d="M184.411,138.903L184.411,138.902L184.332,138.877L184.416,138.889L184.408,138.887L184.416,138.887L184.252,138.837L184.247,138.853C184.195,139.014 183.733,140.394 182.849,140.394L182.736,140.388C182.641,140.395 180.396,140.62 178.592,145.746L178.548,145.874L178.682,145.861C178.724,145.857 179.73,145.748 181.003,144.606C181.391,144.361 181.751,144.239 182.075,144.239C183.077,144.239 183.453,145.435 183.457,145.446L183.477,145.501C183.794,147.007 184.435,147.643 184.463,147.671L184.56,147.766L184.604,147.638C186.379,142.501 184.761,140.93 184.688,140.86C184.015,140.307 184.366,139.054 184.411,138.903" style="fill-rule:nonzero;"/>
            <path d="M186.515,134.062C185.772,133.604 185.961,132.305 185.983,132.159L185.901,132.145L185.967,132.143L185.985,132.145L185.977,132.143L185.985,132.143L185.816,132.115L185.814,132.132L185.813,132.132C185.782,132.307 185.487,133.83 184.517,133.852C184.425,133.871 182.23,134.391 181.118,139.711L181.09,139.843L181.222,139.812C181.263,139.801 182.246,139.564 183.356,138.262C183.768,137.919 184.164,137.746 184.533,137.746C185.421,137.746 185.895,138.761 185.901,138.772L185.927,138.826C186.438,140.276 187.161,140.823 187.191,140.844L187.3,140.924L187.326,140.791C188.409,135.464 186.597,134.119 186.515,134.062" style="fill-rule:nonzero;"/>
            <path d="M119.536,173.808C119.536,173.808 127.364,178.273 127.921,175.478C128.458,172.777 119.536,173.808 119.536,173.808" style="fill-rule:nonzero;"/>
            <path d="M186.489,121.15C185.027,121.15 183.843,122.334 183.843,123.796C183.843,125.258 185.027,126.442 186.489,126.442C187.951,126.442 189.135,125.258 189.135,123.796C189.135,122.335 187.949,121.15 186.489,121.15" style="fill-rule:nonzero;"/>
            <path d="M164.53,87.336C164.836,86.192 165.276,85.271 165.569,84.66C165.792,84.196 165.925,83.915 165.91,83.754L165.905,83.713L165.871,83.691L165.644,83.65C164.29,83.65 158.554,85.248 153,90.142C149.358,93.35 147.993,96.795 147.091,99.075L146.942,99.448C144.66,105.154 142.581,112.804 142.064,115.871C141.723,114.574 141.241,113.056 140.719,112.429C140.207,111.812 139.361,110.991 137.936,110.991C137.715,110.991 137.482,111.01 137.247,111.05C135.881,111.277 134.648,112.386 134.1,113.871L134.084,113.914C133.716,114.914 133.368,115.857 133.418,117.509C133.444,118.426 133.7,119.4 134.084,120.049C135.45,122.36 137.561,123.533 140.359,123.533C140.72,123.533 141.097,123.514 141.48,123.475C142.568,123.366 143.726,122.919 144.828,122.183C147.371,120.484 149.428,118.301 151.607,115.991C152.842,114.683 154.119,113.329 155.494,112.073C156.34,111.3 158.325,109.493 160.349,108.312C161.857,107.434 163.371,106.813 164.848,106.469L165.081,106.341L165.032,106.042L164.978,105.906C164.476,104.597 164.062,102.918 163.71,100.771C163.422,98.999 163.25,97.245 163.352,94.444C163.41,92.905 163.864,89.823 164.53,87.336" style="fill:rgb(183,146,87);fill-rule:nonzero;"/>
            <path d="M122.415,164.538C124.06,163.789 125.763,163.014 127.55,162.253C131.455,160.596 134.369,159.579 137.947,158.626C141.538,157.67 145.148,156.809 149.836,156.779L149.915,156.779C151.26,156.779 152.968,156.982 154.139,157.273C152.512,152.439 146.825,150.774 144.671,150.144C142.624,149.545 137.887,148.759 136.336,148.613L136.114,148.593L136.294,148.462C136.804,148.091 137.09,147.735 137.448,147.284L137.734,146.93L137.764,146.895L137.81,146.901C140.556,147.223 143.513,147.837 145.922,148.588C148.476,149.384 150.66,150.455 152.413,151.775C153.381,152.503 154.206,153.417 155.01,154.648C156.023,156.196 156.374,158.614 156.365,160.214L156.365,160.369L156.235,160.283C155.023,159.485 153.78,158.993 152.539,158.82C151.651,158.698 150.697,158.635 149.702,158.635C147.224,158.635 144.455,159.008 141.242,159.775C138.253,160.487 135.309,161.378 132.242,162.5C128.807,163.754 126.104,164.943 122.373,166.616C121.789,166.878 121.225,167.136 120.67,167.391C118.848,168.225 117.118,169.017 115.211,169.676C115.273,168.984 115.341,168.282 115.421,167.584C117.909,166.589 120.197,165.548 122.415,164.538" style="fill:rgb(183,146,87);fill-rule:nonzero;"/>
            <path d="M90.962,174.581C83.216,174.581 78.381,172.531 76.56,171.761L76.219,171.619C73.935,170.685 69.469,167.804 67.131,165.487C63.363,161.755 60.671,157.114 60.443,156.623L60.346,156.412L60.556,156.513C62.484,157.433 68.425,158.671 71.906,158.876C73.23,158.954 74.274,158.99 75.194,158.99C76.479,158.99 77.536,158.918 78.689,158.799C78.767,158.889 78.844,158.979 78.923,159.07C79.407,159.623 79.859,160.131 80.29,160.605C79.091,160.72 77.697,160.792 75.874,160.835L75.562,160.839C73.292,160.839 66.853,160.361 64.954,159.885C68.591,164.599 71.858,167.806 77.581,170.185C79.677,171.056 81.872,171.693 84.106,172.08C86.316,172.463 88.885,172.649 91.959,172.649C92.395,172.649 92.849,172.644 93.326,172.637C94.107,173.238 94.845,173.805 95.509,174.345C93.969,174.498 92.444,174.581 90.962,174.581" style="fill:rgb(183,146,87);fill-rule:nonzero;"/>
            <path d="M63.683,133.445C63.274,133.461 62.826,133.469 62.338,133.469C58.505,133.469 53.458,133.009 48.836,132.238C44.666,131.543 41.663,130.805 40.108,130.098C40.209,130.259 40.331,130.456 40.469,130.681C41.885,132.981 45.204,138.364 49.499,141.913C53.266,145.026 57.942,148.446 64.083,150.203C66.999,151.037 69.442,151.455 73.169,151.738C73.599,152.348 74.034,152.954 74.482,153.555C74.35,153.556 74.217,153.56 74.086,153.56C67.567,153.56 62.042,152.143 56.173,148.964C54,147.786 51.988,146.442 50.196,144.968C48.887,143.893 46.969,142.213 45.255,140.323C42.104,136.844 39.136,132.49 36.179,127.013L36.064,126.798L36.287,126.896C37.536,127.444 39.012,127.921 40.421,128.353C43.665,129.351 46.949,130.094 50.462,130.626C54.695,131.267 58.131,131.54 61.95,131.54C62.306,131.54 62.671,131.536 63.037,131.532C63.241,132.168 63.458,132.806 63.683,133.445" style="fill:rgb(183,146,87);fill-rule:nonzero;"/>
            <path d="M47.049,101.322L46.913,101.308C39.083,100.492 30.244,98.381 25.055,96.821C21.298,95.693 17.731,94.455 14.456,93.144L14.33,93.089C15.465,95.544 16.797,97.985 18.293,100.34C22.319,106.691 27.093,111.832 32.477,115.62C39.494,120.556 47.422,122.629 49.648,123.064L49.65,123.032L49.727,123.032L49.765,123.037L50.052,123.096C51.019,123.287 56.04,124.234 60.136,124.234C60.484,124.234 60.816,124.227 61.134,124.212C61.177,124.442 61.22,124.669 61.262,124.882C61.342,125.282 61.431,125.691 61.525,126.104C61.472,126.105 61.418,126.105 61.361,126.105C59.464,126.105 55.427,125.793 53.052,125.462C49.897,125.022 43.831,123.91 38.637,121.397C29.776,117.112 22.685,110.679 16.953,101.732C15.379,99.273 13.052,95.24 10.905,89.991L10.815,89.77L10.802,89.765L10.794,89.727L10.692,89.531L10.886,89.619L10.926,89.619L10.939,89.642C13.17,90.636 15.362,91.54 17.456,92.331C19.898,93.254 31.288,97.059 38.183,98.156C45.818,99.369 52.534,99.984 58.148,99.984C59.192,99.984 60.204,99.961 61.166,99.918C61.069,100.517 60.979,101.11 60.897,101.693C59.432,101.862 57.906,101.945 56.253,101.945C52.993,101.942 49.835,101.614 47.049,101.322" style="fill:rgb(183,146,87);fill-rule:nonzero;"/>
        </g>
    </g>
</svg>
