<?xml version="1.0" encoding="utf-8"?>
<!DOCTYPE svg PUBLIC "-//W3C//DTD SVG 1.1//EN" "http://www.w3.org/Graphics/SVG/1.1/DTD/svg11.dtd">
<svg version="1.1" id="Layer_1" xmlns="http://www.w3.org/2000/svg" xmlns:xlink="http://www.w3.org/1999/xlink" x="0px" y="0px"
	 width="80px" height="80px" viewBox="0 0 80 80" enable-background="new 0 0 80 80" xml:space="preserve">
<g>
	<path fill="#FFFFFF" d="M53.731,25.201L53.731,25.201c-1.121-1.868-2.193-3.378-3.019-4.462
		C51.538,21.822,52.61,23.333,53.731,25.201z"/>
	<g>
		<path d="M27.132,59.354c-0.932,0.698-1.838,1.077-2.591,1.077l-1.833,0.004H3.854l3.644-6.562h16.406L0.887,14.786h12.485
			l1.358-1.36c0.012-0.012,1.243-1.259,1.703-2.547c0.48-1.34,1.024-2.859,3.233-4.295c1.847-1.197,3.214-1.968,4.718-2.664
			c0.708-0.326,1.42-0.491,2.116-0.491c1.186,0,2.232,0.475,3.11,1.412c1.111,1.184,1.824,1.864,2.344,2.36
			c0.185,0.176,0.341,0.325,0.476,0.46c0.093,0.093,0.201,0.235,0.328,0.406c0.416,0.562,1.044,1.413,2.211,1.413
			c0.412,0,0.872-0.104,1.367-0.309c0.639-0.264,1.345-0.581,2.088-0.914c2.678-1.202,5.714-2.564,7.948-2.564l0.188,0.003
			c2.637,0.1,6.977,2.291,8.833,4.081c0.46-0.312,1.284-0.762,2.207-0.762c0.107,0,0.216,0.006,0.325,0.019
			c1.303,0.159,1.904,1.369,2.816,3.2l0.107,0.216c0.523,0.165,1.729,0.626,2.24,1.495c0.345-0.339,0.597-0.567,0.885-0.76
			l0.068-0.032l0.086-0.708l0.163-0.127c0.161-0.126,0.604-0.421,1.246-0.421c0.536,0,1.067,0.215,1.535,0.622
			c0.503,0.439,0.814,0.809,0.93,1.101c0.207,0.275,0.431,0.709,0.449,1.17h4.079L64.554,28.66l14.056,4.649l-0.43,1.013
			c-0.358,0.841-1.229,1.608-1.809,2.052l-0.101,0.551c-0.292,0.873-1.235,1.682-2.727,1.682l0,0c-0.242,0-0.503-0.021-0.783-0.068
			c-1.088-0.18-1.798-0.363-2.206-0.487c-0.34,0.562-1.083,1.48-2.319,1.48c-0.149,0-0.301-0.014-0.454-0.042
			c-0.19,0.918-0.71,2.667-1.987,3.348c-0.292,0.155-0.87,0.402-1.717,0.734c-0.524,0.206-1.132,0.438-1.784,0.682
			c-1.623,0.608-3.529,1.297-5.125,1.866l-3.245,1.146l-0.278,0.349l-2.119,3.695l0.244,1.38c0.41,0.498,1.85,2.355,1.85,3.86v0.32
			l-1.444,0.666l0.068,0.212h1.931v2.495h-7.785L37.13,76.336L27.132,59.354z M37.108,72.072l6.803-11.826l-5.188-0.001l0.098-1.098
			c0.06-0.77,0.48-1.593,0.853-2.185c0.051-1.231,0.73-3.133,3.025-3.133l2.477-0.361c0.012-0.126,0.032-0.376,0.021-0.811
			c-0.012-0.52-0.062-1.003-0.062-1.01l-0.057-0.551h0.851c-0.014-0.352-0.044-0.84-0.109-1.307l-0.17-0.821
			c-0.66-2.203-0.542-2.688-0.503-2.848c0.084-0.336,0.351-0.585,0.586-0.805c-0.572-0.213-1.634-0.532-2.335-0.744l-0.292-0.088
			c-0.646-0.198-1.091-0.338-1.396-0.445c1.06,1.146,0.636,2.784,0.142,4.092l-0.089,0.234l-0.753,0.216
			c-0.091,0.157-0.236,0.398-0.415,0.665l-0.714,0.917l-0.495,0.457l-0.563,0.29l-0.17-0.01c-0.206,0.386-0.605,1.064-1.132,1.642
			c-0.373,0.408-0.757,0.704-1.14,0.88l-0.635,0.173l-0.489,0.047c-0.286,0.025-0.564,0.048-0.841,0.048
			c-0.42,0-0.777-0.053-1.121-0.167l-0.47-0.238c0,0-1.192,1.3-1.8,1.97c-0.868,0.958-1.774,1.966-2.267,2.551l-0.028,0.032
			L37.108,72.072z M8.273,58.755l1.777-3.199H8.489l-1.777,3.199H8.273z M24.54,58.752c0.511,0,1.759-0.628,2.933-2.024
			c0.292-0.349,0.703-0.819,1.156-1.331l0.697-0.781c0.839-0.937,1.686-1.865,2.105-2.324l-0.67-0.955
			c-0.823,0.831-2.593,2.612-3.068,3.043c-0.589,0.534-1.35,1.102-2.938,1.17l-1.447,3.203H24.54z M50.97,58.736l-0.342-1.078
			h-0.047l-0.308,1.078H50.97z M44.995,58.736L44.6,57.658h-0.137l-0.342,1.078H44.995z M41.648,58.736l-0.611-1.078h-0.017
			c-0.17,0.266-0.412,0.676-0.562,1.078H41.648z M47.867,57.669c0.426,0,0.834,0,1.138-0.001l0.003-0.011h-1.134L47.867,57.669z
			 M26.15,53.465c0.144-0.094,0.274-0.203,0.41-0.327c0.22-0.2,0.771-0.746,1.378-1.355c0.775-0.778,1.64-1.655,2.021-2.043
			c-0.595-1.438-0.689-2.727-0.704-3.093c-0.272-0.676-0.525-1.488-0.466-2.062c-0.606-0.588-2.085-2.273-1.599-4.328l-0.591-0.926
			c-0.083-0.15-0.219-0.371-0.405-0.674c-1.603-2.614-6.479-10.568-4.367-14.588l0.028-0.053l0.04-0.045
			c0.051-0.059,1.274-1.509,0.331-3.393c-0.403-0.807-0.821-1.215-1.244-1.215c-0.296,0-0.616,0.167-0.926,0.33l-0.193,0.1
			c-0.627,0.312-5.017,2.903-7.251,4.229l-1.334,0.792l1.305-2.992c-0.885,0.886-1.844,1.871-2.269,2.39l-0.699,0.854l-0.181-1.089
			c-0.031-0.184-0.723-4.524,1.358-6.606l0.436-0.435H4.644L26.15,53.465z M32.851,45.514c0.152,0.673,0.434,1.615,0.77,2.573
			c0.444,1.27,0.911,2.371,1.279,3.042c0.08-0.561,0.083-1.108,0.086-1.709c0.002-0.474,0.005-0.97,0.045-1.513
			c-0.288-0.923-0.577-1.787-1.359-2.289c-0.192-0.054-0.449-0.114-0.671-0.114C32.944,45.504,32.894,45.507,32.851,45.514z
			 M31.123,46.928c0.079,0.876,0.282,1.716,0.607,2.498c0.251,0.608,0.567,1.166,0.944,1.665c-0.238-0.559-0.502-1.263-0.799-2.128
			c-0.188-0.548-0.364-1.087-0.52-1.561c-0.066-0.201-0.129-0.394-0.188-0.57C31.151,46.864,31.137,46.896,31.123,46.928z
			 M36.981,47.754c0.027,1.117,0.055,2.268-0.265,3.302c0.325-0.562,0.529-1.311,0.607-2.235c-0.052-0.231-0.074-0.5-0.097-0.782
			c-0.022-0.279-0.063-0.778-0.152-0.953c-0.024,0.008-0.059,0.021-0.105,0.044C36.971,47.336,36.976,47.544,36.981,47.754z
			 M39.283,47.859c0.036,0.107,0.059,0.212,0.078,0.306c0.133-0.237,0.134-0.627,0.103-1.233c-0.019-0.357-0.038-0.727,0.012-1.073
			c-0.017-0.053-0.042-0.132-0.071-0.207c-0.05,0.207-0.036,0.479-0.009,0.831C39.43,46.923,39.467,47.413,39.283,47.859z
			 M35.5,43.605c-0.183,0.046-0.468,0.148-0.434,0.339c0.136,0.491,0.341,0.723,0.528,0.843c0.596-0.393,0.832-0.618,0.752-0.941
			c-0.021-0.133-0.029-0.185-0.598-0.222C35.664,43.619,35.581,43.613,35.5,43.605z M32.997,43.444
			c-0.703,0.009-1.385,0.308-1.954,0.844C31.621,43.864,32.245,43.514,32.997,43.444z M43.472,41.587
			c3.338,1.453,6.345,2.249,8.521,2.249c1.321,0,2.279-0.297,2.771-0.858c0.963-1.103,1.409-3.713-0.225-7.729
			c-0.496-1.219-1.156-2.497-1.964-3.807c-1.615,1.806-3.36,3.753-4.989,5.567C46.033,38.74,44.59,40.346,43.472,41.587z
			 M39.397,43.278l0.236-0.025C41.09,41.65,56.382,24.732,57.417,23.47c0.148-0.181,0.169-0.278,0.172-0.298
			c-0.002,0.006-0.008,0.008-0.019,0.008c-0.028,0-0.085-0.015-0.153-0.015c-0.074,0-0.126,0.018-0.14,0.026L38.678,42.696
			l-0.014,0.058l0.227,0.289L39.397,43.278z M28.873,40.78c-0.045,0.124-0.073,0.245-0.083,0.366
			c-0.01,0.303,0.091,0.605,0.337,0.986c0.12,0.186,0.256,0.364,0.392,0.542c0.082,0.107,0.164,0.216,0.243,0.324l0.226-0.026
			l0.08-0.043C29.783,42.157,29.443,41.356,28.873,40.78z M35.744,39.792c0.002,0.296,0.015,0.587,0.041,0.879
			C35.791,40.37,35.795,40.032,35.744,39.792z M30.371,39.167c-0.281,0.287-0.211,0.44,0.349,1.083
			c0.064,0.073,0.13,0.148,0.195,0.226c-0.005-0.093-0.01-0.186-0.014-0.278c-0.045-0.961-0.127-1.062-0.303-1.062
			C30.551,39.136,30.477,39.142,30.371,39.167z M35.088,17.45c-3.815,0-6.198,2.423-6.731,3.272
			c-2.593,4.11-1.215,11.184,7.936,17.004c1.055,0.671,2.09,1.286,3.081,1.831l10.888-11.44c-0.549-0.71-1.139-1.431-1.758-2.148
			c-0.772-0.892-1.587-1.778-2.422-2.634c-2.829-2.914-5.636-4.768-8.343-5.513C36.844,17.575,35.952,17.45,35.088,17.45z
			 M59.43,37.587c0.317,0.131,0.909,0.394,1.4,0.705l0.452,0.366c0.395-0.004,1.354-0.02,1.882-0.093
			c0.215-0.03,0.389-0.055,0.478-0.075c0.002-0.013,0.007-0.03,0.012-0.053c0.079-0.308,0.091-0.623-0.092-1.26
			c-0.102-0.355-0.764-4.602,0.684-5.246c0.207-0.095,0.457-0.152,0.741-0.169l0.002-0.326l-1.706-0.566l-3.861,6.713L59.43,37.587z
			 M75.602,35.057c0.309-0.245,0.642-0.55,0.888-0.854l-1.128-0.374L75.602,35.057z M55.776,27.859
			c1.149,2.25,2.099,4.543,2.83,6.838l10.22-17.762H65.35c0.446,0.704,0.828,1.725,0.505,2.983
			c-0.014,0.579-0.207,1.149-0.608,1.405c-0.026,0.519-0.147,1.425-0.659,1.958c-0.216,0.225-0.482,0.365-0.78,0.413
			c-0.068,0.545-0.296,1.384-1.026,1.924c-0.439,0.326-0.996,0.491-1.652,0.491c-0.112,0-0.23-0.005-0.353-0.015
			c-0.424-0.035-0.889-0.134-1.386-0.292c-0.163-0.017-0.604-0.075-1.123-0.247l-0.322-0.133
			C57.425,26.008,56.677,26.851,55.776,27.859z M72.329,33.997l0.684-0.944l-0.83-0.275l0.034,1.182L72.329,33.997z M70.689,33.432
			l-0.001-0.028c0,0-0.927-0.307-0.927-0.308C70.03,33.197,70.34,33.309,70.689,33.432z M66.588,31.976l0.583-0.857L66.509,30.9
			l-0.013,1.054L66.588,31.976z M58.999,22.039c0.355,1.068,0.922,2.22,1.771,2.602l0.01-0.333c-0.278-0.827-0.556-1.61-1.194-2.29
			c-0.006,0-0.196,0-0.196,0C59.201,22.017,59.079,22.026,58.999,22.039z M48.454,16.935c-0.063,0.089-0.095,0.169-0.093,0.241
			c0.009,0.26,0.415,0.616,0.712,0.876l0.214,0.189l0.242,0.245l0.536,0.633c0.271,0.326,0.627,0.766,1.045,1.315
			c0.949,1.247,1.858,2.573,2.709,3.948l1.796-1.883l-0.353-2.101l-0.222-0.499c-0.141,0.015-0.313,0.025-0.516,0.025
			c-0.866,0-2.261-0.2-3.979-1.156l-0.217-0.121l-0.168-1.171l0.158-0.442l-0.094-0.1H48.454z M16.273,14.574
			c-1.021,0.902-3.912,3.47-4.556,4.192c-0.324,0.365-0.541,1.208-0.663,2.015l6.053-5.217
			C16.858,15.239,16.58,14.905,16.273,14.574z M61.961,17.026c-1.004,0.772-1.71,1.863-2.372,3.029
			c0.056-0.005,0.125-0.019,0.207-0.04c0.832-0.473,1.535-1.299,1.934-2.276C61.825,17.506,61.902,17.267,61.961,17.026z
			 M15.558,20.033c0.271-0.137,0.562-0.289,0.857-0.449c1.513-0.822,2.057-1.285,2.25-1.499c-0.162-0.34-0.51-1.022-1.058-1.83
			L15.558,20.033z M57.501,19.543c0.082,0.037,0.188,0.059,0.33,0.069l0.458-0.673l0.279-0.478c0.276-0.477,0.562-0.969,0.92-1.44
			l0.83-0.898c0.191-0.299,0.543-0.497,0.826-0.657c0.466-0.263,0.457-0.292,0.389-0.525c-0.027-0.159-0.234-0.332-0.521-0.332
			c-0.023,0-0.046,0.001-0.068,0.003c-0.458,0.31-0.883,0.656-1.267,1.032C58.502,16.794,57.737,18.168,57.501,19.543z
			 M64.85,14.613c-0.18,0.131-0.45,0.398-0.905,0.856c0.308-0.132,0.7-0.382,1.11-0.79c0.014-0.014,0.026-0.027,0.036-0.039
			c-0.053-0.017-0.121-0.031-0.192-0.031C64.865,14.609,64.85,14.613,64.85,14.613z M20.426,9.003
			c-0.025,0.253-0.059,0.503-0.1,0.75c0.11-0.143,0.23-0.276,0.346-0.405c0.068-0.076,0.135-0.15,0.197-0.223
			c-0.127-0.079-0.268-0.123-0.405-0.123C20.452,9.002,20.439,9.002,20.426,9.003z"/>
		<path fill="#FFFFFF" d="M26.5,3.93c0.914,0,1.879,0.33,2.746,1.254c1.518,1.619,2.325,2.327,2.832,2.833
			c0.402,0.404,1.127,1.965,2.892,1.965c0.448,0,0.964-0.101,1.559-0.347c2.871-1.186,7.104-3.44,9.844-3.44
			c0.058,0,0.114,0.001,0.171,0.003c2.728,0.103,7.279,2.525,8.797,4.247c0,0,1.052-0.927,2.261-0.927
			c0.088,0,0.177,0.005,0.267,0.016c1.111,0.136,1.621,1.318,2.633,3.338c0,0,2.325,0.605,2.325,1.924l0.138-0.008l0.131-0.14
			c0.51-0.509,0.816-0.816,1.159-1.045l0.253-0.114l0.095-0.776c0.193-0.152,0.529-0.314,0.938-0.314
			c0.36,0,0.779,0.127,1.207,0.499c0.787,0.688,0.809,0.961,0.809,0.961s0.665,0.793,0.281,1.433h3.832L58.881,37.52l0.104,0.429
			l0.262,0.104c0.318,0.132,0.869,0.379,1.316,0.662l0.544,0.445c0,0,1.413,0,2.126-0.099c0.705-0.099,0.81-0.099,0.907-0.506
			c0.104-0.406,0.104-0.809-0.098-1.514c-0.203-0.709-0.506-4.246,0.406-4.652c0.196-0.09,0.44-0.13,0.717-0.13
			c0.102,0,0.207,0.005,0.316,0.016c0.003-0.417,0.01-0.938,0.01-1.197c-0.423-0.14-1.701-0.564-1.701-0.564l0.469-1.422
			l13.679,4.524l-0.218,0.513c-0.391,0.915-1.543,1.773-1.805,1.965l-0.137,0.743c-0.178,0.522-0.879,1.272-2.234,1.272
			c-0.217,0-0.45-0.02-0.7-0.062c-1.824-0.302-2.533-0.605-2.533-0.605s-0.649,1.591-2.075,1.591c-0.259,0-0.544-0.053-0.854-0.177
			c0,0-0.305,2.732-1.822,3.541c-0.284,0.151-0.881,0.403-1.664,0.71c-0.522,0.206-1.127,0.437-1.776,0.679
			c-1.621,0.608-3.525,1.296-5.118,1.864c-0.637,0.228-1.225,0.435-1.725,0.611l-0.681,0.24c-0.605,0.213-0.973,0.341-0.973,0.341
			l-0.368,0.461l-2.253,3.917l0.3,1.689c0,0,1.818,2.124,1.818,3.642l-1.312,0.605h-0.28c0.128,0.392,0.275,0.856,0.353,1.093
			c0.447,0,1.795,0,1.795,0v1.495H46.1l-8.975,15.599L27.27,58.603c-0.964,0.824-1.968,1.328-2.729,1.328l-1.834,0.004H4.704
			l3.089-5.562h16.636l0.344-0.01L1.762,15.286H13.58c0.882-0.882,1.505-1.506,1.505-1.506s1.314-1.318,1.82-2.732
			c0.507-1.415,1.012-2.729,3.035-4.044c2.022-1.311,3.336-2.02,4.655-2.629C25.159,4.115,25.815,3.93,26.5,3.93 M19.375,12.957
			c0.417,0,0.399-1.019,1.087-1.044c0.07-0.024,0.135-0.035,0.197-0.035c0.351,0,0.569,0.358,0.811,0.6
			c0.159,0.41,0.063,0.949-0.251,1.296l0.756-0.066c0.312-0.377,0.409-0.946,0.254-1.419c-0.222-0.854-1.233-0.916-1.835-1.358
			c-0.062-0.724,0.76-1.23,1.138-1.862c-0.264-0.353-0.666-0.565-1.067-0.565c-0.174,0-0.348,0.04-0.509,0.125
			c-0.095,1.48-0.539,2.84-0.884,4.197C19.195,12.918,19.294,12.957,19.375,12.957 M58.988,11.855c0.031,0,0.064-0.002,0.099-0.007
			c-0.163-0.532-0.431-1.031-0.73-1.563l-0.382-0.054l-0.18,0.32l0.521,0.835C58.48,11.646,58.681,11.855,58.988,11.855
			 M59.055,13.509c-0.765-1.03-1.462-2.094-2.293-3.121l-0.699,0.496c0.398,0.431,0.833,0.864,1.252,1.295
			c0.421,0.432,0.829,0.863,1.175,1.293L59.055,13.509 M58.109,15.003l0.217-0.331L55.6,11.549
			c-0.102-0.064-0.208-0.093-0.313-0.093c-0.273,0-0.539,0.195-0.684,0.459c1.03,1.031,2.227,1.829,3.09,3.024L58.109,15.003
			 M57.027,15.833l0.268-0.631l-2.726-2.323l-0.718-0.262l-0.546,0.561C54.536,14.108,55.894,14.702,57.027,15.833 M10.436,21.974
			l6.574-5.666l-2.631,4.852c0,0,1.112-0.505,2.275-1.137c1.164-0.632,2.378-1.39,2.579-1.896c0,0-0.912-2.222-2.931-4.246
			c0,0-4.146,3.642-4.957,4.551C10.535,19.344,10.436,21.974,10.436,21.974 M56.364,17.095l0.332-0.698
			c-1.331-0.764-2.558-1.792-3.99-2.323l-0.266,0.896L56.364,17.095 M63.504,16.091c0.425,0,1.169-0.326,1.903-1.058
			c0.614-0.617-0.064-0.925-0.509-0.924c-0.11,0-0.207,0.019-0.265,0.057c-0.287,0.192-0.577,0.48-1.059,0.965
			C62.966,15.742,63.063,16.091,63.504,16.091 M58.091,20.12l0.611-0.899c0.378-0.626,0.723-1.288,1.185-1.896l0.798-0.86
			c0.465-0.697,1.629-0.631,1.329-1.662c-0.057-0.391-0.52-0.692-1.001-0.692c-0.087,0-0.175,0.01-0.261,0.031
			c-0.514,0.339-0.993,0.725-1.424,1.147c-1.293,1.263-2.168,2.845-2.363,4.467C57.26,20.087,57.658,20.12,58.091,20.12
			 M55.732,18.293l0.266-0.566c-0.613-0.316-1.222-0.673-1.841-1.009c-0.619-0.337-1.251-0.652-1.914-0.885l-0.238,0.378
			l0.039,0.354C53.372,16.967,54.468,17.76,55.732,18.293 M59.538,20.558c0.135,0,0.286-0.03,0.448-0.077
			c0.996-0.545,1.771-1.485,2.206-2.553c0.146-0.355,0.254-0.725,0.32-1.099l-0.532-0.432c-1.395,0.93-2.258,2.388-3.021,3.755
			C59.086,20.453,59.286,20.558,59.538,20.558 M69.69,16.435H64.67l-0.251,0.12l0.43,0.524c0.439,0.633,0.831,1.585,0.507,2.771
			c0,0,0,1.113-0.605,1.113c0,0,0.089,2.249-1.175,2.249c-0.076,0-0.156-0.008-0.242-0.025c0,0,0.079,1.342-0.85,2.029
			c-0.317,0.235-0.755,0.393-1.355,0.393c-0.1,0-0.203-0.004-0.312-0.013c-0.383-0.032-0.821-0.122-1.326-0.287
			c0,0-0.475-0.032-1.065-0.229l-0.619-0.256c-0.552,0.624-1.479,1.669-2.631,2.958c1.229,2.363,2.41,5.114,3.289,8.166
			L69.69,16.435 M53.731,25.199c0.561-0.587,1.056-1.109,1.465-1.539c0.41-0.43,0.734-0.77,0.953-0.997
			c-0.404-2.411-0.404-2.411-0.404-2.411l-0.404-0.909c0,0-0.291,0.081-0.815,0.081c-0.786,0-2.098-0.182-3.736-1.093l-0.115-0.803
			l0.219-0.613l-0.451-0.48h-2.214c-0.923,0.917,0.119,1.623,0.722,2.175l0.225,0.228l0.509,0.604
			c0.267,0.32,0.617,0.754,1.03,1.296C51.538,21.821,52.61,23.332,53.731,25.199 M25.96,54.127c0.399-0.161,0.68-0.385,0.938-0.621
			c0.221-0.201,0.779-0.754,1.395-1.371c0.82-0.822,1.739-1.756,2.083-2.105l0.14-0.142l0.038-0.037
			c-0.791-1.717-0.801-3.309-0.801-3.309s-0.706-1.716-0.402-2.123c0,0-2.33-1.92-1.62-4.246l-0.71-1.112
			c-0.605-1.112-6.98-10.517-4.75-14.761c0,0,1.517-1.722,0.403-3.947c-0.577-1.155-1.155-1.492-1.691-1.492
			c-0.496,0-0.955,0.288-1.343,0.483c-0.808,0.402-7.282,4.247-7.282,4.247l1.72-3.944c0,0-3.237,3.132-4.149,4.247
			c0,0-0.705-4.247,1.219-6.171c0.43-0.431,0.871-0.87,1.291-1.288H3.769L25.96,54.127 M65.036,19.587
			c-0.058-1.089-0.529-2.008-1.165-2.854l-0.226,0.03l-0.1,0.204L65.036,19.587 M39.471,40.179
			c2.336-2.453,7.438-7.819,11.447-12.028c-0.614-0.811-1.291-1.648-2.036-2.51c-0.746-0.861-1.557-1.748-2.441-2.656
			c-3.192-3.288-6.076-4.96-8.568-5.646c-0.991-0.272-1.921-0.389-2.784-0.389c-3.913,0-6.457,2.395-7.155,3.506
			c-2.935,4.653-0.81,12.031,8.091,17.692C37.19,38.889,38.341,39.569,39.471,40.179 M54.554,18.725
			c0.104,0,0.208-0.001,0.313-0.004c-1.099-0.495-2.161-1.06-3.325-1.392l-0.1,0.3C52.241,18.511,53.347,18.725,54.554,18.725
			 M64.62,20.82l0.22-0.071c0.016-0.581-0.249-1.103-0.595-1.609c-0.345-0.507-0.769-0.997-1.066-1.512l-0.399,0.798l1.595,2.389
			L64.62,20.82 M63.442,22.044c0.175-0.723-0.174-1.407-0.596-1.998l-0.435-0.557l-0.497,0.431
			C62.513,20.615,62.513,21.878,63.442,22.044 M62.512,23.771c0.066-0.548-0.107-1.013-0.349-1.449l-0.389-0.638l-0.358-0.634
			l-0.635-0.134c-0.029,0.994,0.701,1.892,1.166,2.751L62.512,23.771 M56.61,22.218l0.941-0.229l-0.146-0.335
			c-0.151-0.293-0.369-0.559-0.712-0.559c-0.052,0-0.106,0.006-0.163,0.019l-0.101,0.398L56.61,22.218 M59.567,21.518
			c-0.057,0-0.116,0-0.178,0c-0.394,0-0.847,0.023-0.967,0.36c0.402,1.33,1.232,3.29,2.828,3.391l0.032-1.034
			c-0.336-0.998-0.663-1.924-1.495-2.722C59.724,21.517,59.648,21.518,59.567,21.518 M39.312,43.79l0.561-0.06
			c0.389-0.384,17.062-18.885,17.93-19.943c0.624-0.76,0.1-1.122-0.387-1.122c-0.189,0-0.373,0.055-0.481,0.162l-0.273,0.284
			c-0.311,0.324-0.866,0.906-1.596,1.67c-1.823,1.911-4.738,4.966-7.632,8.002c-2.316,2.429-4.62,4.846-6.344,6.655
			c-1.725,1.81-2.869,3.012-2.869,3.012l-0.098,0.424l0.447,0.572L39.312,43.79 M66.807,32.542l0.827-1.214l4.046,1.34l0.048,1.654
			l0.791,0.266l0.96-1.326l1.35,0.447l0.343,1.75l0.506,0.162l0.004,0.004c0.314-0.229,1.258-0.971,1.57-1.697l-12.664-4.191
			l-0.149,0.452l1.573,0.52l-0.02,1.639L66.807,32.542 M51.994,44.336c1.452,0,2.541-0.339,3.146-1.028
			c1.172-1.343,1.513-4.192-0.138-8.248c-0.551-1.353-1.321-2.838-2.357-4.446c-1.735,1.94-3.652,4.081-5.431,6.061
			c-1.776,1.98-3.409,3.795-4.576,5.089C46.371,43.46,49.654,44.336,51.994,44.336 M71.212,34.144
			c-0.013-0.406-0.026-0.871-0.034-1.104c-0.514-0.172-2.79-0.922-3.337-1.107L67.316,32.7c0.517,0.174,1.051,0.377,1.579,0.595
			C69.442,33.521,70.291,33.827,71.212,34.144 M74.614,35.277c-0.092-0.476-0.192-0.978-0.233-1.177l-0.708-0.236l-0.649,0.894
			C73.616,34.954,74.167,35.134,74.614,35.277 M73.307,37.271c0.113,0,0.234-0.014,0.358-0.042c0.492-0.118,0.834-0.435,0.767-0.706
			c-0.047-0.204-0.311-0.325-0.644-0.325c-0.114,0-0.235,0.014-0.359,0.044c-0.487,0.119-0.83,0.436-0.765,0.706
			C72.711,37.151,72.974,37.271,73.307,37.271 M34.443,42.062c0.09,0,0.18-0.02,0.26-0.06c-0.263-1.1,0.468-2.891-0.728-3.486
			c-0.403,0.762-0.067,2.021-0.099,3.055C33.876,41.873,34.161,42.062,34.443,42.062 M33.012,40.642
			c-0.135-0.699,0.063-1.529-0.398-2.095l-0.502,0.17c-0.232,0.626-0.032,1.359,0.332,1.891L33.012,40.642 M31.048,41.704
			l0.661-0.101c-0.629-0.809,0.125-2.968-1.111-2.968c-0.135,0-0.293,0.025-0.48,0.082C28.889,39.847,30.815,40.573,31.048,41.704
			 M35.437,41.837l0.897-0.066c-0.233-0.956,0.419-2.822-1.023-2.822c-0.014,0-0.028,0-0.043,0
			C35.205,39.976,35.268,40.902,35.437,41.837 M37.432,42.371c0.564-0.136,0.23-0.967,0.364-1.469
			c-0.277-0.305-0.012-1.008-0.525-1.008c-0.041,0-0.087,0.004-0.139,0.014C37.097,40.773,36.964,41.704,37.432,42.371
			 M29.52,43.531l0.619-0.073l0.544-0.291c-0.403-1.131-0.868-2.423-1.959-3.159c-0.232,0.334-0.398,0.699-0.432,1.096
			c-0.017,0.499,0.165,0.913,0.415,1.3S29.271,43.148,29.52,43.531 M30.117,45.655c0.993-0.752,1.901-1.724,3.153-1.724
			c0.13,0,0.265,0.011,0.403,0.033l0.036-0.499l-0.302-0.499c-0.128-0.016-0.255-0.022-0.38-0.022c-1.229,0-2.283,0.721-2.977,1.749
			L30.117,45.655 M35.637,45.356c0.599-0.396,1.393-0.827,1.196-1.63c-0.098-0.661-0.829-0.56-1.361-0.627
			c-0.47,0.097-0.997,0.365-0.898,0.931C34.736,44.624,35.039,45.154,35.637,45.356 M38.713,50.404l-0.36-0.02
			c0,0-0.476,1.025-1.203,1.82c-0.291,0.318-0.622,0.6-0.979,0.763l-0.554,0.145c-0.417,0.028-0.812,0.078-1.203,0.078
			c-0.32,0-0.638-0.033-0.963-0.142l-0.74-0.382c-0.347,0.38-1.184,1.289-2.058,2.252c-0.873,0.963-1.784,1.977-2.279,2.564
			l-0.258,0.299l8.997,15.284l7.663-13.32l-5.506-0.001l0.049-0.553c0.058-0.746,0.533-1.59,0.852-2.078
			c0-0.358,0.093-2.784,2.528-2.784l2.835-0.408c0.151-0.149,0.176-0.731,0.163-1.275s-0.064-1.049-0.064-1.049h0.81
			c0,0,0-0.967-0.127-1.876l-0.176-0.853c-0.303-1.014-0.605-2.225-0.507-2.629c0.102-0.404,0.913-0.811,0.81-1.113
			c-0.063-0.189-1.784-0.695-3.191-1.12c-0.844-0.259-1.575-0.486-1.767-0.602l-0.136,0.039c-0.231,0.081-0.623,0.314-0.063,0.874
			c0.808,0.808,0.709,2.023,0.1,3.637l-0.709,0.203c0,0-0.199,0.369-0.495,0.81l-0.694,0.889l-0.388,0.35L38.713,50.404
			 M37.829,45.986c0.364-0.265,0.364-0.792,0.401-1.261c-0.123-0.183-0.048-0.568-0.331-0.568c-0.021,0-0.044,0.002-0.07,0.007
			c-0.565,0.13-0.598,0.865-0.598,1.391L37.829,45.986 M39.327,48.841c1.064-0.493,0.462-2.021,0.662-3.02
			c-0.093-0.275-0.215-0.843-0.657-0.843c-0.034,0-0.07,0.004-0.108,0.011c-0.763,0.731,0.035,2.061-0.498,2.858
			C38.958,48.181,38.792,48.778,39.327,48.841 M35.171,52.2c0.465-1.496,0.233-2.691,0.366-4.351
			c-0.331-1.063-0.667-2.094-1.66-2.693c-0.293-0.085-0.595-0.152-0.876-0.152c-0.264,0-0.512,0.06-0.719,0.221
			c0.125,0.709,0.458,1.863,0.867,3.028c0.544,1.556,1.22,3.135,1.702,3.716L35.171,52.2 M41.117,46.42l0.167-0.528l-0.697-0.504
			l-0.098,0.932L41.117,46.42 M33.373,52.564l0.367-0.125l0.065-0.273c-0.448-0.58-0.989-2-1.457-3.365
			c-0.469-1.367-0.868-2.68-1.035-3.046c-0.302,0.332-0.563,0.73-0.698,1.097c0.073,0.956,0.292,1.895,0.653,2.766
			c0.413,1.001,1.013,1.914,1.798,2.666L33.373,52.564 M36.302,52.439c0.03,0,0.062-0.003,0.098-0.009l0.029-0.265
			c0.937-0.766,1.3-2.091,1.399-3.388c-0.188-0.673-0.005-2.203-0.712-2.202c-0.164,0-0.375,0.082-0.65,0.275
			c0,1.562,0.2,3.259-0.433,4.582C35.946,51.716,35.818,52.439,36.302,52.439 M49.966,50.725l1.647-2.865l-0.215-0.004l-1.631,0.81
			L49.966,50.725 M22.532,59.252c0,0,1.237,0,2.008,0c0.776,0,2.156-0.823,3.315-2.203c0.29-0.346,0.698-0.813,1.147-1.321
			l0.695-0.779c1.178-1.315,2.372-2.616,2.372-2.616l-1.244-1.773c0,0-2.861,2.898-3.469,3.449c-0.607,0.55-1.326,1.048-2.928,1.048
			L22.532,59.252 M41.385,56.328c0.21,0,0.475-0.101,0.715-0.29l0.417-0.511l-0.01-0.445l-0.429-0.119l-0.602,0.277
			c-0.396,0.311-0.582,0.744-0.406,0.961C41.139,56.287,41.25,56.328,41.385,56.328 M5.862,59.255h2.706l2.333-4.199H8.194
			L5.862,59.255 M47.001,58.169c0.898,0,2.009,0,2.382-0.002l0.129-0.453l0.158-0.557h-2.085L47.001,58.169 M45.508,58.684
			l-0.559-1.525h-0.853l-0.483,1.525h-1.42l-0.865-1.525h-0.575c-0.24,0.348-0.864,1.314-0.927,2.078H53.16v-0.476h-1.658
			l-0.508-1.603h-0.79l-0.436,1.525H45.508 M45.792,57.979l0.473-0.821h-0.769L45.792,57.979 M42.49,58.169h0.75l0.142-0.445
			l0.179-0.565h-1.645C42.147,57.572,42.392,58,42.49,58.169 M26.501,2.93L26.501,2.93c-0.769,0-1.551,0.181-2.325,0.537
			c-1.528,0.706-2.913,1.487-4.781,2.698c-2.352,1.529-2.926,3.132-3.432,4.546c-0.353,0.987-1.265,2.041-1.586,2.363l-1.212,1.212
			H1.762h-1.75L0.9,15.793l22.13,37.58H7.792H7.204l-0.286,0.515L3.83,59.449l-0.825,1.485h1.699h18.003l1.836-0.004
			c0.729,0,1.569-0.3,2.432-0.858l9.289,15.777l0.872,1.48l0.857-1.489l8.686-15.098h6.996h1v-1v-1.495v-1h-0.681l0.126-0.059v-0.64
			c0-1.573-1.36-3.425-1.88-4.074l-0.19-1.073l2.034-3.536l0.141-0.177l0.703-0.246l0.682-0.24l0.294-0.104
			c0.432-0.152,0.917-0.323,1.435-0.509c2.037-0.727,3.765-1.356,5.133-1.869c0.653-0.244,1.264-0.477,1.792-0.685
			c0.875-0.343,1.454-0.591,1.767-0.758c1.274-0.679,1.873-2.199,2.143-3.248c0.021,0,0.043,0.001,0.064,0.001
			c1.173,0,2.022-0.699,2.537-1.398c0.44,0.117,1.064,0.259,1.908,0.399c0.293,0.049,0.585,0.075,0.863,0.075
			c1.739,0,2.851-0.979,3.181-1.95l0.024-0.069l0.013-0.072l0.067-0.363c0.681-0.54,1.45-1.29,1.811-2.133l0.219-0.515l0.424-0.999
			l-1.03-0.341l-12.959-4.286l7.242-12.591l0.861-1.499h-1.729h-2.791c-0.096-0.361-0.267-0.682-0.437-0.92
			c-0.162-0.36-0.501-0.759-1.036-1.227c-0.562-0.489-1.206-0.746-1.865-0.746c-0.562,0-1.129,0.192-1.556,0.528l-0.324,0.255
			l-0.05,0.41l-0.033,0.264c-0.146,0.106-0.286,0.221-0.432,0.352c-0.586-0.61-1.418-0.977-1.938-1.162l-0.016-0.032
			c-0.948-1.905-1.634-3.282-3.201-3.473c-0.133-0.016-0.261-0.023-0.388-0.023c-0.855,0-1.618,0.325-2.151,0.635
			c-2.061-1.809-6.193-3.853-8.868-3.953c-0.07-0.003-0.14-0.004-0.209-0.004c-2.341,0-5.428,1.385-8.152,2.608
			c-0.743,0.333-1.445,0.648-2.074,0.908c-0.435,0.18-0.831,0.271-1.177,0.271c-0.847,0-1.32-0.548-1.81-1.21
			c-0.13-0.177-0.244-0.33-0.375-0.461c-0.14-0.139-0.298-0.291-0.486-0.47c-0.517-0.492-1.224-1.167-2.325-2.341
			C29.013,3.473,27.811,2.93,26.501,2.93L26.501,2.93L26.501,2.93z M11.93,19.366c0.052-0.114,0.106-0.206,0.162-0.269
			c0.523-0.587,2.747-2.585,4.14-3.82c0.063,0.074,0.126,0.147,0.187,0.221l-0.062,0.053L11.93,19.366L11.93,19.366z M16.798,18.796
			l0.845-1.559c0.168,0.282,0.304,0.531,0.407,0.732C17.832,18.146,17.451,18.417,16.798,18.796L16.798,18.796z M66.174,17.435
			h1.787l-1.633,2.838c0.013-0.092,0.021-0.188,0.024-0.286C66.564,19.116,66.502,18.25,66.174,17.435L66.174,17.435z
			 M49.136,17.435h0.515l0.033,0.235l0.044,0.305l-0.066-0.068l-0.018-0.018l-0.019-0.017c-0.07-0.064-0.145-0.13-0.223-0.197
			C49.33,17.611,49.23,17.524,49.136,17.435L49.136,17.435z M5.518,17.435h4.552c-1.304,1.689-1.345,4.21-1.243,5.619L5.518,17.435
			L5.518,17.435z M39.278,38.931c-0.879-0.492-1.79-1.038-2.717-1.627c-8.862-5.637-10.246-12.408-7.782-16.314
			c0.497-0.79,2.719-3.039,6.309-3.04c0.819,0,1.667,0.119,2.519,0.354c2.62,0.72,5.35,2.53,8.116,5.378
			c0.829,0.851,1.638,1.73,2.403,2.614c0.515,0.596,1.009,1.194,1.476,1.788c-2.101,2.206-4.439,4.664-6.498,6.828L39.278,38.931
			L39.278,38.931z M53.9,23.57c-0.758-1.193-1.56-2.346-2.392-3.439c-0.136-0.178-0.271-0.351-0.402-0.52
			c1.447,0.661,2.634,0.812,3.419,0.812c0.07,0,0.137-0.001,0.2-0.003l0.055,0.122l0.3,1.791c-0.173,0.181-0.377,0.395-0.607,0.637
			l-0.308,0.323L53.9,23.57L53.9,23.57z M10.482,25.866l2.384-1.416c2.589-1.538,6.648-3.928,7.217-4.211l0.204-0.105
			c0.244-0.128,0.521-0.273,0.694-0.273c0.159,0,0.451,0.247,0.797,0.938c0.803,1.605-0.249,2.827-0.259,2.839l-0.079,0.09
			l-0.056,0.106c-2.012,3.83,1.538,10.442,4.383,15.083c0.18,0.292,0.311,0.505,0.374,0.621l0.017,0.031l0.019,0.029l0.481,0.754
			c-0.368,2.023,0.906,3.678,1.615,4.419c0.006,0.439,0.126,1.069,0.486,1.982c0.026,0.452,0.137,1.582,0.615,2.865
			c-0.439,0.445-1.146,1.161-1.791,1.809c-0.802,0.805-1.149,1.141-1.298,1.281L10.482,25.866L10.482,25.866z M10.115,25.242
			l0.585-0.715c0.084-0.103,0.19-0.225,0.314-0.362l-0.653,1.496L10.115,25.242L10.115,25.242z M56.377,27.938
			c0.675-0.756,1.255-1.41,1.705-1.918l0.026,0.009c0.518,0.172,0.962,0.24,1.179,0.265c0.514,0.161,1,0.261,1.445,0.298
			c0.139,0.011,0.27,0.017,0.396,0.017c0.721,0,1.345-0.176,1.856-0.523l-4.256,7.397C58.082,31.621,57.295,29.765,56.377,27.938
			L56.377,27.938z M60.132,37.35l3.381-5.877l0.328,0.109c-1.71,1.103-0.773,5.687-0.76,5.733c0.103,0.359,0.131,0.579,0.127,0.739
			c-0.014,0.002-0.027,0.004-0.041,0.006l-0.074,0.01c-0.405,0.056-1.145,0.079-1.633,0.086l-0.265-0.216l-0.047-0.039l-0.051-0.032
			C60.782,37.669,60.432,37.49,60.132,37.35L60.132,37.35z M44.312,41.401c1.041-1.156,2.303-2.56,3.647-4.059
			c1.479-1.646,3.053-3.402,4.538-5.063c0.637,1.085,1.167,2.143,1.58,3.157c1.549,3.806,1.176,6.221,0.31,7.213
			c-0.387,0.441-1.237,0.686-2.393,0.686C50.021,43.336,47.329,42.654,44.312,41.401L44.312,41.401z M39.357,42.708l2.231-2.341
			c-0.999,1.105-1.764,1.947-2.159,2.375L39.357,42.708L39.357,42.708z M41.339,49.008l0.32-0.092l0.482-0.138l0.178-0.47
			c0.368-0.974,0.741-2.259,0.424-3.411c0.068,0.021,0.14,0.043,0.214,0.065l0.296,0.09c0.458,0.138,1.081,0.325,1.605,0.494
			c-0.084,0.133-0.154,0.281-0.196,0.449c-0.062,0.258-0.189,0.777,0.506,3.117l0.16,0.778c0.032,0.237,0.056,0.48,0.072,0.706
			h-0.876l0.112,1.102c0.001,0.005,0.048,0.476,0.06,0.971c0.004,0.144,0.004,0.263,0.001,0.362l-2.075,0.299
			c-2.254,0.036-3.332,1.721-3.443,3.479c-0.384,0.632-0.793,1.479-0.858,2.305l-0.048,0.541l-0.097,1.089h1.093l3.778,0.001
			l-5.944,10.332l-7.762-13.187c0.433-0.501,1.107-1.257,2.054-2.301c0.571-0.629,1.126-1.234,1.538-1.685l0.061,0.031l0.069,0.036
			l0.074,0.024c0.396,0.132,0.803,0.192,1.278,0.192c0.306,0,0.6-0.025,0.884-0.05c0.127-0.011,0.255-0.021,0.386-0.03l0.094-0.007
			l0.091-0.023l0.554-0.145l0.084-0.022l0.079-0.036c0.445-0.203,0.883-0.539,1.302-0.998c0.449-0.491,0.811-1.052,1.05-1.466
			l0.232-0.119l0.385-0.198l0.116-0.06l0.097-0.088l0.388-0.35l0.064-0.058l0.054-0.069l0.694-0.889l0.021-0.028l0.02-0.029
			C41.139,49.334,41.251,49.155,41.339,49.008L41.339,49.008z M34.489,48.995c-0.128-0.328-0.261-0.687-0.396-1.072
			c-0.223-0.636-0.42-1.261-0.571-1.8c0.49,0.375,0.726,0.969,1.003,1.844C34.501,48.332,34.493,48.67,34.489,48.995L34.489,48.995z
			 M25.086,56.028c1.47-0.128,2.285-0.685,2.942-1.279c0.412-0.373,1.765-1.729,2.667-2.637l0.096,0.138
			c-0.459,0.503-1.151,1.265-1.838,2.031l-0.696,0.78c-0.459,0.519-0.873,0.994-1.167,1.345c-1.082,1.288-2.212,1.846-2.549,1.846
			h-0.458L25.086,56.028L25.086,56.028z M8.783,56.056h0.418l-1.222,2.199H7.561L8.783,56.056L8.783,56.056z"/>
	</g>
	<path fill="#FFFFFF" d="M32.348,48.801c-0.469-1.367-0.868-2.68-1.034-3.045c-0.302,0.332-0.563,0.73-0.697,1.098
		c0.073,0.956,0.29,1.894,0.653,2.766c0.413,1,1.012,1.913,1.798,2.666l0.306,0.281l0.367-0.125l0.065-0.273
		C33.357,51.584,32.816,50.165,32.348,48.801z"/>
	<polygon fill="#FFFFFF" points="48.949,18.611 49.174,18.838 49.683,19.443 49.174,18.838 	"/>
	<path fill="#FFFFFF" d="M59.087,11.849c-0.161-0.533-0.431-1.031-0.73-1.563l-0.382-0.054l-0.18,0.32l0.521,0.835
		C58.498,11.673,58.723,11.898,59.087,11.849z"/>
	<path fill="#FFFFFF" d="M46.441,51.598c0,0,0-0.965-0.127-1.876C46.441,50.631,46.441,51.597,46.441,51.598L46.441,51.598z"/>
	<polygon fill="#FFFFFF" points="5.862,59.255 8.568,59.255 10.901,55.056 8.194,55.056 	"/>
	<path fill="#FFFFFF" d="M36.171,52.968c0.357-0.161,0.688-0.442,0.979-0.761C36.859,52.525,36.528,52.807,36.171,52.968z"/>
	<path fill="#FFFFFF" d="M59.246,38.053c0.318,0.132,0.869,0.378,1.316,0.662C60.115,38.431,59.564,38.185,59.246,38.053z"/>
	<path fill="#FFFFFF" d="M63.442,22.044c0.175-0.723-0.174-1.407-0.596-1.998l-0.435-0.557l-0.497,0.431
		C62.513,20.615,62.513,21.878,63.442,22.044z"/>
	<path fill="#FFFFFF" d="M56.998,45.649c-0.637,0.229-1.225,0.437-1.725,0.612C55.773,46.086,56.361,45.878,56.998,45.649z"/>
	<path fill="#FFFFFF" d="M63.893,43.108c-0.521,0.205-1.127,0.437-1.775,0.679C62.766,43.545,63.371,43.313,63.893,43.108z"/>
	<path fill="#FFFFFF" d="M45.696,52.646c-0.012-0.544-0.064-1.049-0.064-1.049l0,0C45.632,51.598,45.684,52.103,45.696,52.646z"/>
	<path fill="#FFFFFF" d="M53.252,47.306l0.368-0.462c0,0,0.367-0.128,0.973-0.341c-0.605,0.213-0.973,0.341-0.973,0.341
		L53.252,47.306z"/>
	<polygon fill="#FFFFFF" points="4.704,59.938 4.703,59.938 22.705,59.938 24.54,59.934 22.705,59.938 	"/>
	<path fill="#FFFFFF" d="M30.138,43.458l0.544-0.291c-0.402-1.131-0.867-2.423-1.959-3.159c-0.232,0.334-0.398,0.699-0.432,1.096
		c-0.017,0.499,0.166,0.913,0.415,1.3c0.25,0.386,0.564,0.743,0.814,1.127L30.138,43.458z"/>
	<polygon fill="#FFFFFF" points="49.966,50.725 49.966,50.725 49.768,48.665 	"/>
	<path fill="#FFFFFF" d="M43.25,44.007c-0.844-0.258-1.576-0.486-1.767-0.602l-0.136,0.039l0.136-0.037
		C41.674,43.522,42.406,43.749,43.25,44.007z"/>
	<polygon fill="#FFFFFF" points="64.668,16.435 64.418,16.555 64.848,17.079 64.418,16.555 	"/>
	<path fill="#FFFFFF" d="M42.506,55.082l-0.429-0.119l-0.602,0.278c-0.396,0.312-0.581,0.743-0.407,0.961
		c0.175,0.218,0.637,0.147,1.031-0.163l0.416-0.511L42.506,55.082z"/>
	<polygon fill="#FFFFFF" points="39.268,59.746 44.774,59.746 44.774,59.746 	"/>
	<path fill="#FFFFFF" d="M65.989,32.346l0.816,0.195l0.826-1.214l4.046,1.34l0.049,1.654l0.789,0.266l0.961-1.326l1.35,0.447
		l0.343,1.75l0.504,0.162l0.007,0.004c0.314-0.229,1.259-0.971,1.567-1.699l-12.664-4.191l-0.149,0.451l1.572,0.521L65.989,32.346z"
		/>
	<path fill="#FFFFFF" d="M38.715,50.405l-0.362-0.021L38.715,50.405z"/>
	<path fill="#FFFFFF" d="M60.816,25.595c0.764,0.063,1.297-0.106,1.667-0.38C62.113,25.489,61.58,25.657,60.816,25.595z"/>
	<path fill="#FFFFFF" d="M35.618,53.113l0.554-0.146L35.618,53.113c-0.759,0.05-1.443,0.178-2.166-0.062
		C34.175,53.291,34.86,53.165,35.618,53.113z"/>
	<path fill="#FFFFFF" d="M30.655,54.919c-0.874,0.963-1.784,1.977-2.279,2.564l-0.258,0.299l0,0l0.258-0.299
		C28.87,56.896,29.781,55.882,30.655,54.919z"/>
	<path fill="#FFFFFF" d="M67.841,31.933l-0.524,0.768c0.517,0.173,1.051,0.377,1.579,0.595c0.545,0.226,1.396,0.532,2.316,0.849
		c-0.014-0.406-0.028-0.871-0.036-1.104C70.664,32.868,68.387,32.118,67.841,31.933z"/>
	<path fill="#FFFFFF" d="M49.512,57.715l0.16-0.557h-2.086l-0.584,1.011c0.898,0,2.008,0,2.382,0L49.512,57.715z"/>
	<path fill="#FFFFFF" d="M50.992,57.158h-0.789l-0.436,1.525h-4.26l-0.559-1.525h-0.854l-0.482,1.525h-1.421l-0.865-1.525h-0.574
		c-0.24,0.348-0.865,1.314-0.928,2.078h13.333v-0.476h-1.656l0,0L50.992,57.158z"/>
	<path fill="#FFFFFF" d="M36.025,38.147c1.166,0.741,2.317,1.422,3.447,2.031c2.336-2.453,7.439-7.818,11.447-12.027
		c-0.615-0.811-1.292-1.648-2.035-2.51c-0.745-0.862-1.557-1.749-2.442-2.657c-3.191-3.288-6.076-4.96-8.568-5.646
		c-5.487-1.508-9.087,1.761-9.939,3.116C24.998,25.108,27.124,32.486,36.025,38.147z"/>
	<path fill="#FFFFFF" d="M52.646,30.614c-1.735,1.94-3.654,4.081-5.431,6.06c-1.775,1.979-3.409,3.796-4.576,5.089
		c6.051,2.748,10.922,3.346,12.502,1.544c1.172-1.342,1.513-4.192-0.138-8.248C54.452,33.708,53.682,32.222,52.646,30.614z"/>
	<path fill="#FFFFFF" d="M11.343,18.433c-0.809,0.911-0.909,3.541-0.909,3.541l6.574-5.666l-2.631,4.852
		c0,0,1.112-0.504,2.275-1.137c1.163-0.631,2.377-1.389,2.579-1.896c0,0-0.912-2.222-2.931-4.246
		C16.301,13.882,12.155,17.523,11.343,18.433z"/>
	<path fill="#FFFFFF" d="M20.461,11.911c0.473-0.164,0.723,0.282,1.008,0.565c0.158,0.41,0.062,0.949-0.252,1.296l0.757-0.066
		c0.313-0.377,0.41-0.946,0.254-1.419c-0.221-0.854-1.233-0.916-1.835-1.358c-0.062-0.724,0.76-1.23,1.138-1.862
		c-0.377-0.505-1.041-0.724-1.577-0.44c-0.095,1.481-0.539,2.84-0.886,4.195C19.826,13.392,19.638,11.941,20.461,11.911z"/>
	<path fill="#FFFFFF" d="M58.489,13.473l0.565,0.036c-0.765-1.03-1.462-2.094-2.293-3.121l-0.699,0.495
		c0.4,0.431,0.833,0.864,1.252,1.295C57.735,12.611,58.144,13.043,58.489,13.473z"/>
	<path fill="#FFFFFF" d="M57.692,14.939l0.417,0.063l0.217-0.331L55.6,11.548c-0.367-0.233-0.797,0-0.997,0.365
		C55.633,12.945,56.829,13.743,57.692,14.939z"/>
	<path fill="#FFFFFF" d="M57.295,15.202l-2.726-2.323l-0.718-0.262l-0.545,0.562c1.229,0.93,2.589,1.524,3.722,2.655L57.295,15.202z
		"/>
	<path fill="#FFFFFF" d="M58.091,20.12l0.612-0.899c0.378-0.626,0.723-1.288,1.184-1.896l0.799-0.86
		c0.465-0.697,1.629-0.631,1.328-1.662c-0.065-0.461-0.7-0.798-1.262-0.661c-0.514,0.339-0.991,0.725-1.423,1.146
		c-1.292,1.263-2.168,2.845-2.364,4.467C57.26,20.086,57.658,20.12,58.091,20.12z"/>
	<path fill="#FFFFFF" d="M56.696,16.398c-1.331-0.765-2.558-1.792-3.99-2.323l-0.267,0.897l3.924,2.124L56.696,16.398z"/>
	<path fill="#FFFFFF" d="M55.732,18.292l0.266-0.566c-0.615-0.315-1.222-0.672-1.841-1.009c-0.619-0.336-1.251-0.652-1.914-0.885
		l-0.237,0.377l0.038,0.354C53.372,16.966,54.468,17.76,55.732,18.292z"/>
	<path fill="#FFFFFF" d="M58.96,20.154c0.194,0.461,0.56,0.461,1.026,0.328c0.994-0.546,1.77-1.486,2.205-2.553
		c0.146-0.355,0.255-0.725,0.32-1.099l-0.531-0.432C60.586,17.328,59.722,18.786,58.96,20.154z"/>
	<path fill="#FFFFFF" d="M65.038,19.587c-0.06-1.089-0.531-2.007-1.165-2.854l-0.226,0.03l-0.1,0.204L65.038,19.587z"/>
	<path fill="#FFFFFF" d="M64.62,20.82l0.22-0.071c0.016-0.58-0.249-1.103-0.595-1.609c-0.345-0.507-0.769-0.997-1.066-1.512
		l-0.399,0.797l1.595,2.389L64.62,20.82z"/>
	<path fill="#FFFFFF" d="M51.542,17.328l-0.1,0.3c0.867,0.959,2.097,1.128,3.425,1.092C53.769,18.226,52.706,17.66,51.542,17.328z"
		/>
	<path fill="#FFFFFF" d="M61.774,21.685l-0.358-0.634l-0.635-0.134c-0.029,0.994,0.701,1.892,1.166,2.751l0.564,0.103
		c0.066-0.548-0.109-1.014-0.349-1.449L61.774,21.685z"/>
	<path fill="#FFFFFF" d="M56.53,21.113l-0.101,0.398l0.181,0.706l0.941-0.229l-0.146-0.335
		C57.231,21.316,56.969,21.016,56.53,21.113z"/>
	<path fill="#FFFFFF" d="M61.283,24.233c-0.336-0.998-0.665-1.924-1.495-2.722c-0.401,0.034-1.199-0.099-1.365,0.366
		c0.402,1.33,1.233,3.29,2.828,3.391L61.283,24.233z"/>
	<path fill="#FFFFFF" d="M33.012,40.641c-0.136-0.698,0.063-1.529-0.398-2.095l-0.502,0.17c-0.232,0.627-0.032,1.359,0.332,1.891
		L33.012,40.641z"/>
	<path fill="#FFFFFF" d="M33.976,38.517c-0.403,0.761-0.067,2.021-0.099,3.055c0,0.398,0.494,0.599,0.827,0.431
		C34.44,40.902,35.171,39.111,33.976,38.517z"/>
	<path fill="#FFFFFF" d="M31.709,41.604c-0.698-0.896,0.307-3.456-1.591-2.886c-1.229,1.13,0.698,1.856,0.931,2.987L31.709,41.604z"
		/>
	<path fill="#FFFFFF" d="M36.334,41.771c-0.236-0.966,0.432-2.858-1.066-2.821c-0.063,1.027,0,1.953,0.169,2.888L36.334,41.771z"/>
	<path fill="#FFFFFF" d="M37.131,39.909c-0.034,0.864-0.167,1.795,0.301,2.462c0.564-0.136,0.23-0.967,0.364-1.469
		C37.497,40.573,37.829,39.78,37.131,39.909z"/>
	<path fill="#FFFFFF" d="M33.674,43.965l0.036-0.499l-0.302-0.499c-1.392-0.166-2.592,0.594-3.357,1.726l0.066,0.962
		C31.214,44.824,32.207,43.727,33.674,43.965z"/>
	<path fill="#FFFFFF" d="M36.832,43.727c-0.098-0.661-0.829-0.56-1.361-0.627c-0.469,0.097-0.997,0.366-0.898,0.931
		c0.164,0.594,0.466,1.124,1.063,1.326C36.235,44.96,37.028,44.528,36.832,43.727z"/>
	<path fill="#FFFFFF" d="M38.231,44.726c-0.133-0.196-0.037-0.628-0.401-0.562c-0.565,0.13-0.598,0.865-0.598,1.391l0.598,0.434
		C38.194,45.722,38.194,45.192,38.231,44.726z"/>
	<path fill="#FFFFFF" d="M39.224,44.989c-0.763,0.732,0.034,2.062-0.498,2.858c0.232,0.334,0.068,0.931,0.602,0.995
		c1.064-0.495,0.462-2.023,0.663-3.021C39.889,45.525,39.755,44.891,39.224,44.989z"/>
	<path fill="#FFFFFF" d="M35.537,47.848c-0.331-1.063-0.667-2.093-1.66-2.691c-0.569-0.165-1.167-0.265-1.595,0.068
		c0.125,0.71,0.458,1.863,0.867,3.028c0.544,1.557,1.22,3.135,1.703,3.714l0.32,0.232C35.636,50.703,35.404,49.506,35.537,47.848z"
		/>
	<polygon fill="#FFFFFF" points="40.587,45.388 40.49,46.319 41.117,46.42 41.284,45.892 	"/>
	<path fill="#FFFFFF" d="M36.467,46.852c0,1.562,0.2,3.259-0.433,4.582c-0.094,0.3-0.232,1.098,0.367,0.997l0.029-0.265
		c0.938-0.766,1.3-2.091,1.399-3.388C37.597,47.948,37.929,45.821,36.467,46.852z"/>
	<path fill="#FFFFFF" d="M24.54,59.252c0.775,0,2.156-0.824,3.314-2.203c0.29-0.346,0.698-0.812,1.147-1.321l0.695-0.779
		c1.178-1.315,2.372-2.616,2.372-2.616l-1.244-1.773c0,0-2.86,2.898-3.469,3.449c-0.607,0.55-1.327,1.048-2.928,1.048l-1.897,4.196
		C22.532,59.252,23.769,59.252,24.54,59.252z"/>
	<path fill="#FFFFFF" d="M56.936,22.826l-0.273,0.284c-0.31,0.324-0.865,0.906-1.596,1.67c-1.823,1.911-4.739,4.965-7.632,8.001
		c-2.316,2.429-4.62,4.847-6.344,6.656c-1.725,1.811-2.869,3.013-2.869,3.013l-0.098,0.423l0.447,0.573l0.741,0.343l0.561-0.061
		c0.389-0.382,17.062-18.884,17.928-19.942C58.67,22.73,57.322,22.443,56.936,22.826z"/>
	<path fill="#FFFFFF" d="M65.407,15.035c0.768-0.771-0.484-1.059-0.773-0.867c-0.287,0.191-0.577,0.479-1.059,0.964
		C62.377,16.331,63.911,16.523,65.407,15.035z"/>
	<path fill="#F2B742" d="M48.949,18.611l0.225,0.227l0.509,0.604c0.267,0.32,0.617,0.754,1.03,1.296
		c0.825,1.084,1.899,2.594,3.019,4.462c0.562-0.587,1.056-1.109,1.465-1.539c0.41-0.43,0.734-0.77,0.953-0.998
		c-0.404-2.41-0.404-2.41-0.404-2.41l-0.402-0.91c0,0-1.821,0.505-4.554-1.012l-0.115-0.803l0.22-0.613l-0.451-0.48h-2.214
		C47.305,17.352,48.347,18.058,48.949,18.611z"/>
	<polygon fill="#F2B742" points="49.768,48.665 49.966,50.725 51.613,47.859 51.398,47.855 	"/>
	<polygon fill="#F2B742" points="46.265,57.158 45.496,57.158 45.79,57.979 	"/>
	<path fill="#F2B742" d="M26.899,53.506c0.22-0.2,0.779-0.754,1.395-1.371c0.82-0.822,1.739-1.757,2.083-2.105l0.14-0.142
		l0.038-0.037c-0.791-1.717-0.801-3.309-0.801-3.309s-0.705-1.717-0.402-2.123c0,0-2.331-1.92-1.62-4.246l-0.71-1.112
		c-0.604-1.111-6.98-10.517-4.75-14.761c0,0,1.517-1.721,0.403-3.947c-1.111-2.224-2.226-1.414-3.035-1.009
		c-0.809,0.402-7.282,4.247-7.282,4.247l1.721-3.944c0,0-3.237,3.132-4.15,4.247c0,0-0.705-4.247,1.219-6.17
		c0.432-0.431,0.872-0.87,1.291-1.288H3.769l22.192,37.689C26.36,53.964,26.641,53.741,26.899,53.506z"/>
	<path fill="#F2B742" d="M64.668,16.435l-0.249,0.12l0.43,0.524c0.439,0.633,0.831,1.585,0.507,2.771c0,0,0,1.113-0.605,1.113
		c0,0,0.1,2.525-1.417,2.223c0,0,0.079,1.342-0.85,2.029c-0.37,0.274-0.903,0.443-1.667,0.38c-0.383-0.031-0.821-0.122-1.326-0.287
		c0,0-0.473-0.032-1.065-0.229l-0.619-0.256c-0.552,0.624-1.479,1.669-2.631,2.958c1.229,2.363,2.41,5.114,3.289,8.166
		l11.225-19.513H64.668z"/>
	<path fill="#F2B742" d="M41.916,57.158c0.231,0.414,0.476,0.842,0.574,1.011h0.75l0.142-0.445l0.179-0.565H41.916z"/>
	<path fill="#F2B742" d="M39.268,59.746L39.268,59.746l0.049-0.554c0.059-0.746,0.534-1.59,0.852-2.078
		c0-0.358,0.093-2.784,2.529-2.784l2.834-0.408c0.151-0.15,0.177-0.731,0.163-1.275c-0.012-0.544-0.063-1.049-0.063-1.049l0,0h0.809
		c0,0,0-0.965-0.127-1.876l-0.175-0.853c-0.304-1.014-0.606-2.225-0.507-2.629s0.912-0.809,0.809-1.113
		c-0.062-0.189-1.784-0.693-3.192-1.12c-0.844-0.258-1.574-0.486-1.766-0.6l-0.137,0.037c-0.23,0.081-0.623,0.314-0.062,0.874
		c0.809,0.809,0.709,2.023,0.101,3.638l-0.709,0.203c0,0-0.199,0.37-0.496,0.811l-0.693,0.888l-0.388,0.35l-0.385,0.198
		l-0.359-0.021c0,0-0.476,1.028-1.203,1.822c-0.291,0.318-0.623,0.6-0.979,0.761l-0.554,0.146c-0.759,0.05-1.443,0.178-2.166-0.062
		l-0.74-0.383c-0.347,0.379-1.184,1.29-2.058,2.251c-0.874,0.964-1.784,1.977-2.279,2.564l-0.258,0.3l8.997,15.284l7.663-13.321
		H39.268L39.268,59.746z"/>
</g>
</svg>
