<?xml version="1.0" encoding="utf-8"?>
<!DOCTYPE svg PUBLIC "-//W3C//DTD SVG 1.1//EN" "http://www.w3.org/Graphics/SVG/1.1/DTD/svg11.dtd">
<svg version="1.1" xmlns="http://www.w3.org/2000/svg" xmlns:xlink="http://www.w3.org/1999/xlink" x="0px" y="0px" width="80px"
	 height="80px" viewBox="303.199 7.066 80 80" enable-background="new 303.199 7.066 80 80" xml:space="preserve">
<g id="Layer_2">
	<g>
		<path fill="#FFFFFF" d="M335.167,70.192c-0.901,0.908-1.907,1.97-2.828,2.987c-1.288,1.424-2.426,3.228-3.383,5.358
			c-0.093,0.205-0.127,0.282-0.195,0.379c-0.349,0.482-0.477,0.485-3.742,0.56l-1.081,0.025c-0.695,0.019-1.459,0.071-2.119,0.115
			c-0.631,0.043-1.174,0.078-1.497,0.078c-0.257,0-0.939,0-1.205-0.646c-0.008-0.009-0.06-0.093-0.108-0.176
			c-0.151-0.253-0.221-0.369-0.263-0.529c-0.092-0.348-0.204-0.775,1.793-3.253l0.622-0.78c1.204-1.516,2.853-3.592,4.848-5.656
			c1.618-1.673,3.966-3.583,5.266-4.606l-2.1-3.316l-0.209-0.29c-1.412-0.367-3.059-0.815-5.076-1.364l-1.75-0.475
			c-5.92-1.607-10.697-3.464-13.018-4.429c-6.181-2.57-6.042-3.141-5.866-3.862c0.188-0.795,0.188-0.795,5.69-0.932
			c2.401-0.059,5.42-0.135,8.351-0.252c1.529-0.061,2.999-0.133,4.389-0.214l-12.764-20.143l7.126,1.328
			c0.457,0.087,10.731,2.037,19.65,2.743c-0.207-1.126-0.578-2.632-1.241-4.491c-1.054-2.954-3.04-6.907-4.355-9.523
			c-1.728-3.437-1.796-3.571-1.438-4.151l0.286-0.463l0.769-0.009l0.208,0.09c4.652,2.073,11.204,7.582,15.933,13.396
			c1.114,1.369,2.304,3.03,3.54,4.94c0.015,0,0.027,0,0.041,0c8.43-0.838,17.091-2.513,17.175-2.53l3.879-0.754l3.354-0.75
			l-6.889,10.878c1.07-0.504,2.149-1.028,3.056-1.468c1.432-0.695,2.193-1.063,2.508-1.177l0.161-0.058l0.265-0.019
			c0.365,0,0.705,0.179,0.909,0.479c0.526,0.772,0.222,1.628-2.32,8.095c-1.152,2.929-2.446,5.445-3.438,7.212
			c0.432,0.245,1.032,0.646,1.478,1.187c0.665,0.805,1.286,3.296,1.537,4.399c0.051,0.133,0.267,0.664,0.958,2.171
			c0.164,0.356,2.981,8.502,2.066,9.621c-0.536,0.653-2.121,0.751-3.018,0.751l-0.518-0.001c-1.256,0-2.473-0.099-2.524-0.103
			c-1.513-0.12-2.519-0.438-3.065-0.662c-0.479,0.183-1.278,0.414-2.255,0.414c-1.068,0-2.13-0.229-2.633-0.354
			c-0.322,0.09-0.859,0.206-1.562,0.234c-0.074,0.004-0.155,0.005-0.239,0.005c-0.831,0-1.974-0.157-3.126-0.341
			c-0.285,0.167-0.658,0.317-1.081,0.317c-0.136,0-0.27-0.015-0.399-0.046l-0.599-0.143l-0.13-0.601
			c-0.014-0.062-0.024-0.124-0.035-0.187c-0.006-0.003-0.011-0.006-0.017-0.008c-0.018,0.024-0.034,0.047-0.049,0.066
			c-0.181,0.229-0.395,0.373-0.642,0.431c-0.088,0.017-0.518,0.071-0.777,0.071c-0.821,0-1.095-0.576-1.126-0.916
			c-0.005-0.045-0.018-0.086-0.022-0.099c-0.015-0.016-0.631-0.545-0.631-0.545l0.311-0.688c-0.018-0.01-0.035-0.021-0.053-0.031
			c-0.257,0.029-0.52,0.058-0.783,0.086l-7.827,12.359L335.167,70.192z"/>
		<path fill="#F28F20" d="M370.174,58.403c0,0-0.748-3.327-1.353-4.059c-0.604-0.732-1.647-1.183-1.647-1.183
			s-0.115-0.147-0.325-0.406c0.922-1.586,2.452-4.415,3.778-7.787c2.06-5.237,2.924-7.475,2.226-7.222
			c-0.695,0.251-5.393,2.659-8.324,3.894c0.206-0.372,0.329-0.618,0.339-0.689l6.896-10.89l-1.085,0.242l-3.876,0.755
			c-0.116,0.023-8.871,1.708-17.364,2.548v0c-0.142,0-0.333,0.007-0.562,0.019c-1.219-1.911-2.513-3.767-3.775-5.319
			c-4.442-5.461-10.838-11.01-15.573-13.121c-0.515-0.229,3.994,7.645,5.847,12.839c0.932,2.612,1.316,4.574,1.47,5.88
			c-9.262-0.618-20.428-2.741-20.977-2.846l-4.925-0.917l12.447,19.643c-1.556,0.105-3.579,0.221-6.056,0.319
			c-6.343,0.254-13.102,0.311-13.132,0.44c-0.124,0.507,8.175,4.4,18.191,7.118c3.021,0.82,5.295,1.445,7.156,1.925l0.447,0.624
			l2.574,4.064c-1.326,1.018-4.083,3.218-5.863,5.058c-2.345,2.427-4.254,4.933-5.412,6.371c-1.157,1.436-1.64,2.277-1.61,2.39
			c0.016,0.057,0.295,0.493,0.331,0.586c0.058,0.139,2.179-0.106,3.894-0.151c1.717-0.046,3.977-0.069,4.058-0.182
			s1.276-3.198,3.647-5.82c1.309-1.446,2.698-2.883,3.728-3.878l5.992,9.458l7.256-11.457c0.533-0.057,1.065-0.114,1.579-0.173
			c0.477,0.294,0.942,0.575,1.383,0.837c-0.493,0.261-0.677,0.625-0.677,0.625s0.135,0.104,0.264,0.288
			c0.13,0.185,0.163,0.446,0.172,0.528c0.007,0.081,0.714-0.014,0.714-0.014c0.024-0.006,0.056-0.034,0.09-0.078
			c0.116-0.149,0.273-0.486,0.405-0.795c0.53,0.297,0.993,0.534,1.356,0.689c0.001,0.194,0.015,0.4,0.062,0.625
			c0.426,0.102,0.852-0.205,1.023-0.349c1.212,0.199,2.698,0.425,3.558,0.388c0.987-0.041,1.577-0.275,1.577-0.275
			s1.34,0.395,2.657,0.395s2.271-0.509,2.271-0.509s0.988,0.591,3.129,0.761c0,0,1.403,0.114,2.722,0.097
			c1.361,0.03,2.351-0.202,2.504-0.389c0.249-0.306-1.319-6.684-2.198-8.599C370.305,58.786,370.174,58.403,370.174,58.403z"/>
		<path fill="#FFFFFF" d="M368.94,55.762l0.268-0.429c0,0,1.104-1.771,2.576-4.114c1.276-2.035,2.433-4.066,3.438-6.04
			c0.529-1.038,1.236-2.349,1.558-2.939c-0.186-0.942-0.145-1.118-0.056-1.341c0.176-0.471,0.746-1.324,0.916-1.574l0.238-0.349
			l0.417-0.065c0.048-0.007,1.168-0.18,1.945-0.18l0.117,0.001c0.799,0.021,1.984,0.333,2.118,0.368l0.723,0.193v0.749
			c0,0.03-0.001,0.745-0.104,1.51c-0.077,0.573-0.103,1.022-0.103,1.037c-0.039,0.283-0.224,1.228-1.049,1.607
			c-0.254,0.115-0.56,0.195-0.819,0.248c-0.444,0.924-1.479,2.991-2.566,4.54c-0.444,0.632-0.969,1.418-1.508,2.226
			c-1.221,1.83-2.373,3.558-3.089,4.292c-0.934,0.961-1.67,1.809-1.677,1.817l-0.325,0.375l-0.587-0.05l-1.246,0.933L368.94,55.762z
			"/>
		<path fill="#F28F20" d="M380.335,39.707c-0.704-0.017-1.889,0.167-1.889,0.167s-0.659,0.968-0.814,1.384
			c-0.042,0.105,0.175,1.136,0.175,1.136s-1.015,1.854-1.715,3.228c-0.7,1.375-1.851,3.517-3.481,6.116
			c-1.471,2.343-2.574,4.112-2.574,4.112l0.506,1.2l0.475-0.356l0.121-0.048l0.41,0.036c0,0,0.751-0.866,1.716-1.859
			c0.967-0.992,3.118-4.438,4.496-6.397c1.377-1.959,2.702-4.861,2.702-4.861s0.683-0.073,1.074-0.252
			c0.392-0.18,0.483-0.773,0.483-0.773s0.025-0.487,0.109-1.115c0.095-0.71,0.095-1.38,0.095-1.38S381.039,39.725,380.335,39.707z"
			/>
		<path fill="#FFFFFF" d="M373.022,59.58c-0.207,0-0.556,0-2.289-1.032l-0.312-0.187l-0.114-0.345
			c-0.132-0.397-0.141-0.573-0.144-0.631c-0.05-0.87,0.753-1.074,1.397-1.239l0.408-0.104c0.227-0.06,0.456-0.091,0.685-0.091
			c0.706,0,1.188,0.288,1.278,0.346l0.557,0.358l-0.129,0.647v-0.001c0.001,0-0.005,0.067,0.003,0.154l0,0
			c0,0,0.019,0.076,0.098,0.212l0.204,0.347l-0.099,0.407c-0.096,0.375-0.354,0.632-1.021,1.021l-0.104,0.052l-0.186,0.08
			L373.022,59.58z"/>
		<path fill="#F28F20" d="M373.402,57.116c0,0-0.49-0.316-1.183-0.132c-0.693,0.185-1.088,0.256-1.082,0.354
			c0.005,0.101,0.095,0.371,0.095,0.371s1.632,0.973,1.82,0.891c0,0,0.614-0.358,0.566-0.439c-0.049-0.083-0.201-0.352-0.227-0.606
			C373.366,57.299,373.402,57.116,373.402,57.116z"/>
	</g>
</g>
<g id="Layer_3">
	<path id="path2628_2_" fill="#FFFFFF" d="M355.058,68.266c-0.138-0.203-0.468-0.303-0.599-0.656
		c-0.062-0.159-0.101-0.361-0.236-0.43c0,0-0.538,0.804-0.282,2.002c0.548,0.131,1.104-0.419,1.104-0.419
		S355.154,68.408,355.058,68.266 M351.755,67.205c-0.666,0.253-0.878,0.732-0.878,0.732s0.135,0.104,0.264,0.288
		c0.13,0.185,0.163,0.446,0.172,0.528c0.007,0.081,0.714-0.014,0.714-0.014c0.2-0.049,0.75-1.496,0.75-1.496s0.116-0.321,0.062-0.39
		C352.783,66.783,352.423,66.951,351.755,67.205"/>
	<path id="path2630_2_" d="M370.679,30.303l-3.876,0.755c-0.155,0.03-15.659,3.014-25.434,3.014c-9.652,0-24.858-2.892-25.501-3.015
		l-4.925-0.917l30.393,47.965l30.428-48.044L370.679,30.303z"/>
	<path id="path2632_2_" fill="#F28F20" d="M367.026,32.27c-0.644,0.124-15.854,3.036-25.657,3.036
		c-9.763,0-25.073-2.912-25.72-3.035l-2.164-0.418l27.851,43.356l27.852-43.359L367.026,32.27z"/>
	<path id="path2634_2_" fill="#05535D" d="M367.093,32.638L367.093,32.638c-0.643,0.125-15.875,3.043-25.724,3.043
		c-9.797,0-25.145-2.919-25.793-3.043l-1.312-0.254l27.071,42.143l27.072-42.145L367.093,32.638z"/>
	<path id="path2636_2_" fill="#FFFFFF" d="M366.227,33.712c-2.578,0.471-15.885,2.815-24.857,2.815
		c-8.969,0-22.24-2.408-24.812-2.89l-0.316-0.06l25.095,39.04l25.206-38.963L366.227,33.712z"/>
	<path id="path2638_2_" d="M312.517,31.168L323.45,48.2c0,0-0.805-6.929,3.044-8.665c3.851-1.737,8.47-5.132,8.47-5.132
		L312.517,31.168z"/>
	<path id="path2640_2_" fill="#FFFFFF" d="M364.264,41.209c-4.094,1.716-5.062,2.271-5.349,2.648c0,0-0.009,0.013-0.012,0.018
		c-2.974-2.54-6.264-4.982-9.318-6.908c0,0,1.999-0.077,1.611-0.319c-0.458-0.953-1.051-1.961-1.758-3.042
		c-1.178,0-5.627,0.466-8.069,0.466c-1.149,0-2.377-0.042-3.648-0.114c0.103,0.231,0.192,0.455,0.264,0.671
		c-0.761,0.058-2.689,0.49-3.229,0.56c-0.637,0.083-1.726,0.32-2.564,0.564c-7.106,1.48-9.608,4.748-9.72,4.936l0.112,0.22
		l0.061,0.356c-0.006,0.051,1.018,0.093,1.018,0.75c0,1.531,0.922,4.827,2.234,7.962c-0.737,0.064,4.323,9.403,3.492,9.382
		l0.618,0.866c4.689,1.178,6.335,1.344,10.69,1.252c0,0,0.238-0.004,0.477-0.01c1.124,0.721,2.394,1.531,3.634,2.266
		c0.745,0.441,1.728,1.059,2.769,1.713c0.44,0.277,1.742-0.298,2.151-0.045c0,0,15.044-23.622,15.14-24.45
		C364.867,40.951,364.457,41.129,364.264,41.209"/>
	<path id="path2642_2_" fill="#05535D" d="M323.981,49.305c0.082,0.216,0.287,0.555,0.447,0.926c1.291,0,2.229-0.218,3.053-0.247
		c0,0,3.61,3.664,3.684,2.331s-2.233-4.055-4.301-3.755C324.796,48.86,323.696,48.341,323.981,49.305"/>
	<path id="path2644_2_" d="M371.183,60.701c-0.878-1.915-1.009-2.298-1.009-2.298s-0.748-3.327-1.353-4.059
		c-0.604-0.732-1.647-1.183-1.647-1.183s-0.115-0.147-0.325-0.406c0.922-1.586,2.452-4.415,3.778-7.787
		c2.06-5.237,2.924-7.475,2.226-7.222c-0.701,0.253-5.478,2.703-8.403,3.928c-2.924,1.225-4.859,2.112-5.147,2.491
		c-0.128,0.17-0.215,0.312-0.31,0.439c-2.785-2.414-6.192-5.022-9.663-7.21c-4.559-2.872-5.161-3.153-7.305-3.322
		c-2.141-0.169-5.928,0.053-7.753,0.291c-0.693,0.091-1.453,0.275-2.161,0.481c-7.001,1.447-9.639,5.843-9.639,5.843
		s-0.419,4.138,1.51,8.616c1.289,0,2.307-0.196,3.13-0.225c4.446,2.613,3.849,3.781,2.473,4.509
		c2.076,1.489,5.529,4.263,6.173,4.476c1.03,0.342,2.042,0.789,2.543,1.052c1.358,0.719,4.117,2.618,6.753,4.182
		c2.637,1.562,8.111,5.238,9.389,5.449c1.276,0.212,3.092,0.517,4.08,0.474c0.987-0.041,1.577-0.275,1.577-0.275
		s1.34,0.395,2.657,0.395s2.271-0.509,2.271-0.509s0.988,0.591,3.129,0.761c0,0,1.403,0.114,2.722,0.097
		c1.361,0.03,2.351-0.202,2.504-0.389C373.63,68.994,372.062,62.616,371.183,60.701"/>
	<path id="path2646_2_" fill="#FFFFFF" d="M360.492,68.025c-1.046,0.001-2.924,0.003-3.681-0.133l-0.332-0.058l0.291-0.175
		c0.433-0.264,0.93-0.573,1.247-0.826c-1.226,0.051-3.212-0.014-3.809-0.167l-0.219-0.055l0.166-0.159
		c0.161-0.153,0.4-0.345,0.655-0.547c0.272-0.217,0.565-0.452,0.771-0.65c-0.895,0.098-2.246,0.208-2.91,0.182l-0.272-0.01
		l0.234-0.255c0.198-0.216,0.571-0.624,0.751-0.959c-0.01,0.002-0.038,0.007-0.038,0.007c-0.725,0.125-1.715,0.298-2.132,0.283
		l-0.229-0.009l0.132-0.191c0.187-0.27,0.376-0.552,0.502-0.763c-0.092,0.017-0.187,0.037-0.187,0.037
		c-0.522,0.109-1.173,0.247-1.522,0.137l-0.167-0.052l0.104-0.144c0.199-0.279,0.281-0.47,0.32-0.599
		c-0.384,0.099-1.002,0.219-1.35,0.072l-0.171-0.07l0.13-0.136c0.101-0.102,0.188-0.267,0.24-0.405
		c-1.481-0.015-2.331,0.24-2.331,0.24c2.307,0.085,4.639,3.577,5.243,4.224c0.605,0.646,2.417,1.492,4.696,1.745
		c1.733,0.192,2.947-0.035,3.297-0.115C360.108,68.354,360.298,68.205,360.492,68.025"/>
	<path id="path2648_2_" fill="#FFFFFF" d="M358.602,65.775c-2.498-1.322-4.009-2.533-7.027-3.125
		c-0.866-0.17-1.639-0.244-2.298-0.265c-0.044,0.143-0.118,0.293-0.197,0.413c0.317,0.038,0.812-0.057,1.216-0.176l0.157-0.045
		v0.168c0,0.115-0.054,0.363-0.294,0.748c0.327,0.021,0.832-0.082,1.225-0.166l0.678-0.132l-0.093,0.22
		c-0.07,0.166-0.255,0.455-0.507,0.826c0.478-0.035,1.281-0.173,1.845-0.271l0.454-0.079l-0.054,0.191
		c-0.095,0.353-0.469,0.793-0.747,1.104c0.736-0.006,1.989-0.11,2.921-0.22l0.269-0.03l-0.153,0.228
		c-0.167,0.253-0.606,0.604-1.033,0.94c-0.163,0.132-0.311,0.251-0.443,0.362c0.817,0.119,2.748,0.174,3.831,0.098l0.3-0.02
		l-0.198,0.23c-0.21,0.243-0.719,0.584-1.248,0.912c0.883,0.086,2.443,0.086,3.339,0.085l0.563-0.001l-0.211,0.217
		c-0.097,0.1-0.306,0.311-0.582,0.522c0.412,0.083,1.174,0.229,1.638,0.249c0.77,0.031,1.676,0.112,2.637-0.112
		C363.241,68.029,361.101,67.099,358.602,65.775"/>
	<path id="path2650_2_" fill="#05535D" d="M338.724,42.547c0,0,1.428,1.07,2.911,3.041c1.482,1.971,2.471,3.492,2.196,3.661
		s-1.373-0.339-1.373-0.339s2.389,1.517,4.585,3.488c2.195,1.971,3.321,3.101,3.321,3.101s3.57-0.057,3.954,0.844
		c0.385,0.902,0.55,1.296,0.824,1.803c0.274,0.506,1.978,3.041,2.196,3.041c0.22,0,0.884-0.003,1.049-0.173s0.434-0.729,0.434-0.729
		s0.221,1.239-0.22,1.858c0.434,0.34,4.506,3.026,8.049,4.557c3.084,1.33,5.852,2.409,6.126,2.127
		c0.273-0.28-1.217-5.896-2.094-7.81c-0.879-1.914-1.011-2.298-1.011-2.298s-0.747-3.327-1.352-4.059
		c-0.603-0.733-1.646-1.183-1.646-1.183s-2.69-3.442-5.766-6.37c-3.074-2.928-7.523-6.525-12.08-9.397
		c-4.559-2.872-5.161-3.153-7.304-3.322c-2.141-0.169-5.545,0.162-7.357,0.5c-1.812,0.338-4.229,1.239-4.229,1.239
		s2.472,1.183,5.052,3.266L338.724,42.547z"/>
	<path id="path2652_2_" fill="#F28F20" d="M352.589,57.497c0,0,0.96,0.901,1.537,1.745c0.577,0.846,1.538,2.395,1.538,2.395
		s-1.291-0.591-1.647-0.789c-0.355-0.197-0.658-0.423-0.658-0.423s-0.412-0.956-0.522-1.547
		C352.727,58.286,352.589,57.497,352.589,57.497"/>
	<path id="path2654_2_" fill="#05535D" d="M345.785,54.915l0.652,0.921c0,0-0.714,2.976-0.628,3.861
		C345.81,59.697,345.283,57.568,345.785,54.915"/>
	<path id="path2656_2_" fill="#05535D" d="M344.191,53.403l0.651,1.058c0,0-0.598,3.294-0.446,4.412
		C344.396,58.873,343.691,56.445,344.191,53.403"/>
	<path id="path2658_2_" fill="#05535D" d="M342.614,52.026l0.652,0.92c0,0-0.515,3.449-0.362,4.929
		C342.904,57.875,342.099,55.277,342.614,52.026"/>
	<path id="path2684_2_" fill="#05535D" d="M339.025,46.658c0,0-5.683-3.66-9.416-4.702c-3.734-1.042-4.063-1.184-4.284-1.014
		c-0.22,0.169-0.851,0.647-0.851,0.647s0.549-1.126,0.823-1.126c0.275,0,2.582,0.395,5.849,1.688
		C334.353,43.425,337.051,45.277,339.025,46.658"/>
	<path id="path2686_9_" d="M304.203,50.543c-0.124,0.507,8.175,4.4,18.191,7.118c10.813,2.934,12.238,3.44,18.293,3.314
		c-0.618-0.888-1.317-1.604-2.513-2.577c-1.194-0.972-7.001-6.715-11.077-8.911"/>
	<path id="path2686_2_" d="M327.098,49.487c0,0-3.42,0.361-9.763,0.615s-13.102,0.311-13.132,0.44"/>
	<path id="path2688_2_" d="M337.477,42.73c0,0,3.252-0.592,6.959,0.126c3.707,0.719,10.073,3.044,10.451,2.803
		c0.659-0.423-4.808-11.234-9.785-17.354c-4.442-5.461-10.838-11.01-15.573-13.121c-0.515-0.229,3.994,7.645,5.847,12.839
		c1.854,5.195,1.544,7.823,1.544,7.823s-4.426-0.253-7.557,0.507C326.232,37.114,331.298,41.337,337.477,42.73"/>
	<path id="path2690_2_" d="M354.588,65.229c-0.016-0.018-0.324-0.276-0.514-0.553c-0.01-0.177-0.045-0.562-0.188-0.693
		c-0.029-0.173-0.293-0.236-0.593-0.232c-0.517,0.006-0.655-0.161-1.389-0.042c-0.734,0.119-2.256,0.442-6.26,0.428
		c0,0-5.447,0.029-8.173-0.167c-2.727-0.196-3.927-0.407-4.145-0.263c-0.216,0.141-4.271,3.198-6.618,5.625
		c-2.345,2.427-4.254,4.933-5.412,6.371c-1.157,1.436-1.64,2.277-1.61,2.39c0.016,0.057,0.295,0.493,0.331,0.586
		c0.058,0.139,2.179-0.106,3.894-0.151c1.717-0.046,3.977-0.069,4.058-0.182s1.276-3.198,3.647-5.82
		c2.372-2.622,5.015-5.219,5.287-5.193c0.273,0.025,6.808-0.183,9.856-0.493c3.047-0.311,7.02-0.743,7.263-0.912
		C354.266,65.756,354.78,65.451,354.588,65.229"/>
	<path id="path2708_2_" fill="#FFFFFF" d="M331.238,68.242c-1.079-0.069-1.919-0.099-2.567-0.106
		c-0.601,0.538-1.177,1.084-1.677,1.601c-0.114,0.118-0.227,0.236-0.338,0.354c1.627-0.188,4.387-0.431,6.169-0.18
		c0.319-0.351,0.644-0.701,0.964-1.039C333.302,68.582,332.514,68.323,331.238,68.242"/>
	<path id="path2710_2_" fill="#FFFFFF" d="M326.39,70.374c-0.537,0.576-1.047,1.149-1.526,1.706
		c0.675-0.067,1.654-0.128,3.122-0.174c1.253-0.038,2.22,0.038,2.872,0.221c0.084-0.105,0.161-0.194,0.227-0.269l0.031-0.033
		c0.442-0.503,0.963-1.09,1.505-1.689C330.88,69.938,328.175,70.159,326.39,70.374"/>
	<path id="path2712_2_" fill="#FFFFFF" d="M327.993,72.159c-1.67,0.052-2.701,0.124-3.37,0.201
		c-0.173,0.205-0.342,0.404-0.508,0.603c0.489-0.084,1.162-0.181,2.069-0.282l0.296-0.033c1.651-0.183,3.23-0.358,4.118-0.188
		c0.032-0.043,0.062-0.084,0.094-0.122C330.162,72.207,329.322,72.117,327.993,72.159"/>
	<path id="path2714_2_" fill="#FFFFFF" d="M325.583,75.521c1.492-0.066,2.145-0.096,2.966,0.088c0.23-0.406,0.47-0.803,0.707-1.183
		c-0.523-0.214-1.285-0.401-2.367-0.411c-1.39-0.014-2.652,0.008-3.682,0.059c-0.354,0.438-0.684,0.852-0.983,1.231l-0.46,0.574
		c0.893-0.141,2.096-0.281,3.368-0.339L325.583,75.521z"/>
	<path id="path2716_2_" fill="#FFFFFF" d="M326.505,72.898l-0.294,0.032c-1.098,0.122-1.85,0.241-2.345,0.334
		c-0.153,0.186-0.303,0.369-0.449,0.548c0.993-0.045,2.178-0.063,3.474-0.05c1.147,0.012,1.951,0.212,2.502,0.444
		c0.37-0.579,0.73-1.104,1.04-1.526C329.555,72.559,327.957,72.736,326.505,72.898"/>
	<path id="path2718_2_" fill="#FFFFFF" d="M329.054,67.796c-0.035,0.031-0.071,0.062-0.105,0.094
		c0.61,0.011,1.366,0.043,2.306,0.102c1.191,0.076,2.099,0.31,2.713,0.693c0.07-0.072,0.138-0.145,0.206-0.217
		c-0.176-0.083-0.368-0.16-0.568-0.229C332.896,67.999,330.277,67.854,329.054,67.796"/>
	<path id="path2720_2_" fill="#FFFFFF" d="M331.057,66.104c-0.547,0.445-1.142,0.942-1.73,1.453
		c1.318,0.064,3.661,0.208,4.355,0.444c0.227,0.076,0.458,0.171,0.674,0.278c0.561-0.577,1.078-1.082,1.49-1.431
		c-0.422-0.23-1.119-0.445-2.264-0.586C332.544,66.134,331.717,66.094,331.057,66.104"/>
	<path id="path2722_2_" fill="#FFFFFF" d="M329.514,74.477c0.02,0.115,0.039,0.231,0.059,0.342c0.312-0.487,0.638-0.95,0.973-1.389
		c-0.019-0.12-0.042-0.255-0.064-0.394C330.185,73.448,329.852,73.942,329.514,74.477"/>
	<path id="path2724_2_" fill="#FFFFFF" d="M331.047,72.807c0.129-0.152,0.259-0.305,0.39-0.45c0.017-0.019,0.543-0.602,1.267-1.369
		c-0.016-0.135-0.042-0.309-0.069-0.495c-0.425,0.471-0.872,0.972-1.337,1.5l-0.032,0.037c-0.084,0.094-0.186,0.216-0.301,0.36
		C330.985,72.492,331.016,72.646,331.047,72.807"/>
	<path id="path2726_2_" fill="#FFFFFF" d="M333.996,69.02c0.04,0.156,0.085,0.326,0.127,0.488c0.064-0.068,0.131-0.134,0.195-0.201
		c-0.021-0.167-0.046-0.362-0.071-0.554C334.164,68.84,334.081,68.929,333.996,69.02"/>
	<path id="path2728_2_" fill="#FFFFFF" d="M335.836,67.176c-0.361,0.329-0.826,0.786-1.369,1.351
		c0.021,0.176,0.047,0.372,0.071,0.562c0.469-0.471,0.924-0.911,1.313-1.26C335.848,67.617,335.842,67.383,335.836,67.176"/>
	<path id="path2730_2_" fill="#FFFFFF" d="M329.376,75.133c-0.02-0.115-0.039-0.231-0.058-0.342
		c-0.194,0.314-0.39,0.645-0.576,0.975c0.019,0.118,0.036,0.242,0.055,0.36C328.984,75.786,329.178,75.454,329.376,75.133"/>
	<path id="path2732_2_" fill="#FFFFFF" d="M333.796,69.231c-0.299,0.318-0.616,0.661-0.947,1.024
		c0.023,0.169,0.049,0.344,0.071,0.501c0.314-0.331,0.654-0.688,1.003-1.046C333.878,69.54,333.833,69.372,333.796,69.231"/>
	<path id="path2734_2_" fill="#FFFFFF" d="M330.766,72.647c-0.028,0.037-0.054,0.073-0.081,0.11
		c0.021,0.137,0.045,0.276,0.067,0.411c0.03-0.039,0.06-0.08,0.094-0.119C330.816,72.906,330.788,72.764,330.766,72.647"/>
	<path id="path2736_2_" fill="#F28F20" d="M353.991,65.153c-0.142-0.067-0.354-0.17-0.388-0.453l-0.009-0.176
		c-0.007-0.289-0.024-0.297-0.187-0.296c-0.216,0.003-0.378-0.024-0.519-0.046c-0.226-0.035-0.418-0.067-0.837,0.001l-0.2,0.034
		c-0.78,0.132-2.408,0.41-6.097,0.396c-0.055,0-5.489,0.026-8.192-0.168l-2.473-0.209c-0.782-0.073-1.399-0.13-1.532-0.086
		c-0.119,0.083-1.023,0.759-2.19,1.701c0.614,0.004,1.353,0.049,2.243,0.159c1.111,0.138,1.926,0.36,2.439,0.667
		c0.279-0.221,0.493-0.346,0.608-0.336c0.4,0.028,6.947-0.075,9.945-0.382l5.338-0.529c0.988-0.094,1.253-0.118,1.324-0.147
		l0.02-0.008h0.021c0.204-0.001,0.533-0.021,0.817-0.045C354.086,65.202,354.042,65.178,353.991,65.153"/>
	<path id="path2738_2_" fill="#F28F20" d="M325.594,75.771l-0.45,0.021c-1.442,0.062-2.742,0.233-3.614,0.381
		c-0.764,0.954-1.102,1.48-1.25,1.76c0.44-0.021,1.133-0.061,1.731-0.097l1.945-0.104c1.09-0.031,3.153-0.095,3.597-0.141
		c0.242-0.567,0.543-1.166,0.869-1.756C327.673,75.679,327.039,75.706,325.594,75.771"/>
	<path id="path2740_2_" d="M382.129,41.423c0.095-0.71,0.095-1.38,0.095-1.38s-1.185-0.317-1.889-0.336
		c-0.704-0.017-1.889,0.167-1.889,0.167s-0.659,0.968-0.814,1.384c-0.042,0.105,0.175,1.136,0.175,1.136s-1.015,1.854-1.715,3.228
		c-0.7,1.375-1.851,3.517-3.481,6.116c-1.471,2.343-2.574,4.112-2.574,4.112l0.506,1.2l0.475-0.356l0.121-0.048l0.41,0.036
		c0,0,0.751-0.866,1.716-1.859c0.967-0.992,3.118-4.438,4.496-6.397c1.377-1.959,2.702-4.861,2.702-4.861s0.683-0.073,1.074-0.252
		c0.392-0.18,0.483-0.773,0.483-0.773S382.045,42.051,382.129,41.423"/>
	<path id="path2742_2_" fill="#F28F20" d="M379.503,41.143c0,0,1.437,0.029,1.531,0.03c0.1-0.108,0.396-0.453,0.592-0.811
		c-0.298-0.036-0.903-0.102-1.4-0.114c-0.563-0.015-1.314,0.176-1.537,0.237c-0.129,0.177-0.359,0.509-0.507,0.784
		C378.521,41.193,378.966,41.135,379.503,41.143"/>
	<path id="path2744_2_" fill="#F28F20" d="M371.299,55.04l0.182-0.175l-0.09,0.269c0,0.015-0.023,0.13-0.06,0.21
		c0.086-0.025,0.352-0.163,0.352-0.163s-0.416,0.756-0.531,0.916c0.032-0.021,0.397-0.316,0.43-0.337
		c0.396-0.278,2.575-3.311,4.549-6.621c0.912-1.531,3.062-5.333,4.248-7.188c-0.21-0.027-0.522-0.044-0.795-0.06
		c-0.444-0.024-0.683,0.074-0.896,0.16l-0.257,0.09c-0.094,0.106-0.332,0.542-0.332,0.542c-0.007,0.011-0.985,1.828-1.679,3.189
		c-0.678,1.33-2.05,3.812-3.389,6.033c-0.877,1.455-1.875,2.866-2.565,3.646C370.604,55.431,371.216,55.119,371.299,55.04"/>
	<path id="path2746_2_" fill="#F28F20" d="M371.112,55.59c-0.07,0.021-0.137,0.04-0.145,0.043c-0.21,0.18-0.485,0.238-0.587,0.28
		c0.033,0.071,0.269,0.557,0.304,0.632c0.054-0.041,0.157-0.118,0.188-0.141c-0.021-0.062-0.046-0.136-0.075-0.229
		C370.904,55.987,371.021,55.717,371.112,55.59"/>
	<path id="path2748_2_" d="M352.026,68.74c0,0-0.707,0.095-0.714,0.014c-0.009-0.082-0.042-0.344-0.172-0.528
		c-0.128-0.185-0.264-0.288-0.264-0.288s0.212-0.479,0.878-0.732c0.668-0.254,1.028-0.422,1.083-0.351
		c0.055,0.068-0.062,0.39-0.062,0.39S352.226,68.692,352.026,68.74"/>
	<path id="path2750_2_" fill="#F28F20" d="M352.48,67.157c-0.073,0.028-0.151,0.059-0.23,0.089l-0.4,0.156
		c-0.376,0.144-0.576,0.362-0.672,0.495c0.055,0.054,0.115,0.123,0.177,0.212c0.052,0.074,0.186,0.299,0.214,0.38
		C351.862,68.09,352.413,67.426,352.48,67.157"/>
	<path id="path2752_2_" d="M373.053,58.601c0,0,0.614-0.358,0.566-0.439c-0.049-0.083-0.201-0.352-0.227-0.606
		c-0.026-0.256,0.01-0.438,0.01-0.438s-0.49-0.316-1.183-0.132c-0.693,0.185-1.088,0.256-1.082,0.354
		c0.005,0.101,0.095,0.371,0.095,0.371S372.864,58.683,373.053,58.601"/>
	<path id="path2754_2_" fill="#F28F20" d="M371.623,57.4c0.075-0.022,0.157-0.042,0.239-0.063l0.419-0.107
		c0.389-0.104,0.693-0.025,0.859,0.039c-0.005,0.086-0.007,0.188,0.007,0.311c0.01,0.104,0.035,0.203,0.065,0.298
		C372.713,57.687,372.077,57.47,371.623,57.4"/>
	<path id="path2756_2_" d="M355.058,68.266c-0.138-0.203-0.468-0.303-0.599-0.656c-0.062-0.159-0.101-0.361-0.236-0.43
		c0,0-0.538,0.804-0.282,2.002c0.548,0.131,1.104-0.419,1.104-0.419S355.154,68.408,355.058,68.266"/>
	<path id="path2758_2_" fill="#F28F20" d="M354.703,68.643l0.034-0.03l-0.03-0.044c-0.112-0.17-0.274-0.433-0.411-0.745
		l-0.048-0.107l-0.031,0.102c-0.071,0.233-0.148,0.606-0.105,1.053l0.007,0.067l0.2-0.055
		C354.441,68.833,354.57,68.753,354.703,68.643"/>
	<path id="path2628_1_" fill="#FFFFFF" d="M355.058,68.266c-0.138-0.203-0.468-0.303-0.599-0.656
		c-0.062-0.159-0.101-0.361-0.236-0.43c0,0-0.538,0.804-0.282,2.002c0.548,0.131,1.104-0.419,1.104-0.419
		S355.154,68.408,355.058,68.266 M351.755,67.205c-0.666,0.253-0.878,0.732-0.878,0.732s0.135,0.104,0.264,0.288
		c0.13,0.185,0.163,0.446,0.172,0.528c0.007,0.081,0.714-0.014,0.714-0.014c0.2-0.049,0.75-1.496,0.75-1.496s0.116-0.321,0.062-0.39
		C352.783,66.783,352.423,66.951,351.755,67.205"/>
	<path id="path2630_1_" d="M370.679,30.303l-3.876,0.755c-0.155,0.03-15.659,3.014-25.434,3.014c-9.652,0-24.858-2.892-25.501-3.015
		l-4.925-0.917l30.393,47.965l30.428-48.044L370.679,30.303z"/>
	<path id="path2632_1_" fill="#F28F20" d="M367.026,32.27c-0.644,0.124-15.854,3.036-25.657,3.036
		c-9.763,0-25.073-2.912-25.72-3.035l-2.164-0.418l27.851,43.356l27.852-43.359L367.026,32.27z"/>
	<path id="path2634_1_" fill="#05535D" d="M367.093,32.638L367.093,32.638c-0.643,0.125-15.875,3.043-25.724,3.043
		c-9.797,0-25.145-2.919-25.793-3.043l-1.312-0.254l27.071,42.143l27.072-42.145L367.093,32.638z"/>
	<path id="path2636_1_" fill="#FFFFFF" d="M366.227,33.712c-2.578,0.471-15.885,2.815-24.857,2.815
		c-8.969,0-22.24-2.408-24.812-2.89l-0.316-0.06l25.095,39.04l25.206-38.963L366.227,33.712z"/>
	<path id="path2638_1_" d="M312.517,31.168L323.45,48.2c0,0-0.805-6.929,3.044-8.665c3.851-1.737,8.47-5.132,8.47-5.132
		L312.517,31.168z"/>
	<path id="path2640_1_" fill="#FFFFFF" d="M364.264,41.209c-4.094,1.716-5.062,2.271-5.349,2.648c0,0-0.009,0.013-0.012,0.018
		c-2.974-2.54-6.264-4.982-9.318-6.908c0,0,1.999-0.077,1.611-0.319c-0.458-0.953-1.051-1.961-1.758-3.042
		c-1.178,0-5.627,0.466-8.069,0.466c-1.149,0-2.377-0.042-3.648-0.114c0.103,0.231,0.192,0.455,0.264,0.671
		c-0.761,0.058-2.689,0.49-3.229,0.56c-0.637,0.083-1.726,0.32-2.564,0.564c-7.106,1.48-9.608,4.748-9.72,4.936l0.112,0.22
		l0.061,0.356c-0.006,0.051,1.018,0.093,1.018,0.75c0,1.531,0.922,4.827,2.234,7.962c-0.737,0.064,4.323,9.403,3.492,9.382
		l0.618,0.866c4.689,1.178,6.335,1.344,10.69,1.252c0,0,0.238-0.004,0.477-0.01c1.124,0.721,2.394,1.531,3.634,2.266
		c0.745,0.441,1.728,1.059,2.769,1.713c0.44,0.277,1.742-0.298,2.151-0.045c0,0,15.044-23.622,15.14-24.45
		C364.867,40.951,364.457,41.129,364.264,41.209"/>
	<path id="path2642_1_" fill="#05535D" d="M323.981,49.305c0.082,0.216,0.287,0.555,0.447,0.926c1.291,0,2.229-0.218,3.053-0.247
		c0,0,3.61,3.664,3.684,2.331s-2.233-4.055-4.301-3.755C324.796,48.86,323.696,48.341,323.981,49.305"/>
	<path id="path2644_1_" d="M371.183,60.701c-0.878-1.915-1.009-2.298-1.009-2.298s-0.748-3.327-1.353-4.059
		c-0.604-0.732-1.647-1.183-1.647-1.183s-0.115-0.147-0.325-0.406c0.922-1.586,2.452-4.415,3.778-7.787
		c2.06-5.237,2.924-7.475,2.226-7.222c-0.701,0.253-5.478,2.703-8.403,3.928c-2.924,1.225-4.859,2.112-5.147,2.491
		c-0.128,0.17-0.215,0.312-0.31,0.439c-2.785-2.414-6.192-5.022-9.663-7.21c-4.559-2.872-5.161-3.153-7.305-3.322
		c-2.141-0.169-5.928,0.053-7.753,0.291c-0.693,0.091-1.453,0.275-2.161,0.481c-7.001,1.447-9.639,5.843-9.639,5.843
		s-0.419,4.138,1.51,8.616c1.289,0,2.307-0.196,3.13-0.225c4.446,2.613,3.849,3.781,2.473,4.509
		c2.076,1.489,5.529,4.263,6.173,4.476c1.03,0.342,2.042,0.789,2.543,1.052c1.358,0.719,4.117,2.618,6.753,4.182
		c2.637,1.562,8.111,5.238,9.389,5.449c1.276,0.212,3.092,0.517,4.08,0.474c0.987-0.041,1.577-0.275,1.577-0.275
		s1.34,0.395,2.657,0.395s2.271-0.509,2.271-0.509s0.988,0.591,3.129,0.761c0,0,1.403,0.114,2.722,0.097
		c1.361,0.03,2.351-0.202,2.504-0.389C373.63,68.994,372.062,62.616,371.183,60.701"/>
	<path id="path2646_1_" fill="#FFFFFF" d="M360.492,68.025c-1.046,0.001-2.924,0.003-3.681-0.133l-0.332-0.058l0.291-0.175
		c0.433-0.264,0.93-0.573,1.247-0.826c-1.226,0.051-3.212-0.014-3.809-0.167l-0.219-0.055l0.166-0.159
		c0.161-0.153,0.4-0.345,0.655-0.547c0.272-0.217,0.565-0.452,0.771-0.65c-0.895,0.098-2.246,0.208-2.91,0.182l-0.272-0.01
		l0.234-0.255c0.198-0.216,0.571-0.624,0.751-0.959c-0.01,0.002-0.038,0.007-0.038,0.007c-0.725,0.125-1.715,0.298-2.132,0.283
		l-0.229-0.009l0.132-0.191c0.187-0.27,0.376-0.552,0.502-0.763c-0.092,0.017-0.187,0.037-0.187,0.037
		c-0.522,0.109-1.173,0.247-1.522,0.137l-0.167-0.052l0.104-0.144c0.199-0.279,0.281-0.47,0.32-0.599
		c-0.384,0.099-1.002,0.219-1.35,0.072l-0.171-0.07l0.13-0.136c0.101-0.102,0.188-0.267,0.24-0.405
		c-1.481-0.015-2.331,0.24-2.331,0.24c2.307,0.085,4.639,3.577,5.243,4.224c0.605,0.646,2.417,1.492,4.696,1.745
		c1.733,0.192,2.947-0.035,3.297-0.115C360.108,68.354,360.298,68.205,360.492,68.025"/>
	<path id="path2648_1_" fill="#FFFFFF" d="M358.602,65.775c-2.498-1.322-4.009-2.533-7.027-3.125
		c-0.866-0.17-1.639-0.244-2.298-0.265c-0.044,0.143-0.118,0.293-0.197,0.413c0.317,0.038,0.812-0.057,1.216-0.176l0.157-0.045
		v0.168c0,0.115-0.054,0.363-0.294,0.748c0.327,0.021,0.832-0.082,1.225-0.166l0.678-0.132l-0.093,0.22
		c-0.07,0.166-0.255,0.455-0.507,0.826c0.478-0.035,1.281-0.173,1.845-0.271l0.454-0.079l-0.054,0.191
		c-0.095,0.353-0.469,0.793-0.747,1.104c0.736-0.006,1.989-0.11,2.921-0.22l0.269-0.03l-0.153,0.228
		c-0.167,0.253-0.606,0.604-1.033,0.94c-0.163,0.132-0.311,0.251-0.443,0.362c0.817,0.119,2.748,0.174,3.831,0.098l0.3-0.02
		l-0.198,0.23c-0.21,0.243-0.719,0.584-1.248,0.912c0.883,0.086,2.443,0.086,3.339,0.085l0.563-0.001l-0.211,0.217
		c-0.097,0.1-0.306,0.311-0.582,0.522c0.412,0.083,1.174,0.229,1.638,0.249c0.77,0.031,1.676,0.112,2.637-0.112
		C363.241,68.029,361.101,67.099,358.602,65.775"/>
	<path id="path2650_1_" fill="#05535D" d="M338.724,42.547c0,0,1.428,1.07,2.911,3.041c1.482,1.971,2.471,3.492,2.196,3.661
		s-1.373-0.339-1.373-0.339s2.389,1.517,4.585,3.488c2.195,1.971,3.321,3.101,3.321,3.101s3.57-0.057,3.954,0.844
		c0.385,0.902,0.55,1.296,0.824,1.803c0.274,0.506,1.978,3.041,2.196,3.041c0.22,0,0.884-0.003,1.049-0.173s0.434-0.729,0.434-0.729
		s0.221,1.239-0.22,1.858c0.434,0.34,4.506,3.026,8.049,4.557c3.084,1.33,5.852,2.409,6.126,2.127
		c0.273-0.28-1.217-5.896-2.094-7.81c-0.879-1.914-1.011-2.298-1.011-2.298s-0.747-3.327-1.352-4.059
		c-0.603-0.733-1.646-1.183-1.646-1.183s-2.69-3.442-5.766-6.37c-3.074-2.928-7.523-6.525-12.08-9.397
		c-4.559-2.872-5.161-3.153-7.304-3.322c-2.141-0.169-5.545,0.162-7.357,0.5c-1.812,0.338-4.229,1.239-4.229,1.239
		s2.472,1.183,5.052,3.266L338.724,42.547z"/>
	<path id="path2652_1_" fill="#F28F20" d="M352.589,57.497c0,0,0.96,0.901,1.537,1.745c0.577,0.846,1.538,2.395,1.538,2.395
		s-1.291-0.591-1.647-0.789c-0.355-0.197-0.658-0.423-0.658-0.423s-0.412-0.956-0.522-1.547
		C352.727,58.286,352.589,57.497,352.589,57.497"/>
	<path id="path2654_1_" fill="#05535D" d="M345.785,54.915l0.652,0.921c0,0-0.714,2.976-0.628,3.861
		C345.81,59.697,345.283,57.568,345.785,54.915"/>
	<path id="path2656_1_" fill="#05535D" d="M344.191,53.403l0.651,1.058c0,0-0.598,3.294-0.446,4.412
		C344.396,58.873,343.691,56.445,344.191,53.403"/>
	<path id="path2658_1_" fill="#05535D" d="M342.614,52.026l0.652,0.92c0,0-0.515,3.449-0.362,4.929
		C342.904,57.875,342.099,55.277,342.614,52.026"/>
	<path id="path2684_1_" fill="#05535D" d="M339.025,46.658c0,0-5.683-3.66-9.416-4.702c-3.734-1.042-4.063-1.184-4.284-1.014
		c-0.22,0.169-0.851,0.647-0.851,0.647s0.549-1.126,0.823-1.126c0.275,0,2.582,0.395,5.849,1.688
		C334.353,43.425,337.051,45.277,339.025,46.658"/>
	<path id="path2686_7_" d="M304.203,50.543c-0.124,0.507,8.175,4.4,18.191,7.118c10.813,2.934,12.238,3.44,18.293,3.314
		c-0.618-0.888-1.317-1.604-2.513-2.577c-1.194-0.972-7.001-6.715-11.077-8.911"/>
	<path id="path2686_1_" d="M327.098,49.487c0,0-3.42,0.361-9.763,0.615s-13.102,0.311-13.132,0.44"/>
	<path id="path2688_1_" d="M337.477,42.73c0,0,3.252-0.592,6.959,0.126c3.707,0.719,10.073,3.044,10.451,2.803
		c0.659-0.423-4.808-11.234-9.785-17.354c-4.442-5.461-10.838-11.01-15.573-13.121c-0.515-0.229,3.994,7.645,5.847,12.839
		c1.854,5.195,1.544,7.823,1.544,7.823s-4.426-0.253-7.557,0.507C326.232,37.114,331.298,41.337,337.477,42.73"/>
	<path id="path2690_1_" d="M354.588,65.229c-0.016-0.018-0.324-0.276-0.514-0.553c-0.01-0.177-0.045-0.562-0.188-0.693
		c-0.029-0.173-0.293-0.236-0.593-0.232c-0.517,0.006-0.655-0.161-1.389-0.042c-0.734,0.119-2.256,0.442-6.26,0.428
		c0,0-5.447,0.029-8.173-0.167c-2.727-0.196-3.927-0.407-4.145-0.263c-0.216,0.141-4.271,3.198-6.618,5.625
		c-2.345,2.427-4.254,4.933-5.412,6.371c-1.157,1.436-1.64,2.277-1.61,2.39c0.016,0.057,0.295,0.493,0.331,0.586
		c0.058,0.139,2.179-0.106,3.894-0.151c1.717-0.046,3.977-0.069,4.058-0.182s1.276-3.198,3.647-5.82
		c2.372-2.622,5.015-5.219,5.287-5.193c0.273,0.025,6.808-0.183,9.856-0.493c3.047-0.311,7.02-0.743,7.263-0.912
		C354.266,65.756,354.78,65.451,354.588,65.229"/>
	<path id="path2708_1_" fill="#FFFFFF" d="M331.238,68.242c-1.079-0.069-1.919-0.099-2.567-0.106
		c-0.601,0.538-1.177,1.084-1.677,1.601c-0.114,0.118-0.227,0.236-0.338,0.354c1.627-0.188,4.387-0.431,6.169-0.18
		c0.319-0.351,0.644-0.701,0.964-1.039C333.302,68.582,332.514,68.323,331.238,68.242"/>
	<path id="path2710_1_" fill="#FFFFFF" d="M326.39,70.374c-0.537,0.576-1.047,1.149-1.526,1.706
		c0.675-0.067,1.654-0.128,3.122-0.174c1.253-0.038,2.22,0.038,2.872,0.221c0.084-0.105,0.161-0.194,0.227-0.269l0.031-0.033
		c0.442-0.503,0.963-1.09,1.505-1.689C330.88,69.938,328.175,70.159,326.39,70.374"/>
	<path id="path2712_1_" fill="#FFFFFF" d="M327.993,72.159c-1.67,0.052-2.701,0.124-3.37,0.201
		c-0.173,0.205-0.342,0.404-0.508,0.603c0.489-0.084,1.162-0.181,2.069-0.282l0.296-0.033c1.651-0.183,3.23-0.358,4.118-0.188
		c0.032-0.043,0.062-0.084,0.094-0.122C330.162,72.207,329.322,72.117,327.993,72.159"/>
	<path id="path2714_1_" fill="#FFFFFF" d="M325.583,75.521c1.492-0.066,2.145-0.096,2.966,0.088c0.23-0.406,0.47-0.803,0.707-1.183
		c-0.523-0.214-1.285-0.401-2.367-0.411c-1.39-0.014-2.652,0.008-3.682,0.059c-0.354,0.438-0.684,0.852-0.983,1.231l-0.46,0.574
		c0.893-0.141,2.096-0.281,3.368-0.339L325.583,75.521z"/>
	<path id="path2716_1_" fill="#FFFFFF" d="M326.505,72.898l-0.294,0.032c-1.098,0.122-1.85,0.241-2.345,0.334
		c-0.153,0.186-0.303,0.369-0.449,0.548c0.993-0.045,2.178-0.063,3.474-0.05c1.147,0.012,1.951,0.212,2.502,0.444
		c0.37-0.579,0.73-1.104,1.04-1.526C329.555,72.559,327.957,72.736,326.505,72.898"/>
	<path id="path2718_1_" fill="#FFFFFF" d="M329.054,67.796c-0.035,0.031-0.071,0.062-0.105,0.094
		c0.61,0.011,1.366,0.043,2.306,0.102c1.191,0.076,2.099,0.31,2.713,0.693c0.07-0.072,0.138-0.145,0.206-0.217
		c-0.176-0.083-0.368-0.16-0.568-0.229C332.896,67.999,330.277,67.854,329.054,67.796"/>
	<path id="path2720_1_" fill="#FFFFFF" d="M331.057,66.104c-0.547,0.445-1.142,0.942-1.73,1.453
		c1.318,0.064,3.661,0.208,4.355,0.444c0.227,0.076,0.458,0.171,0.674,0.278c0.561-0.577,1.078-1.082,1.49-1.431
		c-0.422-0.23-1.119-0.445-2.264-0.586C332.544,66.134,331.717,66.094,331.057,66.104"/>
	<path id="path2722_1_" fill="#FFFFFF" d="M329.514,74.477c0.02,0.115,0.039,0.231,0.059,0.342c0.312-0.487,0.638-0.95,0.973-1.389
		c-0.019-0.12-0.042-0.255-0.064-0.394C330.185,73.448,329.852,73.942,329.514,74.477"/>
	<path id="path2724_1_" fill="#FFFFFF" d="M331.047,72.807c0.129-0.152,0.259-0.305,0.39-0.45c0.017-0.019,0.543-0.602,1.267-1.369
		c-0.016-0.135-0.042-0.309-0.069-0.495c-0.425,0.471-0.872,0.972-1.337,1.5l-0.032,0.037c-0.084,0.094-0.186,0.216-0.301,0.36
		C330.985,72.492,331.016,72.646,331.047,72.807"/>
	<path id="path2726_1_" fill="#FFFFFF" d="M333.996,69.02c0.04,0.156,0.085,0.326,0.127,0.488c0.064-0.068,0.131-0.134,0.195-0.201
		c-0.021-0.167-0.046-0.362-0.071-0.554C334.164,68.84,334.081,68.929,333.996,69.02"/>
	<path id="path2728_1_" fill="#FFFFFF" d="M335.836,67.176c-0.361,0.329-0.826,0.786-1.369,1.351
		c0.021,0.176,0.047,0.372,0.071,0.562c0.469-0.471,0.924-0.911,1.313-1.26C335.848,67.617,335.842,67.383,335.836,67.176"/>
	<path id="path2730_1_" fill="#FFFFFF" d="M329.376,75.133c-0.02-0.115-0.039-0.231-0.058-0.342
		c-0.194,0.314-0.39,0.645-0.576,0.975c0.019,0.118,0.036,0.242,0.055,0.36C328.984,75.786,329.178,75.454,329.376,75.133"/>
	<path id="path2732_1_" fill="#FFFFFF" d="M333.796,69.231c-0.299,0.318-0.616,0.661-0.947,1.024
		c0.023,0.169,0.049,0.344,0.071,0.501c0.314-0.331,0.654-0.688,1.003-1.046C333.878,69.54,333.833,69.372,333.796,69.231"/>
	<path id="path2734_1_" fill="#FFFFFF" d="M330.766,72.647c-0.028,0.037-0.054,0.073-0.081,0.11
		c0.021,0.137,0.045,0.276,0.067,0.411c0.03-0.039,0.06-0.08,0.094-0.119C330.816,72.906,330.788,72.764,330.766,72.647"/>
	<path id="path2736_1_" fill="#F28F20" d="M353.991,65.153c-0.142-0.067-0.354-0.17-0.388-0.453l-0.009-0.176
		c-0.007-0.289-0.024-0.297-0.187-0.296c-0.216,0.003-0.378-0.024-0.519-0.046c-0.226-0.035-0.418-0.067-0.837,0.001l-0.2,0.034
		c-0.78,0.132-2.408,0.41-6.097,0.396c-0.055,0-5.489,0.026-8.192-0.168l-2.473-0.209c-0.782-0.073-1.399-0.13-1.532-0.086
		c-0.119,0.083-1.023,0.759-2.19,1.701c0.614,0.004,1.353,0.049,2.243,0.159c1.111,0.138,1.926,0.36,2.439,0.667
		c0.279-0.221,0.493-0.346,0.608-0.336c0.4,0.028,6.947-0.075,9.945-0.382l5.338-0.529c0.988-0.094,1.253-0.118,1.324-0.147
		l0.02-0.008h0.021c0.204-0.001,0.533-0.021,0.817-0.045C354.086,65.202,354.042,65.178,353.991,65.153"/>
	<path id="path2738_1_" fill="#F28F20" d="M325.594,75.771l-0.45,0.021c-1.442,0.062-2.742,0.233-3.614,0.381
		c-0.764,0.954-1.102,1.48-1.25,1.76c0.44-0.021,1.133-0.061,1.731-0.097l1.945-0.104c1.09-0.031,3.153-0.095,3.597-0.141
		c0.242-0.567,0.543-1.166,0.869-1.756C327.673,75.679,327.039,75.706,325.594,75.771"/>
	<path id="path2740_1_" d="M382.129,41.423c0.095-0.71,0.095-1.38,0.095-1.38s-1.185-0.317-1.889-0.336
		c-0.704-0.017-1.889,0.167-1.889,0.167s-0.659,0.968-0.814,1.384c-0.042,0.105,0.175,1.136,0.175,1.136s-1.015,1.854-1.715,3.228
		c-0.7,1.375-1.851,3.517-3.481,6.116c-1.471,2.343-2.574,4.112-2.574,4.112l0.506,1.2l0.475-0.356l0.121-0.048l0.41,0.036
		c0,0,0.751-0.866,1.716-1.859c0.967-0.992,3.118-4.438,4.496-6.397c1.377-1.959,2.702-4.861,2.702-4.861s0.683-0.073,1.074-0.252
		c0.392-0.18,0.483-0.773,0.483-0.773S382.045,42.051,382.129,41.423"/>
	<path id="path2742_1_" fill="#F28F20" d="M379.503,41.143c0,0,1.437,0.029,1.531,0.03c0.1-0.108,0.396-0.453,0.592-0.811
		c-0.298-0.036-0.903-0.102-1.4-0.114c-0.563-0.015-1.314,0.176-1.537,0.237c-0.129,0.177-0.359,0.509-0.507,0.784
		C378.521,41.193,378.966,41.135,379.503,41.143"/>
	<path id="path2744_1_" fill="#F28F20" d="M371.299,55.04l0.182-0.175l-0.09,0.269c0,0.015-0.023,0.13-0.06,0.21
		c0.086-0.025,0.352-0.163,0.352-0.163s-0.416,0.756-0.531,0.916c0.032-0.021,0.397-0.316,0.43-0.337
		c0.396-0.278,2.575-3.311,4.549-6.621c0.912-1.531,3.062-5.333,4.248-7.188c-0.21-0.027-0.522-0.044-0.795-0.06
		c-0.444-0.024-0.683,0.074-0.896,0.16l-0.257,0.09c-0.094,0.106-0.332,0.542-0.332,0.542c-0.007,0.011-0.985,1.828-1.679,3.189
		c-0.678,1.33-2.05,3.812-3.389,6.033c-0.877,1.455-1.875,2.866-2.565,3.646C370.604,55.431,371.216,55.119,371.299,55.04"/>
	<path id="path2746_1_" fill="#F28F20" d="M371.112,55.59c-0.07,0.021-0.137,0.04-0.145,0.043c-0.21,0.18-0.485,0.238-0.587,0.28
		c0.033,0.071,0.269,0.557,0.304,0.632c0.054-0.041,0.157-0.118,0.188-0.141c-0.021-0.062-0.046-0.136-0.075-0.229
		C370.904,55.987,371.021,55.717,371.112,55.59"/>
	<path id="path2748_1_" d="M352.026,68.74c0,0-0.707,0.095-0.714,0.014c-0.009-0.082-0.042-0.344-0.172-0.528
		c-0.128-0.185-0.264-0.288-0.264-0.288s0.212-0.479,0.878-0.732c0.668-0.254,1.028-0.422,1.083-0.351
		c0.055,0.068-0.062,0.39-0.062,0.39S352.226,68.692,352.026,68.74"/>
	<path id="path2750_1_" fill="#F28F20" d="M352.48,67.157c-0.073,0.028-0.151,0.059-0.23,0.089l-0.4,0.156
		c-0.376,0.144-0.576,0.362-0.672,0.495c0.055,0.054,0.115,0.123,0.177,0.212c0.052,0.074,0.186,0.299,0.214,0.38
		C351.862,68.09,352.413,67.426,352.48,67.157"/>
	<path id="path2752_1_" d="M373.053,58.601c0,0,0.614-0.358,0.566-0.439c-0.049-0.083-0.201-0.352-0.227-0.606
		c-0.026-0.256,0.01-0.438,0.01-0.438s-0.49-0.316-1.183-0.132c-0.693,0.185-1.088,0.256-1.082,0.354
		c0.005,0.101,0.095,0.371,0.095,0.371S372.864,58.683,373.053,58.601"/>
	<path id="path2754_1_" fill="#F28F20" d="M371.623,57.4c0.075-0.022,0.157-0.042,0.239-0.063l0.419-0.107
		c0.389-0.104,0.693-0.025,0.859,0.039c-0.005,0.086-0.007,0.188,0.007,0.311c0.01,0.104,0.035,0.203,0.065,0.298
		C372.713,57.687,372.077,57.47,371.623,57.4"/>
	<path id="path2756_1_" d="M355.058,68.266c-0.138-0.203-0.468-0.303-0.599-0.656c-0.062-0.159-0.101-0.361-0.236-0.43
		c0,0-0.538,0.804-0.282,2.002c0.548,0.131,1.104-0.419,1.104-0.419S355.154,68.408,355.058,68.266"/>
	<path id="path2758_1_" fill="#F28F20" d="M354.703,68.643l0.034-0.03l-0.03-0.044c-0.112-0.17-0.274-0.433-0.411-0.745
		l-0.048-0.107l-0.031,0.102c-0.071,0.233-0.148,0.606-0.105,1.053l0.007,0.067l0.2-0.055
		C354.441,68.833,354.57,68.753,354.703,68.643"/>
</g>
</svg>
