<?xml version="1.0" encoding="UTF-8" standalone="no"?>
<!DOCTYPE svg PUBLIC "-//W3C//DTD SVG 1.1//EN" "http://www.w3.org/Graphics/SVG/1.1/DTD/svg11.dtd">
<svg width="100%" height="100%" viewBox="0 0 80 80" version="1.1" xmlns="http://www.w3.org/2000/svg" xmlns:xlink="http://www.w3.org/1999/xlink" xml:space="preserve" xmlns:serif="http://www.serif.com/" style="fill-rule:evenodd;clip-rule:evenodd;stroke-linejoin:round;stroke-miterlimit:2;">
    <g transform="matrix(0.3783,0,0,0.3783,-17.2958,-73.546)">
        <path d="M66.39,366C107.3,369.58 133.25,381.11 145.88,405C189.12,398 229.11,370.26 229.11,334.52C229.11,286.89 171.41,279.4 169.87,265.52C194.14,274.32 220.87,265.06 233.61,234.78C195.91,231.99 168.31,218.24 156.37,195.04C110.13,203.27 73.14,233.2 73.14,265.52C73.14,312.74 133.83,325.25 140.63,335.26C107.5,322.68 78.93,337 66.39,366Z" style="fill:rgb(0,22,40);fill-rule:nonzero;"/>
    </g>
    <g transform="matrix(0.3783,0,0,0.3783,-17.2958,-73.546)">
        <path d="M138.15,263.06C132.98,257.8 130.82,253.69 130.82,248.25C130.82,242.03 133.82,238.99 133.82,235.5C133.82,232.5 131.94,230.16 128.34,229.45C130.311,227.227 133.102,225.895 136.07,225.76C151.5,225.76 156.07,259.87 188.26,258.64C199.74,257.54 210.58,251.96 217.4,242.18C189.28,238.53 163.6,226.58 151.06,206.27C138.06,208.64 83.48,227.46 84.86,266.82C86.3,307.82 146.99,319.27 163.97,336.89C177.36,350.79 167.97,364.79 159.3,369.89C145.97,335.22 102.16,332.75 84.72,357.78C112.85,361.43 138.52,373.38 151.06,393.69C182.06,387.18 197.06,359.98 191.35,340.36C181.92,307.89 120.72,302.18 104.48,271.77C95.81,254.66 102.94,236.39 118.8,225.77C112.935,233.139 109.736,242.282 109.73,251.7C111.14,253.24 111.73,256.83 111.73,256.91C111.94,258.16 112.31,260.81 111.65,262.44C112.35,264.267 113.238,266.017 114.3,267.66C116.42,268.19 118.81,270.96 118.86,271.02C121.19,273.7 121.56,275.4 121.61,276.02C123.06,277.31 124.61,278.55 126.24,279.76C127.61,279.6 129.69,280.26 131.81,281.61C134.25,283.21 135.46,284.79 135.81,285.97C137.5,286.97 139.25,287.97 141.03,288.89C142.39,288.52 144.64,288.95 146.89,290.11C149.14,291.27 150.82,292.85 151.3,294.18C153.093,295.08 154.893,295.973 156.7,296.86C158.06,296.47 160.33,296.86 162.6,298.02C164.464,298.829 166.005,300.237 166.98,302.02C168.82,303.02 170.65,303.95 172.45,304.93C174.12,304.59 176.79,305.61 178.25,306.47C180.042,307.414 181.471,308.927 182.31,310.77C184.13,311.96 185.89,313.17 187.57,314.43C189.622,314.568 191.561,315.421 193.05,316.84C195.15,318.68 196.24,320.69 196.28,322.1C197.724,323.633 199.06,325.263 200.28,326.98C202,327.41 203.74,329.4 204.71,331.41C206.05,334.33 205.88,336.41 205.48,337.41C207.81,344.68 208.48,353.82 204.69,364.35C204.652,364.476 204.605,364.6 204.55,364.72C212.39,356.19 217.68,345.72 217.24,333.09C215.82,292.09 155.13,280.69 138.15,263.06Z" style="fill:rgb(150,216,216);fill-rule:nonzero;"/>
    </g>
    <g transform="matrix(0.3783,0,0,0.3783,-17.2958,-73.546)">
        <path d="M161.44,267.37C154.51,259.37 150.08,245.25 142.44,239.73C139,251.9 146.15,265.22 161.44,267.37Z" style="fill:rgb(200,16,46);fill-rule:nonzero;"/>
    </g>
    <g transform="matrix(0.3783,0,0,0.3783,-17.2958,-73.546)">
        <path d="M156,381.81C154.65,385.879 153.016,389.849 151.11,393.69C138.57,373.38 112.9,361.43 84.77,357.78C113.78,343.21 143.86,358.54 156,381.81ZM217.4,242.18C188.34,256.75 158.26,241.42 146.17,218.18C147.52,214.111 149.154,210.141 151.06,206.3C138.77,208.53 83.47,227.16 84.86,266.85C86.3,307.85 146.99,319.3 163.97,336.92C177.36,350.82 167.97,364.82 159.3,369.92C158.418,373.941 157.316,377.91 156,381.81C162.32,380.71 181.49,370.56 181.62,351.04C181.79,324.13 147.01,317.04 120.62,300.67C98.92,287.23 94.71,273.89 93.62,265.45C91.03,245.59 105.05,227.45 125.42,218.89C122.974,220.923 120.763,223.224 118.83,225.75C112.965,233.119 109.766,242.262 109.76,251.68C111.17,253.22 111.76,256.81 111.76,256.89C111.97,258.14 112.34,260.79 111.68,262.42C112.38,264.247 113.268,265.997 114.33,267.64C116.45,268.17 118.84,270.94 118.89,271C121.22,273.68 121.59,275.38 121.64,276C123.09,277.29 124.64,278.53 126.27,279.74C127.64,279.58 129.72,280.24 131.84,281.59C134.28,283.19 135.49,284.77 135.84,285.95C137.53,286.95 139.28,287.95 141.06,288.87C142.42,288.5 144.67,288.93 146.92,290.09C149.17,291.25 150.85,292.83 151.33,294.16C153.123,295.06 154.923,295.953 156.73,296.84C158.09,296.45 160.36,296.84 162.63,298C164.494,298.809 166.035,300.217 167.01,302C168.85,303 170.68,303.93 172.48,304.91C174.15,304.57 176.82,305.59 178.28,306.45C180.072,307.394 181.501,308.907 182.34,310.75C184.16,311.94 185.92,313.15 187.6,314.41C189.652,314.548 191.591,315.401 193.08,316.82C195.18,318.66 196.27,320.67 196.31,322.08C197.754,323.613 199.09,325.243 200.31,326.96C202.03,327.39 203.77,329.38 204.74,331.39C206.08,334.31 205.91,336.39 205.51,337.39C207.84,344.66 208.51,353.8 204.72,364.33C214.72,347.33 213.72,330.51 202.58,316.27C179.19,286.51 120.35,282.96 120.58,248.85C120.669,241.622 123.443,234.679 128.36,229.38C130.331,227.157 133.122,225.825 136.09,225.69C151.52,225.69 156.09,259.8 188.28,258.57C199.76,257.47 210.6,251.89 217.42,242.11L217.4,242.18Z" style="fill:rgb(99,159,182);fill-rule:nonzero;"/>
    </g>
</svg>
