<?xml version="1.0" encoding="utf-8"?>
<!DOCTYPE svg PUBLIC "-//W3C//DTD SVG 1.1//EN" "http://www.w3.org/Graphics/SVG/1.1/DTD/svg11.dtd">
<svg version="1.1" id="Layer_1" xmlns="http://www.w3.org/2000/svg" xmlns:xlink="http://www.w3.org/1999/xlink" x="0px" y="0px"
	 width="80px" height="80px" viewBox="0 0 80 80" enable-background="new 0 0 80 80" xml:space="preserve">
<g>
	<g>
		<path fill-rule="evenodd" clip-rule="evenodd" fill="#FFFFFF" d="M14.885,61.198c-2.102-1.404-3.862-2.958-5.366-4.738
			c-2.976-3.522-4.667-7.595-5.025-12.104c-0.005-0.066-0.007-0.205-0.007-0.205l-0.06-0.113v-2.823l0.059-0.111
			c0.002-0.097,0.004-0.156,0.009-0.215c0.277-3.456,1.308-6.752,3.148-10.073c1.79-3.228,4.139-6.125,7.182-8.855
			c3.176-2.85,6.877-5.273,11.001-7.202c3.669-1.715,7.579-2.985,11.621-3.775c1.897-0.371,3.836-0.637,5.761-0.791
			c1.325-0.105,2.638-0.158,3.903-0.158c0.294,0,0.887,0.008,0.889,0.008c0.181,0,0.325-0.019,0.474-0.059L58.965,7.22L80,1.727
			l-4.505,3.583L59.545,17.961l-4.002,3.165l11.992-1.529L41.703,40.827l12.125-2.324l-4.338,3.238L13.504,68.382L0,78.273
			L14.885,61.198z M15.826,52.702c1.229,0.988,2.604,1.865,4.164,2.657l3.478-4.005L15.826,52.702z M43.524,14.359
			c-0.703,0.031-1.416,0.079-2.135,0.145c-1.754,0.16-3.535,0.437-5.295,0.819c-2.273,0.495-4.518,1.171-6.672,2.009
			c-3.91,1.523-7.426,3.513-10.45,5.912c-2.925,2.323-5.15,4.809-6.803,7.6c-1.609,2.72-2.482,5.428-2.667,8.276
			c-0.122,1.873,0.072,3.682,0.577,5.375c0.808,2.711,2.306,5.063,4.581,7.194c0.247,0.23,0.5,0.456,0.76,0.677l19.796-19.152
			l-9.884,1.478L43.524,14.359z"/>
		<path fill-rule="evenodd" clip-rule="evenodd" fill="#002868" d="M64.402,20.949c-8.693,7.145-17.387,14.289-26.081,21.434
			c0.006,0.017,0.011,0.033,0.018,0.051l11.633-2.229c-0.348,0.259-0.693,0.519-1.042,0.775
			c-5.761,4.266-11.521,8.529-17.283,12.795c-6.235,4.616-12.471,9.231-18.706,13.848l-6.648,4.869l8.496-9.747
			c0.506-0.579,1.013-1.159,1.526-1.747c-0.14-0.09-0.269-0.171-0.397-0.253c-2.127-1.359-4.045-2.962-5.677-4.894
			c-2.827-3.347-4.457-7.191-4.805-11.569c-0.013-0.16,0.017-0.33-0.064-0.481c0-0.783,0-1.566,0-2.349
			c0.081-0.151,0.05-0.321,0.064-0.482c0.278-3.461,1.357-6.673,3.034-9.695c1.82-3.282,4.202-6.111,6.986-8.611
			c3.23-2.898,6.844-5.213,10.77-7.049c3.648-1.705,7.451-2.931,11.402-3.704c1.871-0.365,3.755-0.624,5.654-0.775
			c1.562-0.125,3.126-0.178,4.692-0.147c0.253,0.005,0.496-0.025,0.739-0.09c3.497-0.923,6.995-1.842,10.491-2.764l16.706-4.363
			c-0.334,0.266-0.669,0.532-1.004,0.798c-5.316,4.217-10.633,8.435-15.949,12.651l-6.67,5.272 M58.433,21.707 M52.286,22.493
			 M25.931,49.96l-8.151,1.438c6.738-6.519,13.475-13.036,20.213-19.555L27.783,33.37c5.955-6.656,11.91-13.312,17.89-19.996
			c-0.142,0-0.238,0-0.333,0c-1.349,0-2.693,0.065-4.036,0.188c-1.822,0.167-3.625,0.448-5.411,0.837
			c-2.325,0.506-4.596,1.189-6.813,2.052c-3.857,1.502-7.447,3.475-10.694,6.052c-2.792,2.217-5.205,4.778-7.028,7.859
			c-1.589,2.685-2.594,5.562-2.798,8.697c-0.126,1.938,0.058,3.841,0.614,5.705c0.893,2.995,2.575,5.492,4.841,7.614
			c1.788,1.674,3.82,2.987,6.019,4.057c0.147,0.071,0.223,0.059,0.331-0.064 M38.284,42.425l-0.008,0.009l0.012,0.002L38.284,42.425
			z"/>
		<path fill-rule="evenodd" clip-rule="evenodd" fill="#FFFFFF" d="M35.59,68.417c-0.591,0-1.182-0.01-1.773-0.03
			c-1.57-0.053-3.211-0.206-4.875-0.455c-2.341-0.351-4.704-0.91-7.023-1.663l-0.765-0.312l0.067-0.731
			c0.031-0.236,0.152-0.567,0.551-0.801c0,0,4.778-3.55,6.173-4.59c0.239-0.177,0.51-0.267,0.808-0.267
			c0.089,0,0.181,0.008,0.274,0.022c0.72,0.106,1.481,0.192,2.328,0.262c1.037,0.086,2.106,0.128,3.177,0.128
			c0.261,0,0.523-0.002,0.785-0.007c1.862-0.036,3.673-0.183,5.382-0.437c6.773-1.008,12.893-3.377,18.186-7.037
			c2.985-2.066,5.386-4.358,7.338-7.012c1.817-2.469,3.002-4.96,3.624-7.616c0.445-1.91,0.554-3.816,0.318-5.666
			c-0.408-3.205-1.738-6.019-4.065-8.604c-1.334-1.481-2.165-2.053-2.216-2.093c-0.126-0.101,0.721-0.496,0.592-0.595
			c-0.11-0.085-1.195,0.126-1.309,0.042c-0.392-0.289-0.799-0.57-1.226-0.846l-1.254-0.846l0.985-0.816l3.031-2.408
			c0.086-0.069,0.352-0.282,0.747-0.282c0.197,0,0.39,0.052,0.574,0.156c3.386,1.899,6.107,4.151,8.318,6.883
			c2.263,2.797,3.778,5.876,4.504,9.152c0.189,0.853,0.321,1.735,0.396,2.629l0.072,0.028v2.62l-0.057,0.107
			c0,0.099-0.001,0.161-0.006,0.221c-0.275,3.691-1.455,7.21-3.606,10.758c-1.953,3.221-4.479,6.1-7.721,8.804
			c-3.804,3.17-8.238,5.761-13.181,7.7c-2.755,1.082-5.654,1.938-8.617,2.541c-1.902,0.388-3.856,0.672-5.81,0.848
			C38.753,68.346,37.163,68.417,35.59,68.417z"/>
		<path fill-rule="evenodd" clip-rule="evenodd" fill="#002868" d="M78.369,36.989c-0.085,0.157-0.048,0.333-0.06,0.498
			c-0.279,3.741-1.542,7.152-3.473,10.336c-2,3.3-4.565,6.106-7.518,8.568c-3.885,3.236-8.222,5.702-12.92,7.546
			c-2.748,1.079-5.569,1.905-8.462,2.495c-1.887,0.384-3.788,0.66-5.705,0.832c-2.125,0.191-4.253,0.25-6.384,0.179
			c-1.597-0.054-3.186-0.208-4.767-0.445c-2.337-0.35-4.625-0.898-6.871-1.628c-0.017-0.006-0.034-0.014-0.053-0.021
			c0.01-0.078,0.082-0.097,0.129-0.132c2.075-1.541,4.151-3.079,6.223-4.624c0.128-0.095,0.247-0.087,0.378-0.067
			c0.793,0.118,1.589,0.204,2.389,0.27c1.35,0.11,2.703,0.149,4.057,0.124c1.843-0.036,3.678-0.177,5.501-0.447
			c6.734-1.002,12.968-3.309,18.586-7.194c2.901-2.008,5.464-4.379,7.562-7.229c1.772-2.409,3.099-5.035,3.782-7.962
			c0.462-1.979,0.593-3.979,0.336-6c-0.446-3.505-1.953-6.51-4.301-9.117c-1.278-1.42-2.746-2.619-4.348-3.653
			c-0.06-0.038-0.117-0.077-0.193-0.128c0.463-0.368,0.912-0.724,1.361-1.081c0.557-0.443,1.115-0.884,1.672-1.329
			c0.086-0.069,0.15-0.106,0.268-0.041c3.086,1.731,5.814,3.895,8.047,6.654c2.1,2.594,3.592,5.49,4.316,8.762
			c0.217,0.979,0.351,1.968,0.409,2.969c0.002,0.044-0.033,0.104,0.036,0.131C78.369,35.833,78.369,36.411,78.369,36.989z"/>
	</g>
</g>
<path fill-rule="evenodd" clip-rule="evenodd" fill="#FFFFFF" d="M64.206,21.01"/>
</svg>
