<?xml version="1.0" encoding="utf-8"?>
<!-- Generator: Adobe Illustrator 16.0.4, SVG Export Plug-In . SVG Version: 6.00 Build 0)  -->
<!DOCTYPE svg PUBLIC "-//W3C//DTD SVG 1.1//EN" "http://www.w3.org/Graphics/SVG/1.1/DTD/svg11.dtd">
<svg version="1.1" id="Layer_1" xmlns="http://www.w3.org/2000/svg" xmlns:xlink="http://www.w3.org/1999/xlink" x="0px" y="0px"
	 width="80px" height="80px" viewBox="0 0 80 80" enable-background="new 0 0 80 80" xml:space="preserve">
<g id="Layer_2">
	<g>
		<path fill="#FFFFFF" d="M44.512,4.587h24.646V58.6l-0.235,0.271c-0.247,0.28-6.094,6.948-12.684,11.44
			c-6.735,4.594-11.812,6.996-15.518,8.752L40,79.404l-0.717-0.34c-3.707-1.754-8.783-4.158-15.523-8.754
			c-6.588-4.492-12.436-11.16-12.681-11.44L10.842,58.6V4.587h24.511c1.466-1.291,2.949-2.708,3.606-3.343"/>
		<polygon fill="#FFFFFF" points="38.545,1.636 39.938,0.306 40.621,0.911 44.791,4.849 43.479,6.247 		"/>
		<polygon fill="#334049" points="39.941,1.629 44.133,5.546 39.962,1.608 		"/>
	</g>
</g>
<g id="Layer_1_1_">
	<g>
		<path fill="#837150" d="M44.133,5.546c0,0-0.639,1.617-0.68,2.085c0,0,12.002,3.023,14.173,16.259L43.068,31l-0.426-0.001
			l-2.724,9.022V1.65c-0.305,0.297-2.25,2.188-4.107,3.811l0.03,0.082c0.104,0.294,0.461,1.322,0.588,1.917
			c0,0-0.382-0.085-0.852-0.702c0,0-13.62,4.661-14.557,19.09v30.321v0.026c0,0,0.175,0.184,0.503,0.506l0.015,0.015
			c1.686,1.646,7.39,6.904,15.401,11.017L23.746,29.253l12.599,5.958l-0.038,0.152l-0.388,1.593l4.086,13.28
			c0,0-0.383,0.554-0.511,1.021h1.064l4.555-14.43l-1.616-1.574l12.544-5.99l1.628-0.778L44.689,65.729l-1.812,2
			c0,0,7.386-3.105,17.174-12.727V27.21c0,0,0.587-12.574-11.468-19.579h17.559V57.57c0,0-6.526,6.925-11.352,10.104
			C49.967,70.854,43.88,74.541,40,76.13c-3.88-1.589-9.967-5.276-14.791-8.456c-4.824-3.179-11.35-10.104-11.35-10.104V7.631h17.452
			c1.92-1.127,3.59-1.772,4.525-2.085H11.802v52.692c0,0,5.936,6.805,12.499,11.279c6.867,4.684,12.045,7.094,15.699,8.824
			c3.652-1.73,8.832-4.142,15.699-8.824c6.562-4.475,12.499-11.278,12.499-11.278V5.546H44.133z M29.96,58.323
			c0,0-7.278-16.982-7.874-19.791c-0.596-2.81-1.047-5.824-1.047-5.824L29.96,58.323z M37.224,31.126L24.88,25.224l11.208,4.171
			l1.135-16.939L37.224,31.126L37.224,31.126z M58.023,37.17v17.082c0,0-3.89,4.029-8.484,7.689l-1.504,2.072l11.01-31.867
			C59.045,32.147,58.336,36.205,58.023,37.17z"/>
		<path fill="#27241F" d="M19.943,25.394c1.027-9.854,6.88-15.128,11.367-17.763H13.859V57.57c0,0,6.526,6.925,11.35,10.104
			C30.033,70.854,36.12,74.541,40,76.13c3.88-1.589,9.967-5.276,14.79-8.456c4.823-3.179,11.351-10.104,11.351-10.104V7.631H48.583
			C60.639,14.636,60.051,27.21,60.051,27.21v27.794c-9.787,9.62-17.174,12.727-17.174,12.727L56.04,29.266l-12.544,5.99l1.615,1.575
			l-4.553,14.428h-1.064l-4.746-14.43l1.559-1.465l0.038-0.152l-12.599-5.958L36.94,67.73c-8.011-4.112-13.715-9.371-15.401-11.017
			l0,0l-0.015-0.016c-0.329-0.32-0.503-0.505-0.503-0.505v-0.026c-0.491-0.535-1.078-1.207-1.078-1.207V25.394z"/>
		<path fill="#F8F8F2" d="M21.54,56.715l-0.015-0.016L21.54,56.715z"/>
		<path fill="#F8F8F2" d="M19.943,25.394v29.568c0,0,0.588,0.673,1.078,1.207V25.848c0.937-14.429,14.557-19.09,14.557-19.09
			C36.046,7.375,36.43,7.46,36.43,7.46c-0.126-0.596-0.483-1.624-0.588-1.917l-0.006,0.002c-0.935,0.313-2.604,0.958-4.525,2.085
			C26.824,10.266,20.97,15.54,19.943,25.394z"/>
		<path fill="#F8F8F2" d="M39.494,51.259c0.127-0.468,0.511-1.021,0.511-1.021l-4.086-13.28l0.388-1.593l-1.559,1.465L39.494,51.259
			z"/>
		<polygon fill="#F8F8F2" points="44.688,65.729 57.668,28.488 56.04,29.265 42.877,67.73 		"/>
		<polygon fill="#837150" points="39.962,1.608 39.941,1.629 44.133,5.546 		"/>
		<path fill="#334049" d="M42.645,30.999L43.068,31l14.558-7.109c-2.171-13.237-14.173-16.26-14.173-16.26
			c0.041-0.468,0.68-2.085,0.68-2.085L39.941,1.63l-0.022-0.021V1.65v38.372L42.645,30.999z"/>
		<polygon fill="#334049" points="24.88,25.224 37.224,31.126 37.224,12.455 36.089,29.395 		"/>
		<path fill="#334049" d="M49.539,61.941c4.596-3.66,8.484-7.689,8.484-7.689V37.17c0.312-0.965,1.021-5.023,1.021-5.023
			l-11.01,31.867L49.539,61.941z"/>
		<path fill="#334049" d="M22.085,38.532c0.596,2.81,7.874,19.791,7.874,19.791l-8.921-25.616
			C21.039,32.708,21.49,35.723,22.085,38.532z"/>
	</g>
</g>
</svg>
